<?xml version="1.0" encoding="UTF-8"?>
<svg width="48px" height="48px" viewBox="0 0 48 48" version="1.1" xmlns="http://www.w3.org/2000/svg" xmlns:xlink="http://www.w3.org/1999/xlink">
    <title>aai / time / 24-hours</title>
    <g id="aai-/-time-/-24-hours" stroke="none" stroke-width="1" fill="none" fill-rule="evenodd">
        <path d="M24,6.0001 C33.925,6.0001 42,14.0741 42,23.9991 C42,33.9241 33.925,41.9981 24,41.9981 C14.075,41.9981 6,33.9241 6,23.9991 C6,14.0741 14.075,6.0001 24,6.0001 Z M24,8.5341 C15.472,8.5341 8.534,15.4711 8.534,23.9991 C8.534,32.5271 15.472,39.4651 24,39.4651 C32.528,39.4651 39.467,32.5271 39.467,23.9991 C39.467,15.4711 32.528,8.5341 24,8.5341 Z M24.0001,33.8226 C24.5721,33.8226 25.0361,34.6726 25.0361,35.7216 C25.0361,36.7706 24.5721,37.6216 24.0001,37.6216 C23.4281,37.6216 22.9631,36.7706 22.9631,35.7216 C22.9631,34.6726 23.4281,33.8226 24.0001,33.8226 Z M32.0545,32.0556 C32.4605,31.6506 33.1165,31.6506 33.5195,32.0556 C33.9245,32.4606 33.9245,33.1176 33.5215,33.5196 C33.1165,33.9246 32.4605,33.9246 32.0545,33.5196 C31.6515,33.1176 31.6515,32.4606 32.0545,32.0556 Z M14.478,32.0565 C14.884,31.6505 15.54,31.6505 15.942,32.0555 C16.349,32.4605 16.349,33.1175 15.942,33.5215 C15.54,33.9245 14.884,33.9245 14.478,33.5195 C14.075,33.1175 14.075,32.4605 14.478,32.0565 Z M11.5679,22.9628 C12.6219,22.9628 13.4699,23.4268 13.4699,23.9988 C13.4699,24.5708 12.6219,25.0348 11.5679,25.0348 C10.5189,25.0348 9.6699,24.5708 9.6699,23.9988 C9.6699,23.4268 10.5189,22.9628 11.5679,22.9628 Z M36.4277,22.9628 C37.4817,22.9628 38.3297,23.4268 38.3297,23.9988 C38.3297,24.5708 37.4817,25.0348 36.4277,25.0348 C35.3787,25.0348 34.5307,24.5708 34.5307,23.9988 C34.5307,23.4268 35.3787,22.9628 36.4277,22.9628 Z M14.4784,14.4769 C14.8814,14.0729 15.5374,14.0729 15.9424,14.4769 C16.3454,14.8809 16.3454,15.5379 15.9424,15.9409 C15.5374,16.3469 14.8814,16.3469 14.4754,15.9409 C14.0724,15.5379 14.0724,14.8809 14.4784,14.4769 Z M32.0576,14.4779 C32.4606,14.0729 33.1166,14.0729 33.5216,14.4769 C33.9246,14.8809 33.9246,15.5379 33.5216,15.9419 C33.1166,16.3469 32.4606,16.3469 32.0576,15.9409 C31.6516,15.5379 31.6516,14.8809 32.0576,14.4779 Z M24.0001,9.6692 C24.5721,9.6692 25.0361,10.5192 25.0361,11.5682 C25.0361,12.6182 24.5721,13.4682 24.0001,13.4682 C23.4281,13.4682 22.9631,12.6182 22.9631,11.5682 C22.9631,10.5192 23.4281,9.6692 24.0001,9.6692 Z" id="fill---dark" fill="#005B88"></path>
        <path d="M30.7321,18.0737 L30.7321,24.7977 L31.9491,24.7977 L31.9491,26.4527 L30.7321,26.4527 L30.7321,28.7687 L28.6611,28.7687 L28.6611,26.4527 L24.4011,26.4527 L24.4011,24.6057 L28.3571,18.0737 L30.7321,18.0737 Z M19.6475,17.9552 C20.7865,17.9552 21.6935,18.2702 22.3665,18.9012 C23.0405,19.5322 23.3765,20.3672 23.3765,21.4062 C23.3765,22.2032 23.1395,22.9102 22.6635,23.5292 C22.3515,23.9392 21.8375,24.3972 21.1235,24.9022 L20.2765,25.5032 C19.7465,25.8792 19.3825,26.1512 19.1875,26.3192 C18.9925,26.4872 18.8275,26.6822 18.6945,26.9052 L23.3925,26.9052 L23.3925,28.7682 L16.0225,28.7682 C16.0415,27.9972 16.2075,27.2922 16.5195,26.6532 C16.8215,25.9362 17.5335,25.1762 18.6575,24.3752 C19.6315,23.6772 20.2625,23.1772 20.5495,22.8762 C20.9895,22.4062 21.2095,21.8912 21.2095,21.3322 C21.2095,20.8772 21.0835,20.4982 20.8315,20.1962 C20.5795,19.8942 20.2175,19.7442 19.7485,19.7442 C19.1045,19.7442 18.6665,19.9842 18.4345,20.4642 C18.3005,20.7412 18.2215,21.1812 18.1965,21.7852 L16.1415,21.7852 C16.1755,20.8692 16.3415,20.1302 16.6385,19.5652 C17.2035,18.4922 18.2065,17.9552 19.6475,17.9552 Z M28.6611,20.1627 L25.9751,24.7977 L28.6611,24.7977 L28.6611,20.1627 Z" id="fill---light" fill="#0076C2"></path>
    </g>
</svg>