<?xml version="1.0" encoding="UTF-8"?>
<svg width="48px" height="48px" viewBox="0 0 48 48" version="1.1" xmlns="http://www.w3.org/2000/svg" xmlns:xlink="http://www.w3.org/1999/xlink">
    <title>aai / time / time</title>
    <g id="aai-/-time-/-time" stroke="none" stroke-width="1" fill="none" fill-rule="evenodd">
        <path d="M24,5.9998 C33.926,5.9998 42,14.0748 42,23.9988 C42,33.9238 33.926,41.9998 24,41.9998 C14.075,41.9998 6,33.9238 6,23.9988 C6,14.0748 14.075,5.9998 24,5.9998 Z M24,8.5328 C15.471,8.5328 8.533,15.4708 8.533,23.9988 C8.533,32.5268 15.471,39.4658 24,39.4658 C32.529,39.4658 39.467,32.5268 39.467,23.9988 C39.467,15.4708 32.529,8.5328 24,8.5328 Z M24.0001,33.8232 C24.5721,33.8232 25.0361,34.6732 25.0361,35.7212 C25.0361,36.7712 24.5721,37.6222 24.0001,37.6222 C23.4281,37.6222 22.9631,36.7712 22.9631,35.7212 C22.9631,34.6732 23.4281,33.8232 24.0001,33.8232 Z M32.0545,32.0562 C32.4605,31.6512 33.1165,31.6512 33.5195,32.0562 C33.9255,32.4602 33.9255,33.1162 33.5225,33.5212 C33.1165,33.9252 32.4605,33.9252 32.0545,33.5212 C31.6515,33.1162 31.6515,32.4602 32.0545,32.0562 Z M14.4775,32.0562 C14.8835,31.6512 15.5395,31.6512 15.9425,32.0562 C16.3485,32.4602 16.3485,33.1162 15.9425,33.5222 C15.5395,33.9252 14.8835,33.9252 14.4775,33.5212 C14.0745,33.1162 14.0745,32.4602 14.4775,32.0562 Z M11.5669,22.9624 C12.6209,22.9624 13.4699,23.4274 13.4699,23.9984 C13.4699,24.5714 12.6209,25.0344 11.5669,25.0344 C10.5189,25.0344 9.6699,24.5714 9.6699,23.9984 C9.6699,23.4274 10.5189,22.9624 11.5669,22.9624 Z M36.4277,22.9624 C37.4817,22.9624 38.3297,23.4274 38.3297,23.9984 C38.3297,24.5714 37.4817,25.0344 36.4277,25.0344 C35.3787,25.0344 34.5307,24.5714 34.5307,23.9984 C34.5307,23.4274 35.3787,22.9624 36.4277,22.9624 Z M32.0576,14.4771 C32.4606,14.0721 33.1166,14.0721 33.5226,14.4761 C33.9256,14.8811 33.9256,15.5381 33.5226,15.9431 C33.1166,16.3461 32.4606,16.3461 32.0576,15.9411 C31.6516,15.5381 31.6516,14.8811 32.0576,14.4771 Z M14.4774,14.4761 C14.8804,14.0721 15.5364,14.0721 15.9424,14.4761 C16.3454,14.8811 16.3454,15.5381 15.9424,15.9411 C15.5364,16.3461 14.8804,16.3461 14.4754,15.9411 C14.0714,15.5381 14.0714,14.8811 14.4774,14.4761 Z M24.0001,9.6694 C24.5721,9.6694 25.0361,10.5184 25.0361,11.5674 C25.0361,12.6184 24.5721,13.4684 24.0001,13.4684 C23.4281,13.4684 22.9631,12.6184 22.9631,11.5674 C22.9631,10.5184 23.4281,9.6694 24.0001,9.6694 Z" id="fill---dark" fill="#005B88"></path>
        <path d="M24.2927,14.8616 C24.8167,14.8616 25.2417,15.2876 25.2417,15.8126 L25.2418691,23.9376624 C25.7532863,24.1780735 26.1237407,24.6700488 26.1932826,25.2539156 L30.8397,28.0656 C31.2887,28.3386 31.4327,28.9226 31.1597,29.3706 C30.9817,29.6656 30.6677,29.8296 30.3457,29.8296 C30.1797,29.8296 30.0097,29.7856 29.8557,29.6916 L25.3060658,26.9370752 C25.0745379,27.0581999 24.8112299,27.1267 24.5321,27.1267 C23.6071,27.1267 22.8581,26.3777 22.8581,25.4537 C22.8581,24.9952461 23.0424866,24.5796269 23.3412714,24.2771974 L23.3427,15.8126 C23.3427,15.2876 23.7677,14.8616 24.2927,14.8616 Z" id="fill---light" fill="#0076C2"></path>
    </g>
</svg>