<?xml version="1.0" encoding="UTF-8"?>
<svg width="48px" height="48px" viewBox="0 0 48 48" version="1.1" xmlns="http://www.w3.org/2000/svg" xmlns:xlink="http://www.w3.org/1999/xlink">
    <title>aai / circle / arrow</title>
    <g id="aai-/-circle-/-arrow" stroke="none" stroke-width="1" fill="none" fill-rule="evenodd">
        <path d="M24.5003,38.21 C16.3893,38.21 9.7913,31.611 9.7913,23.501 C9.7913,15.39 16.3893,8.791 24.5003,8.791 C32.6103,8.791 39.2103,15.39 39.2103,23.501 C39.2103,31.611 32.6103,38.21 24.5003,38.21 M24.5003,6 C14.8513,6 7.0003,13.851 7.0003,23.501 C7.0003,33.15 14.8513,41.001 24.5003,41.001 C34.1493,41.001 42.0003,33.15 42.0003,23.501 C42.0003,13.851 34.1493,6 24.5003,6" id="fill---dark" fill="#005B88"></path>
        <polygon class="polygon" id="fill---light" fill="#0076C2" points="20.8084 28.2803 25.2434 23.5003 20.8084 18.7203 22.9074 16.4583 29.4294 23.4883 29.4214 23.4973 29.4274 23.5043 29.2504 23.7053 22.9074 30.5423"></polygon>
    </g>
</svg>