<?xml version="1.0" encoding="UTF-8"?>
<svg width="48px" height="48px" viewBox="0 0 48 48" version="1.1" xmlns="http://www.w3.org/2000/svg" xmlns:xlink="http://www.w3.org/1999/xlink">
    <title>aai / circle / cross</title>
    <g id="aai-/-circle-/-cross" stroke="none" stroke-width="1" fill="none" fill-rule="evenodd">
        <path d="M24.5004,38.2103 C16.3894,38.2103 9.7914,31.6113 9.7914,23.5003 C9.7914,15.3893 16.3894,8.7913 24.5004,8.7913 C32.6104,8.7913 39.2104,15.3903 39.2104,23.5003 C39.2104,31.6113 32.6104,38.2103 24.5004,38.2103 M24.5004,6.0003 C14.8514,6.0003 7.0004,13.8513 7.0004,23.5003 C7.0004,33.1493 14.8514,41.0003 24.5004,41.0003 C34.1494,41.0003 42.0004,33.1493 42.0004,23.5003 C42.0004,13.8513 34.1494,6.0003 24.5004,6.0003" id="fill---dark" fill="#004A79"></path>
        <polygon class="polygon" id="fill---light" fill="#0076C2" points="21.0287 30.7874 25.1597 26.6554 29.3337 30.8304 31.5867 28.5764 27.4127 24.4014 31.5437 20.2714 29.0667 17.7944 24.9357 21.9254 20.4727 17.4624 18.2197 19.7164 22.6837 24.1794 18.5517 28.3094"></polygon>
    </g>
</svg>