<?xml version="1.0" encoding="UTF-8"?>
<svg width="48px" height="48px" viewBox="0 0 48 48" version="1.1" xmlns="http://www.w3.org/2000/svg" xmlns:xlink="http://www.w3.org/1999/xlink">
    <title>aai / circle / discount</title>
    <g id="aai-/-circle-/-discount" stroke="none" stroke-width="1" fill="none" fill-rule="evenodd">
        <path d="M24.5004,38.21 C16.3894,38.21 9.7914,31.611 9.7914,23.501 C9.7914,15.39 16.3894,8.791 24.5004,8.791 C32.6114,8.791 39.2094,15.39 39.2094,23.501 C39.2094,31.611 32.6114,38.21 24.5004,38.21 M24.5004,6 C14.8504,6 7.0004,13.851 7.0004,23.501 C7.0004,33.15 14.8504,41.001 24.5004,41.001 C34.1504,41.001 42.0004,33.15 42.0004,23.501 C42.0004,13.851 34.1504,6 24.5004,6" id="fill---dark" fill="#005B88"></path>
        <path d="M23.1927496,33.5666667 L23.1927496,31.2183679 C21.5400817,31.1452034 19.9365586,30.6752622 19,30.1546687 L19.7399796,27.2646713 C20.7762318,27.8331031 22.2323207,28.3508826 23.8330355,28.3508826 C25.265254,28.3508826 26.2242788,27.7838578 26.2242788,26.8214633 C26.2242788,25.880174 25.4351545,25.286416 23.5887159,24.6701458 C20.9475364,23.7795088 19.1474343,22.5455615 19.1474343,20.1466104 C19.1474343,17.9474546 20.6765382,16.2435661 23.3163135,15.7497058 L23.3163135,13.4 L25.7328312,13.4 L25.7328312,15.5752366 C27.3616288,15.625889 28.4708961,15.9959325 29.3330355,16.3913021 L28.59446,19.1828089 C27.9766403,18.8873369 26.8182282,18.3174981 25.0419964,18.3174981 C23.4384733,18.3174981 22.9217513,19.0350729 22.9217513,19.7273216 C22.9217513,20.5194679 23.7824866,21.0611665 25.90554,21.8293937 C28.8401838,22.8649527 30,24.2241238 30,26.4725249 C30,28.6730877 28.4708961,30.5500384 25.6345417,31.0185725 L25.6345417,33.5666667 L23.1927496,33.5666667 Z" id="fill---light" fill="#0076C2"></path>
    </g>
</svg>