<?xml version="1.0" encoding="UTF-8"?>
<svg width="48px" height="48px" viewBox="0 0 48 48" version="1.1" xmlns="http://www.w3.org/2000/svg" xmlns:xlink="http://www.w3.org/1999/xlink">
    <title>aai / circle / plus</title>
    <g id="aai-/-circle-/-plus" stroke="none" stroke-width="1" fill="none" fill-rule="evenodd">
        <path d="M23.5006,38.21 C15.3896,38.21 8.7916,31.611 8.7916,23.501 C8.7916,15.39 15.3896,8.791 23.5006,8.791 C31.6106,8.791 38.2096,15.39 38.2096,23.501 C38.2096,31.611 31.6106,38.21 23.5006,38.21 M23.5006,6 C13.8506,6 6.0006,13.851 6.0006,23.501 C6.0006,33.15 13.8506,41.001 23.5006,41.001 C33.1496,41.001 41.0006,33.15 41.0006,23.501 C41.0006,13.851 33.1496,6 23.5006,6" id="fill---dark" fill="#005B88"></path>
        <polygon class="polygon" id="fill---light" fill="#0076C2" points="16.8947 25.2646 21.9077 25.2636 21.9067 30.2876 25.0937 30.2866 25.0937 25.2636 30.0827 25.2636 30.0837 21.7606 25.0937 21.7606 25.0937 16.7606 21.9067 16.7616 21.9077 21.7616 16.8947 21.7616"></polygon>
    </g>
</svg>