<?xml version="1.0" encoding="UTF-8"?>
<svg width="48px" height="48px" viewBox="0 0 48 48" version="1.1" xmlns="http://www.w3.org/2000/svg" xmlns:xlink="http://www.w3.org/1999/xlink">
    <title>aai / devices / computer</title>
    <g id="aai-/-devices-/-computer" stroke="none" stroke-width="1" fill="none" fill-rule="evenodd">
        <path d="M44.5797,32.5383 C45.3657,32.5383 45.9997,33.1743 45.9997,33.9593 L45.9997,33.9593 L45.5307,36.4673 C45.1897,37.3883 44.8947,37.8873 44.1117,37.8873 L44.1117,37.8873 L3.8897,37.8873 C3.1057,37.8873 2.7057,37.2513 2.4697,36.4673 L2.4697,36.4673 L1.9997,33.9593 C1.9997,33.1743 2.6357,32.5383 3.4197,32.5383 L3.4197,32.5383 Z M26.2567,34.2153 L21.7437,34.2153 C21.2207,34.2153 20.7957,34.6403 20.7957,35.1633 C20.7957,35.6873 21.2207,36.1113 21.7437,36.1113 L21.7437,36.1113 L26.2567,36.1113 C26.7807,36.1113 27.2047,35.6873 27.2047,35.1633 C27.2047,34.6403 26.7807,34.2153 26.2567,34.2153 L26.2567,34.2153 Z M39.8931,8.9999 C41.5081,9.0009 42.8191,10.3099 42.8201,11.9279 L42.8201,11.9279 L42.8201,30.9389 L40.4201,30.9389 L40.4201,11.9279 C40.4191,11.6369 40.1831,11.4009 39.8931,11.3999 L39.8931,11.3999 L8.1071,11.3999 C7.8161,11.4009 7.5811,11.6359 7.5801,11.9279 L7.5801,11.9279 L7.5801,30.9389 L5.1801,30.9389 L5.1811,11.9279 C5.1811,10.3109 6.4911,9.0009 8.1071,8.9999 L8.1071,8.9999 Z" id="fill" fill="#005B88"></path>
    </g>
</svg>