<?xml version="1.0" encoding="UTF-8"?>
<svg width="48px" height="48px" viewBox="0 0 48 48" version="1.1" xmlns="http://www.w3.org/2000/svg" xmlns:xlink="http://www.w3.org/1999/xlink">
    <title>aai / devices / mobile</title>
    <g id="aai-/-devices-/-mobile" stroke="none" stroke-width="1" fill="none" fill-rule="evenodd">
        <path d="M16.476,32.192 L32.01,32.192 L32.01,12.968 L16.476,12.968 L16.476,32.192 Z M24.243,36.979 C23.406,36.979 22.728,36.3 22.728,35.463 C22.728,34.626 23.406,33.949 24.243,33.949 C25.08,33.949 25.76,34.626 25.76,35.463 C25.76,36.3 25.08,36.979 24.243,36.979 L24.243,36.979 Z M31.82,9 L16.667,9 C15.2,9 14,10.2 14,11.667 L14,36.333 C14,37.799 15.2,39 16.667,39 L31.82,39 C33.286,39 34.486,37.799 34.486,36.333 L34.486,11.667 C34.486,10.2 33.286,9 31.82,9 L31.82,9 Z" id="fill" fill="#005B88"></path>
    </g>
</svg>