<?xml version="1.0" encoding="UTF-8"?>
<svg width="48px" height="48px" viewBox="0 0 48 48" version="1.1" xmlns="http://www.w3.org/2000/svg" xmlns:xlink="http://www.w3.org/1999/xlink">
    <title>aai / devices / tablet</title>
    <g id="aai-/-devices-/-tablet" stroke="none" stroke-width="1" fill="none" fill-rule="evenodd">
        <path d="M13.629,35.7 L34.399,35.7 L34.399,11.63 L13.629,11.63 L13.629,35.7 Z M25.422,39.313 C25.422,39.351 25.392,39.379 25.356,39.379 L24.5,39.379 L24.5,38.853 C24.5,38.817 24.47,38.786 24.434,38.786 L24.104,38.786 C24.067,38.786 24.037,38.817 24.037,38.853 L24.037,39.379 L23.137,39.379 C23.102,39.379 23.072,39.351 23.072,39.313 L23.072,38.135 L24.26,37.312 L25.422,38.11 L25.422,39.313 Z M35.325,7 L12.704,7 C10.659,7 9,8.659 9,10.703 L9,37.296 C9,39.341 10.659,41 12.704,41 L35.325,41 C37.37,41 39.029,39.341 39.029,37.296 L39.029,10.703 C39.029,8.659 37.37,7 35.325,7 L35.325,7 Z" id="fill" fill="#005B88"></path>
    </g>
</svg>