<?xml version="1.0" encoding="UTF-8"?>
<svg width="48px" height="48px" viewBox="0 0 48 48" version="1.1" xmlns="http://www.w3.org/2000/svg" xmlns:xlink="http://www.w3.org/1999/xlink">
    <title>aai / user / people</title>
    <g id="aai-/-user-/-people" stroke="none" stroke-width="1" fill="none" fill-rule="evenodd">
        <path d="M37.0174,31.0749 C37.5354,30.6679 38.1824,30.5559 38.7824,30.9179 C39.6094,31.4159 41.0684,32.0299 42.0354,32.3149 C45.1264,33.2269 47.3084,34.2299 47.3084,37.3429 L47.3084,37.3429 L47.3084,39.4349 C47.3084,40.4409 46.4954,41.2569 45.4894,41.2569 L45.4894,41.2569 L36.7624,41.2569 C37.1474,40.6619 37.3774,39.9569 37.3774,39.1949 L37.3774,39.1949 L37.3774,36.8309 C37.3774,35.2939 36.9814,34.0999 36.3604,33.1499 L36.3604,33.1499 Z M32.2349,32.3373 C37.0259,34.3373 31.1229,39.1793 31.9989,39.8053 L6.9539,39.9253 C7.0839,40.9733 0.6679,35.6423 4.9679,33.2653 C8.4499,31.3393 11.7849,29.6653 12.5179,30.4733 C13.9329,32.0293 15.8569,32.9383 18.5869,32.9383 C21.2069,32.9383 23.0429,32.0383 24.4049,30.5313 C25.1379,29.7223 28.5229,30.7863 32.2349,32.3373 Z M32.1434,11.1936 C36.8724,11.1936 39.1434,14.5876 39.1074,18.3796 C39.7994,18.4786 40.2324,19.5606 40.0804,20.8086 C39.9264,22.0666 39.2334,23.0156 38.5344,22.9326 C38.4494,22.9226 38.3684,22.8956 38.2924,22.8526 C37.3084,26.6456 36.0204,29.6136 32.1434,29.6136 C28.5924,29.6136 27.0984,27.2956 26.1814,23.9576 C26.4274,23.3146 26.6304,22.6806 26.7994,22.0906 C28.0314,21.5966 28.9604,20.1916 29.1884,18.3406 C29.3924,16.6566 28.9484,15.2016 28.0684,14.3706 C28.0214,13.7426 27.9214,13.1326 27.7784,12.5466 C28.8564,11.7036 30.2974,11.1936 32.1434,11.1936 Z" id="fill---light" fill="#0076C2"></path>
        <path d="M29.6975,31.189 C28.5925,30.863 26.9215,30.158 25.9725,29.588 C25.1825,29.114 23.8935,29.783 23.6205,30.319 L18.9405,38.174 C18.7325,38.557 18.4765,38.869 18.3695,38.869 C18.2625,38.869 18.0065,38.557 17.7985,38.174 L13.1185,30.32 C12.4705,29.495 11.5375,29.118 10.6935,29.627 C9.7855,30.175 8.1425,30.835 7.0335,31.151 C3.5485,32.132 0.9995,33.396 0.9995,36.947 L0.9995,39.343 C0.9995,40.495 1.9345,41.431 3.0855,41.431 L33.6535,41.431 C34.8055,41.431 35.7385,40.495 35.7385,39.343 L35.7385,36.947 C35.7385,33.383 33.2385,32.235 29.6975,31.189 M11.2135,20.443 C11.2235,20.442 11.2315,20.435 11.2395,20.434 C12.2685,24.884 13.8955,28.096 18.3695,28.096 C22.8095,28.096 24.2855,24.697 25.4105,20.353 C25.4985,20.4 25.5915,20.433 25.6875,20.443 C26.4895,20.541 27.2825,19.453 27.4605,18.012 C27.6335,16.581 27.1375,15.343 26.3455,15.231 C26.3865,10.887 23.7845,7 18.3695,7 C12.9055,7 10.5205,10.868 10.4835,15.252 C9.7385,15.433 9.2745,16.629 9.4425,18.012 C9.6215,19.453 10.4135,20.541 11.2135,20.443" id="fill---dark" fill="#005B88"></path>
    </g>
</svg>