<?xml version="1.0" encoding="UTF-8"?>
<svg width="48px" height="48px" viewBox="0 0 48 48" version="1.1" xmlns="http://www.w3.org/2000/svg" xmlns:xlink="http://www.w3.org/1999/xlink">
    <title>aai / user / person</title>
    <g id="aai-/-user-/-person" stroke="none" stroke-width="1" fill="none" fill-rule="evenodd">
        <path d="M12.2251,40.4258 C12.3611,41.5218 5.6531,35.9468 10.1481,33.4618 C13.7891,31.4488 17.2771,29.6988 18.0431,30.5428 C19.5221,32.1708 21.5351,33.1198 24.3891,33.1198 C27.1281,33.1198 29.0481,32.1798 30.4721,30.6048 C31.2371,29.7578 34.7761,30.8708 38.6581,32.4918 C43.6681,34.5838 37.4961,39.6458 38.4131,40.3008 L12.2251,40.4258 Z" id="fill---light" fill="#0076C2"></path>
        <path d="M36.0058,31.292 C34.8498,30.95 33.1028,30.213 32.1108,29.618 C31.2848,29.122 29.9378,29.82 29.6518,30.382 L24.7578,38.595 C24.5408,38.996 24.2728,39.321 24.1608,39.321 C24.0488,39.321 23.7808,38.996 23.5638,38.595 L18.6708,30.383 C17.9928,29.521 17.0188,29.126 16.1348,29.659 C15.1868,30.231 13.4678,30.922 12.3088,31.251 C8.6648,32.277 5.9998,33.6 5.9998,37.312 L5.9998,39.817 C5.9998,41.021 6.9778,42 8.1808,42 L40.1418,42 C41.3468,42 42.3218,41.021 42.3218,39.817 L42.3218,37.312 C42.3218,33.586 39.7078,32.385 36.0058,31.292 M16.6788,20.056 C16.6888,20.055 16.6978,20.047 16.7058,20.046 C17.7818,24.7 19.4828,28.058 24.1608,28.058 C28.8038,28.058 30.3468,24.503 31.5238,19.961 C31.6138,20.011 31.7118,20.045 31.8128,20.056 C32.6518,20.158 33.4808,19.021 33.6658,17.514 C33.8468,16.018 33.3288,14.723 32.5008,14.606 C32.5438,10.064 29.8228,6 24.1608,6 C18.4478,6 15.9548,10.044 15.9158,14.628 C15.1358,14.817 14.6518,16.068 14.8278,17.514 C15.0148,19.021 15.8418,20.158 16.6788,20.056" id="fill---dark" fill="#005B88"></path>
    </g>
</svg>