<?xml version="1.0" encoding="UTF-8"?>
<svg width="48px" height="48px" viewBox="0 0 48 48" version="1.1" xmlns="http://www.w3.org/2000/svg" xmlns:xlink="http://www.w3.org/1999/xlink">
    <title>aai / products / boat</title>
    <g id="aai-/-products-/-boat" stroke="none" stroke-width="1" fill="none" fill-rule="evenodd">
        <path d="M26.6016,18.0507 L29.4796,17.8377 L30.6736,19.3567 L27.5706,19.7377 L26.6016,18.0507 Z M23.0786,20.2897 L22.3056,18.3687 L25.9106,18.1007 L26.7846,19.8337 L23.0786,20.2897 Z M22.1906,20.6097 L18.6636,22.2727 L16.7476,23.1997 C16.7476,23.1997 16.6746,21.0737 17.6766,20.5617 C18.0146,20.3677 18.5656,20.0827 19.1246,19.8007 C20.0346,19.3197 21.0436,18.7797 21.4926,18.5387 L22.2316,20.5487 L22.1696,20.5777 L22.1906,20.6097 Z M29.3627,22.5205 C38.4117,20.5715 43.9997,21.2125 43.9997,21.2125 C42.0687,23.6195 38.4647,27.3525 37.2867,31.3255 C36.4137,31.8385 35.4017,32.1825 34.4207,32.2465 C32.8357,32.3505 32.6937,31.3515 32.5507,30.3285 C31.5217,31.4295 28.9427,32.6055 27.3567,32.7105 C25.7707,32.8145 25.5537,31.6885 25.4117,30.6665 C24.3827,31.7665 21.8777,33.0705 20.2927,33.1755 C18.7067,33.2795 18.6027,32.1575 18.4607,31.1345 C17.4297,32.2335 14.8127,33.5355 13.2267,33.6415 C11.9067,33.7255 8.2127,34.0115 5.4537,34.1485 L5.4537,34.1485 L3.9997,29.8135 C4.00105484,29.8135 5.46674995,29.5771681 7.02742193,29.3081212 L7.47472971,29.2305364 C8.07143153,29.126372 8.66299032,29.0202742 9.1737,28.9235 C16.8037,27.4755 20.3127,24.4695 29.3627,22.5205 Z M4.5605,14.2521 C4.3955,13.9911 4.5515,13.8881 4.7315,14.1611 C4.91730645,14.4431968 6.85909625,17.4126505 8.81402761,20.4027455 L9.2046727,21.0002495 C11.1536103,23.9812446 12.9995,26.8051 12.9995,26.8051 C12.9995,26.8051 12.6405,26.8771 12.4505,26.9531 C12.0671964,26.3528321 10.3153906,23.5316249 8.55752421,20.6970012 L8.16734122,20.0677613 C6.41605261,17.2432626 4.759625,14.5688679 4.5605,14.2521 Z M29.0756,16.0547 L33.2466,20.4767 C33.2466,20.4767 28.4996,20.7637 22.9596,22.6187 C19.2706,23.8527 15.7546,25.7077 13.4956,26.4807 C13.7476,25.5057 14.7156,21.7057 14.2426,21.3757 C13.8736,21.1187 13.2446,21.3247 12.8456,21.5007 L12.8456,21.5007 L13.3096,20.5197 L20.8996,16.3837 L29.0756,16.0547 Z M33.6507,23.4055 C32.9597,23.1915 32.1527,23.6915 31.8507,24.5215 C31.5467,25.3515 31.8627,26.1995 32.5537,26.4135 C33.2467,26.6275 34.0537,26.1275 34.3557,25.2975 C34.6597,24.4665 34.3437,23.6195 33.6507,23.4055 Z" id="fill" fill="#005B88"></path>
    </g>
</svg>