<?xml version="1.0" encoding="UTF-8"?>
<svg width="48px" height="48px" viewBox="0 0 48 48" version="1.1" xmlns="http://www.w3.org/2000/svg" xmlns:xlink="http://www.w3.org/1999/xlink">
    <title>aai / products / car</title>
    <g id="aai-/-products-/-car" stroke="none" stroke-width="1" fill="none" fill-rule="evenodd">
        <path d="M5.2734,34.5507 C5.2734,34.5507 6.3434,36.0027 11.0944,36.2917 L11.0944,36.2917 L11.0944,38.6667 C11.0944,39.4037 10.4994,39.9997 9.7604,39.9997 L9.7604,39.9997 L6.6074,39.9997 C5.8694,39.9997 5.2734,39.4037 5.2734,38.6667 L5.2734,38.6667 Z M42.7264,34.5507 L42.7264,38.6667 C42.7264,39.4037 42.1294,39.9997 41.3924,39.9997 L41.3924,39.9997 L38.2394,39.9997 C37.5004,39.9997 36.9034,39.4037 36.9034,38.6667 L36.9034,38.6667 L36.9034,36.2917 C36.9034,36.2917 41.1254,36.2057 42.7264,34.5507 L42.7264,34.5507 Z M24.0002,8.0818 C32.0602,8.0818 36.1272,9.4988 36.9272,10.2978 C37.6372,11.0098 40.1812,14.3108 41.9122,20.0198 C42.1382,19.8998 42.3722,19.8998 42.5652,19.7038 C42.6675333,19.6014667 42.7365889,19.4973278 42.7916028,19.3948278 L42.8521106,19.2728349 L42.8521106,19.2728349 L42.906525,19.153738 C43.09493,18.74351 43.3071,18.4108 44.9682,18.4108 C46.2262,18.4108 47.7742,19.7438 47.9872,20.8598 C48.2212513,22.0889282 45.2455932,23.1907402 43.5483973,23.7144944 L43.3920949,23.7618 L43.4051945,23.7780545 C43.5759528,24.0052602 43.710997,24.3406171 43.7388987,24.8355989 L43.7442,25.0288 C43.7442,26.5648 43.5032,31.6348 42.7262,33.5458 C41.1252,35.2008 36.9032,35.3058 36.9032,35.3058 C33.8642,35.5418 29.5822,35.6878 24.0002,35.6878 C18.4172,35.6878 14.1352,35.6518 11.0952,35.4158 C6.88408636,35.1596409 5.56412975,34.1052711 5.31851866,33.8689494 L5.28896342,33.8392642 C5.27817882,33.8278666 5.2732,33.8218 5.2732,33.8218 C4.4962,31.9138 4.2562,27.1468 4.2562,25.6088 C4.2562,24.7761478 4.53639849,24.2108851 4.82877952,23.8477033 L4.84109487,23.8318 L4.79349586,23.8178505 C3.24860237,23.3635656 -0.0114666667,22.2549569 0.000125706771,20.9919827 L0.0132,20.8608 C0.2252,19.7448 1.7732,17.8228 3.0322,17.8228 C4.6142,17.8228 4.88153333,18.2565778 5.0659037,18.7279852 L5.11995763,18.8701401 C5.19199556,19.0601289 5.27046667,19.2498 5.4342,19.4138 C5.6282,19.6088 5.8622,19.7618 6.0872,19.8818 C7.8182,14.1728 10.3632,10.9548 11.0732,10.2428 C11.8722,9.4428 15.9402,8.0818 24.0002,8.0818 Z M24.2174527,27.6173344 L23.7828618,27.6173344 C21.4332781,27.6286182 18.1262,27.8148 18.1262,27.8148 L18.1262,27.8148 L18.1308324,27.8875805 C18.1554469,28.2607383 18.2774222,29.9464667 18.4792,30.0638 C19.0312,30.3888 24.0002,30.4918 24.0002,30.4918 C24.0002,30.4918 28.9692,30.3888 29.5202,30.0638 C29.7482,29.9318 29.8742,27.8148 29.8742,27.8148 C29.8742,27.8148 26.3562,27.6168 24.0002,27.6168 Z M41.5042,25.3068 C41.5042,25.3068 41.3580133,25.3403822 41.104123,25.3996747 L40.8157567,25.4672456 C40.1193533,25.6309545 38.9775595,25.9030403 37.781797,26.2034347 L37.2274999,26.3437967 C35.191478,26.8636899 33.1733556,27.4293778 33.0702,27.6528 C32.7492,28.3478 32.1322,30.0128 32.6942,30.0928 C33.5822,30.2198 39.1752,29.7108 40.2412,29.2948 C41.3092,28.8758 41.5042,25.3068 41.5042,25.3068 Z M6.4952,25.3068 C6.4952,25.3068 6.6902,28.8758 7.7592,29.2948 C8.8252,29.7108 14.4172,30.2198 15.3052,30.0928 C15.8682,30.0128 15.2502,28.3478 14.9292,27.6528 C14.7192,27.1958 6.4952,25.3068 6.4952,25.3068 Z M5.4812,23.2958 C5.4812,23.2958 5.20100151,23.4266355 4.90862048,23.753615 L4.84109487,23.8318 L5.08701986,23.9023401 C5.39709546,23.9896363 5.5872,24.0368 5.5872,24.0368 L5.5932,24.0368 C5.5552,24.0368 5.5172,23.1458 5.4812,23.2958 Z M42.4072,24.0368 L42.4122,24.0368 C42.4122,24.0368 42.8001684,23.9404818 43.3716514,23.7683784 L43.3920949,23.7618 L43.3396256,23.6978214 C43.0271267,23.34612 42.6325969,23.3059265 42.5388472,23.3013735 L42.5182,23.3008 L42.5182,23.3008 C42.4822,23.1498 42.4432,24.0368 42.4072,24.0368 Z M24.0002,9.7508 C15.4912,9.7508 12.7782,11.1428 12.3942,11.4738 C11.9112,11.9578 10.1662,14.6468 8.6782,18.7208 C8.1802,20.0778 8.7622,19.8628 10.6232,20.2228 C11.4253552,20.3792655 14.0213198,20.4777643 16.7156734,20.5391979 L17.3633393,20.553241 C20.2785241,20.6133288 23.1502668,20.6321341 23.8428258,20.6359867 L23.9900386,20.6367532 L23.9900386,20.6367532 L24.0002,20.6368 C24.0002,20.6368 24.003623,20.6367848 24.0103605,20.6367532 L24.1575609,20.6359867 C24.8500624,20.6321341 27.7215756,20.6133288 30.6366617,20.553241 L31.284308,20.5391979 L31.284308,20.5391979 L31.9281811,20.5237315 C34.3824756,20.4616335 36.6388207,20.3667483 37.3772,20.2228 C39.2372,19.8628 39.8192,20.0778 39.3232,18.7208 C37.8352,14.6468 36.0872,11.9578 35.6052,11.4738 C35.2212,11.1428 32.5092,9.7508 24.0002,9.7508 Z" id="fill" fill="#005B88"></path>
    </g>
</svg>