<?xml version="1.0" encoding="UTF-8"?>
<svg width="48px" height="48px" viewBox="0 0 48 48" version="1.1" xmlns="http://www.w3.org/2000/svg" xmlns:xlink="http://www.w3.org/1999/xlink">
    <title>aai / products / caravan</title>
    <g id="aai-/-products-/-caravan" stroke="none" stroke-width="1" fill="none" fill-rule="evenodd">
        <path d="M27.5771,29.6612 C27.4041,29.6612 27.2631,29.5092 27.2631,29.3192 L27.2631,17.0722 C27.2631,16.8842 27.4041,16.7312 27.5771,16.7312 L32.7691,16.7312 C32.9421,16.7312 33.0831,16.8842 33.0831,17.0722 L33.0831,29.3192 C33.0831,29.5092 32.9421,29.6612 32.7691,29.6612 L27.5771,29.6612 Z M25.6921,20.5332 C25.6921,20.7302 25.5311,20.8902 25.3331,20.8902 L13.9161,20.8902 C13.7181,20.8902 13.5571,20.7302 13.5571,20.5332 L13.5571,18.3342 L24.1081,18.3342 L25.5641,16.8182 C25.6411,16.8832 25.6921,16.9802 25.6921,17.0882 L25.6921,20.5332 Z M41.7061,28.3312 L40.6381,28.3312 C40.4751,28.3312 40.3441,28.4262 40.3441,28.5432 L40.3441,29.2182 C40.3441,29.3352 40.4751,29.4302 40.6381,29.4302 L40.8551,29.4302 L40.8551,30.2762 C40.8551,30.6942 40.5151,31.0342 40.0971,31.0342 L36.1681,31.0342 C37.1041,30.3882 37.7191,29.3072 37.7191,28.0832 L37.7821,20.0562 L37.7821,19.3882 C37.7821,18.2582 38.6891,17.3412 39.8141,17.3222 L39.8141,17.3202 C39.9061,17.3202 39.9791,17.2472 39.9791,17.1552 C39.9791,17.1402 39.9741,17.1252 39.9701,17.1112 L39.9751,17.1112 C39.3461,14.7612 36.8041,13.0002 34.2131,13.0002 L34.1991,13.0002 L30.2891,13.0002 L28.8281,13.0002 L21.6921,13.0002 L16.1301,13.0002 C10.9751,13.0002 10.0431,14.3022 7.4181,21.0732 C4.9011,27.5682 5.2021,31.2532 12.7251,31.6332 C12.6961,31.4312 12.6811,31.2222 12.6811,31.0102 C12.6811,28.5872 14.6451,26.6232 17.0681,26.6232 C19.4911,26.6232 21.4551,28.5872 21.4551,31.0102 C21.4551,31.2332 21.4381,31.4522 21.4071,31.6662 L23.8571,31.6662 L28.3861,31.6662 L31.9441,31.6662 L34.1361,31.6662 L40.0971,31.6662 C40.8631,31.6662 41.4871,31.0432 41.4871,30.2762 L41.4871,29.4302 L41.7061,29.4302 C41.8681,29.4302 42.0001,29.3352 42.0001,29.2182 L42.0001,28.5432 C42.0001,28.4262 41.8681,28.3312 41.7061,28.3312 L41.7061,28.3312 Z" id="fill---dark" fill="#005B88"></path>
        <path d="M17.0684,32.8907 C16.0284,32.8907 15.1884,32.0477 15.1884,31.0097 C15.1884,29.9717 16.0284,29.1297 17.0684,29.1297 C18.1064,29.1297 18.9474,29.9717 18.9474,31.0097 C18.9474,32.0477 18.1064,32.8907 17.0684,32.8907 M17.0684,27.4987 C15.1304,27.4987 13.5574,29.0727 13.5574,31.0097 C13.5574,32.9487 15.1304,34.5197 17.0684,34.5197 C19.0064,34.5197 20.5774,32.9487 20.5774,31.0097 C20.5774,29.0727 19.0064,27.4987 17.0684,27.4987" id="fill---light" fill="#0076C2"></path>
    </g>
</svg>