<?xml version="1.0" encoding="UTF-8"?>
<svg width="48px" height="48px" viewBox="0 0 48 48" version="1.1" xmlns="http://www.w3.org/2000/svg" xmlns:xlink="http://www.w3.org/1999/xlink">
    <title>aai / products / classic-vehicle</title>
    <g id="aai-/-products-/-classic-vehicle" stroke="none" stroke-width="1" fill="none" fill-rule="evenodd">
        <path d="M24,4.0003 C35.046,4.0003 44,12.9533 44,24.0003 C44,35.0453 35.046,44.0003 24,44.0003 C12.954,44.0003 4,35.0453 4,24.0003 C4,12.9533 12.954,4.0003 24,4.0003 Z M24,7.5563 C14.933,7.5563 7.556,14.9323 7.556,24.0003 C7.556,33.0663 14.933,40.4443 24,40.4443 C33.066,40.4443 40.444,33.0663 40.444,24.0003 C40.444,14.9323 33.066,7.5563 24,7.5563 Z M24.1163,16.7335 C32.1873,16.7375 38.8553,20.9475 38.8553,20.9475 C38.8553,20.9475 39.1083,22.2315 39.1083,23.8165 C39.1083,25.1455 38.7963,26.9145 38.7963,26.9145 C35.4603,26.5645 32.2823,27.0395 29.6083,29.3145 C26.8583,31.6565 27.7353,38.3255 27.7353,38.3255 C27.7353,38.3255 25.9553,39.0475 24.1093,39.0475 C22.2623,39.0475 20.4883,38.3255 20.4883,38.3255 C20.4883,38.3255 21.3663,31.6565 18.6153,29.3145 C15.9413,27.0395 12.7643,26.5645 9.4283,26.9145 C9.4283,26.9145 8.8913,25.7295 8.8913,23.8985 C8.8913,22.0675 9.3703,20.9475 9.3703,20.9475 C9.3703,20.9475 9.3980461,20.9299766 9.45212605,20.89719 L9.55281985,20.8368454 C10.6736704,20.1720609 16.8175581,16.7372097 24.1093,16.7345 L24.1093,16.7345 L24.1103,16.7335 L24.1163,16.7335 Z M24.1133,17.9875 C21.1023,17.9875 18.6603,20.4285 18.6603,23.4385 C18.6603,26.4515 21.1023,28.8925 24.1133,28.8925 C27.1233,28.8925 29.5653,26.4515 29.5653,23.4385 C29.5653,20.4285 27.1233,17.9875 24.1133,17.9875 Z" id="fill---dark" fill="#005B88"></path>
        <path d="M27.9834,23.3569 C27.9834,21.2189 26.2494,19.4859 24.1134,19.4859 C21.9744,19.4859 20.2414,21.2189 20.2414,23.3569 C20.2414,25.4939 21.9744,27.2279 24.1134,27.2279 C26.2494,27.2279 27.9834,25.4939 27.9834,23.3569" id="fill---light" fill="#0076C2"></path>
    </g>
</svg>