<?xml version="1.0" encoding="UTF-8"?>
<svg width="48px" height="48px" viewBox="0 0 48 48" version="1.1" xmlns="http://www.w3.org/2000/svg" xmlns:xlink="http://www.w3.org/1999/xlink">
    <title>aai / products / contents</title>
    <g id="aai-/-products-/-contents" stroke="none" stroke-width="1" fill="none" fill-rule="evenodd">
        <path d="M28.1062,24.1602 C31.1100837,24.1602 31.3596786,26.8374872 31.3708475,27.5846371 L31.370966,27.6881502 C31.3701816,27.7449096 31.3682,27.7762 31.3682,27.7762 L31.3682,42.0002 L3.0042,42.0002 L3.0042,27.0732 C3.0042,27.0732 3.00145347,27.0391547 3.00029674,26.9784253 L3.00029603,26.8682382 C3.01205391,26.2050451 3.24952432,24.1602 5.7312,24.1602 C8.21371351,24.1602 8.4513198,26.2759443 8.46309971,26.9621317 L8.463102,27.0761392 C8.46194653,27.1389743 8.4592,27.1742 8.4592,27.1742 L8.4592,31.0912 L24.7932,31.0912 L24.7422,27.9272 C24.7422,27.9272 24.6142,24.1602 28.1062,24.1602 Z M25.3291621,16.91018 C27.1881933,16.9222722 29.1858,17.1379226 29.1858,18.8876 L29.1858,18.8876 L29.1858,22.6546 C24.8228,22.6546 22.6408,26.1686 22.6408,27.3736 L22.6408,27.3736 L22.6408,28.9096 L10.6408,28.9096 L10.6408,27.4746 C10.6408,23.5076 7.3678,22.6546 6.2768,22.6546 L6.2768,22.6546 L6.2768,19.0386 C6.2768,17.2806 8.0208,16.9096 9.7788,16.9096 L9.7788,16.9096 Z" id="fill---dark" fill="#005B88"></path>
        <polygon class="polygon" id="fill---light" fill="#0076C2" points="37.9138 12.5454 44.4278 12.5454 40.5108 6.0004 33.5808 6.0004 29.6638 12.5454 36.8228 12.5454 36.8228 39.8184 33.5498 39.8184 33.5498 42.0004 40.0958 42.0004 40.0958 39.8184 37.9138 39.8184"></polygon>
    </g>
</svg>