<?xml version="1.0" encoding="UTF-8"?>
<svg width="48px" height="48px" viewBox="0 0 48 48" version="1.1" xmlns="http://www.w3.org/2000/svg" xmlns:xlink="http://www.w3.org/1999/xlink">
    <title>aai / products / health</title>
    <g id="aai-/-products-/-health" stroke="none" stroke-width="1" fill="none" fill-rule="evenodd">
        <path d="M30.9529412,17.2588235 C29.8764706,16.8882353 28.7294118,16.8529412 27.5647059,17.1705882 C25.2529412,17.8058824 22.8176471,17.8058824 20.5235294,17.1705882 C19.3588235,16.8529412 18.2294118,16.8705882 17.1352941,17.2588235 C13.0411765,18.6705882 11.0647059,24.6529412 12.7235294,30.6 C13.6764706,34.0235294 15.6352941,36.8117647 18.1058824,38.2235294 C19.8,39.1941176 21.5470588,39.4058824 23.1882353,38.8411765 C23.7529412,38.6470588 24.3352941,38.6470588 24.9,38.8411765 C25.4823529,39.0352941 26.1,39.1411765 26.7176471,39.1411765 C27.7941176,39.1411765 28.9058824,38.8235294 29.9823529,38.2058824 C32.4352941,36.7941176 34.3941176,34.0235294 35.3647059,30.5823529 C37.0235294,24.6529412 35.0470588,18.6705882 30.9529412,17.2588235 Z" id="fill---dark" fill="#005B88"></path>
        <path d="M23.5235294,17.6470588 C23.8764706,17.6647059 24.2470588,17.6647059 24.6,17.6470588 C24.6,17.1176471 24.5823529,16.6235294 24.5470588,16.1470588 L24.5294118,16.0411765 C24.5294118,16.0411765 24.5470588,16.0411765 24.5470588,16.0411765 C24.5470588,16.0411765 24.5647059,16.0411765 24.5647059,16.0411765 C24.5647059,16.0411765 24.5647059,16.0411765 24.5823529,16.0411765 C24.6,16.0411765 24.6,16.0411765 24.6176471,16.0411765 C24.6176471,16.0411765 24.6176471,16.0411765 24.6176471,16.0411765 C24.6176471,16.0411765 24.6176471,16.0411765 24.6176471,16.0411765 C28.2529412,16.0411765 31.2176471,13.0764706 31.2176471,9.44117647 C31.2176471,9.19411765 31.0235294,9 30.7764706,9 C27.5823529,9 24.9176471,11.2764706 24.3176471,14.2941176 C23.7176471,11.0470588 22.3588235,9.6 22.2705882,9.52941176 C22.0588235,9.31764706 21.7235294,9.31764706 21.5117647,9.52941176 C21.3,9.74117647 21.3,10.0764706 21.4941176,10.2882353 C21.5294118,10.3235294 23.5411765,12.4764706 23.5235294,17.6470588 Z" id="fill---light" fill="#0076C2"></path>
    </g>
</svg>