<?xml version="1.0" encoding="UTF-8"?>
<svg width="48px" height="48px" viewBox="0 0 48 48" version="1.1" xmlns="http://www.w3.org/2000/svg" xmlns:xlink="http://www.w3.org/1999/xlink">
    <title>aai / products / home</title>
    <g id="aai-/-products-/-home" stroke="none" stroke-width="1" fill="none" fill-rule="evenodd">
        <path d="M24.1765,12.728 L40.7855,28.905 L40.7905,28.905 L41.2945,29.395 L41.2945,42 L22.7385,42 L22.7385,30.396 L13.6145,30.396 L13.6145,42 L7.1475,42 L7.1475,29.31 L7.5625,28.905 L7.5675,28.905 L24.1765,12.728 Z M35.5415,30.413 L28.5425,30.413 L28.5425,37.231 L35.5415,37.231 L35.5415,30.413 Z M39.9851,10.3659 L39.9851,19.4609 L33.8141,13.4459 L33.8141,10.3659 L39.9851,10.3659 Z" id="fill---dark" fill="#005B88"></path>
        <polygon class="polygon" id="fill---light" fill="#0076C2" points="24.1896 6 2.9996 26.633 5.4526 29.021 6.8776 27.634 6.8776 27.534 6.9846 27.534 24.1656 10.802 24.1656 10.779 24.1756 10.792 24.1896 10.779 24.1896 10.802 41.3686 27.534 41.4746 27.534 41.4746 27.634 42.9016 29.021 45.3526 26.633"></polygon>
    </g>
</svg>