<?xml version="1.0" encoding="UTF-8"?>
<svg width="48px" height="48px" viewBox="0 0 48 48" version="1.1" xmlns="http://www.w3.org/2000/svg" xmlns:xlink="http://www.w3.org/1999/xlink">
    <title>aai / products / home-contents</title>
    <g id="aai-/-products-/-home-contents" stroke="none" stroke-width="1" fill="none" fill-rule="evenodd">
        <path d="M36.5309196,33.4036619 C39.1076101,33.4036619 38.9385863,36.0726143 38.9385863,36.0726143 L38.9385863,46.571281 L18.003253,46.571281 L18.0027965,35.5471657 C17.994518,35.4172564 17.9003244,33.4036619 20.0160387,33.4036619 C22.2030149,33.4036619 22.0295625,35.628281 22.0295625,35.628281 L22.0295625,38.5194 L34.0856101,38.5194 L34.0479673,36.1840667 L34.0479673,36.1840667 L34.0477033,36.1193089 C34.0528716,35.7015171 34.1878028,33.4036619 36.5309196,33.4036619 Z M34.3443863,28.0520286 C35.7534101,28.0520286 37.3277673,28.1775048 37.3277673,29.511981 L37.3277673,29.511981 L37.3277673,32.2923857 C34.1074577,32.2923857 32.4969339,34.8860524 32.4969339,35.7754571 L32.4969339,35.7754571 L32.4969339,36.9091714 L23.6397911,36.9091714 L23.6397911,35.8500048 C23.6397911,32.921981 21.2240054,32.2923857 20.4187435,32.2923857 L20.4187435,32.2923857 L20.4187435,29.6234333 C20.4187435,28.3258619 21.7059816,28.0520286 23.003553,28.0520286 L23.003553,28.0520286 Z M15.7592558,6.00688372 L28.1194419,18.0455814 L28.1231628,18.0455814 L28.4982326,18.4102326 L28.4975116,26.0518837 L23.003553,26.0520286 C21.1162187,26.0520286 19.5711551,26.5360919 18.8529697,27.7898125 L14.6891163,27.7906977 L14.6891163,19.1551628 L7.89916279,19.1551628 L7.89916279,27.7906977 L3.08651163,27.7906977 L3.08651163,18.3469767 L3.39534884,18.0455814 L3.39906977,18.0455814 L15.7592558,6.00688372 Z M24.2169302,19.167814 L19.0083721,19.167814 L19.0083721,24.2416744 L24.2169302,24.2416744 L24.2169302,19.167814 Z M27.5495075,4.23412024 L27.5495075,11.0034817 L22.9743546,6.58483356 L22.9743546,4.23412024 L27.5495075,4.23412024 Z" id="fill---dark" fill="#005B88"></path>
        <path d="M45.006119,20 L47.8972381,24.8308333 L43.0892857,24.8308333 L43.0892857,44.9609048 L44.6998095,44.9609048 L44.6998095,46.5714286 L39.8682381,46.5714286 L39.8682381,44.9609048 L42.2840238,44.9609048 L42.2840238,24.8308333 L37,24.8308333 L39.891119,20 L45.006119,20 Z M15.7690047,1 L31.518214,16.3547907 L29.694214,18.131907 L28.6322605,17.0997209 L28.6322605,17.0253023 L28.5533767,17.0253023 L15.7690047,4.5735814 L15.7690047,4.55646512 L15.758586,4.56613953 L15.7511442,4.55646512 L15.7511442,4.5735814 L2.96528372,17.0253023 L2.88565581,17.0253023 L2.88565581,17.0997209 L1.8251907,18.131907 L-0.000297674419,16.3547907 L15.7690047,1 Z" id="fill---light" fill="#0076C2"></path>
    </g>
</svg>