<?xml version="1.0" encoding="UTF-8"?>
<svg width="48px" height="48px" viewBox="0 0 48 48" version="1.1" xmlns="http://www.w3.org/2000/svg" xmlns:xlink="http://www.w3.org/1999/xlink">
    <title>aai / products / landlord</title>
    <g id="aai-/-products-/-landlord" stroke="none" stroke-width="1" fill="none" fill-rule="evenodd">
        <path d="M28.603,37.221 L35.43,37.221 L35.43,30.394 L28.603,30.394 L28.603,37.221 Z M36.879,23.931 C31.706,23.931 27.497,19.722 27.497,14.548 C27.497,12.978 27.889,11.5 28.574,10.198 L24.4,6.024 L24.4,6 L24.389,6.012 L24.377,6 L24.377,6.024 L4,26.4 L6.359,28.762 L7.732,27.388 L7.732,42 L14.042,42 L14.042,30.376 L22.943,30.376 L22.943,42 L41.044,42 L41.044,27.388 L42.415,28.762 L44.776,26.4 L41.23,22.854 C39.928,23.539 38.45,23.931 36.879,23.931 L36.879,23.931 Z" id="fill---dark" fill="#005B88"></path>
        <path d="M40.0611,17.6821 C39.7881,18.1031 39.3911,18.4321 38.8681,18.6701 C38.6041,18.7891 38.3161,18.8791 38.0031,18.9381 L38.0031,19.7721 C38.0031,20.2941 37.5811,20.7201 37.0551,20.7201 C36.5331,20.7201 36.1081,20.2941 36.1081,19.7721 L36.1081,18.9501 C35.6411,18.8751 35.2251,18.7431 34.8741,18.5391 C34.4781,18.3061 34.1581,17.9931 33.9091,17.6021 C33.6601,17.2121 33.5371,16.8321 33.5371,16.4631 C33.5371,16.2481 33.6111,16.0651 33.7591,15.9121 C33.9091,15.7611 34.0981,15.6831 34.3281,15.6831 C34.5141,15.6831 34.6721,15.7441 34.8011,15.8621 C34.9301,15.9821 35.0401,16.1581 35.1311,16.3921 C35.2421,16.6691 35.3621,16.9021 35.4911,17.0871 C35.6201,17.2731 35.8011,17.4281 36.0351,17.5481 C36.2701,17.6691 36.5781,17.7301 36.9571,17.7301 C37.4811,17.7301 37.9071,17.6081 38.2341,17.3631 C38.5611,17.1201 38.7251,16.8161 38.7251,16.4511 C38.7251,16.1611 38.6371,15.9271 38.4591,15.7461 C38.2841,15.5661 38.0551,15.4281 37.7751,15.3321 C37.4961,15.2371 37.1221,15.1361 36.6551,15.0301 C36.0271,14.8841 35.5031,14.7111 35.0811,14.5141 C34.6591,14.3181 34.3231,14.0511 34.0751,13.7111 C33.8281,13.3731 33.7041,12.9511 33.7041,12.4471 C33.7041,11.9671 33.8341,11.5401 34.0961,11.1671 C34.3581,10.7951 34.7361,10.5091 35.2331,10.3081 C35.4991,10.2001 35.7931,10.1271 36.1081,10.0781 L36.1081,9.2371 C36.1081,8.7141 36.5331,8.2901 37.0551,8.2901 C37.5811,8.2901 38.0031,8.7141 38.0031,9.2371 L38.0031,10.1211 C38.1271,10.1481 38.2581,10.1691 38.3701,10.2071 C38.7611,10.3401 39.0851,10.5171 39.3441,10.7361 C39.6001,10.9571 39.7891,11.1881 39.9091,11.4311 C40.0291,11.6721 40.0871,11.9081 40.0871,12.1371 C40.0871,12.3481 40.0121,12.5381 39.8641,12.7071 C39.7141,12.8741 39.5301,12.9591 39.3081,12.9591 C39.1051,12.9591 38.9521,12.9091 38.8461,12.8071 C38.7421,12.7071 38.6271,12.5411 38.5031,12.3101 C38.3451,11.9801 38.1551,11.7241 37.9331,11.5401 C37.7111,11.3551 37.3551,11.2641 36.8631,11.2641 C36.4071,11.2641 36.0401,11.3641 35.7581,11.5631 C35.4791,11.7651 35.3381,12.0051 35.3381,12.2871 C35.3381,12.4621 35.3871,12.6111 35.4821,12.7391 C35.5781,12.8661 35.7081,12.9751 35.8741,13.0661 C36.0411,13.1571 36.2091,13.2281 36.3801,13.2801 C36.5501,13.3311 36.8321,13.4081 37.2251,13.5061 C37.7171,13.6211 38.1631,13.7491 38.5611,13.8871 C38.9591,14.0271 39.2981,14.1961 39.5781,14.3921 C39.8581,14.5911 40.0761,14.8411 40.2321,15.1451 C40.3901,15.4491 40.4681,15.8201 40.4681,16.2611 C40.4681,16.7881 40.3321,17.2631 40.0611,17.6821 M36.8791,6.5071 C32.4401,6.5071 28.8381,10.1071 28.8381,14.5481 C28.8381,18.9891 32.4401,22.5891 36.8791,22.5891 C41.3221,22.5891 44.9211,18.9891 44.9211,14.5481 C44.9211,10.1071 41.3221,6.5071 36.8791,6.5071" id="fill---light" fill="#0076C2"></path>
    </g>
</svg>