<?xml version="1.0" encoding="UTF-8"?>
<svg width="48px" height="48px" viewBox="0 0 48 48" version="1.1" xmlns="http://www.w3.org/2000/svg" xmlns:xlink="http://www.w3.org/1999/xlink">
    <title>aai / products / life</title>
    <g id="aai-/-products-/-life" stroke="none" stroke-width="1" fill="none" fill-rule="evenodd">
        <path d="M20.4909091,12.4545455 C22.1090909,12.4545455 23.2909091,13.4909091 24,15.5454545 C24.9090909,18.1818182 27.2909091,24.8 27.5454545,25.4727273 C27.6181818,25.6545455 27.6727273,25.8545455 27.6727273,26.0545455 C27.6727273,26.8909091 27,27.5636364 26.1636364,27.5636364 C25.5636364,27.5636364 25.0363636,27.2181818 24.8,26.7090909 C24.7818182,26.6727273 24.7636364,26.6363636 24.7454545,26.6 C24.7430303,26.5927273 24.7092525,26.499798 24.6496377,26.3360377 L24.5415273,26.0391273 C24.2192485,25.1540687 23.5578397,23.3371152 22.8680382,21.4233729 L22.6876502,20.9224893 C22.3565073,20.0021908 22.0250505,19.0763636 21.7272727,18.2363636 C21.8,18.9090909 21.5454545,17.5090909 23.8909091,29.5636364 C23.9818182,30.0727273 23.5818182,30.5636364 23.0545455,30.5636364 L23.0545455,30.5636364 L21.8909091,30.5636364 L21.8909091,41.5818182 C21.8909091,42.5818182 21.0727273,43.4 20.0727273,43.4 C19.0727273,43.4 18.2545455,42.5818182 18.2545455,41.5818182 L18.2545455,41.5818182 L18.2545455,30.5636364 L18.2545455,30.5636364 L17.4727273,30.5636364 L17.4727273,41.5818182 C17.4727273,42.5818182 16.6545455,43.4 15.6545455,43.4 C14.6545455,43.4 13.8363636,42.5818182 13.8363636,41.5818182 L13.8363636,41.5818182 L13.8363636,30.5636364 L13.8363636,30.5636364 L12.6727273,30.5636364 C12.1454545,30.5636364 11.7272727,30.0909091 11.8363636,29.5636364 C13.7074566,19.9470889 13.9238847,18.9047136 13.9718171,18.5348912 L13.9754998,18.505063 C13.9766159,18.4955362 13.9776314,18.4863665 13.9785797,18.4773771 L13.981256,18.4507738 C13.9854908,18.4067484 13.9888746,18.3628184 13.9955596,18.2969068 L14,18.2545455 C13.7834343,18.8654545 13.549055,19.5217598 13.3099381,20.1883191 L13.0396225,20.9406711 C12.0160898,23.7852301 10.9955556,26.5769697 10.9818182,26.6181818 C10.6909091,27.4181818 9.81818182,27.8181818 9.03636364,27.5272727 C8.23636364,27.2363636 7.83636364,26.3636364 8.12727273,25.5818182 C8.16363636,25.5090909 10.6363636,18.7272727 11.7272727,15.5454545 C12.4363636,13.4909091 13.6181818,12.4545455 15.2363636,12.4545455 L15.2363636,12.4545455 Z M17.8545455,5.14545455 C19.6,5.14545455 21,6.56363636 21,8.29090909 C21,10.0181818 19.6,11.4363636 17.8545455,11.4363636 C16.1090909,11.4363636 14.7090909,10.0181818 14.7090909,8.29090909 C14.7090909,6.54545455 16.1090909,5.14545455 17.8545455,5.14545455 Z" id="fill---dark" fill="#005B88"></path>
        <path d="M37.2545455,21.2545455 C38.6545455,21.2545455 39.8181818,22.4 39.8181818,23.8181818 L39.8181818,23.8181818 L39.8188521,24.2368721 C39.8238836,26.0623127 39.856,30.2749091 39.8727273,31.7636364 L39.8727273,31.7636364 L39.8665266,31.8820687 C39.8091313,32.4269091 39.36,32.8545455 38.8,32.8545455 L38.8,32.8545455 L38.6815677,32.8483448 C38.1367273,32.7909495 37.7090909,32.3418182 37.7090909,31.7818182 L37.7090909,31.7818182 L37.6727273,23.8 C37.6545455,23.6909091 37.5636364,23.5818182 37.4363636,23.5818182 C37.3272727,23.6 37.2181818,23.6909091 37.2181818,23.8181818 L37.2181818,23.8181818 L37.2189631,24.8590909 C37.2190341,24.9224026 37.2191095,24.9875696 37.219189,25.0545455 L37.2200108,25.7049165 C37.2201133,25.7823284 37.2202193,25.86141 37.2203287,25.942115 L37.2210227,26.4454545 C37.221388,26.7064935 37.2217793,26.981308 37.2221912,27.2686456 L37.2230406,27.8596475 C37.2249329,29.1747217 37.2271402,30.7092764 37.2292075,32.36141 L37.2301501,33.1319109 C37.2309245,33.780334 37.2316679,34.4438312 37.2323543,35.1166048 L37.233149,35.9280148 C37.233531,36.3355751 37.2338888,36.7456401 37.2342168,37.1569573 L37.2351057,38.3934137 C37.2351933,38.5309369 37.235277,38.6684601 37.2353565,38.8059369 L37.2360986,40.4504638 C37.2361417,40.5868275 37.2361798,40.7229592 37.2362127,40.8588126 L37.2363636,42.0727273 C37.2363636,42.8 36.6545455,43.3818182 35.9272727,43.3818182 C35.2,43.3818182 34.6181818,42.8 34.6181818,42.0727273 L34.6181818,42.0727273 L34.6181818,31.6545455 L34.0545455,31.6545455 L34.0545455,31.6545455 L34.0545455,42.0727273 C34.0545455,42.8 33.4727273,43.3818182 32.7454545,43.3818182 C32.0181818,43.3818182 31.4363636,42.8 31.4363636,42.0727273 L31.4363636,42.0727273 L31.4363636,23.8727273 C31.4363636,23.7454545 31.3454545,23.6545455 31.2363636,23.6545455 C31.1090909,23.6545455 31.0181818,23.7454545 31.0181818,23.8545455 C31.0181818,23.8690909 31.0181527,23.8879418 31.0180969,23.9107305 L31.0174592,24.0917737 C31.01408,24.9072873 31,27.2727273 31,27.2727273 C31,27.9454545 30.3636364,28.4727273 29.6909091,28.3272727 C29.4643357,28.2825175 29.220979,28.2338892 28.9712997,28.1835726 L28.5933463,28.1071047 C27.326412,27.8498117 26.0321678,27.5776224 26.0181818,27.5636364 L26.0181818,27.5636364 L26.1454545,27.5636364 C26.9818182,27.5636364 27.6545455,26.8909091 27.6545455,26.0545455 C27.6545455,25.9454545 27.6545455,25.8181818 27.6181818,25.7090909 L27.6181818,25.7090909 L27.6181818,25.6915825 L27.6181818,25.6915825 L28.8363636,25.9454545 C28.8454545,24.9181818 28.85,24.4954545 28.8522727,24.275 L28.8531142,24.1917307 C28.8532335,24.1795256 28.8533428,24.1680592 28.853443,24.1571851 L28.8541214,24.0713491 C28.8541744,24.0627087 28.8542208,24.0542208 28.8542614,24.0457386 L28.8545455,23.8181818 C28.8545455,22.4 30,21.2545455 31.4181818,21.2545455 L31.4181818,21.2545455 Z M34.3454545,14.6727273 C35.9119349,14.6727273 37.1818182,15.9426105 37.1818182,17.5090909 C37.1818182,19.0755713 35.9119349,20.3454545 34.3454545,20.3454545 C32.7789742,20.3454545 31.5090909,19.0755713 31.5090909,17.5090909 C31.5090909,15.9426105 32.7789742,14.6727273 34.3454545,14.6727273 Z" id="fill---light" fill="#0076C2"></path>
    </g>
</svg>