<?xml version="1.0" encoding="UTF-8"?>
<svg width="48px" height="48px" viewBox="0 0 48 48" version="1.1" xmlns="http://www.w3.org/2000/svg" xmlns:xlink="http://www.w3.org/1999/xlink">
    <title>aai / products / motorcycle</title>
    <g id="aai-/-products-/-motorcycle" stroke="none" stroke-width="1" fill="none" fill-rule="evenodd">
        <path d="M39.558,22.8233241 C39.077,22.8233241 38.608,22.8743241 38.151,22.9623241 L37.419,21.5163241 C38.147,21.3283241 38.906,21.2183241 39.691,21.2183241 C41.784,21.2183241 43.706,21.9343241 45.241,23.1293241 L46.492,23.1293241 C44.865,20.5273241 41.976,18.7963241 38.682,18.7963241 C37.828,18.7963241 36.999,18.9143241 36.213,19.1333241 L35.82,18.3503241 C36.821,17.7933241 37.1,16.3353241 36.435,15.0673241 C35.787,13.8233241 34.475,13.2283241 33.456,13.6753241 L32.094,10.9863241 C31.829,10.4593241 31.354,9.93632406 30.811,10.0063241 C30.089,10.1023241 26.538,11.4213241 26.538,11.4213241 L25.259,11.4213241 C24.52,11.4213241 23.922,12.0193241 23.922,12.7553241 C23.922,13.4943241 24.52,14.0943241 25.259,14.0943241 L27.056,14.0943241 L29.064,13.2823241 L31.277,17.6593241 C30.635,16.9883241 29.786,16.4663241 28.682,16.4663241 C28.359,16.4663241 28.006,16.5123241 27.634,16.5933241 C27.435,16.3473241 27.134,16.1883241 26.793,16.1883241 L26.33,16.1883241 C25.728,16.1883241 25.241,16.6753241 25.241,17.2783241 C25.241,17.3273241 25.248,17.3743241 25.254,17.4223241 C24.044,17.9673241 22.833,18.6573241 21.862,19.2583241 C21.798,18.7213241 21.309,18.3023241 20.708,18.3023241 L10.195,17.5363241 C9.552,17.5363241 9.031,18.0173241 9.031,18.6113241 L9.031,19.1503241 L3.525,19.1503241 L3.525,22.6773241 C4.943,21.7563241 6.629,21.2183241 8.442,21.2183241 C11.962,21.2183241 15.006,23.2313241 16.501,26.1653241 L14.91,26.5923241 C13.629,24.3453241 11.214,22.8233241 8.442,22.8233241 C4.33,22.8233241 1,26.1563241 1,30.2673241 C1,34.3773241 4.33,37.7083241 8.442,37.7083241 C12.142,37.7083241 15.203,35.0063241 15.778,31.4723241 L12.511,32.3343241 C11.757,33.8173241 10.22,34.8333241 8.442,34.8333241 C5.919,34.8333241 3.875,32.7883241 3.875,30.2673241 C3.875,27.7443241 5.919,25.6983241 8.442,25.6983241 C9.869,25.6983241 11.142,26.3543241 11.979,27.3793241 L7.957,28.4603241 C6.957,28.7283241 6.368,29.7533241 6.635,30.7513241 C6.859,31.5863241 7.615,32.1373241 8.439,32.1373241 C8.601,32.1373241 8.764,32.1163241 8.927,32.0733241 L17.646,29.7323241 L17.646,34.0013241 L27.906,34.0013241 C28.305,33.9973241 30.675,33.8593241 30.675,31.0553241 L30.683,31.0553241 C30.66,30.7943241 30.643,30.5333241 30.643,30.2673241 C30.643,27.3953241 31.985,24.8403241 34.07,23.1833241 L38.075,31.1003241 C38.404,31.7523241 39.063,32.1283241 39.745,32.1283241 C40.028,32.1283241 40.317,32.0633241 40.588,31.9263241 C41.51,31.4613241 41.88,30.3353241 41.412,29.4133241 L39.537,25.7003241 C39.544,25.7003241 39.551,25.6983241 39.558,25.6983241 C42.082,25.6983241 44.126,27.7443241 44.126,30.2673241 C44.126,32.7883241 42.082,34.8333241 39.558,34.8333241 C37.039,34.8333241 34.992,32.7883241 34.992,30.2673241 C34.992,29.6033241 35.138,28.9723241 35.394,28.4013241 L33.934,25.4043241 C32.805,26.7083241 32.117,28.4063241 32.117,30.2673241 C32.117,34.3773241 35.45,37.7083241 39.558,37.7083241 C43.669,37.7083241 47,34.3773241 47,30.2673241 C47,26.1563241 43.669,22.8233241 39.558,22.8233241" id="fill" fill="#005B88"></path>
    </g>
</svg>