<?xml version="1.0" encoding="UTF-8"?>
<svg width="48px" height="48px" viewBox="0 0 48 48" version="1.1" xmlns="http://www.w3.org/2000/svg" xmlns:xlink="http://www.w3.org/1999/xlink">
    <title>aai / products / motorhome</title>
    <g id="aai-/-products-/-motorhome" stroke="none" stroke-width="1" fill="none" fill-rule="evenodd">
        <path d="M37.1753,12.9995 C38.5723,12.9995 39.7033,14.1305 39.7033,15.5275 L39.7033,15.5275 L39.7033,16.5375 C39.7033,17.9335 38.5723,19.0645 37.1753,19.0645 L37.1753,19.0645 L28.9643,19.0645 L28.9643,29.2655 L29.9553,29.2655 L29.9553,21.7825 C29.9553,20.9255 30.6503,20.2285 31.5083,20.2285 L31.5083,20.2285 L34.7613,20.2215 C35.4053,20.2215 35.8083,20.4405 36.2283,20.9995 L36.2283,20.9995 L39.4643,25.6105 L44.1143,25.6205 C44.9133,25.6205 45.5593,26.2685 45.5593,27.0655 L45.5593,27.0655 L45.5593,29.2665 L46.1223,29.2665 C46.3803,29.2665 46.5893,29.4755 46.5893,29.7335 L46.5893,29.7335 L46.5893,30.9625 C46.5893,31.2205 46.3803,31.4275 46.1223,31.4275 L46.1223,31.4275 L43.8693,31.4275 C43.5803,29.7035 42.0803,28.3895 40.2733,28.3895 C38.4663,28.3895 36.9663,29.7035 36.6773,31.4275 L36.6773,31.4275 L19.1563,31.4275 C18.8673,29.7035 17.3683,28.3895 15.5603,28.3895 C13.7553,28.3895 12.2543,29.7035 11.9663,31.4275 L11.9663,31.4275 L2.4653,31.4275 C2.2073,31.4275 2.0003,31.2205 2.0003,30.9625 L2.0003,30.9625 L2.0003,29.7335 C2.0003,29.4755 2.2083,29.2665 2.4653,29.2675 L2.4653,29.2675 L4.8613,29.2655 L4.8603,14.5755 L4.8603,14.5755 L4.85931957,14.554937 C4.85486805,14.3948787 4.88476154,13.3545 6.4143,13.3545 L6.4143,13.3545 L20.9773,13.3545 L20.9773,14.8915 L24.5593,14.8905 C25.3313,14.8905 26.0223,14.5435 26.4873,13.9985 C26.9493,13.3945 27.6763,13.0045 28.4943,13.0045 L28.4943,13.0045 L37.1643,12.9995 Z M26.0223,17.3265 L21.2453,17.3265 C21.0863,17.3265 20.9563,17.4675 20.9563,17.6405 L20.9563,17.6405 L20.9563,28.9085 C20.9563,29.0815 21.0863,29.2215 21.2453,29.2215 L21.2453,29.2215 L26.0223,29.2215 C26.1813,29.2215 26.3103,29.0815 26.3103,28.9085 L26.3103,28.9085 L26.3103,17.6405 C26.3103,17.4675 26.1813,17.3265 26.0223,17.3265 L26.0223,17.3265 Z M34.6763,21.3155 L32.6613,21.3155 C32.1813,21.3155 31.7953,21.7025 31.7953,22.1815 L31.7953,22.1815 L31.7953,24.7285 C31.7953,25.2065 32.1813,25.5945 32.6613,25.5945 L32.6613,25.5945 L37.6533,25.5955 C37.9113,25.5955 37.9723,25.3865 37.7893,25.1285 L37.7893,25.1285 L35.3583,21.6425 C35.2033,21.4425 34.9533,21.3155 34.6763,21.3155 L34.6763,21.3155 Z M25.1622,22.9897 C25.4112,22.9897 25.6142,23.1917 25.6142,23.4417 C25.6142,23.6917 25.4112,23.8947 25.1622,23.8947 C24.9112,23.8947 24.7092,23.6917 24.7092,23.4417 C24.7092,23.1917 24.9112,22.9897 25.1622,22.9897 Z M19.3943,17.4065 L18.0543,18.8015 L8.3483,18.8015 L8.3483,20.8245 C8.3483,21.0055 8.4963,21.1535 8.6783,21.1535 L8.6783,21.1535 L19.1813,21.1535 C19.3633,21.1535 19.5113,21.0055 19.5113,20.8245 L19.5113,20.8245 L19.5113,17.6555 C19.5113,17.5555 19.4653,17.4665 19.3943,17.4065 L19.3943,17.4065 Z" id="fill---dark" fill="#005B88"></path>
        <path d="M15.56,33.3641 C14.827,33.3641 14.231,32.7681 14.231,32.0351 C14.231,31.3011 14.827,30.7081 15.56,30.7081 C16.293,30.7081 16.889,31.3011 16.889,32.0351 C16.889,32.7691 16.292,33.3641 15.56,33.3641 M15.56,29.3191 C17.061,29.3191 18.276,30.5351 18.276,32.0351 C18.276,33.5371 17.06,34.7521 15.56,34.7521 C14.06,34.7521 12.845,33.5371 12.845,32.0351 C12.845,30.5361 14.06,29.3201 15.56,29.3191 Z M40.2734,29.3191 C41.7724,29.3191 42.9894,30.5351 42.9894,32.0351 C42.9894,33.5371 41.7724,34.7521 40.2734,34.7521 C38.7724,34.7521 37.5574,33.5371 37.5574,32.0351 C37.5574,30.5361 38.7724,29.3201 40.2734,29.3191 Z M40.2734,30.7081 C39.5404,30.7081 38.9454,31.3011 38.9454,32.0351 C38.9454,32.7681 39.5394,33.3641 40.2734,33.3641 C41.0064,33.3641 41.6014,32.7691 41.6014,32.0351 C41.6014,31.3011 41.0074,30.7081 40.2734,30.7081 Z M3.3601,23.2487 C3.6401,23.2487 3.8661,23.4747 3.8661,23.7537 L3.8661,28.1417 C3.8661,28.4207 3.6401,28.6467 3.3601,28.6467 L2.5051,28.6467 C2.2261,28.6467 2.0001,28.4207 2.0001,28.1417 L2.0001,23.7537 C2.0001,23.4747 2.2251,23.2487 2.5051,23.2487 L3.3601,23.2487 Z" id="fill---light" fill="#0076C2"></path>
    </g>
</svg>