<?xml version="1.0" encoding="UTF-8"?>
<svg width="48px" height="48px" viewBox="0 0 48 48" version="1.1" xmlns="http://www.w3.org/2000/svg" xmlns:xlink="http://www.w3.org/1999/xlink">
    <title>aai / products / pets</title>
    <g id="aai-/-products-/-pets" stroke="none" stroke-width="1" fill="none" fill-rule="evenodd">
        <path d="M33.5094902,28.4041412 C33.4141176,28.2742588 33.3262745,28.1544157 33.2767059,28.0490039 C32.2451765,25.8403765 29.4166275,23.2377098 24.8356078,23.1743373 L24.6618039,23.1712 C20.1498039,23.1712 17.3432157,25.6377098 16.2207059,27.946102 C16.1811765,28.0245333 16.0977255,28.1274353 16.0073725,28.2347294 C15.899451,28.3627294 15.7940392,28.4926118 15.7036863,28.6319059 C14.7549804,30.108298 14.2718431,31.7691608 14.3433725,33.3108078 C14.4167843,34.9465725 15.1032157,36.2598275 16.2671373,37.0102588 C16.7377255,37.3108078 17.2478431,37.4651608 17.7792941,37.4651608 C18.8798431,37.4651608 19.8850196,36.8452392 21.051451,36.1274353 C21.7943529,35.6712784 22.5585882,35.2006902 23.4094118,34.8480627 C23.5047843,34.8166902 23.8944314,34.7671216 24.5344314,34.7671216 C25.2942745,34.7671216 25.8407843,34.8355137 25.9556078,34.8750431 C26.7869804,35.242102 27.5173333,35.7227294 28.2232157,36.1857882 C29.3036863,36.8992 30.3232941,37.5705725 31.4313725,37.5705725 C31.9069804,37.5705725 32.3675294,37.4457098 32.8042353,37.1984941 C35.201098,35.836298 35.6591373,32.0985725 33.8232157,28.8646902 C33.7303529,28.7034353 33.6199216,28.5509647 33.5094902,28.4041412" id="fill---dark" fill="#005B88"></path>
        <path d="M37.2132078,19.203451 C39.2499137,19.203451 40.8480314,21.3160784 40.8480314,24.0172549 C40.8480314,26.7152941 39.2499137,28.828549 37.2132078,28.828549 C35.1739922,28.828549 33.5783843,26.7152941 33.5783843,24.0172549 C33.5783843,21.3160784 35.1739922,19.203451 37.2132078,19.203451 Z M12.6347608,19.2033882 C14.6714667,19.2033882 16.2695843,21.3160157 16.2695843,24.0171922 C16.2695843,26.7152314 14.6714667,28.8284863 12.6347608,28.8284863 C10.5955451,28.8284863 8.99993725,26.7152314 8.99993725,24.0171922 C8.99993725,21.3160157 10.5955451,19.2033882 12.6347608,19.2033882 Z M19.8284235,9.99993725 C22.3721098,9.99993725 24.4408157,12.7770353 24.4408157,16.1909961 C24.4408157,19.6049569 22.3721098,22.3820549 19.8284235,22.3820549 C17.2841098,22.3820549 15.2154039,19.6049569 15.2154039,16.1909961 C15.2154039,12.7770353 17.2841098,9.99993725 19.8284235,9.99993725 Z M29.6375529,9.99993725 C32.1787294,9.99993725 34.2499451,12.7770353 34.2499451,16.1909961 C34.2499451,19.6049569 32.1787294,22.3820549 29.6375529,22.3820549 C27.0932392,22.3820549 25.0245333,19.6049569 25.0245333,16.1909961 C25.0245333,12.7770353 27.0932392,9.99993725 29.6375529,9.99993725 Z" id="fill---light" fill="#0076C2"></path>
    </g>
</svg>