<?xml version="1.0" encoding="UTF-8"?>
<svg width="48px" height="48px" viewBox="0 0 48 48" version="1.1" xmlns="http://www.w3.org/2000/svg" xmlns:xlink="http://www.w3.org/1999/xlink">
    <title>aai / products / renters</title>
    <g id="aai-/-products-/-renters" stroke="none" stroke-width="1" fill="none" fill-rule="evenodd">
        <path d="M28.603,37.221 L35.43,37.221 L35.43,30.394 L28.603,30.394 L28.603,37.221 Z M36.879,23.931 C31.706,23.931 27.497,19.722 27.497,14.548 C27.497,12.978 27.889,11.5 28.574,10.198 L24.4,6.024 L24.4,6 L24.389,6.012 L24.377,6 L24.377,6.024 L4,26.4 L6.359,28.762 L7.732,27.388 L7.732,42 L14.042,42 L14.042,30.376 L22.943,30.376 L22.943,42 L41.044,42 L41.044,27.388 L42.415,28.762 L44.776,26.4 L41.23,22.854 C39.928,23.539 38.45,23.931 36.879,23.931 L36.879,23.931 Z" id="fill---dark" fill="#005B88"></path>
        <path d="M42.5647534,8.86518329 C45.7046241,12.005054 45.7054893,17.0947244 42.5643999,20.2358138 C39.4261384,23.3740753 34.334347,23.375331 31.1944763,20.2354603 C28.0546056,17.0955897 28.0558613,12.0037983 31.1941228,8.86553678 C34.3352122,5.72444738 39.4248827,5.72531261 42.5647534,8.86518329 Z M40.7759083,9.48546215 C39.6727573,8.85509017 38.2984678,8.95150188 37.294135,9.72972199 C36.3426619,10.4669831 35.9008333,11.6785518 36.1417798,12.8461362 L36.1882892,13.0402375 L32.3800295,16.8484972 L32.407559,19.0325112 L34.6282792,19.0049816 L34.6282792,17.5367369 L36.0965239,17.5367369 L36.0965239,16.0684922 L37.5647686,16.0684922 L38.3906562,15.2426045 C38.8621461,15.3833398 39.3606156,15.4009317 39.8388503,15.2953803 L40.0424316,15.2426045 L40.1186317,15.2208377 C41.3057506,14.8655629 42.1759093,13.8432626 42.3331385,12.6091525 C42.493713,11.3487849 41.8790592,10.1158341 40.7759083,9.48546215 Z M39.3541918,10.7919877 C39.7089559,10.4372237 40.284142,10.4372237 40.638906,10.7919877 C40.99367,11.1467517 40.99367,11.7219379 40.638906,12.0767019 C40.4712045,12.2520003 40.2391459,12.3511463 39.9965489,12.3511463 C39.7539519,12.3511463 39.5218933,12.2520003 39.3541918,12.0767019 C38.9994278,11.7219379 38.9994278,11.1467517 39.3541918,10.7919877 Z" id="fill---light" fill="#0076C2"></path>
    </g>
</svg>