<?xml version="1.0" encoding="UTF-8"?>
<svg width="48px" height="48px" viewBox="0 0 48 48" version="1.1" xmlns="http://www.w3.org/2000/svg" xmlns:xlink="http://www.w3.org/1999/xlink">
    <title>aai / products / business</title>
    <g id="aai-/-products-/-business" stroke="none" stroke-width="1" fill="none" fill-rule="evenodd">
        <path d="M30,10.7002 C30,10.2032 29.897,10.0002 29.4,10.0002 L18.6,10.0002 C18.103,10.0002 18,10.2032 18,10.7002 L18,13.0002 L30,13.0002 L30,10.7002 Z M42,21.4727 L42,37.7007 C42,39.1917 40.791,39.9997 39.3,39.9997 L39.3,39.9997 L8.7,39.9997 C7.209,39.9997 6,39.1917 6,37.7007 L6,37.7007 L6,21.4727 C8.911,24.1087 13,26.0717 19,26.8837 L19,26.8837 L19.0000548,28.8224804 C19.0012578,29.3089089 19.0254,29.9997 19.479,29.9997 L19.479,29.9997 L28.521,29.9997 C29.007,29.9997 29,29.2067 29,28.7217 L29,26.8837 C35,26.0717 39.089,24.1087 42,21.4727 L42,21.4727 Z M31.2,8.0002 C32.194,8.0002 33.000057,8.8052 33.000057,9.8002 L32.9995,12.9992 L39.2995,13 C40.73725,13 41.9127832,14.4961237 41.994916,15.9398771 L41.9995,16.1 L41.9995,19.67 C39.4265,22.518 34.9995,24.68 28.9995,25.553 L28.9995,25.553 L28.9995,24.179 C28.9995,23.693 29.0065,23 28.5215,23 L28.5215,23 L19.4785,23 C19.0581667,23 19.0066289,23.52052 19.0003581,23.9756933 L18.9995,25.553 C12.9995,24.68 8.5735,22.518 5.9995,19.67 L5.9995,19.67 L5.9995,16.1 C5.9995,14.609 7.2085,13 8.7005,13 L8.7005,13 L14.9995,12.9992 L15,9.8002 C15,8.8052 15.806,8.0002 16.8,8.0002 L31.2,8.0002 Z" id="fill---dark" fill="#005B88"></path>
        <path d="M28,28.1221 C28,28.6061 27.606,29.0001 27.122,29.0001 L20.878,29.0001 C20.393,29.0001 20,28.6061 20,28.1221 L20,24.8781 C20,24.3931 20.393,24.0001 20.878,24.0001 L27.122,24.0001 C27.606,24.0001 28,24.3931 28,24.8781 L28,28.1221 Z" id="fill---light" fill="#0076C2"></path>
    </g>
</svg>