<?xml version="1.0" encoding="UTF-8"?>
<svg width="48px" height="48px" viewBox="0 0 48 48" version="1.1" xmlns="http://www.w3.org/2000/svg" xmlns:xlink="http://www.w3.org/1999/xlink">
    <title>aai / products / trailer</title>
    <g id="aai-/-products-/-trailer" stroke="none" stroke-width="1" fill="none" fill-rule="evenodd">
        <path d="M13.6,29.8 C13.6,30.2091928 13.634135,30.6104129 13.6997127,31.0009683 L4,31 L4,28.6 L13.6995116,28.6002298 C13.6340651,28.9904075 13.6,29.3912256 13.6,29.8 Z M41.2,31.0032144 L32.8,31.0032144 L32.8,30.999 L27.9002873,31.0009683 C27.965865,30.6104129 28,30.2091928 28,29.8 C28,29.3912256 27.9659349,28.9904075 27.9004884,28.6002298 L36.4,28.6 L36.4,29.803 L41.2,29.8032144 L41.2,29.8648 L41.3746397,29.8655738 C42.0768716,29.8655738 42.6568008,29.3324348 42.7310037,28.6495986 L42.7390239,28.501125 L42.7390239,26.9782707 L42.3484284,26.9782707 C42.0876314,26.9782707 41.8723451,26.8431547 41.8277233,26.6652125 L41.8192346,26.596657 L41.8192346,25.3816137 C41.8192346,25.194407 42.0055435,25.0384903 42.2530073,25.0061533 L42.3484284,25 L44.2708061,25 C44.5300031,25 44.746534,25.1351159 44.791452,25.3130581 L44.8,25.3816137 L44.8,26.596657 C44.8,26.7838637 44.6122688,26.9397804 44.3657532,26.9721174 L44.2708061,26.9782707 L43.8766107,26.9782707 L43.8766107,28.501125 C43.8766107,29.8265484 42.8414816,30.9130845 41.5388114,30.9978867 L41.3746397,31.0032144 L41.2,31.0024 L41.2,31.0032144 Z M35.2,13 C35.8627416,13 36.4,13.5372584 36.4,14.2 L36.4,27.4 L27.5904428,27.4003862 C26.6021445,24.6037228 23.9350695,22.6 20.8,22.6 C17.6649305,22.6 14.9978555,24.6037228 14.0095572,27.4003862 L4,27.4 L4,14.2 C4,13.5372584 4.5372583,13 5.2,13 L35.2,13 Z" id="fill---dark" fill="#005B88"></path>
        <path d="M20.8,23.8 C24.1137084,23.8 26.8,26.4862916 26.8,29.8 C26.8,33.1137084 24.1137084,35.8 20.8,35.8 C17.4862916,35.8 14.8,33.1137084 14.8,29.8 C14.8,26.4862916 17.4862916,23.8 20.8,23.8 Z M20.8,26.2 C18.811775,26.2 17.2,27.811775 17.2,29.8 C17.2,31.788225 18.811775,33.4 20.8,33.4 C22.788225,33.4 24.4,31.788225 24.4,29.8 C24.4,27.811775 22.788225,26.2 20.8,26.2 Z" id="fill---light" fill="#0076C2"></path>
    </g>
</svg>