<?xml version="1.0" encoding="UTF-8"?>
<svg width="48px" height="48px" viewBox="0 0 48 48" version="1.1" xmlns="http://www.w3.org/2000/svg" xmlns:xlink="http://www.w3.org/1999/xlink">
    <title>aai / products / travel</title>
    <g id="aai-/-products-/-travel" stroke="none" stroke-width="1" fill="none" fill-rule="evenodd">
        <path d="M6,30.9817703 C10.3260028,29.3941564 14.665871,27.8205922 19.0334699,26.2329783 C18.964143,26.1486803 18.9364122,26.0924815 18.8809506,26.0503325 C17.5082767,24.5891657 16.1078719,23.1560983 14.7490633,21.6808819 C14.0835244,20.9502985 13.5150433,20.1354171 12.9188314,19.348635 C12.7524467,19.1238401 12.7940428,19.081691 13.0436199,19.0114426 C14.3746977,18.6321013 15.7057755,18.2527599 17.0368533,17.8593689 C17.3141611,17.7750708 17.5498728,17.8734185 17.7855845,17.9577166 C19.3107778,18.5197038 20.8221057,19.081691 22.3334336,19.6436783 C23.8863577,20.2197151 25.4531472,20.795752 27.0060712,21.3717889 C27.8241295,21.6808819 28.6421877,21.9759252 29.4463805,22.2990678 C29.6543614,22.3833659 29.8207461,22.3693162 30.028727,22.2990678 C31.4845934,21.7511303 32.9404597,21.2172425 34.4101914,20.6833546 C36.0324425,20.1073177 37.6546935,19.5172311 39.2908099,18.9692936 C40.3029837,18.6321013 41.3290228,18.3230083 42.3827927,18.0841637 C43.4365626,17.8453192 44.5180633,17.8312695 45.5718332,18.0420147 C45.8491411,18.0982134 46.1125836,18.1965612 46.3621607,18.3230083 C46.9861034,18.6321013 47.1802189,19.2221878 46.8197186,19.8122744 C46.6117377,20.1635164 46.3344299,20.5007088 46.0155258,20.7817024 C44.9617559,21.7370806 43.7416013,22.4817137 42.4659851,23.0718003 C41.7311192,23.4230423 40.913061,23.6197378 40.1365989,23.8866817 C39.0273675,24.2660231 37.9042706,24.6453645 36.7950391,25.0247058 C35.5887499,25.4321466 34.3824606,25.8395873 33.1761714,26.2610777 C31.470728,26.8371146 29.77915,27.4131515 28.0737065,27.9891884 C26.6733018,28.4668775 25.272897,28.930517 23.8863577,29.3941564 C22.4720876,29.8718455 21.0578174,30.4057334 19.6296819,30.8272238 C18.5620466,31.1363168 17.4666805,31.347062 16.3851798,31.5578072 C15.1372944,31.7966518 13.8616781,31.8388008 12.5999273,31.8247511 C10.9360801,31.8107014 9.25836749,31.698304 7.62225105,31.4032607 C7.16469306,31.3189626 6.70713507,31.2487142 6.24957708,31.1644161 C6.16638472,31.1503665 6.09705775,31.1082174 6.01386539,31.0801181 C6,31.0239193 6,30.99582 6,30.9817703 Z" id="fill---dark" fill="#005B88"></path>
        <path d="M10,28.4816307 C9.40298507,28.6492994 8.86282871,28.8040704 8.32267235,28.9459439 C7.27078891,29.2296908 6.21890547,29.5134377 5.16702203,29.8100822 C5.02487562,29.848775 4.93958778,29.8229798 4.85429993,29.7197991 C3.9445629,28.6750946 3.00639659,27.63039 2.06823028,26.5985831 C1.95451315,26.4696072 1.98294243,26.4051193 2.15351812,26.3406313 C2.60838664,26.1858603 3.04904051,26.0052941 3.50390903,25.850523 C3.6318408,25.8118303 3.80241649,25.8247279 3.93034826,25.8634206 C5.87775409,26.6888662 7.81094527,27.5143117 9.7583511,28.3397573 C9.82942431,28.3784501 9.88628287,28.4171428 10,28.4816307 Z" id="fill---light" fill="#0076C2"></path>
    </g>
</svg>