<?xml version="1.0" encoding="UTF-8"?>
<svg width="48px" height="48px" viewBox="0 0 48 48" version="1.1" xmlns="http://www.w3.org/2000/svg" xmlns:xlink="http://www.w3.org/1999/xlink">
    <title>aai / money / cards</title>
    <g id="aai-/-money-/-cards" stroke="none" stroke-width="1" fill="none" fill-rule="evenodd">
        <path d="M11.8496797,22.6513867 C11.8496797,21.520211 12.0784603,20.502153 12.7648022,19.5972125 L6.58772559,22.0857989 L5.90138375,20.3890354 C5.67260313,20.0496827 5.67260313,19.4840949 5.90138375,19.1447422 C6.13016436,18.692272 6.35894497,18.3529193 6.8165062,18.2398017 L27.8643227,9.86910201 C28.0931033,9.75598445 28.2074936,9.75598445 28.4362742,9.75598445 C29.1226161,9.64286688 29.6945676,10.0953371 29.9233482,10.7740425 L30.6096901,12.2445708 L20.886514,16.090568 L34.9565217,16.090568 L32.439935,9.64286688 C31.5248125,7.49363318 29.0082258,6.47557511 26.8348099,7.26739805 L5.67260313,15.8643329 C3.4991873,16.7692734 2.46967453,19.2578598 3.27040668,21.4070935 L8.64675112,34.6418484 C9.21870265,35.8861416 10.3626057,36.9041997 11.7352894,37.1304348 L11.7352894,34.3024957 C11.5065088,34.0762606 11.2777282,33.8500254 11.0489476,33.5106728 L7.96040927,26.0449136 L11.6208991,24.5743852 L11.8496797,22.6513867 Z M40.9169207,17.9565217 L18.2611233,17.9565217 C15.8822645,17.9565217 13.9565217,19.7735237 13.9565217,22.1583387 L13.9565217,36.4672291 C13.9565217,38.8520441 15.8822645,40.7826087 18.2611233,40.7826087 L40.6903628,40.7826087 C43.0692215,40.7826087 44.9949643,38.8520441 44.9949643,36.4672291 L44.9949643,22.2719014 C45.1082433,20.0006489 43.2957795,18.0700844 41.0301997,17.9565217 L40.9169207,17.9565217 L40.9169207,17.9565217 Z M26.7391304,36.2173913 L19.4347826,36.2173913 L19.4347826,33.4782609 L26.7391304,33.4782609 L26.7391304,36.2173913 Z M33.1304348,36.2173913 L28.5652174,36.2173913 L28.5652174,33.4782609 L33.1304348,33.4782609 L33.1304348,36.2173913 Z M34.0434783,27.0869565 C32.5597826,27.0869565 31.3043478,25.8315217 31.3043478,24.3478261 C31.3043478,22.8641304 32.5597826,21.6086957 34.0434783,21.6086957 C35.5271739,21.6086957 36.7826087,22.8641304 36.7826087,24.3478261 C36.7826087,25.8315217 35.5271739,27.0869565 34.0434783,27.0869565 L34.0434783,27.0869565 Z M40.4347826,36.2173913 L35.8695652,36.2173913 L35.8695652,33.4782609 L40.4347826,33.4782609 L40.4347826,36.2173913 Z M38.769821,27.0869565 C38.4475703,27.0869565 38.0179028,26.9728261 37.6956522,26.8586957 C38.2327366,26.173913 38.5549872,25.2608696 38.5549872,24.3478261 C38.5549872,23.4347826 38.3401535,22.5217391 37.6956522,21.8369565 C38.0179028,21.6086957 38.4475703,21.6086957 38.769821,21.6086957 C40.1662404,21.6086957 41.3478261,22.8641304 41.3478261,24.3478261 C41.3478261,25.8315217 40.1662404,27.0869565 38.769821,27.0869565 L38.769821,27.0869565 Z" id="fill" fill="#005B88"></path>
    </g>
</svg>