<?xml version="1.0" encoding="UTF-8"?>
<svg width="48px" height="48px" viewBox="0 0 48 48" version="1.1" xmlns="http://www.w3.org/2000/svg" xmlns:xlink="http://www.w3.org/1999/xlink">
    <title>aai / money / money</title>
    <g id="aai-/-money-/-money" stroke="none" stroke-width="1" fill="none" fill-rule="evenodd">
        <path d="M40.2607,25.0397 C37.8427,25.6397 35.9527,27.5687 35.4237,30.0147 L12.5777,30.0147 C12.0487,27.5697 10.1587,25.6397 7.7387,25.0417 L7.7387,16.7127 C10.1587,16.1157 12.0487,14.1837 12.5777,11.7397 L35.4237,11.7397 C35.9527,14.1837 37.8427,16.1157 40.2607,16.7127 L40.2607,25.0397 Z M42.2097,8.9997 L5.7897,8.9997 C5.3557,8.9997 4.9997,9.3557 4.9997,9.7907 L4.9997,31.9887 C4.9997,32.4237 5.3557,32.7787 5.7897,32.7787 L42.2097,32.7787 C42.6437,32.7787 42.9997,32.4237 42.9997,31.9887 L42.9997,9.7907 C42.9997,9.3557 42.6437,8.9997 42.2097,8.9997 L42.2097,8.9997 Z M4.9997,38.3727 C4.9997,38.7737 5.3247,39.0997 5.7267,39.0997 L42.2737,39.0997 C42.6747,39.0997 42.9997,38.7737 42.9997,38.3727 L42.9997,37.5197 L4.9997,37.5197 L4.9997,38.3727 Z M4.9997,35.2137 C4.9997,35.6147 5.3247,35.9397 5.7267,35.9397 L42.2737,35.9397 C42.6747,35.9397 42.9997,35.6147 42.9997,35.2137 L42.9997,34.3587 L4.9997,34.3587 L4.9997,35.2137 Z" id="fill---dark" fill="#005B88"></path>
        <path d="M23.0693,28.1793 L23.0693,26.5103 C21.8923,26.4583 20.7503,26.1243 20.0833,25.7543 L20.6103,23.7003 C21.3483,24.1043 22.3853,24.4723 23.5253,24.4723 C24.5453,24.4723 25.2283,24.0693 25.2283,23.3853 C25.2283,22.7163 24.6663,22.2943 23.3513,21.8563 C21.4703,21.2233 20.1883,20.3463 20.1883,18.6413 C20.1883,17.0783 21.2773,15.8673 23.1573,15.5163 L23.1573,13.8463 L24.8783,13.8463 L24.8783,15.3923 C26.0383,15.4283 26.8283,15.6913 27.4423,15.9723 L26.9163,17.9563 C26.4763,17.7463 25.6513,17.3413 24.3863,17.3413 C23.2443,17.3413 22.8763,17.8513 22.8763,18.3433 C22.8763,18.9063 23.4893,19.2913 25.0013,19.8373 C27.0913,20.5733 27.9173,21.5393 27.9173,23.1373 C27.9173,24.7013 26.8283,26.0353 24.8083,26.3683 L24.8083,28.1793 L23.0693,28.1793 Z" id="fill---light" fill="#0076C2"></path>
    </g>
</svg>