<?xml version="1.0" encoding="UTF-8"?>
<svg width="48px" height="48px" viewBox="0 0 48 48" version="1.1" xmlns="http://www.w3.org/2000/svg" xmlns:xlink="http://www.w3.org/1999/xlink">
    <title>aai / money / pay</title>
    <g id="aai-/-money-/-pay" stroke="none" stroke-width="1" fill="none" fill-rule="evenodd">
        <path d="M22.8636,8.1254 C23.1556,7.2514 24.0626,6.7954 24.8906,7.1034 L24.8906,7.1034 L33.3166,10.2504 L36.6006,11.4764 C37.4266,11.7854 37.8606,12.7434 37.5686,13.6154 L37.5686,13.6154 L29.4196,37.9264 C29.2576,38.4114 28.9066,38.7664 28.4846,38.9354 C28.1456,39.0714 27.7606,39.0854 27.3926,38.9484 L27.3926,38.9484 L20.1796,36.2554 L20.7246,35.0034 C20.8696,34.6694 21.1496,34.4194 21.4856,34.3254 L21.4856,34.3254 L22.0216,34.1724 L24.0656,34.9354 L24.8946,35.2454 C25.1196,35.3294 25.3556,35.1964 25.4746,34.9784 C25.9696,34.0654 26.9566,33.5694 27.9406,33.7404 C28.1726,33.7804 28.4156,33.6654 28.4946,33.4314 L28.4946,33.4314 L34.1696,16.4974 C34.2486,16.2604 34.1236,16.0104 33.9166,15.8854 C33.0526,15.3634 32.5816,14.3204 32.7446,13.2824 C32.7836,13.0364 32.6736,12.7814 32.4516,12.6984 L32.4516,12.6984 L31.5886,12.3754 L27.3886,10.8074 C27.1636,10.7234 26.9266,10.8564 26.8086,11.0744 C26.3136,11.9864 25.3266,12.4824 24.3426,12.3114 C24.1096,12.2704 23.8676,12.3864 23.7886,12.6214 L23.7886,12.6214 L19.8786,24.2884 L22.1286,24.0154 L24.4486,23.7354 C24.9636,23.6724 25.4816,23.8354 25.8806,24.1864 C26.2796,24.5374 26.5246,25.0454 26.5596,25.5914 L26.5596,25.5914 L26.6156,26.4554 L26.7636,28.7874 C26.8026,29.3944 26.4296,29.9464 25.8716,30.1044 L25.8716,30.1044 L20.4366,31.6494 L20.1936,31.7184 C19.9396,31.7904 19.7186,31.9514 19.5626,32.1684 C19.5116,32.2404 19.4676,32.3164 19.4326,32.3974 L19.4326,32.3974 L18.0936,35.4764 L17.9616,35.7794 C17.8186,36.1084 17.5256,36.3384 17.1876,36.3904 L17.1876,36.3904 L14.1966,36.8474 L10.4186,37.4244 C10.0586,37.4804 9.7076,37.5954 9.3816,37.7674 L9.3816,37.7674 L5.2476,39.9434 C5.1136,40.0144 4.9646,40.0164 4.8356,39.9634 C4.7096,39.9124 4.6016,39.8084 4.5466,39.6644 L4.5466,39.6644 L1.0416,30.6604 C0.9266,30.3614 1.0586,30.0204 1.3386,29.8924 L1.3386,29.8924 L5.8526,27.8424 C6.1856,27.6914 6.4856,27.4674 6.7296,27.1844 L6.7296,27.1844 L16.9816,15.3464 C17.2166,15.0754 17.5546,14.9254 17.9026,14.9394 L17.9026,14.9394 L19.9956,15.0224 L20.5446,15.0434 Z M41.1553,12.015 L46.4463,16.806 C47.1113,17.409 47.1883,18.467 46.6173,19.17 L46.6173,19.17 L33.2423,35.627 L41.1553,12.015 Z" id="fill---dark" fill="#005B88"></path>
        <path d="M25.707,23.1942 C25.762,23.2872 25.846,23.3532 25.947,23.3792 L26.681,23.5672 C26.711,23.5752 26.742,23.5792 26.772,23.5792 C26.952,23.5792 27.106,23.4502 27.149,23.2662 L27.347,22.4112 C28.628,22.4382 29.601,21.7332 29.866,20.5752 C30.138,19.4002 29.709,18.5242 28.435,17.6492 C28.134,17.4362 27.906,17.2592 27.742,17.1082 C27.478,16.8632 27.381,16.6852 27.416,16.5342 C27.478,16.2682 27.719,16.2132 27.909,16.2132 C28.02,16.2132 28.145,16.2302 28.281,16.2652 C28.322,16.2762 28.359,16.2882 28.399,16.3002 C28.969,16.4682 29.343,16.7402 29.578,16.9372 C29.741,17.0732 30.002,17.0102 30.103,16.8132 L30.569,15.9052 C30.669,15.7112 30.613,15.4642 30.439,15.3292 C30.184,15.1312 29.902,14.9682 29.591,14.8332 C29.462,14.7772 29.328,14.7232 29.187,14.6772 L29.338,14.0272 C29.388,13.8072 29.261,13.5852 29.052,13.5312 L28.318,13.3432 C28.112,13.2912 27.899,13.4282 27.85,13.6452 L27.674,14.4082 L27.649,14.4082 C26.417,14.4082 25.528,15.0762 25.27,16.1952 C25,17.3682 25.646,18.1742 26.396,18.7642 C26.55,18.8852 26.709,18.9982 26.864,19.1032 C27.668,19.6412 27.791,19.9322 27.728,20.2022 C27.658,20.5082 27.328,20.5542 27.138,20.5542 C27.012,20.5542 26.874,20.5352 26.728,20.4982 C26.218,20.3672 25.796,20.1212 25.483,19.8872 C25.386,19.8152 25.299,19.7442 25.224,19.6782 C25.159,19.6212 25.078,19.5902 24.995,19.5902 C24.865,19.5902 24.747,19.6642 24.686,19.7842 L24.207,20.7372 C24.108,20.9322 24.155,21.1722 24.317,21.3072 C24.319,21.3092 24.322,21.3112 24.325,21.3142 C24.725,21.6482 25.282,21.9522 25.833,22.1392 L25.662,22.8842 C25.638,22.9902 25.653,23.1012 25.707,23.1942" id="fill---light" fill="#0076C2"></path>
    </g>
</svg>