<?xml version="1.0" encoding="UTF-8"?>
<svg width="48px" height="48px" viewBox="0 0 48 48" version="1.1" xmlns="http://www.w3.org/2000/svg" xmlns:xlink="http://www.w3.org/1999/xlink">
    <title>aai / uncommon / apartment</title>
    <g id="aai-/-uncommon-/-apartment" stroke="none" stroke-width="1" fill="none" fill-rule="evenodd">
        <rect id="bounding-box" x="9.59232693e-14" y="9.59232693e-14" width="48" height="48"></rect>
        <path d="M20.05248,33.38112 L20.05248,41.11872 L41.11872,41.11872 L41.11872,33.38112 L41.11872,33.38112 L41.11872,29.92512 L41.11872,29.92512 L41.11872,25.64736 L41.11872,25.64736 L41.11872,22.19136 L41.11872,22.19136 L41.11872,17.90976 L41.11872,17.90976 L41.11872,14.45376 L41.11872,14.45376 L41.11872,10.176 L41.11872,10.176 L41.11872,6.72 L6.72,6.72 L6.72,41.11872 L12.31488,41.11872 L12.31488,33.38112 L20.05248,33.38112 Z M33.38496,10.176 L37.66272,10.176 L37.66272,14.45376 L33.38496,14.45376 L33.38496,10.176 Z M33.38496,17.90976 L37.66272,17.90976 L37.66272,22.19136 L33.38496,22.19136 L33.38496,17.90976 Z M25.64736,10.176 L29.92896,10.176 L29.92896,14.45376 L25.64736,14.45376 L25.64736,10.176 Z M25.64736,17.90976 L29.92896,17.90976 L29.92896,22.19136 L25.64736,22.19136 L25.64736,17.90976 Z M17.9136,10.176 L22.19136,10.176 L22.19136,14.45376 L17.9136,14.45376 L17.9136,10.176 Z M17.9136,17.90976 L22.19136,17.90976 L22.19136,22.19136 L17.9136,22.19136 L17.9136,17.90976 Z M10.176,10.176 L14.4576,10.176 L14.4576,14.45376 L10.176,14.45376 L10.176,10.176 Z M10.176,17.90976 L14.4576,17.90976 L14.4576,22.19136 L10.176,22.19136 L10.176,17.90976 Z M10.176,29.92512 L10.176,25.64736 L14.4576,25.64736 L14.4576,29.92512 L10.176,29.92512 Z M17.9136,29.92512 L17.9136,25.64736 L22.19136,25.64736 L22.19136,29.92512 L17.9136,29.92512 Z M25.64736,29.92512 L25.64736,25.64736 L29.92896,25.64736 L29.92896,29.92512 L25.64736,29.92512 Z M33.38496,29.92512 L33.38496,25.64736 L37.66272,25.64736 L37.66272,29.92512 L33.38496,29.92512 Z" id="fill" fill="#005B88"></path>
    </g>
</svg>