<?xml version="1.0" encoding="UTF-8"?>
<svg width="48px" height="48px" viewBox="0 0 48 48" version="1.1" xmlns="http://www.w3.org/2000/svg" xmlns:xlink="http://www.w3.org/1999/xlink">
    <title>aai / uncommon / building-type</title>
    <g id="aai-/-uncommon-/-building-type" stroke="none" stroke-width="1" fill="none" fill-rule="evenodd">
        <path d="M12.641,42.5 C12.894,42.56 13.151,42.609 13.411,42.65 L13.411,42.65 L13.411,42.802 L21.319,42.802 C19.475,44.011 17.278,44.723 14.913,44.723 C12.547,44.723 10.345,44.013 8.5,42.802 L8.5,42.802 L12.641,42.802 Z M24.934,30.5 L26.374,31.856 C28.2,33.576 30.579,34.523 33.073,34.523 C36.314,34.523 39.183,32.934 40.964,30.5 L40.964,30.5 L43.279,30.5 C41.263,34.059 37.447,36.469 33.073,36.469 C30.74,36.469 28.491,35.779 26.576,34.497 C26.13,37.642 24.428,40.385 22,42.213 L22,42.213 L22,39.622 C23.697,37.861 24.747,35.474 24.747,32.841 L24.747,32.841 L24.734,32.585 L24.691,30.5 L24.934,30.5 Z M7.599,24 L7.599,26.768 C6.227,28.473 5.446,30.618 5.446,32.89 C5.446,35.199 6.255,37.321 7.599,38.997 L7.599,38.997 L7.599,41.779 C5.095,39.626 3.5,36.442 3.5,32.89 C3.5,29.417 5.03,26.201 7.599,24 L7.599,24 Z M15.154,2.5 L12.78,4.875 C9.754,5.834 7.361,8.227 6.402,11.253 L6.402,11.253 L4.828,12.827 L5.958,13.956 C5.956,14.039 5.946,14.119 5.946,14.202 C5.946,15.777 6.332,17.288 7.025,18.642 L7.025,18.642 L7.025,21.142 L8.865,21.142 C9.344,21.614 9.862,22.053 10.442,22.427 L10.442,22.427 L11.843,23.331 L11.462,23.531 L7.717,23.531 C7.871,23.411 8.014,23.28 8.175,23.167 C5.537,20.948 4,17.694 4,14.202 C4,7.929 8.954,2.805 15.154,2.5 L15.154,2.5 Z M24,6 C26.115,8.123 27.426,11.049 27.426,14.276 C27.426,14.32 27.426,14.364 27.425,14.407 C29.12,13.489 31.008,13.011 32.979,13.011 C37.098,13.011 40.722,15.149 42.814,18.371 L42.814,18.371 L40.436,18.371 L39.923,17.857 L39.923,17.857 L39.864,17.798 L38.884,16.817 L38.508,16.449 L38.148,16.449 C36.646,15.509 34.878,14.957 32.979,14.957 C30.729,14.957 28.613,15.704 26.856,17.115 L26.856,17.115 L24.778,18.787 L25.292,16.17 C25.417,15.534 25.48,14.898 25.48,14.276 C25.48,14.252 25.477,14.229 25.477,14.205 L25.477,14.205 L26.78,12.901 L24.918,11.04 C24.681,10.365 24.372,9.725 24,9.127 L24,9.127 Z M16.5,2.5 C18.981,2.66 21.254,3.585 23.08,5.054 L23.08,5.054 L19.209,5.054 C19.132,5.024 19.054,4.996 18.975,4.968 L18.975,4.968 Z" id="fill---light" fill="#0076C2"></path>
        <path d="M17.4,28.126 L19.422,28.126 L19.422,26.103 L17.4,26.103 L17.4,28.126 Z M17.4,31.231 L19.422,31.231 L19.422,29.21 L17.4,29.21 L17.4,31.231 Z M17.4,34.557 L19.422,34.557 L19.422,32.534 L17.4,32.534 L17.4,34.557 Z M13.584,28.126 L15.606,28.126 L15.606,26.103 L13.584,26.103 L13.584,28.126 Z M13.584,31.231 L15.606,31.231 L15.606,29.21 L13.584,29.21 L13.584,31.231 Z M13.584,34.557 L15.606,34.557 L15.606,32.534 L13.584,32.534 L13.584,34.557 Z M9.768,28.126 L11.791,28.126 L11.791,26.103 L9.768,26.103 L9.768,28.126 Z M9.768,31.231 L11.791,31.231 L11.791,29.21 L9.768,29.21 L9.768,31.231 Z M9.768,34.557 L11.791,34.557 L11.791,32.534 L9.768,32.534 L9.768,34.557 Z M20.839,24.5 L20.839,41.219 L14.629,41.219 L14.629,37.757 L11.531,37.757 L11.531,41.219 L8.5,41.219 L8.5,24.5 L20.839,24.5 Z M29.045,17.5 L33.487,21.951 L37.931,17.507 L37.938,17.507 L40.937,20.506 L40.937,19.428 L42.867,19.428 L42.867,22.437 L44.474,24.045 L43.717,24.801 L43.277,24.363 L43.277,29.049 L37.471,29.049 L37.471,25.32 L34.614,25.32 L34.614,29.049 L28.577,29.049 L28.577,25.32 L25.72,25.32 L25.72,29.049 L23.697,29.049 L23.697,24.363 L23.256,24.801 L22.5,24.045 L29.045,17.5 Z M41.477,25.325 L39.288,25.325 L39.288,27.516 L41.477,27.516 L41.477,25.325 Z M32.583,25.325 L30.392,25.325 L30.392,27.516 L32.583,27.516 L32.583,25.325 Z M15.829,3.5 L15.829,3.51 L20.104,7.785 L20.104,6.247 L22.857,6.247 L22.857,10.538 L25.148,12.829 L24.069,13.907 L23.442,13.281 L23.442,19.962 L15.163,19.962 L15.163,14.648 L11.094,14.648 L11.094,19.962 L8.206,19.962 L8.206,13.281 L7.58,13.907 L6.5,12.829 L15.819,3.51 L15.819,3.5 L15.824,3.505 L15.829,3.5 Z M20.876,14.655 L17.752,14.655 L17.752,17.779 L20.876,17.779 L20.876,14.655 Z" id="fill---dark" fill="#005B88"></path>
    </g>
</svg>