<?xml version="1.0" encoding="UTF-8"?>
<svg width="48px" height="48px" viewBox="0 0 48 48" version="1.1" xmlns="http://www.w3.org/2000/svg" xmlns:xlink="http://www.w3.org/1999/xlink">
    <title>aai / uncommon / ctp</title>
    <g id="aai-/-uncommon-/-ctp" stroke="none" stroke-width="1" fill="none" fill-rule="evenodd">
        <path d="M46.4553,13 C47.3083,13 48.0003,13.688 48.0003,14.537 L48.0003,14.537 L48.0003,32.462 C48.0003,33.312 47.2313,34 46.3783,34 L46.3783,34 L1.5453,34 C0.6923,34 0.0003,33.312 0.0003,32.462 L0.0003,32.462 L0.0003,14.537 C0.0003,13.688 0.7693,13 1.6223,13 L1.6223,13 Z M45.9963,13.862 L2.0823,13.862 C1.4433,13.862 0.9233,14.379 0.9233,15.015 L0.9233,15.015 L0.9233,32.082 C0.9233,32.719 1.3653,33.236 2.0043,33.236 L2.0043,33.236 L45.9193,33.236 C46.5573,33.236 47.1553,32.719 47.1553,32.082 L47.1553,32.082 L47.1553,15.015 C47.1553,14.379 46.6343,13.862 45.9963,13.862 L45.9963,13.862 Z M45.4265,15.1688 C45.6345,15.1688 45.8025,15.3378 45.8025,15.5448 L45.8025,15.5448 L45.8025,31.4918 C45.8025,31.6978 45.6345,31.8658 45.4265,31.8658 L45.4265,31.8658 L2.6125,31.8658 C2.4055,31.8658 2.2365,31.6978 2.2365,31.4918 L2.2365,31.4918 L2.2365,15.5448 C2.2365,15.3378 2.4055,15.1688 2.6125,15.1688 L2.6125,15.1688 Z M17.6465,18.5168 C16.9795,18.5168 16.3805,18.7098 15.9365,19.1398 C15.4915,19.5548 15.2545,20.0938 15.2545,20.8968 L15.2545,20.8968 L15.2545,21.4498 L17.1185,21.4498 L17.1185,20.7718 C17.1185,20.3698 17.3545,20.1768 17.6465,20.1768 C17.8545,20.1768 17.9665,20.2598 18.0505,20.3698 C18.2165,20.6068 18.1885,21.0478 18.1885,21.3248 C18.1885,21.6168 18.2165,22.1278 18.0215,22.3628 C17.9385,22.4598 17.8135,22.5298 17.6325,22.5298 L17.6325,22.5298 L17.1875,22.5298 L17.1875,24.0778 L17.6325,24.0778 C17.8695,24.0778 18.0085,24.1758 18.1055,24.3138 C18.2725,24.5758 18.2585,25.1568 18.2585,25.4768 L18.2587318,25.5942568 C18.2592037,25.936084 18.2523889,26.4841333 18.0915,26.6948 C18.0085,26.8038 17.8695,26.9288 17.6465,26.9288 C17.3125,26.9288 17.0485,26.7068 17.0485,26.2508 L17.0485,26.2508 L17.0485,25.6558 L15.1855,25.6558 L15.1855,26.1818 C15.1855,27.0388 15.4215,27.5378 15.8665,27.9528 C16.3115,28.3818 16.9795,28.5888 17.6465,28.5888 C18.3135,28.5888 18.9675,28.3818 19.4135,27.9668 C20.1365,27.2888 20.1225195,26.4998 20.1225195,25.6138 C20.1225195,25.0618 20.1225195,24.4798 19.8575,23.9678 C19.7195,23.7048 19.5245,23.4968 19.2735,23.3028 C19.5105,23.1378 19.6905,22.9308 19.8165,22.6808 C20.0385,22.2118 20.0525,21.6978 20.0525,21.1868 C20.0525,20.3288 19.8305,19.5958 19.3435,19.1258 C18.9545,18.7378 18.3975,18.5168 17.6465,18.5168 Z M28.8525,18.4778 C27.7405,18.4778 27.1565,18.9208 26.6975,19.4608 C25.9045,20.4018 25.9595,22.1988 25.9595,23.5288 C25.9595,24.8558 25.9045,26.6278 26.6975,27.5678 C27.1565,28.1078 27.7405,28.5518 28.8525,28.5518 C29.6725,28.5518 30.2715,28.3158 30.7715,27.8448 C31.2865,27.3608 31.6205,26.5708 31.6615,25.6308 L31.6615,25.6308 L29.6875,25.6308 C29.6725,25.9068 29.6455,26.1848 29.5345,26.3928 C29.4225,26.6278 29.2135,26.7798 28.8525,26.7798 C28.4915,26.7798 28.3105,26.6138 28.1995,26.3928 C27.9625,25.9358 27.9345,24.7038 27.9345,23.5148 L27.934927,23.2764821 C27.9391622,22.1639778 27.9783,21.0623333 28.1995,20.6358 C28.3105,20.4158 28.4915,20.2488 28.8525,20.2488 C29.2135,20.2488 29.4095,20.3868 29.5205,20.6228 C29.6315,20.8308 29.6595,21.1068 29.6725,21.3838 L29.6725,21.3838 L31.6475,21.3838 C31.6065,20.4428 31.2865,19.6678 30.7715,19.1838 C30.2715,18.7138 29.6725,18.4778 28.8525,18.4778 Z M11.8895,18.5168 C11.2225,18.5168 10.5545,18.7248 10.1095,19.1528 C9.6645,19.5688 9.4275,20.0658 9.4275,20.9248 L9.4275,20.9248 L9.4275,21.4498 L11.2925,21.4498 L11.2925,20.8548 C11.2925,20.3988 11.5555,20.1768 11.8895,20.1768 C12.2235,20.1768 12.4595,20.4118 12.4595,20.8688 C12.4595,21.5198 12.2925,22.1008 12.0835,22.4598 L12.0835,22.4598 L9.5395,26.9018 L9.5395,28.4788 L14.3225,28.4788 L14.3225,26.8178 L11.5425,26.8178 L13.7805,23.0128 C14.1145,22.4468 14.3225,21.6298 14.3225,20.9378 C14.3225,20.0798 14.0165,19.4698 13.5865,19.0838 C13.1275,18.6688 12.5575,18.5168 11.8895,18.5168 Z M7.5785,18.6268 L5.7145,18.6268 L4.1995,19.8028 L4.1995,21.8788 L5.7145,20.7998 L5.7145,28.4788 L7.5785,28.4788 L7.5785,18.6268 Z M41.2295,18.5898 L38.4345,18.5898 L38.4345,28.4398 L40.4095,28.4398 L40.4095,24.8838 L41.2295,24.8838 C43.3715,24.8838 44.0105,23.6538 44.0105,21.7158 C44.0105,19.7928 43.3715,18.5898 41.2295,18.5898 L41.2295,18.5898 Z M37.5305,18.5898 L32.2185,18.5898 L32.2185,20.3598 L33.8865,20.3598 L33.8865,28.4398 L35.8615,28.4398 L35.8615,20.3598 L37.5305,20.3598 L37.5305,18.5898 Z M23.5655,22.4028 L22.2545,23.7068 L23.5655,25.0108 L24.8765,23.7068 L23.5655,22.4028 Z M41.2432,20.3594 C41.9942,20.3594 42.0362,21.1074 42.0362,21.7294 L42.0356283,21.8405907 C42.0288055,22.4392962 41.9500235,23.1134 41.2432,23.1134 L41.2432,23.1134 L40.4092,23.1134 L40.4092,20.3594 Z" id="fill" fill="#005B88"></path>
    </g>
</svg>