<?xml version="1.0" encoding="UTF-8"?>
<svg width="48px" height="48px" viewBox="0 0 48 48" version="1.1" xmlns="http://www.w3.org/2000/svg" xmlns:xlink="http://www.w3.org/1999/xlink">
    <title>aai / uncommon / end consent</title>
    <g id="aai-/-uncommon-/-end-consent" stroke="none" stroke-width="1" fill="none" fill-rule="evenodd">
        <rect id="bounding-box" x="0" y="0" width="48" height="48"></rect>
        <path d="M28.8451308,34.0763333 C28.5646387,34.6415394 27.9682039,35.0012975 27.3138143,35 L2.68659935,35 C2.03210666,35.0016401 1.43549597,34.6417759 1.15528287,34.0763333 C0.876560602,33.5142294 0.978977848,32.8470156 1.41487748,32.3851622 L7.24044289,26.076383 L5.01055441,26.076383 C4.36105211,26.0833749 3.76719168,25.7268795 3.4916343,25.1645726 C3.21510611,24.6113177 3.3088048,23.9538899 3.73008215,23.4915262 L9.42803786,17.1534686 L7.3213839,17.1534686 C6.66166281,17.1560668 6.06349028,16.7834229 5.799547,16.205409 C5.54296229,15.6370211 5.66449167,14.9772049 6.10872709,14.5267857 L14.1503262,6.33722342 C14.5878452,5.88759219 15.4132977,5.88759219 15.8508167,6.33722342 L23.8916866,14.5260886 C24.3355653,14.9766788 24.457055,15.6362797 24.2008667,16.2047119 C23.9369452,16.7825193 23.3392762,17.1553019 22.679759,17.1534686 L20.573105,17.1534686 L26.2703315,23.497103 C26.6929455,23.9588428 26.7870259,24.6169367 26.5095086,25.1701495 C26.2326571,25.7290039 25.6410271,26.0828375 24.9942345,26.076383 L22.7607,26.076383 L28.5855362,32.3851622 C29.0208794,32.8472659 29.1232449,33.5141426 28.8451308,34.0763333 L28.8451308,34.0763333 Z" id="fill---dark" fill="#005B88"></path>
        <path d="M16.9363212,36.9698192 L16.9363212,35.249967 L12.310974,35.249967 L12.310974,36.9691161 L10.1218839,40.3722577 C9.94296356,40.7207312 9.96206086,41.1344553 10.1723669,41.4659228 C10.382673,41.7973902 10.7542574,41.9994271 11.1546372,42 L18.092658,42 C18.4935031,42 18.8657742,41.798099 19.0764718,41.4663352 C19.2871695,41.1345715 19.3062349,40.720311 19.1268568,40.3715545 L16.9363212,36.9698192 Z M46.5898558,32.6104229 L40.8161216,26.2499231 L43.0297839,26.2499231 C43.6708219,26.2564335 44.257188,25.8995413 44.5315763,25.3358561 C44.8066245,24.7778614 44.7133811,24.1140789 44.2945273,23.6483479 L38.6479901,17.2498791 L40.7359008,17.2498791 C41.3895501,17.2517283 41.9819016,16.8757233 42.2434749,16.2929214 C42.4973839,15.7195756 42.3769751,15.0542732 41.9370456,14.5997881 L33.9677169,6.34013838 C33.5340906,5.88662054 32.7188732,5.88662054 32.282356,6.34013838 L25.41227,13.4600169 C26.2137559,14.5407253 26.4240647,15.9420603 25.8704684,17.1865976 C25.5874347,17.824802 25.1312513,18.3760563 24.5507991,18.7812929 L27.5529385,22.1788095 C28.9659103,23.7899707 28.7695415,26.2103328 27.1142532,27.5858671 C27.0178918,27.6646175 26.9191214,27.7391491 26.8179419,27.809462 L29.825863,31.1247125 C30.4510076,31.8123721 30.7899588,32.118233 30.8123629,32.9999561 L30.8123629,36.9691161 L28.6232728,40.3722577 C28.4443524,40.7207312 28.4634497,41.1344553 28.6737558,41.4659228 C28.8840619,41.7973902 29.2556463,41.9994271 29.6560261,42 L36.5940469,42 C36.9948919,42 37.367163,41.798099 37.5778607,41.4663352 C37.7885583,41.1345715 37.8076238,40.720311 37.6282456,40.3715545 L35.4377101,36.9698192 L35.4377101,35.249967 L45.3294487,35.249967 C45.978016,35.2512814 46.5691442,34.8884135 46.8471408,34.3183219 C47.1218559,33.7513717 47.0204673,33.0794463 46.5898558,32.6132354 L46.5898558,32.6104229 Z" id="fill---light" fill="#0076C2"></path>
    </g>
</svg>