<?xml version="1.0" encoding="UTF-8"?>
<svg width="48px" height="48px" viewBox="0 0 48 48" version="1.1" xmlns="http://www.w3.org/2000/svg" xmlns:xlink="http://www.w3.org/1999/xlink">
    <title>aai / uncommon / external-link</title>
    <g id="aai-/-uncommon-/-external-link" stroke="none" stroke-width="1" fill="none" fill-rule="evenodd">
        <path d="M23.9363,11.9058 L24.2563,12.2258 L21.5783,14.9058 L12.0003,14.9058 C10.8953,14.9058 10.0003,15.8008 10.0003,16.9058 L10.0003,16.9058 L10.0003,35.9058 C10.0003,37.0098 10.8953,37.9058 12.0003,37.9058 L12.0003,37.9058 L31.0003,37.9058 C32.1043,37.9058 33.0003,37.0098 33.0003,35.9058 L33.0003,35.9058 L33.0003,27.1218 L36.0003,24.1218 L36.0003,38.9058 C36.0003,40.0098 35.1043,40.9058 34.0003,40.9058 L34.0003,40.9058 L9.0003,40.9058 C7.8953,40.9058 7.0003,40.0098 7.0003,38.9058 L7.0003,38.9058 L7.0003,13.9058 C7.0003,12.8008 7.8953,11.9058 9.0003,11.9058 L9.0003,11.9058 L23.9363,11.9058 Z M41.0073,7 L41.0013,24.734 L36.0733,19.806 L26.3393,29.541 L18.7643,21.966 L28.4993,12.232 L23.4793,7.212 L41.0073,7 Z" id="fill" fill="#005B88"></path>
    </g>
</svg>