<?xml version="1.0" encoding="UTF-8"?>
<svg width="48px" height="48px" viewBox="0 0 48 48" version="1.1" xmlns="http://www.w3.org/2000/svg" xmlns:xlink="http://www.w3.org/1999/xlink">
    <title>aai / uncommon / file</title>
    <g id="aai-/-uncommon-/-file" stroke="none" stroke-width="1" fill="none" fill-rule="evenodd">
        <path d="M36.3867,40.251 L11.7447,40.251 L11.7447,7.746 L27.9687,7.746 C28.9837,7.884 29.4627,10.927 29.4627,12.186 L29.4627,15.618 L32.7867,15.618 C32.9727,15.628 36.0987,15.745 36.3867,16.903 L36.3867,40.251 Z M39.0507,14.612 L29.5217,5.083 C29.4757,5.036 29.3887,5 29.3207,5 L9.2797,5 C9.1267,5 8.9997,5.125 8.9997,5.283 L8.9997,42.716 C8.9997,42.873 9.1267,43 9.2797,43 L38.8517,43 C39.0037,43 39.1327,42.873 39.1327,42.716 L39.1327,14.81 C39.1327,14.749 39.0957,14.655 39.0507,14.612 L39.0507,14.612 Z" id="fill---dark" fill="#005B88"></path>
        <path d="M17.5913,31.8438 C18.7393,31.8438 19.6713,32.7748 19.6713,33.9238 C19.6713,35.0728 18.7393,36.0058 17.5913,36.0058 C16.4423,36.0058 15.5093,35.0728 15.5093,33.9238 C15.5093,32.7748 16.4423,31.8438 17.5913,31.8438 Z M32.623,32.768 L32.623,35.08 L21.059,35.08 L21.059,32.768 L32.623,32.768 Z M17.5913,26.0615 C18.7393,26.0615 19.6713,26.9935 19.6713,28.1435 C19.6713,29.2915 18.7393,30.2235 17.5913,30.2235 C16.4423,30.2235 15.5093,29.2915 15.5093,28.1435 C15.5093,26.9935 16.4423,26.0615 17.5913,26.0615 Z M32.623,26.987 L32.623,29.3 L21.059,29.3 L21.059,26.987 L32.623,26.987 Z M17.5913,20.2812 C18.7383,20.2812 19.6713,21.2132 19.6713,22.3632 C19.6713,23.5102 18.7383,24.4422 17.5913,24.4422 C16.4433,24.4422 15.5093,23.5102 15.5093,22.3632 C15.5093,21.2132 16.4433,20.2812 17.5913,20.2812 Z M32.623,21.206 L32.623,23.518 L21.059,23.518 L21.059,21.206 L32.623,21.206 Z" id="fill---light" fill="#0076C2"></path>
    </g>
</svg>