<?xml version="1.0" encoding="UTF-8"?>
<svg width="48px" height="48px" viewBox="0 0 48 48" version="1.1" xmlns="http://www.w3.org/2000/svg" xmlns:xlink="http://www.w3.org/1999/xlink">
    <title>aai / uncommon / income-protect</title>
    <g id="aai-/-uncommon-/-income-protect" stroke="none" stroke-width="1" fill="none" fill-rule="evenodd">
        <path d="M24.0303,6.0002 C33.9723,6.0002 42.0603,14.0882 42.0603,24.0292 C42.0603,33.9722 33.9723,42.0602 24.0303,42.0602 C14.0883,42.0602 6.0003,33.9722 6.0003,24.0292 C6.0003,14.0882 14.0883,6.0002 24.0303,6.0002 Z M24.0303,8.0002 C15.1913,8.0002 8.0003,15.1912 8.0003,24.0292 C8.0003,32.8682 15.1913,40.0602 24.0303,40.0602 C32.8693,40.0602 40.0603,32.8682 40.0603,24.0292 C40.0603,15.1912 32.8693,8.0002 24.0303,8.0002 Z M24.0305,9.4751 C31.9325,9.4751 38.3375,15.8801 38.3375,23.7821 C38.3375,31.6851 31.9325,38.0911 24.0305,38.0911 C16.1275,38.0911 9.7225,31.6851 9.7225,23.7821 C9.7225,15.8801 16.1275,9.4751 24.0305,9.4751 Z M26.0305,13.1531 L22.0305,13.1531 L22.0305,14.5121 C19.0305,15.2531 17.7285,17.2521 17.7285,20.3391 C17.7285,21.4501 17.9045,22.3871 18.3215,23.1221 C18.7215,23.8301 19.2195,24.4151 19.8365,24.8611 C20.4075,25.2741 21.0245,25.7461 21.6875,25.9991 C21.7045,26.0051 21.7125,26.1531 21.7285,26.1531 L21.7285,26.1531 L17.0305,26.1531 L17.0305,27.5081 C17.0305,29.2641 17.7925,30.5931 18.7675,31.4591 C19.5095,32.1161 21.0305,32.5691 22.0305,32.8101 L22.0305,32.8101 L22.0305,35.1531 L26.0305,35.1531 L26.0305,32.8111 C27.0305,32.5491 28.5025,32.0411 29.3105,31.2951 C30.3365,30.3461 30.8545,28.9241 30.8545,27.0681 C30.8545,25.8951 30.6315,24.9171 30.1975,24.1641 C29.7795,23.4381 29.2415,22.8411 28.6005,22.3891 C28.0015,21.9671 27.3505,21.5741 26.6645,21.3371 C26.5445,21.2951 26.4275,21.1531 26.3115,21.1531 L26.3115,21.1531 L30.0305,21.1531 L30.0305,20.2701 C30.0305,18.4361 29.7915,17.0181 28.9325,16.0541 C28.2215,15.2561 27.0305,14.7201 26.0305,14.4571 L26.0305,14.4571 L26.0305,13.1531 Z M23.5899,26.6766 C23.8419,26.8146 24.0569,26.9656 24.2329,27.1296 C24.3159,27.2076 24.4109,27.3366 24.4109,27.6466 C24.4109,27.8846 24.3399,28.0026 24.2789,28.0786 C24.2609,28.1006 24.2199,28.1496 24.0239,28.1496 C23.7909,28.1496 23.7209,28.0806 23.6909,28.0496 C23.6929,28.0496 23.5899,27.8816 23.5899,27.3226 L23.5899,27.3226 Z M24.1626,19.1882 C24.2066,19.1882 24.2246,19.1942 24.2246,19.1942 C24.3336,19.4022 24.3876,19.6352 24.3876,19.9222 L24.3876,19.9222 L24.3876,20.4322 C24.2456,20.3422 24.1186,20.2472 24.0066,20.1462 C23.9146,20.0652 23.8216,19.9392 23.8216,19.6222 C23.8216,19.4772 23.8636,19.3542 23.9566,19.2232 C23.9716,19.2102 24.0346,19.1882 24.1626,19.1882 Z" id="fill---dark" fill="#005B88"></path>
        <path d="M19.5605,30.9582 C18.8055,30.2872 18.4275,29.2202 18.4275,27.7552 L18.4275,27.1302 L22.5905,27.1302 L22.5905,27.5692 C22.5905,28.2642 22.7215,28.7412 22.9835,29.0042 C23.2455,29.2662 23.5925,29.3962 24.0235,29.3962 C24.4705,29.3962 24.8135,29.2502 25.0535,28.9572 C25.2915,28.6652 25.4115,28.3102 25.4115,27.8942 C25.4115,27.3692 25.2455,26.9532 24.9145,26.6452 C24.5825,26.3362 24.1665,26.0702 23.6655,25.8472 C23.1645,25.6242 22.6215,25.3992 22.0355,25.1762 C21.4495,24.9532 20.9055,24.6592 20.4045,24.2972 C19.9035,23.9362 19.4875,23.4612 19.1565,22.8752 C18.8245,22.2902 18.6585,21.5262 18.6585,20.5862 C18.6585,17.7032 20.0695,16.0302 22.8905,15.5672 L22.8905,14.2272 L25.0185,14.2272 L25.0185,15.5672 C26.5595,15.7222 27.6775,16.1882 28.3715,16.9672 C29.0655,17.7462 29.4125,18.9292 29.4125,20.5172 L25.3875,20.5172 L25.3875,20.1692 C25.3875,19.7072 25.2885,19.3022 25.0875,18.9562 C24.8875,18.6082 24.5795,18.4352 24.1625,18.4352 C23.7005,18.4352 23.3605,18.5852 23.1445,18.8862 C22.9295,19.1872 22.8215,19.5152 22.8215,19.8692 C22.8215,20.4092 22.9945,20.8332 23.3415,21.1412 C23.6885,21.4492 24.1235,21.7152 24.6485,21.9382 C25.1725,22.1622 25.7355,22.3782 26.3365,22.5862 C26.9375,22.7942 27.4995,23.0832 28.0245,23.4542 C28.5485,23.8232 28.9845,24.3092 29.3315,24.9102 C29.6775,25.5122 29.8515,26.3132 29.8515,27.3152 C29.8515,28.8882 29.4435,30.0522 28.6255,30.8082 C27.8085,31.5622 26.6065,32.0252 25.0185,32.1942 L25.0185,34.2762 L22.8905,34.2762 L22.8905,32.1942 C21.4255,32.0402 20.3155,31.6282 19.5605,30.9582" id="fill---light" fill="#0076C2"></path>
    </g>
</svg>