<?xml version="1.0" encoding="UTF-8"?>
<svg width="48px" height="48px" viewBox="0 0 48 48" version="1.1" xmlns="http://www.w3.org/2000/svg" xmlns:xlink="http://www.w3.org/1999/xlink">
    <title>aai / uncommon / lock</title>
    <g id="aai-/-uncommon-/-lock" stroke="none" stroke-width="1" fill="none" fill-rule="evenodd">
        <path d="M17.6102,16.2822 C17.6962,12.3572 20.6022,9.1872 24.1792,9.1872 C27.7562,9.1872 30.6652,12.3572 30.7512,16.2822 L17.6102,16.2822 Z M29.4212,35.4952 C29.4212,37.9892 27.3922,40.0192 24.8982,40.0192 L23.4642,40.0192 C20.9682,40.0192 18.9382,37.9892 18.9382,35.4952 L18.9732,35.0942 L19.4532,32.4302 C18.7772,31.4692 18.4042,30.3182 18.4042,29.1352 C18.4042,25.9502 20.9952,23.3582 24.1792,23.3582 C27.3642,23.3582 29.9552,25.9502 29.9552,29.1352 C29.9552,30.2992 29.6142,31.4022 28.9762,32.3442 L29.4212,35.4952 Z M36.8172,16.2822 L34.9462,16.2822 C34.8582,10.0362 30.0752,5.0002 24.1792,5.0002 C18.2832,5.0002 13.5032,10.0362 13.4152,16.2822 L11.5442,16.2822 C10.6912,16.2822 10.0002,16.9332 10.0002,17.7362 L10.0002,41.5472 C10.0002,42.3482 10.6912,43.0002 11.5442,43.0002 L36.8172,43.0002 C37.6682,43.0002 38.3612,42.3482 38.3612,41.5472 L38.3612,17.7362 C38.3612,16.9332 37.6682,16.2822 36.8172,16.2822 L36.8172,16.2822 Z" id="fill---dark" fill="#005B88"></path>
        <path d="M26.6298,31.9307 L27.1608,35.4947 C27.1608,36.7447 26.1488,37.7597 24.8988,37.7597 L23.4648,37.7597 C22.2128,37.7597 21.1988,36.7447 21.1988,35.4947 L21.8398,31.9307 C21.8398,31.8717 21.8678,31.8237 21.8708,31.7657 C21.1378,31.1187 20.6658,30.1867 20.6658,29.1337 C20.6658,27.1917 22.2388,25.6187 24.1798,25.6187 C26.1228,25.6187 27.6948,27.1917 27.6948,29.1337 C27.6948,30.1427 27.2648,31.0467 26.5818,31.6887 C26.5908,31.7717 26.6298,31.8447 26.6298,31.9307" id="fill---light" fill="#0076C2"></path>
    </g>
</svg>