<?xml version="1.0" encoding="UTF-8"?>
<svg width="48px" height="48px" viewBox="0 0 48 48" version="1.1" xmlns="http://www.w3.org/2000/svg" xmlns:xlink="http://www.w3.org/1999/xlink">
    <title>aai / uncommon / login</title>
    <g id="aai-/-uncommon-/-login" stroke="none" stroke-width="1" fill="none" fill-rule="evenodd">
        <rect id="bounding-box" x="0" y="0" width="48" height="48"></rect>
        <path d="M32.480422,25.327831 L19.9690129,38.4499254 C18.8519228,39.621541 16.9156333,38.8014101 16.9156333,37.1220945 L16.9156333,29.6237548 L6.78734978,29.6237548 C6.31295269,29.6250033 5.8576427,29.427904 5.52219224,29.0760801 C5.18674178,28.7242562 4.99881516,28.2467224 5,27.7491698 L5,20.2508302 C4.99881516,19.7532776 5.18674178,19.2757438 5.52219224,18.9239199 C5.8576427,18.572096 6.31295269,18.3749967 6.78734978,18.3762452 L16.9156333,18.3762452 L16.9156333,10.8779055 C16.9156333,9.19858988 18.8519228,8.37845898 19.9690129,9.55007456 L32.480422,22.672169 C33.1731927,23.4082953 33.1731927,24.5917047 32.480422,25.327831 Z" id="fill---dark" fill="#002A49"></path>
        <path d="M43,16.5 L43,31.5 C43,35.6421356 39.8659932,39 36,39 L29.875,39 C29.3917508,39 29,38.580267 29,38.0625 L29,34.9375 C29,34.419733 29.3917508,34 29.875,34 L36,34 C37.2886644,34 38.3333333,32.8807119 38.3333333,31.5 L38.3333333,16.5 C38.3333333,15.1192881 37.2886644,14 36,14 L29.875,14 C29.3917508,14 29,13.580267 29,13.0625 L29,9.9375 C29,9.41973305 29.3917508,9 29.875,9 L36,9 C39.8659932,9 43,12.3578644 43,16.5 Z" id="fill---light" fill="#0076C2"></path>
    </g>
</svg>