<?xml version="1.0" encoding="UTF-8"?>
<svg width="48px" height="48px" viewBox="0 0 48 48" version="1.1" xmlns="http://www.w3.org/2000/svg" xmlns:xlink="http://www.w3.org/1999/xlink">
    <title>aai / uncommon / mail</title>
    <g id="aai-/-uncommon-/-mail" stroke="none" stroke-width="1" fill="none" fill-rule="evenodd">
        <path d="M4.0001,20.5633 C4.0001,20.1623 4.4001,19.9273 4.7281,20.1583 L4.7281,20.1583 L22.2401,32.5073 C23.4111,33.3303 24.9451,33.3243 26.1091,32.4943 L26.1091,32.4943 L43.3281,20.1683 C43.6561,19.9343 44.0001,20.1683 44.0001,20.5713 L44.0001,20.5713 L44.0001,36.3943 C44.0001,38.6393 42.3121,40.4603 40.0671,40.4653 L40.0671,40.4653 L7.8651,40.5223069 C5.7101,40.5263 4.0001,38.7813 4.0001,36.6263 L4.0001,36.6263 Z M22.8545,7.3139 C23.5855,6.8919 24.4885,6.8959 25.2155,7.3259 L25.2155,7.3259 L41.8895,17.8729 C42.0815,17.9939 42.0855,18.2699 41.9005,18.3989 L41.9005,18.3989 L37.3355,21.5609 C37.2245,21.6379 37.0735,21.5589 37.0735,21.4229 L37.0735,21.4229 L37.0695,18.9889 C37.0695,17.9809 36.2475,17.1679 35.2405,17.1799 L35.2405,17.1799 L12.5775,17.2189 C11.5975,17.2299 10.8015,18.0139 10.7765,18.9939 L10.7765,18.9939 L10.7615,21.3659 C10.7605,21.5219 10.5825,21.6109 10.4565,21.5179 L10.4565,21.5179 L6.3295,18.4489 C6.0145,18.2119 6.0435,17.7319 6.3845,17.5349 L6.3845,17.5349 Z" id="fill---dark" fill="#005B88"></path>
        <path d="M28.668,27.1908 C28.852,27.1908 29,27.3388 29,27.5228 L29,27.5228 L29,27.8588 C29,28.0428 28.852,28.1908 28.668,28.1908 L28.668,28.1908 L19.332,28.1908 C19.148,28.1908 19,28.0428 19,27.8588 L19,27.8588 L19,27.5228 C19,27.3388 19.148,27.1908 19.332,27.1908 L19.332,27.1908 Z M35.7949,16.5314 C36.8529,16.5314 37.7129,17.3914 37.7129,18.4484 L37.7129,24.1908 L35.7129,25.6204376 L35.7129,18.5314 L12.2669,18.5314 L12.2869,25.4914398 L10.2869,24.0799408 L10.2869,18.5104 C10.2869,17.4184 11.1749,16.5314 12.2669,16.5314 L35.7949,16.5314 Z M28.668,24.1908 C28.852,24.1908 29,24.3388 29,24.5228 L29,24.5228 L29,24.8588 C29,25.0428 28.852,25.1908 28.668,25.1908 L28.668,25.1908 L19.332,25.1908 C19.148,25.1908 19,25.0428 19,24.8588 L19,24.8588 L19,24.5228 C19,24.3388 19.148,24.1908 19.332,24.1908 L19.332,24.1908 Z M28.668,21.1908 C28.852,21.1908 29,21.3388 29,21.5228 L29,21.5228 L29,21.8588 C29,22.0428 28.852,22.1908 28.668,22.1908 L28.668,22.1908 L19.332,22.1908 C19.148,22.1908 19,22.0428 19,21.8588 L19,21.8588 L19,21.5228 C19,21.3388 19.148,21.1908 19.332,21.1908 L19.332,21.1908 Z" id="fill---light" fill="#0076C2"></path>
    </g>
</svg>