<?xml version="1.0" encoding="UTF-8"?>
<svg width="48px" height="48px" viewBox="0 0 48 48" version="1.1" xmlns="http://www.w3.org/2000/svg" xmlns:xlink="http://www.w3.org/1999/xlink">
    <title>aai / uncommon / multi-unit-11</title>
    <g id="aai-/-uncommon-/-multi-unit-11" stroke="none" stroke-width="1" fill="none" fill-rule="evenodd">
        <rect id="bounding-box" x="0" y="0" width="48" height="48"></rect>
        <path d="M33.32592,24.97904 L44.92592,36.37488 L44.92592,44.72688 L32.39792,44.72688 L32.39792,36.88064 L26.22672,36.88064 L26.22672,44.72688 L13.69872,44.72688 L13.69872,36.88064 L7.52752,36.88064 L7.52752,44.72688 L3.152,44.72688 L3.152,36.32848 L14.64992,24.97904 L22.53792,32.66752 L23.9856,34.05952 L25.43792,32.66752 L33.32592,24.97904 Z M41.07472,36.88992 L36.34192,36.88992 L36.34192,41.50208 L41.07472,41.50208 L41.07472,36.88992 Z M22.35696,36.88992 L17.62416,36.88992 L17.62416,41.50208 L22.35696,41.50208 L22.35696,36.88992 Z M36.9919067,14.5061733 L36.9919067,16.7936933 L29.8463067,16.7936933 L29.8463067,14.5061733 L36.9919067,14.5061733 Z M35.5349467,3.45833333 L36.9919067,5.22153333 L33.4376667,8.15401333 L36.9919067,11.0864933 L35.5349467,12.8543333 L29.8416667,8.15401333 L35.5349467,3.45833333 Z M26.9412891,2.89041667 L26.9412891,16.78625 L24.2886198,16.78625 L24.2886198,6.78917969 L23.9591485,7.08252218 C23.1754256,7.74659272 22.2870069,8.26789625 21.2938924,8.64643277 L20.861862,8.79992187 L20.861862,6.39269531 L21.1242674,6.29822052 C21.7430859,6.05558034 22.407679,5.6575472 23.1180469,5.10412109 C23.8396904,4.54191045 24.359945,3.89640933 24.6788108,3.16761775 L24.7889453,2.89041667 L26.9412891,2.89041667 Z M18.6056771,2.89041667 L18.6056771,16.78625 L15.9530078,16.78625 L15.9530078,6.78917969 L15.6235365,7.08252218 C14.8398136,7.74659272 13.9513949,8.26789625 12.9582804,8.64643277 L12.52625,8.79992187 L12.52625,6.39269531 L12.7886554,6.29822052 C13.4074739,6.05558034 14.0720671,5.6575472 14.7824349,5.10412109 C15.5040784,4.54191045 16.024333,3.89640933 16.3431988,3.16761775 L16.4533333,2.89041667 L18.6056771,2.89041667 Z" id="fill---dark" fill="#005B88"></path>
        <polygon class="polygon" id="fill---light" fill="#0076C2" points="44.08144 30.83472 44.08144 24.8584 39.90544 24.8584 39.90544 26.77472 33.38624 20.44112 24.02736 29.55408 14.67312 20.44112 0.1128 34.59312 1.74608 36.26816 14.66848 23.70768 24.02736 32.82064 33.39088 23.70768 46.31328 36.26816 47.94656 34.59312"></polygon>
    </g>
</svg>