<?xml version="1.0" encoding="UTF-8"?>
<svg width="48px" height="48px" viewBox="0 0 48 48" version="1.1" xmlns="http://www.w3.org/2000/svg" xmlns:xlink="http://www.w3.org/1999/xlink">
    <title>aai / uncommon / multi-unit-10</title>
    <g id="aai-/-uncommon-/-multi-unit-10" stroke="none" stroke-width="1" fill="none" fill-rule="evenodd">
        <rect id="bounding-box" x="0" y="0" width="48" height="48"></rect>
        <path d="M33.32592,24.97904 L44.92592,36.37488 L44.92592,44.72688 L32.39792,44.72688 L32.39792,36.88064 L26.22672,36.88064 L26.22672,44.72688 L13.69872,44.72688 L13.69872,36.88064 L7.52752,36.88064 L7.52752,44.72688 L3.152,44.72688 L3.152,36.32848 L14.64992,24.97904 L22.53792,32.66752 L23.9856,34.05952 L25.43792,32.66752 L33.32592,24.97904 Z M41.07472,36.88992 L36.34192,36.88992 L36.34192,41.50208 L41.07472,41.50208 L41.07472,36.88992 Z M22.35696,36.88992 L17.62416,36.88992 L17.62416,41.50208 L22.35696,41.50208 L22.35696,36.88992 Z M33.0996868,2.89186667 C34.4401816,2.89186667 35.4880331,3.37016528 36.2432415,4.3267625 C37.1431981,5.459575 37.5931764,7.33815573 37.5931764,9.96250469 C37.5931764,12.5805602 37.1400514,14.4622877 36.2338014,15.607687 C35.4848864,16.5516974 34.4401816,17.0237026 33.0996868,17.0237026 C31.7528986,17.0237026 30.6672866,16.5060702 29.8428508,15.4708055 C29.0184151,14.4355407 28.6061972,12.5900003 28.6061972,9.93418438 C28.6061972,7.32871563 29.0593222,5.4532816 29.9655722,4.30788229 C30.7144871,3.36387188 31.759192,2.89186667 33.0996868,2.89186667 Z M17.6585733,14.5061733 L17.6585733,16.7936933 L10.5129733,16.7936933 L10.5129733,14.5061733 L17.6585733,14.5061733 Z M25.8591269,2.89186667 L25.8591269,16.7877 L23.2064576,16.7877 L23.2064576,6.79062969 L22.8769863,7.08397218 C22.0932634,7.74804272 21.2048447,8.26934625 20.2117302,8.64788277 L19.7796998,8.80137188 L19.7796998,6.39414531 L20.0421052,6.29967052 C20.6609237,6.05703034 21.3255168,5.6589972 22.0358847,5.10557109 C22.7575282,4.54336045 23.2777828,3.89785933 23.5966486,3.16906775 L23.7067831,2.89186667 L25.8591269,2.89186667 Z M33.0996868,5.09141094 C32.7787232,5.09141094 32.4923734,5.19367873 32.2406373,5.39821432 C31.9889012,5.60274991 31.7938057,5.96934063 31.6553508,6.49798646 C31.5289987,6.97289631 31.4463838,7.67252534 31.4075062,8.59687352 L31.3880674,9.24639738 L31.3815878,9.96250469 L31.3906648,10.8428712 L31.4178959,11.6104732 L31.4527517,12.1433643 C31.4934167,12.6401707 31.5515097,13.0287231 31.6270305,13.3090216 C31.790659,13.916335 31.9967679,14.3206861 32.2453573,14.522075 C32.4939468,14.7234639 32.7787232,14.8241583 33.0996868,14.8241583 C33.4206503,14.8241583 33.7070001,14.7218905 33.9587363,14.5173549 C34.2104724,14.3128194 34.4055678,13.9462286 34.5440227,13.4175828 C34.6703749,12.9470299 34.7529897,12.2502497 34.7918673,11.3272421 L34.814141,10.5057017 L34.8163334,9.59682633 L34.8047148,8.91959661 L34.7945485,8.60804524 L34.7655021,8.0390695 C34.724837,7.41736323 34.6604507,6.94300265 34.572343,6.61598776 C34.4087145,6.00867439 34.2026056,5.60274991 33.9540162,5.39821432 C33.7054268,5.19367873 33.4206503,5.09141094 33.0996868,5.09141094 Z M16.2016133,3.45833333 L17.6585733,5.22153333 L14.1043333,8.15401333 L17.6585733,11.0864933 L16.2016133,12.8543333 L10.5083333,8.15401333 L16.2016133,3.45833333 Z" id="fill---dark" fill="#005B88"></path>
        <polygon class="polygon" id="fill---light" fill="#0076C2" points="44.08144 30.83472 44.08144 24.8584 39.90544 24.8584 39.90544 26.77472 33.38624 20.44112 24.02736 29.55408 14.67312 20.44112 0.1128 34.59312 1.74608 36.26816 14.66848 23.70768 24.02736 32.82064 33.39088 23.70768 46.31328 36.26816 47.94656 34.59312"></polygon>
    </g>
</svg>