<?xml version="1.0" encoding="UTF-8"?>
<svg width="48px" height="48px" viewBox="0 0 48 48" version="1.1" xmlns="http://www.w3.org/2000/svg" xmlns:xlink="http://www.w3.org/1999/xlink">
    <title>aai / uncommon / policy</title>
    <g id="aai-/-uncommon-/-policy" stroke="none" stroke-width="1" fill="none" fill-rule="evenodd">
        <path d="M13.9091,39.4805 L13.9091,39.4865 C13.9091,39.4865 10.0491,39.1145 9.9931,34.8975 C9.9921,34.8605 9.9971,34.8295 9.9971,34.7925 L9.9971,11.7635 L9.9771,11.7635 C9.9511,11.1365 9.7961,10.1395 9.1271,9.4285 C8.0801,8.3095 6.6861,9.2965 6.3341,9.7745 C5.8341,10.4585 5.5731,11.2905 5.4501,11.7835 L4.4621,11.7885 C4.5791,9.5925 6.5301,7.8405 8.9441,7.7935 L8.9441,7.7895 L33.9761,7.7895 L33.9851,7.7895 C36.1361,8.0355 37.9281,9.5495 38.0901,11.5485 L38.1061,11.5485 L38.1061,34.2895 L18.0011,34.2895 L18.0011,36.0425 L18.0141,36.0425 C17.3411,39.7095 14.0931,39.4975 13.9091,39.4805 L13.9091,39.4805 Z M39.9591,34.2335 L39.9691,12.6905 C39.9691,12.6255 39.9661,12.5625 39.9621,12.4995 L39.9521,11.3485 L39.9431,11.3235 C39.9571,8.5025 37.1111,6.0445 34.8141,6.0095 L34.7541,6.0005 L8.5381,6.0005 L7.5851,6.0045 L7.4921,6.0095 C4.2501,6.5105 2.0001,9.3185 2.0001,12.7765 L2.0001,13.7325 L7.4931,13.7395 L7.4931,35.2085 L7.5821,36.1655 C8.0801,39.5165 11.0641,42.0005 13.6531,42.0005 L13.7391,42.0005 C13.7961,41.9995 13.8521,41.9945 13.9091,41.9895 L38.8961,41.9895 L39.8501,41.9815 L39.8501,41.8995 C43.1651,41.3845 45.7271,38.5465 45.7271,35.1885 L45.7271,34.2335 L39.9591,34.2335 Z" id="fill---dark" fill="#005B88"></path>
        <path d="M30.5861,27.4406 C31.2821,27.4406 31.8461,28.0906 31.8461,28.8896 C31.8461,29.6926 31.2821,30.3406 30.5861,30.3406 L17.1431,30.3406 C16.4481,30.3406 15.8821,29.6926 15.8821,28.8896 C15.8821,28.0906 16.4481,27.4406 17.1431,27.4406 L30.5861,27.4406 Z M30.5861,20.2873 C31.2821,20.2873 31.8461,20.9373 31.8461,21.7383 C31.8461,22.5393 31.2821,23.1883 30.5861,23.1883 L17.1431,23.1883 C16.4481,23.1883 15.8821,22.5393 15.8821,21.7383 C15.8821,20.9373 16.4481,20.2873 17.1431,20.2873 L30.5861,20.2873 Z M30.5861,13.1354 C31.2821,13.1354 31.8461,13.7854 31.8461,14.5854 C31.8461,15.3884 31.2821,16.0364 30.5861,16.0364 L17.1431,16.0364 C16.4481,16.0364 15.8821,15.3884 15.8821,14.5854 C15.8821,13.7854 16.4481,13.1354 17.1431,13.1354 L30.5861,13.1354 Z" id="fill---light" fill="#0076C2"></path>
    </g>
</svg>