<?xml version="1.0" encoding="UTF-8"?>
<svg width="48px" height="48px" viewBox="0 0 48 48" version="1.1" xmlns="http://www.w3.org/2000/svg" xmlns:xlink="http://www.w3.org/1999/xlink">
    <title>aai / uncommon / roadside-assistance</title>
    <g id="aai-/-uncommon-/-roadside-assistance" stroke="none" stroke-width="1" fill="none" fill-rule="evenodd">
        <path d="M37.1224,26.2938 C35.8434,26.2938 34.8034,25.2528 34.8034,23.9748 C34.8034,22.6958 35.8434,21.6548 37.1224,21.6548 C38.4004,21.6548 39.4404,22.6948 39.4404,23.9748 C39.4404,25.2528 38.4004,26.2938 37.1224,26.2938 L37.1224,26.2938 Z M32.8914,16.5238 L26.9134,14.6328 L26.8854,14.6328 L21.9924,14.6328 L21.9634,14.6328 L15.9854,16.5238 L14.7824,16.5238 L15.1994,12.3198 C15.2824,11.3948 16.0584,10.6788 17.0064,10.6788 L32.3864,10.6788 C33.3334,10.6788 34.1094,11.3958 34.1854,11.9568 L34.6154,16.5238 L32.8914,16.5238 Z M31.5314,19.5378 L31.5314,26.5698 L31.5314,31.7788 L17.3454,31.7788 L17.3454,26.5698 L17.3454,22.2818 L17.3454,17.4078 L22.3404,16.0858 L26.5364,16.0858 L31.5324,17.4078 L31.5324,19.5378 L31.5314,19.5378 Z M12.0124,26.3798 C10.7334,26.3798 9.6934,25.3388 9.6934,24.0608 C9.6934,22.7808 10.7334,21.7408 12.0124,21.7408 C13.2914,21.7408 14.3314,22.7808 14.3314,24.0608 C14.3314,25.3388 13.2904,26.3798 12.0124,26.3798 L12.0124,26.3798 Z M32.3864,8.9998 C34.2024,8.9998 35.6984,10.4098 35.8474,12.1928 L35.8474,12.1928 L36.2884,16.9538 L36.5524,20.4658 C36.7384,20.4358 36.9284,20.4158 37.1224,20.4158 C39.0844,20.4158 40.6814,22.0118 40.6814,23.9748 C40.6814,24.7078 40.4574,25.3898 40.0764,25.9568 C40.7594,26.9578 41.0094,28.2768 41.0094,29.7258 L41.0094,29.7258 L41.0094,31.8478 C41.5114,32.0138 41.8774,32.4808 41.8774,33.0388 L41.8774,33.0388 L41.8774,33.6558 C41.8774,34.3518 41.3104,34.9168 40.6164,34.9168 L40.6164,34.9168 L39.1644,34.9168 L39.1644,37.2588 C39.1644,38.5778 38.0954,39.6478 36.7754,39.6478 C35.4564,39.6478 34.3874,38.5778 34.3874,37.2588 L34.3874,37.2588 L34.3874,34.9168 L14.4904,34.9168 L14.4904,37.2588 C14.4904,38.5778 13.4204,39.6478 12.1014,39.6478 C10.7824,39.6478 9.7124,38.5778 9.7124,37.2588 L9.7124,37.2588 L9.7124,34.9168 L8.2594,34.9168 C7.5654,34.9168 6.9994,34.3518 6.9994,33.6558 L6.9994,33.6558 L6.9994,33.0388 C6.9994,32.4818 7.3664,32.0138 7.8684,31.8478 L7.8684,31.8478 L7.8684,29.7258 C7.8684,28.1998 8.1434,26.8188 8.9114,25.8018 C8.6204,25.2858 8.4534,24.6918 8.4534,24.0608 C8.4534,22.0978 10.0494,20.5018 12.0124,20.5018 C12.2424,20.5018 12.4664,20.5248 12.6854,20.5668 L12.6854,20.5668 L13.1034,16.9538 L13.5434,12.1928 C13.6814,10.4098 15.1784,8.9998 17.0054,8.9998 L17.0054,8.9998 Z" id="fill" fill="#005B88"></path>
    </g>
</svg>