<?xml version="1.0" encoding="UTF-8"?>
<svg width="48px" height="48px" viewBox="0 0 48 48" version="1.1" xmlns="http://www.w3.org/2000/svg" xmlns:xlink="http://www.w3.org/1999/xlink">
    <title>aai / uncommon / wall</title>
    <g id="aai-/-uncommon-/-wall" stroke="none" stroke-width="1" fill="none" fill-rule="evenodd">
        <rect id="bounding-box" x="0" y="0" width="48" height="48"></rect>
        <path d="M8.97959184,10 L21.9319728,10 C22.4729864,10 22.9115646,10.4385782 22.9115646,10.9795918 L22.9115646,14.462585 C22.9115646,15.0035987 22.4729864,15.4421769 21.9319728,15.4421769 L8.97959184,15.4421769 C8.4385782,15.4421769 8,15.0035987 8,14.462585 L8,10.9795918 C8.04975903,10.4605831 8.46058314,10.049759 8.97959184,10 Z M26.0680272,10 L39.0204082,10 C39.5614218,10 40,10.4385782 40,10.9795918 L40,14.462585 C40,15.0035987 39.5614218,15.4421769 39.0204082,15.4421769 L26.0680272,15.4421769 C25.5270136,15.4421769 25.0884354,15.0035987 25.0884354,14.462585 L25.0884354,10.9795918 C24.9795918,10.5442177 25.5238095,10 26.0680272,10 Z M30.4217687,23.2789116 C30.9627823,23.2789116 31.4013605,22.8403334 31.4013605,22.2993197 L31.4013605,18.8163265 C31.4013605,18.2753129 30.9627823,17.8367347 30.4217687,17.8367347 L17.5782313,17.8367347 C17.0372177,17.8367347 16.5986395,18.2753129 16.5986395,18.8163265 L16.5986395,22.2993197 C16.5986395,22.8403334 17.0372177,23.2789116 17.5782313,23.2789116 L30.4217687,23.2789116 Z M13.4421769,23.2789116 C13.9831905,23.2789116 14.4217687,22.8403334 14.4217687,22.2993197 L14.4217687,18.8163265 C14.4217687,18.2753129 13.9831905,17.8367347 13.4421769,17.8367347 L9.08843537,17.8367347 C8.54742174,17.8367347 8.10884354,18.2753129 8.10884354,18.8163265 L8.10884354,22.2993197 C8.10884354,22.8403334 8.54742174,23.2789116 9.08843537,23.2789116 L13.4421769,23.2789116 Z M38.9115646,23.2789116 C39.4525783,23.2789116 39.8911565,22.8403334 39.8911565,22.2993197 L39.8911565,18.8163265 C39.8911565,18.2753129 39.4525783,17.8367347 38.9115646,17.8367347 L34.5578231,17.8367347 C34.0168095,17.8367347 33.5782313,18.2753129 33.5782313,18.8163265 L33.5782313,22.2993197 C33.5782313,22.8403334 34.0168095,23.2789116 34.5578231,23.2789116 L38.9115646,23.2789116 Z M21.9319728,30.8979592 C22.4729864,30.8979592 22.9115646,30.459381 22.9115646,29.9183673 L22.9115646,26.4353741 C22.9115646,25.8943605 22.4729864,25.4557823 21.9319728,25.4557823 L8.97959184,25.4557823 C8.4385782,25.4557823 8,25.8943605 8,26.4353741 L8,29.9183673 C8,30.459381 8.4385782,30.8979592 8.97959184,30.8979592 L21.9319728,30.8979592 Z M39.0204082,30.8979592 C39.5614218,30.8979592 40,30.459381 40,29.9183673 L40,26.4353741 C40,25.8943605 39.5614218,25.4557823 39.0204082,25.4557823 L26.0680272,25.4557823 C25.5270136,25.4557823 25.0884354,25.8943605 25.0884354,26.4353741 L25.0884354,29.9183673 C25.0884354,30.459381 25.5270136,30.8979592 26.0680272,30.8979592 L39.0204082,30.8979592 Z M17.5782313,32.8571429 L30.5306122,32.8571429 C31.0716259,32.8571429 31.5102041,33.2957211 31.5102041,33.8367347 L31.5102041,37.3197279 C31.5102041,37.8607415 31.0716259,38.2993197 30.5306122,38.2993197 L17.5782313,38.2993197 C17.0372177,38.2993197 16.5986395,37.8607415 16.5986395,37.3197279 L16.5986395,33.8367347 C16.4897959,33.4013605 16.9251701,32.8571429 17.5782313,32.8571429 Z M9.08843537,32.8571429 L13.4421769,32.8571429 C13.9831905,32.8571429 14.4217687,33.2957211 14.4217687,33.8367347 L14.4217687,37.3197279 C14.4217687,37.8607415 13.9831905,38.2993197 13.4421769,38.2993197 L9.08843537,38.2993197 C8.54742174,38.2993197 8.10884354,37.8607415 8.10884354,37.3197279 L8.10884354,33.8367347 C8.15860257,33.317726 8.56942667,32.9069019 9.08843537,32.8571429 Z M34.5578231,32.8571429 L38.9115646,32.8571429 C39.4525783,32.8571429 39.8911565,33.2957211 39.8911565,33.8367347 L39.8911565,37.3197279 C39.8911565,37.8607415 39.4525783,38.2993197 38.9115646,38.2993197 L34.5578231,38.2993197 C34.0168095,38.2993197 33.5782313,37.8607415 33.5782313,37.3197279 L33.5782313,33.8367347 C33.6279903,33.317726 34.0388144,32.9069019 34.5578231,32.8571429 Z" id="fill" fill="#005B88"></path>
    </g>
</svg>