<?xml version="1.0" encoding="UTF-8"?>
<svg width="48px" height="48px" viewBox="0 0 48 48" version="1.1" xmlns="http://www.w3.org/2000/svg" xmlns:xlink="http://www.w3.org/1999/xlink">
    <title>aai / help / info</title>
    <g id="aai-/-help-/-info" stroke="none" stroke-width="1" fill="none" fill-rule="evenodd">
        <path d="M32,32 L24,32 L24,31.562 C24,31.545 24.558,31.525 24.765,31.501 C24.972,31.477 25.214,31.434 25.363,31.377 C25.628,31.279 25.772,31.136 25.88,30.949 C25.987,30.763 26,30.519 26,30.213 L26,23.006 C26,22.717 26.008,22.465 25.875,22.245 C25.743,22.026 25.616,21.851 25.417,21.718 C25.27,21.62 25.084,21.524 24.784,21.432 C24.482,21.344 24,21.285 24,21.26 L24,20.355 L29.94,20.033 L30,20.221 L30,30.054 C30,30.341 30.166,30.588 30.29,30.788 C30.414,30.992 30.644,31.143 30.875,31.24 C31.04,31.314 31.202,31.382 31.4,31.439 C31.599,31.497 32,31.538 32,31.562 L32,32 Z M26.117,13.966 C26.6,13.521 27.175,13.297 27.844,13.297 C28.513,13.297 29.086,13.521 29.565,13.966 C30.044,14.411 30.284,14.949 30.284,15.577 C30.284,16.203 30.042,16.738 29.559,17.18 C29.076,17.62 28.505,17.842 27.844,17.842 C27.175,17.842 26.6,17.62 26.117,17.18 C25.634,16.738 25.393,16.203 25.393,15.577 C25.393,14.949 25.634,14.411 26.117,13.966 L26.117,13.966 Z M38.543,10 L17.288,10 C13.722,10 11,11.984 11,15.002 L11,29.515 L3,38 L38.543,38 C42.11,38 45,36.02 45,33.002 L45,15.002 C45,11.984 42.11,10 38.543,10 L38.543,10 Z" id="fill" fill="#0076C2"></path>
    </g>
</svg>