<?xml version="1.0" encoding="UTF-8"?>
<svg width="48px" height="48px" viewBox="0 0 48 48" version="1.1" xmlns="http://www.w3.org/2000/svg" xmlns:xlink="http://www.w3.org/1999/xlink">
    <title>aai / help / question</title>
    <g id="aai-/-help-/-question" stroke="none" stroke-width="1" fill="none" fill-rule="evenodd">
        <path d="M25.6553,28.0028 L25.6553,27.4568 C25.6553,26.3738 26.2373,25.3348 27.2113,24.6058 C28.6423,23.5318 29.4793,21.8248 29.4293,20.0378 C29.3493,17.1648 26.9553,14.7628 24.0813,14.6838 L23.9303,14.6808 C22.4873,14.6808 21.1233,15.1908 20.0893,16.1978 C19.0373,17.2208 18.4493,19.0028 18.4233,20.0028 L21.9653,20.0028 C21.9893,20.0028 22.1983,18.9768 22.5593,18.6258 C22.9283,18.2658 23.4143,18.0028 23.9253,18.0028 L23.9903,18.0028 C24.9993,18.0028 25.8753,19.0168 25.9023,20.0248 C25.9213,20.6748 25.8793,21.3268 25.3583,21.7158 C23.4853,23.1208 22.6553,25.2478 22.6553,27.4568 L22.6553,28.0028 L25.6553,28.0028 Z M22.6553,33.0028 L25.6553,33.0028 L25.6553,30.0028 L22.6553,30.0028 L22.6553,33.0028 Z M23.9333,40.8668 C14.5953,40.8668 7.0003,33.2708 7.0003,23.9328 C7.0003,14.5958 14.5953,6.9998 23.9333,6.9998 C33.2703,6.9998 40.8663,14.5958 40.8663,23.9328 C40.8663,33.2708 33.2703,40.8668 23.9333,40.8668 L23.9333,40.8668 Z" id="fill" fill="#0076C2"></path>
    </g>
</svg>