<?xml version="1.0" encoding="UTF-8"?>
<svg width="48px" height="48px" viewBox="0 0 48 48" version="1.1" xmlns="http://www.w3.org/2000/svg" xmlns:xlink="http://www.w3.org/1999/xlink">
    <title>aai / risks / building-material</title>
    <g id="aai-/-risks-/-building-material" stroke="none" stroke-width="1" fill="none" fill-rule="evenodd">
        <path d="M39.127,39.294 L39.127,42 L7.955,42 L7.955,39.294 L39.127,39.294 Z M23.7578,6 L23.7578,6.021 L32.3518,14.617 L32.3518,11.525 L37.8858,11.525 L37.8858,20.151 L42.4928,24.756 L42.4928,24.758 L40.3228,26.928 L39.0608,25.666 L39.0608,25.575 L38.9678,25.575 L23.7578,10.366 L23.7578,10.344 L23.7478,10.355 L23.7358,10.344 L23.7358,10.366 L8.5258,25.575 L8.4338,25.575 L8.4338,25.666 L7.1708,26.928 L4.9998,24.757 L23.7358,6.021 L23.7358,6 L23.7478,6.01 L23.7578,6 Z" id="fill---dark" fill="#005B88"></path>
        <path d="M37.4384,34.2318 C37.9144,34.2318 38.2994,34.6158 38.2994,35.0918 L38.2994,36.0068 C38.2994,36.4828 37.9144,36.8668 37.4384,36.8668 L34.8564,36.8668 C34.3814,36.8668 33.9944,36.4828 33.9944,36.0068 L33.9944,35.0918 C33.9944,34.6158 34.3814,34.2318 34.8564,34.2318 L37.4384,34.2318 Z M12.6923,34.2318 C13.1673,34.2318 13.5523,34.6158 13.5523,35.0918 L13.5523,36.0068 C13.5523,36.4828 13.1673,36.8668 12.6923,36.8668 L10.1093,36.8668 C9.6333,36.8668 9.2473,36.4828 9.2473,36.0068 L9.2473,35.0918 C9.2473,34.6158 9.6333,34.2318 10.1093,34.2318 L12.6923,34.2318 Z M18.8783,34.2318 C19.3543,34.2318 19.7393,34.6158 19.7393,35.0918 L19.7393,36.0068 C19.7393,36.4828 19.3543,36.8668 18.8783,36.8668 L16.2963,36.8668 C15.8203,36.8668 15.4343,36.4828 15.4343,36.0068 L15.4343,35.0918 C15.4343,34.6158 15.8203,34.2318 16.2963,34.2318 L18.8783,34.2318 Z M25.0653,34.2318 C25.5393,34.2318 25.9263,34.6158 25.9263,35.0918 L25.9263,36.0068 C25.9263,36.4828 25.5393,36.8668 25.0653,36.8668 L22.4813,36.8668 C22.0063,36.8668 21.6213,36.4828 21.6213,36.0068 L21.6213,35.0918 C21.6213,34.6158 22.0063,34.2318 22.4813,34.2318 L25.0653,34.2318 Z M31.2509,34.2318 C31.7259,34.2318 32.1119,34.6158 32.1119,35.0918 L32.1119,36.0068 C32.1119,36.4828 31.7259,36.8668 31.2509,36.8668 L28.6699,36.8668 C28.1939,36.8668 27.8079,36.4828 27.8079,36.0068 L27.8079,35.0918 C27.8079,34.6158 28.1939,34.2318 28.6699,34.2318 L31.2509,34.2318 Z M16.1347,30.7885 C16.6097,30.7885 16.9947,31.1725 16.9947,31.6485 L16.9947,32.5625 C16.9947,33.0385 16.6097,33.4245 16.1347,33.4245 L13.5527,33.4245 C13.0767,33.4245 12.6917,33.0385 12.6917,32.5625 L12.6917,31.6485 C12.6917,31.1725 13.0767,30.7885 13.5527,30.7885 L16.1347,30.7885 Z M22.3749,30.7885 C22.8499,30.7885 23.2359,31.1725 23.2359,31.6485 L23.2359,32.5625 C23.2359,33.0385 22.8499,33.4245 22.3749,33.4245 L19.7929,33.4245 C19.3179,33.4245 18.9329,33.0385 18.9329,32.5625 L18.9329,31.6485 C18.9329,31.1725 19.3179,30.7885 19.7929,30.7885 L22.3749,30.7885 Z M28.6152,30.7885 C29.0902,30.7885 29.4762,31.1725 29.4762,31.6485 L29.4762,32.5625 C29.4762,33.0385 29.0902,33.4245 28.6152,33.4245 L26.0342,33.4245 C25.5572,33.4245 25.1722,33.0385 25.1722,32.5625 L25.1722,31.6485 C25.1722,31.1725 25.5572,30.7885 26.0342,30.7885 L28.6152,30.7885 Z M34.8564,30.7885 C35.3314,30.7885 35.7164,31.1725 35.7164,31.6485 L35.7164,32.5625 C35.7164,33.0385 35.3314,33.4245 34.8564,33.4245 L32.2744,33.4245 C31.7984,33.4245 31.4124,33.0385 31.4124,32.5625 L31.4124,31.6485 C31.4124,31.1725 31.7984,30.7885 32.2744,30.7885 L34.8564,30.7885 Z M12.6923,27.3461 C13.1673,27.3461 13.5523,27.7301 13.5523,28.2061 L13.5523,29.1201 C13.5523,29.5961 13.1673,29.9811 12.6923,29.9811 L10.1093,29.9811 C9.6333,29.9811 9.2473,29.5961 9.2473,29.1201 L9.2473,28.2061 C9.2473,27.7301 9.6333,27.3461 10.1093,27.3461 L12.6923,27.3461 Z M18.8783,27.3461 C19.3543,27.3461 19.7393,27.7301 19.7393,28.2061 L19.7393,29.1201 C19.7393,29.5961 19.3543,29.9811 18.8783,29.9811 L16.2963,29.9811 C15.8203,29.9811 15.4343,29.5961 15.4343,29.1201 L15.4343,28.2061 C15.4343,27.7301 15.8203,27.3461 16.2963,27.3461 L18.8783,27.3461 Z M25.0653,27.3461 C25.5393,27.3461 25.9263,27.7301 25.9263,28.2061 L25.9263,29.1201 C25.9263,29.5961 25.5393,29.9811 25.0653,29.9811 L22.4813,29.9811 C22.0063,29.9811 21.6213,29.5961 21.6213,29.1201 L21.6213,28.2061 C21.6213,27.7301 22.0063,27.3461 22.4813,27.3461 L25.0653,27.3461 Z M31.2509,27.3461 C31.7259,27.3461 32.1119,27.7301 32.1119,28.2061 L32.1119,29.1201 C32.1119,29.5961 31.7259,29.9811 31.2509,29.9811 L28.6699,29.9811 C28.1939,29.9811 27.8079,29.5961 27.8079,29.1201 L27.8079,28.2061 C27.8079,27.7301 28.1939,27.3461 28.6699,27.3461 L31.2509,27.3461 Z M37.4384,27.3461 C37.9144,27.3461 38.2994,27.7301 38.2994,28.2061 L38.2994,29.1201 C38.2994,29.5961 37.9144,29.9811 37.4384,29.9811 L34.8564,29.9811 C34.3814,29.9811 33.9944,29.5961 33.9944,29.1201 L33.9944,28.2061 C33.9944,27.7301 34.3814,27.3461 34.8564,27.3461 L37.4384,27.3461 Z M16.1347,23.9018 C16.6097,23.9018 16.9947,24.2868 16.9947,24.7618 L16.9947,25.6768 C16.9947,26.1518 16.6097,26.5368 16.1347,26.5368 L13.5527,26.5368 C13.0767,26.5368 12.6917,26.1518 12.6917,25.6768 L12.6917,24.7618 C12.6917,24.2868 13.0767,23.9018 13.5527,23.9018 L16.1347,23.9018 Z M22.3749,23.9018 C22.8499,23.9018 23.2359,24.2868 23.2359,24.7618 L23.2359,25.6768 C23.2359,26.1518 22.8499,26.5368 22.3749,26.5368 L19.7929,26.5368 C19.3179,26.5368 18.9329,26.1518 18.9329,25.6768 L18.9329,24.7618 C18.9329,24.2868 19.3179,23.9018 19.7929,23.9018 L22.3749,23.9018 Z M28.6152,23.9018 C29.0902,23.9018 29.4762,24.2868 29.4762,24.7618 L29.4762,25.6768 C29.4762,26.1518 29.0902,26.5368 28.6152,26.5368 L26.0342,26.5368 C25.5572,26.5368 25.1722,26.1518 25.1722,25.6768 L25.1722,24.7618 C25.1722,24.2868 25.5572,23.9018 26.0342,23.9018 L28.6152,23.9018 Z M34.8564,23.9018 C35.3314,23.9018 35.7164,24.2868 35.7164,24.7618 L35.7164,25.6768 C35.7164,26.1518 35.3314,26.5368 34.8564,26.5368 L32.2744,26.5368 C31.7984,26.5368 31.4124,26.1518 31.4124,25.6768 L31.4124,24.7618 C31.4124,24.2868 31.7984,23.9018 32.2744,23.9018 L34.8564,23.9018 Z" id="fill---light" fill="#0076C2"></path>
    </g>
</svg>