<?xml version="1.0" encoding="UTF-8"?>
<svg width="48px" height="48px" viewBox="0 0 48 48" version="1.1" xmlns="http://www.w3.org/2000/svg" xmlns:xlink="http://www.w3.org/1999/xlink">
    <title>aai / risks / car-fire</title>
    <g id="aai-/-risks-/-car-fire" stroke="none" stroke-width="1" fill="none" fill-rule="evenodd">
        <path d="M36.9929,37.543 C36.1709,37.864 31.8639,38.255 31.1809,38.158 C30.7469,38.096 31.2219,36.814 31.4699,36.278 C31.6329,35.927 37.9659,34.472 37.9659,34.472 C37.9659,34.472 37.8149,37.221 36.9929,37.543 M28.7359,38.135 C28.3109,38.386 24.4839,38.465 24.4839,38.465 C24.4839,38.465 20.6579,38.386 20.2319,38.135 C20.0569,38.034 19.9599,36.403 19.9599,36.403 C19.9599,36.403 22.6689,36.251 24.4839,36.251 C26.2999,36.251 29.0089,36.403 29.0089,36.403 C29.0089,36.403 28.9109,38.034 28.7359,38.135 M17.7879,38.158 C17.1039,38.255 12.7969,37.864 11.9749,37.543 C11.1529,37.221 11.0029,34.472 11.0029,34.472 C11.0029,34.472 17.3359,35.927 17.4979,36.278 C17.7459,36.814 18.2219,38.096 17.7879,38.158 M42.9579,30.139 C42.7949,29.278 41.6019,28.706 40.6339,28.706 C38.8049,28.706 39.2559,29.456 38.7829,29.93 C38.6339,30.08 38.4539,30.194 38.2799,30.286 C36.9469,25.89 34.9869,23.404 34.4399,22.855 C34.0599,22.477 32.7239,21.928 30.3069,21.563 C30.3819,21.997 30.4349,22.442 30.4669,22.902 C32.4389,23.233 33.2479,23.668 33.4229,23.818 C33.7929,24.19 35.1389,26.262 36.2859,29.399 C36.6679,30.444 36.2199,30.279 34.7869,30.557 C33.9619,30.718 30.6769,30.799 28.0329,30.838 C27.0989,31.858 25.9299,32.629 24.5649,33.098 C23.7159,33.39 22.7949,33.538 21.8269,33.538 C19.7879,33.538 17.7219,32.874 16.1579,31.719 C15.7879,31.446 15.3769,31.082 14.9619,30.644 C14.6219,30.617 14.3479,30.589 14.1819,30.557 C12.7479,30.279 12.3009,30.444 12.6829,29.399 C12.8449,28.958 13.0109,28.543 13.1769,28.146 C12.8469,27.518 12.5689,26.832 12.3719,26.097 C11.7949,27.216 11.1969,28.61 10.6879,30.286 C10.5139,30.194 10.3339,30.08 10.1849,29.93 C9.7129,29.456 10.1629,28.706 8.3349,28.706 C7.3659,28.706 6.1739,29.278 6.0099,30.139 C5.7589,31.457 10.3039,31.676 10.3039,31.676 L10.3069,31.676 C10.2789,31.79 10.2499,31.898 10.2219,32.015 C10.2219,32.015 9.2779,32.909 9.2779,34.251 C9.2779,35.435 9.4629,39.333 10.0609,40.803 L10.0609,43.974 C10.0609,44.541 10.5209,45 11.0889,45 L13.5169,45 C14.0869,45 14.5449,44.541 14.5449,43.974 L14.5449,42.144 C16.8869,42.326 20.1839,42.41 24.4839,42.41 C28.7839,42.41 32.0819,42.326 34.4229,42.144 L34.4229,43.974 C34.4229,44.541 34.8819,45 35.4509,45 L37.8799,45 C38.4479,45 38.9069,44.541 38.9069,43.974 L38.9069,40.803 C39.5049,39.331 39.6899,35.434 39.6899,34.251 C39.6899,32.909 38.7469,32.015 38.7469,32.015 C38.7189,31.898 38.6879,31.79 38.6609,31.676 L38.6649,31.676 C38.6649,31.676 43.2099,31.457 42.9579,30.139" id="fill---dark" fill="#005B88"></path>
        <path d="M16.8706,9.1706 C17.0176,8.9186 17.3786,12.6296 22.3046,15.7026 C22.8256,16.0276 23.3236,16.3916 23.7686,16.8156 C24.9596,17.9476 26.0216,20.1326 25.4936,22.0346 C25.4486,22.1996 25.2066,22.5706 25.3126,22.7366 C25.4326,22.9236 25.6556,22.7306 25.7616,22.6116 C25.9716,22.3716 27.2036,19.9906 25.9646,18.0776 C26.5706,18.3276 26.8426,18.6606 27.1776,19.0756 C28.7916,21.0846 29.6816,29.1006 23.8766,31.0936 C21.8116,31.8036 19.1676,31.3086 17.4176,30.0146 C16.0936,29.0356 13.0216,25.6546 14.6546,21.3026 C15.5096,19.0276 15.1216,18.2246 14.7766,17.4586 C15.5026,17.7216 15.8606,18.6886 16.0556,19.3566 C16.2946,20.1816 16.0196,20.9196 16.0776,21.7456 C16.1546,22.8566 17.0526,23.8026 18.0916,24.1156 C19.1316,24.4286 19.0776,23.5576 18.8076,22.8706 C18.3676,21.7536 17.7066,20.7496 17.0666,19.7426 C16.1646,18.3276 15.5816,16.9696 15.3856,15.2856 C15.1386,13.1416 15.7996,11.0226 16.8706,9.1706 Z M17.4858,3.0002 C19.3838,3.9702 19.6668,5.5122 20.2258,8.7452 C20.7848,11.9792 22.8868,10.0292 21.9058,7.9082 C24.0958,9.2472 24.8128,13.3322 23.8958,15.5552 L23.780311,15.4979078 C22.9587167,15.0799014 18.0362167,12.3981167 18.2058,8.2282 C18.3403455,4.92129091 18.2559157,4.12254711 17.9398165,3.59586341 L17.87783,3.4997525 C17.7699839,3.34306157 17.6394364,3.19929091 17.4858,3.0002 Z" id="fill---light" fill="#0076C2"></path>
    </g>
</svg>