<?xml version="1.0" encoding="UTF-8"?>
<svg width="48px" height="48px" viewBox="0 0 48 48" version="1.1" xmlns="http://www.w3.org/2000/svg" xmlns:xlink="http://www.w3.org/1999/xlink">
    <title>aai / risks / flood</title>
    <g id="aai-/-risks-/-flood" stroke="none" stroke-width="1" fill="none" fill-rule="evenodd">
        <path d="M8.5649,24.3021 L8.5649,34.6281 C8.9669,34.5041 9.3579,34.3571 9.7319,34.1741 C10.1679,33.9531 10.5429,33.7201 10.8719,33.4621 C11.2169,33.1941 11.5389,32.8661 11.8019,32.5181 L12.7069,31.3291 L13.8019,32.4741 C13.9439,32.6191 14.0969,32.7521 14.2599,32.8761 L14.2599,27.0011 L22.2939,27.0011 L22.2939,32.6661 C22.4929,32.5041 22.6779,32.3361 22.8269,32.1561 L24.0019,30.7541 L25.1859,32.1541 C25.4299,32.4441 25.7289,32.7091 26.0749,32.9431 C26.4079,33.1681 26.7759,33.3611 27.1689,33.5151 C27.9139,33.8151 28.7379,33.9861 29.6239,34.0231 C29.9309,34.0411 30.2109,34.0321 30.4989,34.0101 C31.0409,33.9681 31.5829,33.8651 32.1069,33.7071 C32.4959,33.5871 32.8789,33.4191 33.2419,33.2091 C33.2579,33.2001 33.2699,33.1871 33.2849,33.1781 L27.4009,33.1781 L27.4009,27.0171 L33.5649,27.0171 L33.5649,32.9751 C33.7289,32.8611 33.8999,32.7591 34.0479,32.6231 C34.1169,32.5581 34.1649,32.5131 34.2109,32.4651 L35.3149,31.3181 L36.2189,32.5081 C36.5049,32.8871 36.8259,33.2251 37.1739,33.5101 C37.4969,33.7811 37.8679,34.0291 38.3139,34.2701 C38.4139,34.3231 38.5239,34.3701 38.6299,34.4201 L38.6299,24.3021 L39.8669,25.5421 L41.9979,23.4121 L37.4779,18.8911 L37.4779,10.4241 L32.0439,10.4241 L32.0439,13.4581 L23.6079,5.0211 L23.6079,5.0001 L23.5979,5.0121 L23.5869,5.0001 L23.5869,5.0211 L5.1979,23.4121 L7.3269,25.5421 L8.5649,24.3021 Z" id="fill---dark" fill="#005B88"></path>
        <path d="M23.9907,36.6972 L24.4397,37.2282 C24.7407,37.5862 25.1057,37.9112 25.5257,38.1942 C25.9147,38.4582 26.3457,38.6842 26.8007,38.8622 C27.6427,39.2012 28.5747,39.3952 29.5627,39.4372 C29.8957,39.4542 30.2287,39.4482 30.5587,39.4212 C31.1687,39.3742 31.7787,39.2602 32.3717,39.0802 C32.8307,38.9392 33.2797,38.7422 33.6997,38.4992 C34.0517,38.3022 34.3807,38.0622 34.7117,37.7562 C34.7707,37.7012 34.8297,37.6442 34.8857,37.5862 L34.8857,37.5862 L35.2137,37.2432 L35.4407,37.5432 C35.7727,37.9832 36.1467,38.3742 36.5487,38.7062 C36.9177,39.0142 37.3407,39.2972 37.8447,39.5702 C38.2677,39.7972 38.7257,39.9882 39.2447,40.1552 C39.7047,40.3052 40.1997,40.4132 40.7077,40.4812 C41.1837,40.5492 41.7017,40.5712 42.2077,40.5532 C42.6857,40.5362 43.1937,40.4672 43.7247,40.3472 C43.8177,40.3252 43.9087,40.3012 43.9997,40.2762 C43.8587,40.3722 43.7127,40.4642 43.5667,40.5492 C42.7007,41.0562 41.7417,41.3782 40.7197,41.5072 C40.2307,41.5642 39.7307,41.5702 39.2417,41.5332 C38.7487,41.4912 38.2627,41.3952 37.7537,41.2372 C37.2647,41.0872 36.7727,40.8612 36.2947,40.5712 C36.0307,40.4092 35.7777,40.2282 35.5437,40.0332 L35.5437,40.0332 L35.2067,39.7532 L34.8987,40.0662 C34.6477,40.3202 34.3757,40.5552 34.0747,40.7792 C33.6287,41.1042 33.1477,41.3772 32.6037,41.6142 C31.6847,42.0152 30.6917,42.2342 29.5727,42.2822 C28.5257,42.3202 27.4917,42.1572 26.5107,41.8082 C25.9587,41.6042 25.4637,41.3572 24.9997,41.0512 C24.7657,40.8992 24.5327,40.7242 24.3037,40.5262 L24.3037,40.5262 L23.9917,40.2572 L23.6797,40.5262 C23.4497,40.7232 23.2147,40.8942 22.9827,41.0442 C22.5067,41.3502 22.0127,41.5922 21.4737,41.7842 C20.4937,42.1272 19.4327,42.2802 18.4187,42.2442 C17.3097,42.2002 16.3187,41.9862 15.3877,41.5852 C14.4827,41.1992 13.7297,40.6962 13.0847,40.0462 L13.0847,40.0462 L12.7827,39.7422 L12.4477,40.0082 C12.2087,40.1982 11.9567,40.3692 11.6777,40.5322 C11.2197,40.7942 10.7267,41.0002 10.2137,41.1422 C9.2717,41.4052 8.2517,41.4702 7.2677,41.3542 C6.2467,41.2272 5.2907,40.9232 4.4257,40.4502 C4.2807,40.3712 4.1387,40.2872 3.9997,40.1982 C4.0917,40.2212 4.1867,40.2422 4.2827,40.2632 C5.2507,40.4542 6.2687,40.4832 7.2717,40.3472 C8.2847,40.2142 9.2487,39.9262 10.1437,39.4892 C10.6397,39.2372 11.0657,38.9712 11.4457,38.6762 C11.8617,38.3512 12.2337,37.9732 12.5517,37.5512 L12.5517,37.5512 L12.7717,37.2572 L13.1157,37.6152 C13.4447,37.9522 13.8367,38.2492 14.2817,38.4982 C14.7027,38.7362 15.1517,38.9272 15.6167,39.0702 C16.2787,39.2652 16.9677,39.3812 17.6677,39.4132 C17.9197,39.4232 18.1627,39.4262 18.4227,39.4142 C19.4217,39.3672 20.3517,39.1762 21.1857,38.8462 C21.6657,38.6582 22.0847,38.4422 22.4647,38.1842 C22.8907,37.9002 23.2557,37.5782 23.5467,37.2282 L23.5467,37.2282 L23.9907,36.6972 Z M23.9907,32.2147 L24.4397,32.7457 C24.7407,33.1047 25.1057,33.4287 25.5257,33.7117 C25.9147,33.9767 26.3457,34.2017 26.8007,34.3807 C27.6427,34.7197 28.5747,34.9137 29.5627,34.9557 C29.8957,34.9727 30.2287,34.9657 30.5587,34.9387 C31.1687,34.8927 31.7787,34.7777 32.3717,34.5977 C32.8307,34.4567 33.2797,34.2597 33.6997,34.0177 C34.0517,33.8197 34.3807,33.5797 34.7117,33.2747 C34.7707,33.2187 34.8297,33.1627 34.8857,33.1047 L34.8857,33.1047 L35.2137,32.7617 L35.4407,33.0617 C35.7727,33.5007 36.1467,33.8927 36.5487,34.2237 C36.9177,34.5327 37.3407,34.8147 37.8447,35.0877 C38.2677,35.3157 38.7257,35.5067 39.2447,35.6737 C39.7047,35.8227 40.1997,35.9317 40.7077,35.9997 C41.1837,36.0667 41.7017,36.0887 42.2077,36.0707 C42.6857,36.0537 43.1937,35.9847 43.7247,35.8657 C43.8177,35.8427 43.9087,35.8187 43.9997,35.7937 C43.8587,35.8907 43.7127,35.9817 43.5667,36.0667 C42.7007,36.5747 41.7417,36.8967 40.7197,37.0247 C40.2307,37.0827 39.7307,37.0877 39.2417,37.0507 C38.7487,37.0087 38.2627,36.9137 37.7537,36.7547 C37.2647,36.6047 36.7727,36.3797 36.2947,36.0887 C36.0307,35.9267 35.7777,35.7467 35.5437,35.5517 L35.5437,35.5517 L35.2067,35.2717 L34.8987,35.5837 C34.6477,35.8377 34.3757,36.0727 34.0747,36.2977 C33.6287,36.6217 33.1477,36.8957 32.6037,37.1317 C31.6847,37.5337 30.6917,37.7517 29.5727,37.7997 C28.5257,37.8377 27.4917,37.6757 26.5107,37.3257 C25.9587,37.1227 25.4637,36.8757 24.9997,36.5697 C24.7657,36.4167 24.5327,36.2417 24.3037,36.0447 L24.3037,36.0447 L23.9917,35.7747 L23.6797,36.0447 C23.4497,36.2407 23.2147,36.4117 22.9827,36.5617 C22.5067,36.8687 22.0127,37.1097 21.4737,37.3017 C20.4937,37.6447 19.4327,37.7977 18.4187,37.7627 C17.3097,37.7187 16.3187,37.5037 15.3877,37.1037 C14.4827,36.7177 13.7297,36.2147 13.0847,35.5637 L13.0847,35.5637 L12.7827,35.2597 L12.4477,35.5267 C12.2087,35.7157 11.9567,35.8877 11.6777,36.0497 C11.2197,36.3127 10.7267,36.5177 10.2137,36.6607 C9.2717,36.9227 8.2517,36.9877 7.2677,36.8727 C6.2467,36.7457 5.2907,36.4417 4.4257,35.9677 C4.2807,35.8897 4.1387,35.8057 3.9997,35.7167 C4.0917,35.7397 4.1867,35.7607 4.2827,35.7817 C5.2507,35.9727 6.2687,36.0017 7.2717,35.8657 C8.2847,35.7317 9.2487,35.4447 10.1437,35.0067 C10.6397,34.7547 11.0657,34.4897 11.4457,34.1937 C11.8617,33.8697 12.2337,33.4907 12.5517,33.0687 L12.5517,33.0687 L12.7717,32.7747 L13.1157,33.1327 C13.4447,33.4697 13.8367,33.7667 14.2817,34.0167 C14.7027,34.2537 15.1517,34.4457 15.6167,34.5877 C16.2787,34.7837 16.9677,34.8987 17.6677,34.9317 C17.9197,34.9407 18.1627,34.9437 18.4227,34.9327 C19.4217,34.8847 20.3517,34.6937 21.1857,34.3637 C21.6657,34.1757 22.0847,33.9597 22.4647,33.7017 C22.8907,33.4187 23.2557,33.0957 23.5467,32.7457 L23.5467,32.7457 L23.9907,32.2147 Z" id="fill---light" fill="#0076C2"></path>
    </g>
</svg>