<?xml version="1.0" encoding="UTF-8"?>
<svg width="48px" height="48px" viewBox="0 0 48 48" version="1.1" xmlns="http://www.w3.org/2000/svg" xmlns:xlink="http://www.w3.org/1999/xlink">
    <title>aai / risks / injury</title>
    <g id="aai-/-risks-/-injury" stroke="none" stroke-width="1" fill="none" fill-rule="evenodd">
        <path d="M11.5178,40.109 C11.6608,41.256 4.6368,35.42 9.3438,32.818 C13.1558,30.71 16.8068,28.878 17.6098,29.761 C19.1578,31.465 21.2648,32.46 24.2528,32.46 C27.1218,32.46 29.1318,31.475 30.6218,29.826 C31.4238,28.939 35.1288,30.105 39.1928,31.802 C44.4388,33.992 37.9768,39.292 38.9368,39.978 L11.5178,40.109 Z" id="fill---light" fill="#0076C2"></path>
        <path d="M15.6112,28.8365 C16.5362,28.2775 17.5572,28.6915 18.2672,29.5935 L18.2672,29.5935 L23.3892,38.1915 C23.6172,38.6115 23.8972,38.9525 24.0152,38.9525 C24.1322,38.9525 24.4122,38.6115 24.6402,38.1915 L24.6402,38.1915 L29.7642,29.5925 C30.0622,29.0055 31.4742,28.2735 32.3382,28.7935 C33.3772,29.4165 35.2052,30.1885 36.4162,30.5455 C40.2922,31.6905 43.0292,32.9465 43.0292,36.8485 L43.0292,36.8485 L43.0292,39.4715 C43.0292,40.7325 42.0082,41.7575 40.7462,41.7575 L40.7462,41.7575 L7.2832,41.7575 C6.0232,41.7575 5.0002,40.7325 5.0002,39.4715 L5.0002,39.4715 L5.0002,36.8485 C5.0002,32.9615 7.7902,31.5775 11.6052,30.5025 C12.8192,30.1575 14.6182,29.4355 15.6112,28.8365 Z M17.1423,8.9644 L32.5823,13.8324 C32.6193,14.2234 32.6363,14.6194 32.6323,15.0204 C33.5013,15.1434 34.0443,16.5014 33.8543,18.0704 C33.6583,19.6474 32.7933,20.8394 31.9123,20.7334 C31.8083,20.7194 31.7053,20.6864 31.6073,20.6344 C30.3773,25.3944 28.7593,29.1174 23.8923,29.1174 C18.9863,29.1174 17.2053,25.6014 16.0793,20.7224 C16.0703,20.7244 16.0593,20.7324 16.0503,20.7334 C15.1713,20.8394 14.3083,19.6474 14.1083,18.0704 C13.9243,16.5524 14.4323,15.2414 15.2483,15.0424 C15.2693,12.7564 15.8713,10.5984 17.1423,8.9644 L17.1423,8.9644 Z M23.8925,6 C27.7135,6 30.2565,7.767 31.5705,10.296 L31.5705,10.296 L20.1165,6.697 C21.1835,6.25 22.4385,6 23.8925,6 Z" id="fill---dark" fill="#005B88"></path>
    </g>
</svg>