<?xml version="1.0" encoding="UTF-8"?>
<svg width="48px" height="48px" viewBox="0 0 48 48" version="1.1" xmlns="http://www.w3.org/2000/svg" xmlns:xlink="http://www.w3.org/1999/xlink">
    <title>aai / risks / motorcycle-fire</title>
    <g id="aai-/-risks-/-motorcycle-fire" stroke="none" stroke-width="1" fill="none" fill-rule="evenodd">
        <path d="M29.6256,17.7525 C30.0736,17.6925 30.4656,18.1245 30.6866,18.5585 L30.6866,18.5585 L31.8116,20.7825 C32.6526,20.4125 33.7356,20.9035 34.2726,21.9305 C34.8216,22.9795 34.5896,24.1825 33.7626,24.6425 L33.7626,24.6425 L34.0886,25.2885 C34.7386,25.1095 35.4206,25.0105 36.1276,25.0105 C38.8486,25.0105 41.2356,26.4415 42.5786,28.5905 L42.5786,28.5905 L41.5436,28.5905 C40.2786,27.6045 38.6896,27.0105 36.9606,27.0105 C36.3126,27.0105 35.6856,27.1045 35.0846,27.2575 L35.0846,27.2575 L35.6886,28.4515 C36.0656,28.3785 36.4546,28.3385 36.8516,28.3385 C40.2476,28.3385 42.9996,31.0915 42.9996,34.4855 C42.9996,37.8815 40.2476,40.6345 36.8516,40.6345 C33.4566,40.6345 30.7046,37.8815 30.7046,34.4855 C30.7046,32.9495 31.2726,31.5475 32.2056,30.4695 L32.2056,30.4695 L33.4116,32.9445 C33.1996,33.4165 33.0796,33.9365 33.0796,34.4855 C33.0796,36.5695 34.7706,38.2595 36.8516,38.2595 C38.9356,38.2595 40.6236,36.5695 40.6236,34.4855 C40.6236,32.4015 38.9356,30.7135 36.8516,30.7135 C36.8466,30.7135 36.8396,30.7145 36.8326,30.7145 L36.8326,30.7145 L38.3836,33.7825 C38.7676,34.5435 38.4636,35.4735 37.7016,35.8565 C37.4776,35.9715 37.2396,36.0245 37.0056,36.0245 C36.4416,36.0245 35.8986,35.7145 35.6246,35.1765 L35.6246,35.1765 L32.3186,28.6355 C30.5946,30.0045 29.4866,32.1145 29.4866,34.4855 C29.4866,34.7065 29.5006,34.9235 29.5196,35.1365 L29.5196,35.1365 C29.5136,37.4535 27.5546,37.5685 27.2256,37.5715 L27.2256,37.5715 L18.7496,37.5715 L18.7496,34.0435 L11.5476,35.9795 C11.4136,36.0145 11.2786,36.0315 11.1456,36.0315 C10.4646,36.0315 9.8386,35.5765 9.6546,34.8875 C9.4596,34.1625 9.8136,33.4225 10.4606,33.1035 C11.6826,33.8175 13.1466,34.2365 14.6126,34.2365 C15.4256,34.2365 16.1946,34.1145 16.8996,33.8715 C19.1876,33.0865 20.7746,31.3655 21.4896,28.8975 C21.8776,27.5545 21.9476,26.1055 21.8186,24.7725 C22.0406,24.9145 22.2016,25.1305 22.2336,25.3915 C23.0356,24.8975 24.0356,24.3255 25.0356,23.8755 C25.0306,23.8365 25.0246,23.7985 25.0246,23.7575 C25.0246,23.2605 25.4276,22.8575 25.9246,22.8575 L25.9246,22.8575 L26.3066,22.8575 C26.5876,22.8575 26.8366,22.9885 27.0016,23.1915 C27.3086,23.1255 27.5996,23.0865 27.8676,23.0865 C28.7796,23.0865 29.4806,23.5185 30.0116,24.0715 L30.0116,24.0715 L28.1826,20.4575 L26.5246,21.1275 L25.0386,21.1275 C24.4296,21.1275 23.9356,20.6315 23.9356,20.0215 C23.9356,19.4125 24.4296,18.9195 25.0386,18.9195 L25.0386,18.9195 L26.0956,18.9195 C26.0956,18.9195 26.8296,18.64725 27.63785,18.36525 L28.0137583,18.2353597 C28.7037805,17.999463 29.3742923,17.7855 29.6256,17.7525 Z M7.2809,29.7104 C7.6869,30.4704 8.1769,31.1294 8.6679,31.6624 C7.8819,32.3554 7.3759,33.3574 7.3759,34.4864 C7.3759,36.5704 9.0629,38.2594 11.1479,38.2594 C12.6159,38.2594 13.8849,37.4184 14.5079,36.1944 L14.5079,36.1944 L17.2079,35.4834 C16.7309,38.4034 14.2039,40.6344 11.1479,40.6344 C7.7519,40.6344 4.9999,37.8814 4.9999,34.4864 C4.9999,32.5574 5.8899,30.8374 7.2809,29.7104 Z" id="fill---dark" fill="#005B88"></path>
        <path d="M9.876,11.8944 C10.017,11.6544 10.362,15.1994 15.067,18.1344 C15.565,18.4454 16.041,18.7944 16.466,19.1974 C17.604,20.2784 18.618,22.3674 18.114,24.1834 C18.072,24.3414 17.84,24.6964 17.941,24.8544 C18.056,25.0334 18.27,24.8494 18.37,24.7354 C18.571,24.5054 19.748,22.2314 18.564,20.4034 C19.143,20.6424 19.403,20.9604 19.723,21.3574 C21.265,23.2764 22.115,30.9334 16.569,32.8374 C14.597,33.5154 12.071,33.0424 10.398,31.8074 C9.134,30.8724 6.199,27.6414 7.76,23.4844 C8.48273077,21.5612462 8.27579882,20.7391322 7.98998037,20.0689824 L7.91418895,19.8969839 L7.91418895,19.8969839 L7.876,19.8124 C8.57,20.0634 8.912,20.9864 9.098,21.6254 C9.326,22.4144 9.064,23.1174 9.119,23.9084 C9.192,24.9684 10.051,25.8724 11.043,26.1714 C12.037,26.4714 11.985,25.6394 11.727,24.9824 C11.307,23.9154 10.675,22.9564 10.064,21.9944 C9.202,20.6424 8.645,19.3454 8.458,17.7364 C8.222,15.6884 8.854,13.6634 9.876,11.8944 Z M10.4649,6.0003 C12.2779,6.9253 12.5479,8.4003 13.0819,11.4883 C13.6149,14.5763 15.6239,12.7153 14.6869,10.6873 C16.7779,11.9683 17.4639,15.8693 16.5879,17.9933 C16.5879,17.9933 10.9749,15.3403 11.1519,10.9953 C11.3289,6.6503 11.1099,6.8363 10.4649,6.0003 Z" id="fill---light" fill="#0076C2"></path>
    </g>
</svg>