<?xml version="1.0" encoding="UTF-8"?>
<svg width="48px" height="48px" viewBox="0 0 48 48" version="1.1" xmlns="http://www.w3.org/2000/svg" xmlns:xlink="http://www.w3.org/1999/xlink">
    <title>aai / risks / portable</title>
    <g id="aai-/-risks-/-portable" stroke="none" stroke-width="1" fill="none" fill-rule="evenodd">
        <path d="M22.6904,3 L22.6904,3.021 L31.2534,11.586 L31.2534,8.506 L36.7704,8.506 L36.7704,17.1 L41.3594,21.692 L39.1964,23.854 L37.9404,22.596 L37.9404,25.714 L36.7994,25.163 C36.7544,25.139 36.6704,25.089 36.6064,25.048 L36.6064,25.048 L34.4434,22.731 C34.0314,22.272 33.6814,21.921 33.3734,21.642 C34.7284,20.915 35.6634,19.502 35.6634,17.859 C35.6634,15.483 33.7304,13.548 31.3534,13.548 C28.9764,13.548 27.0444,15.483 27.0444,17.859 C27.0444,19.042 27.5244,20.115 28.2984,20.895 L28.2984,20.895 L25.7104,22.784 C25.4164,23.004 24.5054,23.794 24.2294,24.478 L24.2294,24.478 L22.3994,29.068 C21.8484,30.437 22.4104,31.958 23.6514,32.46 C23.9204,32.567 24.2024,32.621 24.4924,32.621 C24.7974,32.621 25.0974,32.56 25.3794,32.447 C24.8614,33.985 24.2944,35.659 24.1704,35.985 L24.1704,35.985 L21.3554,35.985 L21.3554,25.333 L13.2004,25.333 L13.2004,35.985 L7.4194,35.985 L7.4194,22.596 L6.1614,23.854 L4.0004,21.692 L22.6684,3.021 L22.6684,3 L22.6794,3.012 L22.6904,3 Z M34.2733,29.0596 C34.4813,29.1956 34.6663,29.3026 34.7643,29.3506 L34.7643,29.3506 L37.4893,30.6696 C37.5023,30.9576 37.6713,31.2216 37.9403,31.3546 L37.9403,31.3546 L37.9403,35.9846 L36.6323,35.9846 C36.6223,35.6526 36.6103,35.3546 36.5953,35.1106 C36.5603,34.5006 36.2153,34.0236 36.1293,33.9166 L36.1293,33.9166 L34.2103,31.3626 L34.2093,29.9946 C34.2163,29.7876 34.2393,29.4466 34.2733,29.0596 Z" id="fill---dark" fill="#005B88"></path>
        <path d="M28.9175,21.8446 C29.6445,21.5426 31.5615,21.8176 31.5615,21.8176 C32.1475,21.8176 33.5495,23.4376 33.6395,23.5326 L33.6395,23.5326 L35.8435,25.8916 C35.8985,25.9486 36.1995,26.1296 36.2995,26.1786 L36.2995,26.1786 L38.7095,27.3446 L39.3455,25.7156 C39.5065,25.2996 39.9745,25.0946 40.3915,25.2556 L40.3915,25.2556 L43.4855,26.4606 C43.9005,26.6226 44.1065,27.0906 43.9445,27.5076 L43.9445,27.5076 L42.1415,32.1356 C41.9795,32.5506 41.5095,32.7566 41.0965,32.5946 L41.0965,32.5946 L38.0005,31.3896 C37.5845,31.2276 37.3795,30.7576 37.5415,30.3406 L37.5415,30.3406 L37.8557131,29.5328 L37.8375,29.5806 L35.2575,28.3306 C35.0495,28.2306 34.2835,27.7256 34.0965,27.5246 L34.0965,27.5246 L33.3565,26.7336 C33.3565,26.7336 33.1025,29.1576 33.0765,29.9586 L33.0765,29.9586 L33.0765,31.7426 L35.2225,34.5956 C35.2225,34.5956 35.4475,34.8776 35.4645,35.1776 C35.5233889,36.1709333 35.5393765,38.1222914 35.5419554,39.6606178 L35.5418362,40.7154965 C35.5410375,41.1516384 35.5394993,41.4951953 35.5384863,41.6873833 L35.5377761,41.8136748 C35.5376019,41.8425012 35.5375,41.8576 35.5375,41.8576 C35.5375,42.5916 34.9425,43.1866 34.2085,43.1866 L34.2085,43.1866 L33.5335,43.1866 C32.7995,43.1866 32.2055,42.5916 32.2055,41.8576 L32.2055,41.8576 L32.2055,37.0086 C32.2055,36.8026 32.1315,36.2486 32.0455,36.1336 L32.0455,36.1336 L30.1165,33.5336 C30.0725,33.4736 30.0395,33.4066 30.0025,33.3426 L30.0025,33.3426 L29.8545,33.3426 L28.7705,37.0016 C28.6995,37.2446 28.3195,37.9066 28.2465,38.0526 L28.2465,38.0526 L25.8815,42.6176 C25.5245,43.3096 24.6925,43.5916 24.0265,43.2476 L24.0265,43.2476 L23.3905,42.9166 C22.7235,42.5706 22.4725,41.7306 22.8315,41.0386 L22.8315,41.0386 L25.1935,36.4726 C25.2728125,36.320725 26.4506084,32.8164467 26.8167333,31.7250676 L26.9060928,31.4585497 C26.9181055,31.4226977 26.9245,31.4036 26.9245,31.4036 C26.9745,31.2366 27.1585,29.5956 27.1585,29.5956 C27.1995,28.5826 27.4995,26.3316 27.4995,26.3316 L27.4995,26.3316 L25.8575,30.4626 C25.5375,31.2526 24.7395,31.6756 24.0755,31.4086 C23.4115,31.1416 23.1305,30.2806 23.4495,29.4896 L23.4495,29.4896 L25.2825,24.8976 C25.4375,24.5076 26.2345,23.7896 26.3775,23.6976 L26.3775,23.6976 Z M40.5675,29.3766 C40.0195,29.1626 39.4025,29.4336 39.1885,29.9816 C38.9755,30.5276 39.2465,31.1476 39.7935,31.3596 C40.3415,31.5726 40.9575,31.3026 41.1725,30.7546 C41.3855,30.2076 41.1155,29.5906 40.5675,29.3766 Z M40.0335,25.9476 L39.1885,28.1116 L42.4365,29.3766 L43.2805,27.2116 L40.0335,25.9476 Z M31.3535,14.6808 C33.1085,14.6808 34.5315,16.1048 34.5315,17.8588 C34.5315,19.6138 33.1085,21.0358 31.3535,21.0358 C29.5985,21.0358 28.1755,19.6138 28.1755,17.8588 C28.1755,16.1048 29.5985,14.6808 31.3535,14.6808 Z" id="fill---light" fill="#0076C2"></path>
    </g>
</svg>