<?xml version="1.0" encoding="UTF-8"?>
<svg width="48px" height="48px" viewBox="0 0 48 48" version="1.1" xmlns="http://www.w3.org/2000/svg" xmlns:xlink="http://www.w3.org/1999/xlink">
    <title>aai / uncommon / alarm / monitored</title>
    <g id="aai-/-uncommon-/-alarm-/-monitored" stroke="none" stroke-width="1" fill="none" fill-rule="evenodd">
        <rect id="bounding-box" x="0" y="0" width="48" height="48"></rect>
        <path d="M10.2774693,15.4620977 L10.43424,15.46528 L18.13024,15.99568 L18.2346999,16.006955 L18.2346999,16.006955 L18.33824,16.0248 C18.3571674,16.0279645 18.3759137,16.0321303 18.3944,16.03728 C18.442845,16.0473136 18.4907472,16.0598098 18.53792,16.07472 L18.53792,16.07472 L18.60864,16.09968 C18.65024,16.11424 18.69392,16.13296 18.73552,16.15168 L18.73552,16.15168 L18.8,16.1808 C18.84576,16.20368 18.89152,16.23072 18.9352,16.25776 L18.9352,16.25776 L18.97888,16.28272 L19.0416093,16.3257395 C19.4436131,16.6133709 20.3070147,17.4318653 21.63712,18.76 C22.1981151,19.3263348 22.3137221,20.1967868 21.92,20.88992 L21.92,20.88992 L16.62848,30.22704 L19.57168,32.37776 C20.0138801,32.7004578 20.2818901,33.2095999 20.2976,33.7568 L20.2976,33.7568 L20.57216,42.43664 C20.5867236,42.907258 20.4136248,43.3643655 20.0909863,43.7072909 C19.7683477,44.0502162 19.3226314,44.2508337 18.852,44.2649602 L18.852,44.2649602 L18.79792,44.2649602 C17.8379875,44.2653724 17.0518139,43.5022402 17.02368,42.54272 L17.02368,42.54272 L16.78448,34.74272 L13.45648,32.31744 C13.3843812,32.2760144 13.3149151,32.2301668 13.24848,32.18016 L13.24848,32.18016 L10.57984,30.20624 L10.51328,30.15424 L10.45296,30.10432 C10.4318351,30.085258 10.411702,30.0651249 10.39264,30.044 L10.39264,30.044 L10.3344,29.98784 L10.28032,29.92544 L10.22832,29.86304 L10.22832,29.86304 L10.18256,29.79856 L10.1368,29.732 C10.1224008,29.7091329 10.1092094,29.6855273 10.09728,29.66128 C10.08272,29.6384 10.06608,29.6176 10.05568,29.59264 C10.04528,29.56768 10.0328,29.5448 10.0224,29.51984 C10.012,29.49488 9.98912,29.472 9.98912,29.44704 L9.98912,29.44704 L9.96416,29.37216 C9.95376,29.3472 9.94544,29.32224 9.93712,29.29728 L9.9236,29.25854 L9.9236,29.25854 L9.91632,29.21824 L9.8976,29.14336 C9.88512,29.11632 9.8976,29.09136 9.88512,29.06432 C9.87264,29.03728 9.87264,29.01232 9.87264,28.98528 L9.87264,28.98528 L9.87264,28.57136 C9.87264,28.5464 9.86848,28.52768 9.87264,28.49856 C9.8768,28.46944 9.87472,28.43408 9.88928,28.4112 C9.90384,28.38832 9.89552,28.37168 9.90384,28.34048 C9.91216,28.30928 9.92464,28.27392 9.93088,28.25104 C9.93712,28.22816 9.95168,28.20528 9.95168,28.1824 C9.96373766,28.1477161 9.97762378,28.1136951 9.99328,28.08048 L9.99328,28.08048 L10.012,28.03056 C10.03488,27.97856 10.06192,27.92864 10.08896,27.8808 L10.08896,27.8808 L15.04352,19.32576 L11.29952,19.06784 L9.32768,22.60384 C9.01817368,23.1570872 8.43702417,23.5031891 7.80314487,23.5117723 C7.16926557,23.5203556 6.57895782,23.1901163 6.25458485,22.6454523 C5.93021189,22.1007884 5.92105366,21.4244472 6.23056,20.8712 L6.23056,20.8712 L8.77024,16.37008 C9.10443147,15.7732507 9.75162869,15.4213372 10.43424,15.46528 Z M36.1425505,24.3062336 L36.1898467,24.4246367 L36.2375345,24.5118471 L36.2873972,24.587677 L36.3534724,24.6756957 L36.4372651,24.7742206 L36.5402803,24.8815692 C36.559135,24.9001025 36.5788533,24.9189333 36.5994667,24.9380267 L36.7341375,25.0554562 L36.8099982,25.1160078 L36.8099982,25.1160078 L36.9797109,25.2397327 C37.1921412,25.3856269 37.4561083,25.5357958 37.7823667,25.6782167 L38.0775225,25.7981137 C39.01026,26.15043 40.3752,26.4288 42.3552,26.4288 C42.4576,26.4288 42.5613333,26.5141333 42.6464,26.6381333 L42.69504,26.7168 L42.69504,35.712 C42.69504,38.0554017 40.1867297,40.0172534 38.2605984,41.1780489 L37.8714092,41.4066458 L37.5049163,41.611557 L37.0110377,41.872707 L36.488739,42.130301 L36.096,42.30912 L35.83872,42.30912 L35.4459781,42.1263812 L35.2068191,42.0081716 L34.7675091,41.7804287 L34.4297918,41.5963758 C34.3709384,41.5636184 34.3108859,41.5298334 34.2497609,41.4950406 L33.871156,41.2743506 L33.4728958,41.0304312 C33.4052191,40.9878954 33.3369769,40.9444314 33.2682958,40.9000594 L32.8519572,40.623089 C31.1736496,39.4728927 29.3885617,37.8225692 29.2484399,35.9475303 L29.2395623,35.712 L29.2395623,26.7168 C29.2380751,26.6396013 29.2681687,26.5651159 29.3229493,26.5106981 C29.37773,26.4562802 29.4524137,26.4266822 29.5296,26.4288 C32.03936,26.4288 33.5546,25.955345 34.452159,25.4621627 L34.672541,25.3333573 C34.7414962,25.2904719 34.8060287,25.2477356 34.8663862,25.2054469 L35.0351815,25.0802215 L35.1804135,24.959471 L35.3035687,24.8449856 L35.406134,24.7385552 L35.5246278,24.5979283 L35.6051565,24.485494 L35.6736,24.36672 C35.6736,24.24192 35.7984,24.2016 35.92128,24.2016 C36.0110468,24.1899778 36.0966639,24.2327625 36.1425505,24.3062336 Z M36.00384,26.13888 C35.98368,26.13888 35.95296,26.15952 35.922,26.18544 L35.83872,26.26368 L35.8150924,26.3066348 L35.7608239,26.3883656 L35.6684492,26.5041334 L35.5826829,26.5964862 L35.4754607,26.6983637 L35.4132388,26.7521739 L35.4132388,26.7521739 L35.2704432,26.8641365 L35.1016722,26.980021 L34.9051179,27.0975864 C34.2016225,27.4897822 33.0049405,27.87264 31.01376,27.87264 C30.9036815,27.8802527 30.8121248,27.9541643 30.7787823,28.05499 L30.76608,28.1184 L30.76608,35.088 C30.76608,36.9117979 32.707567,38.4392031 34.2005348,39.3480654 L34.5630495,39.5622083 L34.8985773,39.7494599 L35.1988195,39.9087018 L35.5648691,40.0925994 L35.88096,40.2432 L36.04416,40.2432 L36.3356734,40.1026971 L36.6894937,39.9224004 L36.9763246,39.7684273 L37.2982035,39.587209 L37.647389,39.3799593 L38.0161392,39.1478922 C39.3946302,38.2529647 41.0115543,36.8820336 41.1495505,35.3043893 L41.15904,35.088 L41.2416,28.1184 C41.231437,27.9863809 41.1260142,27.8817753 40.99392,27.87264 C38.9821346,27.87264 37.7849501,27.4897822 37.0863454,27.0975864 L36.8914054,26.980021 L36.7244841,26.8641365 L36.5836853,26.7521739 L36.4671129,26.6463744 L36.3728708,26.5489791 L36.2990628,26.4622291 L36.2437929,26.3883656 L36.16896,26.26368 C36.16896,26.18112 36.04416,26.13888 36.00384,26.13888 Z M9.63136,30.34976 C9.7741312,30.5288111 9.93987845,30.6882641 10.12432,30.824 L10.12432,30.824 L12.88864,32.83952 L12.45808,36.15504 C12.3431107,37.0391306 11.5899347,37.7006079 10.6984,37.70048 L10.6984,37.70048 L4.32944,37.70048 C3.34955431,37.70048 2.5552,36.9061257 2.5552,35.92624 C2.5552,34.9463543 3.34955431,34.152 4.32944,34.152 L4.32944,34.152 L9.1384,34.152 Z M39.79776,29.568 C39.92256,29.72736 40.04544,29.89248 40.20864,30.09984 C40.2150565,30.1581817 40.2000441,30.2168664 40.1664,30.26496 C38.1566888,32.1313577 36.5318809,34.3732142 35.38368,36.864 C35.344445,36.8838849 35.3023329,36.8974904 35.25888,36.90432 C35.2143208,36.9067063 35.170483,36.892322 35.136,36.864 L35.136,36.864 L31.67424,33.35424 C32.0025485,33.0196593 32.3612073,32.7162778 32.7456,32.448 L32.7456,32.448 L34.6848,33.93984 C36.1615562,32.2357282 37.8849507,30.7621385 39.79776,29.568 Z M22.43376,21.5576 L22.92464,24.5632 L25.89904,23.82064 C26.3555342,23.7061038 26.8388321,23.7776351 27.2425777,24.0194923 C27.6463234,24.2613496 27.9374315,24.6537138 28.05184,25.11024 C28.1663101,25.567021 28.0944956,26.0505715 27.8522166,26.4543699 C27.6099375,26.8581684 27.2170704,27.1490873 26.76016,27.26304 L26.76016,27.26304 L21.91584,28.4736 C21.7752251,28.5099748 21.6305227,28.52815 21.48528,28.5276889 C20.6150073,28.5286242 19.8728363,27.8975145 19.73392,27.0384 L19.73392,27.0384 L19.6424,26.47888 L22.43376,21.5576 Z M23.84816,10.32144 C26.1123507,10.32144 27.94784,12.1569293 27.94784,14.42112 C27.94784,16.6853107 26.1123507,18.5208 23.84816,18.5208 C21.5839693,18.5208 19.74848,16.6853107 19.74848,14.42112 C19.74848,12.1569293 21.5839693,10.32144 23.84816,10.32144 Z" id="fill---dark" fill="#005B88"></path>
        <path d="M28.38256,16.07056 C32.5658648,20.0452998 38.4801906,21.6258996 44.08864,20.268 C44.4969971,20.1687898 44.9085048,20.4192323 45.008,20.82752 C45.1059893,21.2356865 44.8560375,21.6463879 44.44848,21.74688 C38.4684857,23.1980691 32.1582706,21.5829034 27.61088,17.43712 C27.9411702,17.0269076 28.2018645,16.5652467 28.38256,16.07056 Z M27.8792,6.7168 C29.5216102,13.4504116 36.305541,17.583119 43.0424,15.95408 C43.4457493,15.8671563 43.8449261,16.1173802 43.9424757,16.5182922 C44.0400254,16.9192043 43.8004349,17.3248525 43.40224,17.43296 C35.849049,19.2579712 28.2437205,14.6253641 26.40032,7.07664 C26.3133963,6.67329067 26.5636202,6.27411389 26.9645322,6.17656427 C27.3654443,6.07901464 27.7710925,6.3186051 27.8792,6.7168 Z M32.1848,5.67056 C33.2475647,10.023146 37.6326808,12.6944102 41.98784,11.64224 C42.2560801,11.5668481 42.5440773,11.644023 42.738676,11.8434421 C42.9332748,12.0428613 43.0033809,12.3326603 42.9214493,12.5989757 C42.8395177,12.8652911 42.6186399,13.0655693 42.3456,13.12112 L42.35392,13.12112 C37.179332,14.3755277 31.9666436,11.2013728 30.70592,6.02832 C30.6242605,5.62695138 30.8748089,5.2329157 31.2729169,5.13660829 C31.6710248,5.04030089 32.073974,5.27624713 32.1848,5.67056 Z M22.2926171,7.3691431 C22.4911078,7.17625378 22.7786486,7.10628955 23.0435706,7.18642164 C23.3084927,7.26655373 23.5090521,7.48415574 23.56736,7.75472 C23.7195787,8.37754092 23.9063747,8.9913986 24.12688,9.59344 L24.12688,9.59344 L23.84816,9.59344 C23.4158449,9.59391655 22.9855681,9.65268606 22.56896,9.76816 C22.38592,9.23152 22.22368,8.68448 22.08848,8.11456 C22.0159622,7.8474533 22.0941265,7.56203242 22.2926171,7.3691431 Z M35.9777627,4.06534483 C36.2398867,4.14117185 36.4416461,4.35108042 36.50704,4.616 C36.9891308,6.5871632 38.9753323,7.79655994 40.94784,7.32 C41.3511893,7.23307632 41.7503661,7.48330018 41.8479157,7.88421223 C41.9454654,8.28512429 41.7058749,8.69077252 41.30768,8.79888 L41.30768,8.8072 C39.9671414,9.13370717 38.5517964,8.9140711 37.3732569,8.19664837 C36.1947175,7.47922565 35.3496103,6.3228367 35.024,4.98208 C34.9586061,4.71716042 35.0395126,4.4374774 35.2362427,4.24838483 C35.4329728,4.05929227 35.7156387,3.98951781 35.9777627,4.06534483 Z" id="fill---light" fill="#0076C2"></path>
    </g>
</svg>