<?xml version="1.0" encoding="UTF-8"?>
<svg width="48px" height="48px" viewBox="0 0 48 48" version="1.1" xmlns="http://www.w3.org/2000/svg" xmlns:xlink="http://www.w3.org/1999/xlink">
    <title>aai / uncommon / alarm / none</title>
    <g id="aai-/-uncommon-/-alarm-/-none" stroke="none" stroke-width="1" fill="none" fill-rule="evenodd">
        <rect id="bounding-box" x="0" y="0" width="48" height="48"></rect>
        <path d="M10.2774693,15.4620977 L10.43424,15.46528 L18.13024,15.99568 L18.2346999,16.006955 L18.2346999,16.006955 L18.33824,16.0248 C18.3571674,16.0279645 18.3759137,16.0321303 18.3944,16.03728 C18.442845,16.0473136 18.4907472,16.0598098 18.53792,16.07472 L18.53792,16.07472 L18.60864,16.09968 C18.65024,16.11424 18.69392,16.13296 18.73552,16.15168 L18.73552,16.15168 L18.8,16.1808 C18.84576,16.20368 18.89152,16.23072 18.9352,16.25776 L18.9352,16.25776 L18.97888,16.28272 L19.0416093,16.3257395 C19.4436131,16.6133709 20.3070147,17.4318653 21.63712,18.76 C22.1981151,19.3263348 22.3137221,20.1967868 21.92,20.88992 L21.92,20.88992 L16.62848,30.22704 L19.57168,32.37776 C20.0138801,32.7004578 20.2818901,33.2095999 20.2976,33.7568 L20.2976,33.7568 L20.57216,42.43664 C20.5867236,42.907258 20.4136248,43.3643655 20.0909863,43.7072909 C19.7683477,44.0502162 19.3226314,44.2508337 18.852,44.2649602 L18.852,44.2649602 L18.79792,44.2649602 C17.8379875,44.2653724 17.0518139,43.5022402 17.02368,42.54272 L17.02368,42.54272 L16.78448,34.74272 L13.45648,32.31744 C13.3843812,32.2760144 13.3149151,32.2301668 13.24848,32.18016 L13.24848,32.18016 L10.57984,30.20624 L10.51328,30.15424 L10.45296,30.10432 C10.4318351,30.085258 10.411702,30.0651249 10.39264,30.044 L10.39264,30.044 L10.3344,29.98784 L10.28032,29.92544 L10.22832,29.86304 L10.22832,29.86304 L10.18256,29.79856 L10.1368,29.732 C10.1224008,29.7091329 10.1092094,29.6855273 10.09728,29.66128 C10.08272,29.6384 10.06608,29.6176 10.05568,29.59264 C10.04528,29.56768 10.0328,29.5448 10.0224,29.51984 C10.012,29.49488 9.98912,29.472 9.98912,29.44704 L9.98912,29.44704 L9.96416,29.37216 C9.95376,29.3472 9.94544,29.32224 9.93712,29.29728 L9.9236,29.25854 L9.9236,29.25854 L9.91632,29.21824 L9.8976,29.14336 C9.88512,29.11632 9.8976,29.09136 9.88512,29.06432 C9.87264,29.03728 9.87264,29.01232 9.87264,28.98528 L9.87264,28.98528 L9.87264,28.57136 C9.87264,28.5464 9.86848,28.52768 9.87264,28.49856 C9.8768,28.46944 9.87472,28.43408 9.88928,28.4112 C9.90384,28.38832 9.89552,28.37168 9.90384,28.34048 C9.91216,28.30928 9.92464,28.27392 9.93088,28.25104 C9.93712,28.22816 9.95168,28.20528 9.95168,28.1824 C9.96373766,28.1477161 9.97762378,28.1136951 9.99328,28.08048 L9.99328,28.08048 L10.012,28.03056 C10.03488,27.97856 10.06192,27.92864 10.08896,27.8808 L10.08896,27.8808 L15.04352,19.32576 L11.29952,19.06784 L9.32768,22.60384 C9.01817368,23.1570872 8.43702417,23.5031891 7.80314487,23.5117723 C7.16926557,23.5203556 6.57895782,23.1901163 6.25458485,22.6454523 C5.93021189,22.1007884 5.92105366,21.4244472 6.23056,20.8712 L6.23056,20.8712 L8.77024,16.37008 C9.10443147,15.7732507 9.75162869,15.4213372 10.43424,15.46528 Z M9.63136,30.34976 C9.7741312,30.5288111 9.93987845,30.6882641 10.12432,30.824 L10.12432,30.824 L12.88864,32.83952 L12.45808,36.15504 C12.3431107,37.0391306 11.5899347,37.7006079 10.6984,37.70048 L10.6984,37.70048 L4.32944,37.70048 C3.34955431,37.70048 2.5552,36.9061257 2.5552,35.92624 C2.5552,34.9463543 3.34955431,34.152 4.32944,34.152 L4.32944,34.152 L9.1384,34.152 Z M22.43376,21.5576 L22.92464,24.5632 L25.89904,23.82064 C26.3555342,23.7061038 26.8388321,23.7776351 27.2425777,24.0194923 C27.6463234,24.2613496 27.9374315,24.6537138 28.05184,25.11024 C28.1663101,25.567021 28.0944956,26.0505715 27.8522166,26.4543699 C27.6099375,26.8581684 27.2170704,27.1490873 26.76016,27.26304 L26.76016,27.26304 L21.91584,28.4736 C21.7752251,28.5099748 21.6305227,28.52815 21.48528,28.5276889 C20.6150073,28.5286242 19.8728363,27.8975145 19.73392,27.0384 L19.73392,27.0384 L19.6424,26.47888 L22.43376,21.5576 Z M23.84816,10.32144 C26.1123507,10.32144 27.94784,12.1569293 27.94784,14.42112 C27.94784,16.6853107 26.1123507,18.5208 23.84816,18.5208 C21.5839693,18.5208 19.74848,16.6853107 19.74848,14.42112 C19.74848,12.1569293 21.5839693,10.32144 23.84816,10.32144 Z" id="fill---dark" fill="#005B88"></path>
    </g>
</svg>