<svg width="128" height="200" viewBox="0 0 128 200" fill="none" xmlns="http://www.w3.org/2000/svg">
<g clip-path="url(#clip0_4_77)">
<rect width="128" height="200" fill="#0076C4"/>
<rect x="16" y="16" width="16" height="16" rx="8" fill="#005B88"/>
<rect x="16" y="168" width="16" height="16" rx="8" fill="#005B88"/>
<path d="M105.025 46.0307C104.935 46.0707 104.853 46.1264 104.783 46.1952C104.7 46.2727 104.236 46.9617 103.676 47.7202C103.117 48.4787 102.255 49.3314 101.957 49.7628C101.651 50.3342 101.472 50.9644 101.433 51.6102C101.597 52.4235 101.431 53.269 100.971 53.9627C100.906 53.1508 100.904 52.0197 100.768 51.1039C100.666 50.4171 100.441 50.6142 100.097 51.3925C99.8205 51.904 99.6879 52.4798 99.7131 53.0591C99.7835 54.1156 99.8175 54.4777 99.9175 55.2878C99.9341 55.7457 99.7757 56.1934 99.4742 56.5409C99.4579 56.457 99.4399 56.097 99.4088 55.7497C99.2915 54.774 99.1246 53.8049 98.9089 52.8461C98.7513 52.0317 98.3923 52.2548 98.1279 53.0996C97.9071 53.7016 97.7996 54.3385 97.8108 54.9785C97.9185 55.9387 98.0789 56.8922 98.2913 57.8347C98.3096 58.0718 98.2712 58.3099 98.1793 58.5296C98.0874 58.7494 97.9446 58.9446 97.7626 59.0993C97.7435 59.0006 97.6346 58.438 97.5716 58.1122C97.4131 57.293 97.1075 55.7137 96.8927 54.6032C96.7189 53.705 96.388 54.0199 96.1017 54.8586C95.7381 55.7853 95.5786 56.7782 95.6339 57.7703C95.7534 58.7289 95.927 59.6799 96.1541 60.6188C96.1784 60.8764 96.1344 61.136 96.0261 61.3717C95.9179 61.6074 95.7494 61.8109 95.5374 61.9618C95.5174 61.8582 95.4626 61.3619 95.4007 61.0155C95.2422 60.1962 94.7323 57.5607 94.5137 56.4305C94.3409 55.5372 93.9824 55.8165 93.7235 56.5834C93.2582 57.733 93.035 58.9647 93.0677 60.2022C93.1466 61.3422 93.2937 62.4763 93.5082 63.5986C93.5258 63.867 93.472 64.1354 93.3522 64.377C93.2324 64.6185 93.0509 64.8247 92.8259 64.9748C92.8096 64.8909 92.7727 64.4065 92.6791 63.7897C92.3652 61.741 92.0429 60.7947 91.5858 58.1388C91.413 57.2455 91.0987 57.593 90.6568 58.4004C90.0003 59.542 89.6888 60.8468 89.7598 62.158C89.8461 63.5903 90.2156 65.7665 90.3305 66.5738C90.3657 66.8797 90.3172 67.1897 90.1902 67.471C90.0632 67.7524 89.8623 67.9948 89.6087 68.1726C89.5953 68.1035 89.5555 67.6044 89.4591 66.9728C89.1501 64.9231 88.7189 62.641 88.2826 59.9862C88.1098 59.0929 87.8026 59.4237 87.4179 60.1535C86.5541 61.803 86.1429 63.6487 86.2259 65.5042C86.3331 66.9375 86.6035 69.0817 86.7184 69.8889C86.7489 70.2063 86.6897 70.526 86.5475 70.8122C86.4052 71.0984 86.1855 71.3398 85.9131 71.5091C85.8958 71.1796 85.8127 69.7109 85.721 69.104C85.4121 67.0543 85.0259 64.3386 84.6903 61.7513C84.5722 60.8474 84.2373 61.0351 83.823 61.745C82.6774 63.6873 82.1338 65.921 82.2605 68.1658C82.3577 69.6011 82.6723 72.4791 82.7822 73.2873C82.8024 73.6002 82.733 73.9126 82.5819 74.1883C82.4309 74.464 82.2044 74.6917 81.9287 74.8451C81.8991 74.6921 81.6882 73.202 81.5889 72.5556C81.279 70.501 80.746 66.6002 80.4095 64.008C80.2913 63.1041 79.9524 63.2977 79.5381 64.0076C78.363 65.8819 77.7435 68.0462 77.7507 70.2518C77.786 71.6069 78.3152 75.621 78.4649 76.4215C78.6759 77.5122 77.6785 78.166 77.4751 78.2873C77.4235 78.0208 76.3583 69.8504 75.8387 66.285C75.6974 65.2883 75.3327 65.4818 74.9183 66.1917C73.7186 68.2517 73.0279 71.6366 73.1064 74.0944C73.1507 75.4426 73.6374 78.9171 73.7871 79.7176C74.0191 80.9169 72.9171 81.6165 72.5902 81.7924C72.5644 81.6592 72.3973 80.0223 72.0604 77.4814C71.6398 74.3218 71.0257 70.0015 70.7431 68.0081C70.6066 67.0361 70.2142 67.2196 69.789 67.9265C68.4236 70.2554 67.7111 72.904 67.7257 75.5962C67.8008 76.9436 68.5393 82.6529 68.694 83.4525C68.8917 84.4741 67.512 85.1506 67.3007 85.258C67.2673 85.0853 65.4333 71.7951 65.2033 70.0732C65.0727 69.1052 64.7611 69.2269 64.2182 70.0181C62.4339 72.6651 61.5529 75.8101 61.7053 78.9882C61.7804 80.3356 62.5103 86.3999 62.666 87.2043C62.8569 88.1914 61.5808 88.9503 61.2839 89.0948C61.2639 88.9912 58.7309 74.4333 58.4244 72.716C58.2334 71.7289 57.9473 71.902 57.3894 72.696C55.4265 75.6155 54.4698 79.0871 54.6631 82.5881C54.7382 83.9355 55.6093 90.9965 55.7789 91.7932C55.9508 92.6815 54.8035 93.4667 54.4804 93.6623C54.4585 93.5488 51.5766 77.374 51.2701 75.6566C51.0849 74.6992 50.6722 74.8046 50.2053 75.6425C48.886 78.0174 47.0064 81.9191 47.6649 87.3213C47.8263 88.6623 48.8475 96.0987 49.0717 96.8848C49.296 97.6709 48.3508 98.4886 48.0184 98.7424C47.9773 98.5301 43.6867 80.5901 43.3337 79.1121C43.1087 78.1623 42.6066 78.2851 42.202 79.1519C41.0548 81.6164 39.4156 84.9493 39.9244 90.8567C40.0402 92.2013 42.0086 102.189 42.1642 102.993C42.3361 103.881 41.2352 104.827 40.9765 105.035C40.9345 104.818 35.8395 83.8133 35.5502 82.3179C35.4175 81.6319 34.8112 81.4829 34.4075 82.3546C32.8055 85.5912 31.98 89.151 31.996 92.7541C32.0273 96.5932 33.0707 100.974 33.9759 104.48C34.553 106.77 35.2279 108.846 35.5614 110.01C35.8432 110.934 34.8093 111.932 34.5136 112.189C34.4735 111.982 27.3088 89.0734 26.8077 87.3629C26.6385 86.7813 25.9463 86.5875 25.5703 87.4692C24.3235 90.6841 23.6562 94.0907 23.599 97.5327C23.7292 103.109 24.8564 105.871 25.8942 109.556C26.5949 112.032 28.4938 116.943 29.0486 118.372C29.2794 118.952 28.6961 119.694 28.4405 120.025L22.3724 128.634L23.8161 136.096C23.8161 136.096 25.934 132.066 28.1836 128.211C30.3125 124.558 32.5859 121.092 32.8164 120.792C33.0949 120.448 33.4691 120.194 33.892 120.061C34.3149 119.929 34.7676 119.923 35.1931 120.045C38.8679 120.732 47.2055 122.974 51.1228 122.969C54.1926 122.987 57.2519 122.593 60.2178 121.798C61.0305 121.549 61.0121 120.974 60.4443 120.73C56.5706 119.176 39.1943 112.159 38.9103 112.05C39.1271 111.732 40.0035 110.559 41.0858 110.877C46.2479 112.402 49.7544 114.084 54.4245 115.065C57.7835 115.772 62.2278 115.905 64.9169 115.441C65.8662 115.258 65.726 114.773 65.084 114.492C63.2313 113.684 47.1482 104.717 45.9171 104.243C46.1844 103.946 47.1475 102.981 48.0439 103.351C48.9402 103.72 54.9614 106.861 56.2322 107.327C60.5094 108.879 65.0878 109.446 69.6228 108.986C70.5766 108.852 70.6927 108.466 69.848 107.964C69.0032 107.462 61.6299 103.328 56.8621 100.457C54.494 99.0358 52.898 98.2745 52.626 98.1479C52.9069 97.8939 53.8828 97.0753 54.7195 97.4561C55.5562 97.837 60.4406 100.512 62.7672 101.265C67.9203 102.93 72.939 102.702 74.9159 102.314C75.6912 102.164 75.8671 101.741 75.0703 101.327C74.1826 100.869 68.196 97.6136 64.0915 95.4791C62.4115 94.5959 60.6702 93.8327 58.8806 93.195C59.1454 92.9646 60.3098 92.0276 61.1373 92.441C61.8689 92.8114 67.3506 95.2428 69.4492 95.83C72.9027 96.7879 76.5308 96.9609 80.0648 96.3363C81.1382 96.1286 81.176 95.8704 80.3614 95.4443C79.2156 94.8519 71.9271 91.316 69.6784 90.2458C68.3255 89.5962 66.9266 89.0455 65.4928 88.5979C65.7526 88.3685 66.7122 87.5991 67.6156 87.9517C68.5191 88.3043 73.85 90.3296 75.183 90.5837C77.9076 91.1847 80.7227 91.2739 83.483 90.8467C84.6228 90.662 84.8381 90.2825 83.9237 89.9269C81.6112 89.0328 77.7085 87.1152 75.1479 86.0848C73.8317 85.5443 72.4761 85.1031 71.0927 84.765C71.3407 84.5105 71.6499 84.3229 71.991 84.2202C72.332 84.1175 72.6936 84.103 73.0414 84.1781C73.8317 84.399 77.9239 85.6706 80.5638 86.0713C83.1207 86.4107 85.7176 86.3253 88.2485 85.8184C89.1927 85.6358 89.3302 85.3071 88.4057 84.979C86.5151 84.3208 81.9859 82.7087 78.9285 81.7489C78.0183 81.4706 77.0907 81.2515 76.1516 81.0931C76.4323 80.7951 76.7942 80.5846 77.193 80.4875C77.5917 80.3903 78.01 80.4107 78.3967 80.5461C80.4933 81.1593 82.6271 81.6408 84.7852 81.9879C87.1064 82.1549 89.4406 81.9811 91.7126 81.472C92.5015 81.2323 92.6444 80.9589 91.7089 80.6535C90.109 80.1387 84.5732 78.4142 83.6094 78.1757C82.0679 77.8032 81.0528 77.6463 80.7507 77.5767C80.9563 77.2968 81.2398 77.0825 81.5661 76.9602C81.8923 76.838 82.2472 76.8131 82.587 76.8887C83.3844 77.0928 87.1101 78.0155 89.0405 78.0004C91.144 78.0068 93.2328 77.6408 95.209 76.9197C96.1369 76.5456 96.356 76.1858 95.459 76.0265C92.8826 75.5009 89.1122 74.72 87.0751 74.2642C86.5352 74.1382 85.4687 73.9554 85.0823 73.8766C85.2659 73.6582 85.5016 73.4891 85.7679 73.3848C86.0343 73.2805 86.3225 73.2443 86.6062 73.2797C87.4212 73.3882 90.3922 73.8477 91.8356 73.9268C93.5241 74.02 96.5568 73.2797 98.198 72.5423C98.9478 72.2078 99.2058 71.8353 98.2927 71.6996C95.6891 71.3534 93.7876 71.0915 91.7256 70.7737C91.1962 70.702 89.6251 70.5759 88.8256 70.5206C88.9796 70.2731 89.1989 70.0721 89.4596 69.9395C89.7203 69.8069 90.0124 69.7478 90.3041 69.7687C91.1254 69.8299 92.3875 69.8776 93.8522 69.9065C95.8515 69.9379 97.8328 69.516 99.6457 68.673C100.483 68.2857 100.806 67.8238 99.893 67.7394C96.9379 67.5482 95.0345 67.1434 92.2848 67.0814C92.3565 66.9191 92.5912 66.5869 93.3479 66.5276C94.202 66.4648 95.9493 66.6489 97.6938 66.2858C99.058 65.9562 100.355 65.3952 101.529 64.6274C102.024 64.3114 102.293 63.8344 101.386 63.892C98.8701 64.0512 97.7057 63.9488 96.2213 64.0311C95.5988 64.0645 95.1042 64.1193 94.9979 64.1296C95.1034 63.9423 95.2503 63.7811 95.4274 63.6581C95.6046 63.5352 95.8074 63.4537 96.0206 63.4197C96.8306 63.263 98.0657 63.3313 99.4821 62.9241C100.601 62.5434 101.651 61.984 102.59 61.268C103.239 60.7841 103.4 60.3638 102.493 60.4984C101.365 60.6654 99.2711 60.9271 98.4463 61.0611C98.1183 61.1246 97.5716 61.2303 97.3877 61.2659C97.4823 61.054 97.6265 60.8674 97.8082 60.7218C97.9899 60.5762 98.2038 60.4758 98.4322 60.429C99.2366 60.2426 100.599 60.0097 101.605 59.6666C102.254 59.4489 102.742 59.2265 103.767 58.0759C104.332 57.4545 104.595 57.0248 103.687 57.2107C102.569 57.427 101.65 57.6354 100.829 57.8148C100.471 57.884 99.7532 58.0895 99.6408 58.1215C99.7097 57.9574 99.8167 57.8117 99.953 57.6964C100.089 57.581 100.251 57.4993 100.425 57.4578C101.324 57.2228 102.198 56.8994 103.033 56.4925C103.573 56.1788 104.047 55.7654 104.431 55.2746C104.999 54.5862 104.949 54.2221 104.009 54.5576C102.528 55.0848 103.038 54.8684 102.277 55.1742C101.942 55.3057 101.256 55.5971 101.131 55.6468C101.188 55.4829 101.279 55.3327 101.399 55.2063C101.519 55.0799 101.664 54.9801 101.825 54.9136C102.392 54.6882 102.944 54.4258 103.477 54.128C103.995 53.7974 104.438 53.3629 104.777 52.8525C105.248 52.1418 105.315 51.873 104.675 52.1656C103.85 52.5353 102.978 53.093 102.264 53.477C102.557 52.912 103 52.4369 103.544 52.1028C103.904 51.8955 104.212 51.6106 104.445 51.2694C104.679 50.9281 104.833 50.5392 104.895 50.1314C104.919 49.881 104.965 48.8379 105.039 47.9173C105.112 47.0942 105.257 46.38 105.229 46.2319C105.2 46.0839 105.134 46.0096 105.025 46.0307Z" fill="#F1F2F2"/>
</g>
<defs>
<clipPath id="clip0_4_77">
<rect width="128" height="200" fill="white"/>
</clipPath>
</defs>
</svg>
