<svg width="128" height="200" viewBox="0 0 128 200" fill="none" xmlns="http://www.w3.org/2000/svg">
<g clip-path="url(#clip0_4_133)">
<rect width="128" height="200" fill="#0076C4"/>
<rect x="96" y="16" width="16" height="16" rx="8" fill="#005B88"/>
<rect x="96" y="168" width="16" height="16" rx="8" fill="#005B88"/>
<path d="M64.22 48L60.97 57.9L50.5699 57.95L58.97 64.1L55.8101 74.01L64.25 67.92L72.7 73.99L69.51 64.07L77.9 57.92H67.48L64.22 48Z" fill="white"/>
<path d="M91.89 73.4901L88.98 82.35L79.66 82.4001L87.1899 87.9101L84.36 96.79L91.9301 91.32L99.49 96.76L96.64 87.8801L104.15 82.36H94.8199L91.89 73.51V73.4901Z" fill="white"/>
<path d="M32.76 80.39L29.49 90.39L19 90.44L27.47 96.64L24.29 106.64L32.8 100.5L41.3199 106.62L38.11 96.62L46.5601 90.41H36.0601L32.76 80.39Z" fill="white"/>
<path d="M64.37 129.61L60.9399 140.04L49.9399 140.1L58.8101 146.59L55.5 157.04L64.41 150.61L73.3199 157.01L69.96 146.56L78.8 140.06H67.8L64.37 129.61Z" fill="white"/>
<path d="M64.13 53.82L62.22 59.64H56.1L61.04 63.26L59.1801 69.09L64.1801 65.51L69.1801 69.08L67.3101 63.24L72.24 59.62H66.11L64.13 53.82Z" fill="#EE6363"/>
<path d="M91.8199 78.7L90.1 83.91H84.62L89.05 87.15L87.38 92.38L91.84 89.16L96.28 92.36L94.61 87.14L99.03 83.89H93.54L91.8199 78.7Z" fill="#EE6363"/>
<path d="M32.6801 86.2401L30.75 92.11H24.58L29.58 95.76L27.71 101.64L32.71 98.0301L37.71 101.63L35.8199 95.7401L40.8199 92.0901H34.65L32.6801 86.2401Z" fill="#EE6363"/>
<path d="M64.28 135.74L62.28 141.88H55.83L61.05 145.7L59.05 151.85L64.29 148.07L69.53 151.84L67.53 145.68L72.74 141.86H66.28L64.28 135.74Z" fill="#EE6363"/>
</g>
<defs>
<clipPath id="clip0_4_133">
<rect width="128" height="200" fill="white"/>
</clipPath>
</defs>
</svg>
