<?xml version="1.0" encoding="utf-8"?>
<!-- Generator: Adobe Illustrator 25.4.1, SVG Export Plug-In . SVG Version: 6.00 Build 0)  -->
<svg version="1.1" xmlns="http://www.w3.org/2000/svg" xmlns:xlink="http://www.w3.org/1999/xlink" x="0px" y="0px"
	 viewBox="0 0 600 400" style="enable-background:new 0 0 600 400;" xml:space="preserve">
<style type="text/css">
	.st0{display:none;}
	.st1{display:inline;fill:#CAD7DE;}
	.st2{display:inline;fill:#7CFF43;}
	.st3{opacity:8.000000e-02;enable-background:new    ;}
	.st4{fill:#FFFFFF;}
	.st5{fill:#303030;}
	.st6{fill:#FFD300;}
	.st7{fill:#080D13;}
	.st8{fill:#F7A200;}
	.st9{fill:#FFDA0D;}
	.st10{fill:#65828B;}
	.st11{fill:#B4B2B4;}
	.st12{fill:#7BA0A9;}
	.st13{fill:#4C656C;}
	.st14{fill:#FFCA00;}
	.st15{fill:none;stroke:#080D13;stroke-width:1;stroke-miterlimit:9.9998;}
	.st16{fill:#1B1B1A;}
	.st17{fill:#FFCD15;}
	.st18{fill:#212B37;}
	.st19{fill:#9ACAD5;}
	
		.st20{opacity:0.55;clip-path:url(#SVGID_00000170972774120944339080000014376297031967129784_);fill:#FFA235;enable-background:new    ;}
	
		.st21{clip-path:url(#SVGID_00000144336737889816732160000009626707117156602291_);fill:none;stroke:#000000;stroke-width:0.35;stroke-miterlimit:10;}
	
		.st22{clip-path:url(#SVGID_00000112619646450437986440000009837040130215915905_);fill:none;stroke:#000000;stroke-width:0.35;stroke-miterlimit:10;}
	
		.st23{clip-path:url(#SVGID_00000126312853670386854500000002192922315052345478_);fill:none;stroke:#000000;stroke-width:0.35;stroke-miterlimit:10;}
	
		.st24{clip-path:url(#SVGID_00000064327947874504894600000014854781597936782217_);fill:none;stroke:#000000;stroke-width:0.35;stroke-miterlimit:10;}
	
		.st25{clip-path:url(#SVGID_00000026869954739653433380000010101441680024718521_);fill:none;stroke:#000000;stroke-width:0.35;stroke-miterlimit:10;}
	
		.st26{clip-path:url(#SVGID_00000121995623999432966530000012493243608257191047_);fill:none;stroke:#000000;stroke-width:0.35;stroke-miterlimit:10;}
	
		.st27{clip-path:url(#SVGID_00000026874414010190696340000003707844777602062006_);fill:none;stroke:#000000;stroke-width:0.35;stroke-miterlimit:10;}
	
		.st28{clip-path:url(#SVGID_00000065795067648361533120000007519636260524825741_);fill:none;stroke:#000000;stroke-width:0.35;stroke-miterlimit:10;}
	.st29{opacity:0.5;fill:#FFCA00;enable-background:new    ;}
	.st30{clip-path:url(#SVGID_00000028310039451618612850000017126662402964932275_);fill:#FFCD15;}
	.st31{clip-path:url(#SVGID_00000163754623135680445140000007217606443733472687_);fill:#FFFFFF;}
	.st32{fill:#979797;}
	.st33{fill:#828286;}
	.st34{fill:#C1BBB4;}
	.st35{opacity:0.55;fill:#FFA235;enable-background:new    ;}
	.st36{fill:#44556A;}
	.st37{fill:#374354;}
	.st38{clip-path:url(#SVGID_00000001632418096801947500000007173415715282516892_);}
	.st39{fill:#CBDF61;}
	.st40{fill:#A7D233;}
	.st41{fill:#74AD30;}
	.st42{clip-path:url(#SVGID_00000054255618539696697000000002164187058385217180_);fill:#74AD30;}
	.st43{clip-path:url(#SVGID_00000170978672338154428370000001517777554891366277_);}
	.st44{fill:#5B9B34;}
	.st45{clip-path:url(#SVGID_00000183215155304421647690000001275777131502933377_);}
	
		.st46{clip-path:url(#SVGID_00000149349013214529100120000004974931048568482706_);fill:none;stroke:#303030;stroke-width:0.25;stroke-linecap:round;stroke-linejoin:round;stroke-miterlimit:10;}
	
		.st47{clip-path:url(#SVGID_00000025413768614095151110000013190326472074028699_);fill:none;stroke:#303030;stroke-width:0.25;stroke-linecap:round;stroke-linejoin:round;stroke-miterlimit:10;}
	
		.st48{clip-path:url(#SVGID_00000080900365828891320910000011115048126274921398_);fill:none;stroke:#303030;stroke-width:0.25;stroke-linecap:round;stroke-linejoin:round;stroke-miterlimit:10;}
	
		.st49{clip-path:url(#SVGID_00000004530274944515124620000002811577693560592273_);fill:none;stroke:#303030;stroke-width:0.25;stroke-linecap:round;stroke-linejoin:round;stroke-miterlimit:10;}
	.st50{clip-path:url(#SVGID_00000096057342344475260450000011260885872420050068_);}
	.st51{clip-path:url(#SVGID_00000181809967841984227750000012409287890066816151_);fill:#74AD30;}
	.st52{clip-path:url(#SVGID_00000134969082474755658760000002375127433764589206_);}
	.st53{clip-path:url(#SVGID_00000116932372554398040630000009560988982683873692_);}
	
		.st54{clip-path:url(#SVGID_00000031209073630521985570000013553760799353368723_);fill:none;stroke:#303030;stroke-width:0.25;stroke-linecap:round;stroke-linejoin:round;stroke-miterlimit:10;}
	
		.st55{clip-path:url(#SVGID_00000151541755649304818080000015996521590656480680_);fill:none;stroke:#303030;stroke-width:0.25;stroke-linecap:round;stroke-linejoin:round;stroke-miterlimit:10;}
	.st56{fill:none;}
	.st57{fill:#808080;}
	.st58{fill:#FFAF21;}
	.st59{fill:#131313;}
	.st60{clip-path:url(#SVGID_00000075131779835806036660000005444933467360460687_);fill:#FFCD15;}
	.st61{clip-path:url(#SVGID_00000053545920122576266160000000645674587788817556_);fill:#F7A200;}
	.st62{clip-path:url(#SVGID_00000088094500945019088620000015562459194565843372_);}
</style>
<g id="Layer_2" class="st0">
	<rect class="st1" width="600" height="400"/>
</g>
<g id="Layer_1">
	<g id="background_copy" class="st0">
		<rect class="st2" width="600" height="400"/>
	</g>
	<g id="Layer_1_00000025424939927329216200000006037249814558128019_">
		<g>
			<path class="st3" d="M480.7,356.9c-6.1,3.1-42.4-6.5-87.8-29.2s-80.8-44-79.1-47.5c1.8-3.5,39.9,13.1,85,36.6
				c17.3,9,35.9,18.2,51.1,25.1C474,352.8,489.9,352.2,480.7,356.9z"/>
			<path class="st4" d="M336.2,254.3c2.9,0,5.9,0.7,8.6,2.3c0.1,0,0.1,0.1,0.2,0.1c0,0,0.1,0,0.1,0.1l0,0h0.1l0,0l21.2,14.2l22.6,16
				c1.9-1,3.6-1.5,5.2-1.5c1.2,0,2.3,0.3,3.2,0.8l0,0l6.1,3.5c0,0,0,0,0.1,0l0,0l0,0c2.2,1.3,3.6,4.1,3.6,8c0,2.7-0.6,5.5-1.7,8.3
				l43.8,25.3l0,0l16.6,6.3l16.5,12.8v2.1l-6.8,3.9l-22.1-9.5l-7.6-7.7l-44.6-25.8c-1.9,2.3-4,4.3-6.3,5.7c-2,1.1-3.9,1.7-5.5,1.7
				c-1.2,0-2.4-0.3-3.3-0.9l0,0l-5.7-3.3c-0.3-0.1-0.5-0.3-0.7-0.4l0,0l0,0l0,0l0,0c-1.9-1.3-3.1-3.9-3.2-7.4l-24.9-11.3
				c-0.3-0.1-0.5-0.2-0.8-0.4l0,0l0,0l0,0L328,286.7h-0.1h-0.1l0,0c-0.3-0.2-0.7-0.4-1-0.6c-0.2-0.2-0.5-0.3-0.7-0.5
				c-0.2-0.1-0.3-0.2-0.4-0.3c-0.3-0.2-0.6-0.5-0.9-0.7c-0.2-0.1-0.3-0.3-0.5-0.4c-0.2-0.2-0.5-0.5-0.7-0.7s-0.3-0.3-0.5-0.5
				s-0.4-0.5-0.6-0.7c-0.1-0.2-0.3-0.4-0.4-0.6c-0.2-0.2-0.3-0.5-0.5-0.7c-0.1-0.2-0.2-0.4-0.4-0.6c-0.2-0.3-0.3-0.5-0.4-0.8
				c-0.1-0.2-0.2-0.4-0.3-0.6c-0.1-0.3-0.2-0.5-0.4-0.8c-0.1-0.2-0.2-0.4-0.3-0.6c-0.1-0.3-0.2-0.6-0.3-0.9
				c-0.1-0.2-0.1-0.4-0.2-0.6c-0.1-0.3-0.1-0.6-0.2-0.9c0-0.2-0.1-0.4-0.1-0.6c-0.1-0.4-0.1-0.9-0.2-1.3c0-0.2,0-0.4,0-0.6
				c0-0.4,0-0.8,0-1.3c0-0.2,0-0.4,0-0.7c0-0.3,0-0.6,0.1-0.9c0-0.2,0.1-0.5,0.1-0.7c0-0.3,0.1-0.6,0.2-0.9c0.1-0.2,0.1-0.5,0.2-0.7
				c0.1-0.3,0.1-0.6,0.2-0.8c0.1-0.2,0.2-0.5,0.3-0.7c0.1-0.2,0.1-0.3,0.2-0.5l0,0c0.3-0.8,0.7-1.6,1.1-2.3
				C324.5,257.4,330.3,254.3,336.2,254.3 M336.2,253.1v1.2V253.1c-6.6,0-12.7,3.5-15.9,9.2c-0.4,0.7-0.7,1.4-1.1,2.2
				c0,0.1-0.1,0.1-0.1,0.2s-0.1,0.2-0.1,0.3l-0.1,0.2c-0.1,0.3-0.2,0.5-0.3,0.8c-0.1,0.3-0.2,0.6-0.3,0.9v0.1
				c-0.1,0.2-0.1,0.5-0.2,0.7c-0.1,0.3-0.1,0.6-0.2,0.9v0.2c0,0.2-0.1,0.4-0.1,0.6c0,0.3-0.1,0.6-0.1,0.9v0.3c0,0.2,0,0.3,0,0.5
				c0,0.4,0,0.9,0,1.3c0,0.2,0,0.4,0,0.6c0,0.5,0.1,0.9,0.2,1.4c0,0.1,0.1,0.3,0.1,0.4v0.2v0.1c0.1,0.3,0.1,0.6,0.2,0.9
				c0,0.2,0.1,0.3,0.1,0.5l0.1,0.2c0.1,0.3,0.2,0.6,0.3,0.9c0.1,0.2,0.1,0.4,0.2,0.6v0.1c0.1,0.3,0.2,0.6,0.4,0.9
				c0.1,0.2,0.2,0.4,0.3,0.7c0.1,0.3,0.3,0.6,0.5,0.8c0.1,0.2,0.3,0.4,0.4,0.6c0.2,0.3,0.4,0.5,0.5,0.8c0.1,0.2,0.3,0.4,0.4,0.6
				c0.2,0.3,0.4,0.5,0.6,0.8l0.1,0.1c0.1,0.2,0.3,0.3,0.4,0.5c0.2,0.3,0.5,0.5,0.8,0.7l0.1,0.1c0.1,0.1,0.2,0.2,0.4,0.3
				c0.3,0.3,0.6,0.5,0.9,0.7l0.1,0.1c0.1,0.1,0.2,0.2,0.3,0.2c0.2,0.1,0.4,0.3,0.6,0.4l0.1,0.1c0.4,0.3,0.7,0.5,1,0.7
				c0,0,0.1,0,0.1,0.1l0.2,0.1l22.5,10.7c0.3,0.1,0.6,0.3,0.9,0.4l24.2,10.9c0.2,3.4,1.5,6.1,3.7,7.6c0.3,0.2,0.6,0.4,0.9,0.5
				l5.7,3.3c0.1,0.1,0.2,0.1,0.3,0.1c1.1,0.6,2.3,0.9,3.7,0.9c1.9,0,4-0.6,6.1-1.8c2.1-1.2,4.2-3,6-5.2l43.6,25.2l7.5,7.6
				c0.1,0.1,0.2,0.2,0.4,0.3l22.1,9.5c0.1,0.1,0.3,0.1,0.5,0.1s0.4-0.1,0.6-0.2l6.8-3.9c0.4-0.2,0.6-0.6,0.6-1v-2.1
				c0-0.4-0.2-0.7-0.5-0.9l-16.5-12.8c-0.1-0.1-0.2-0.1-0.3-0.2l-16.5-6.3L407,305.7c1-2.7,1.5-5.4,1.5-7.8c0-4.2-1.4-7.3-4.1-8.9
				c0,0-0.1,0-0.1-0.1l-0.7,1l0.6-1l-6.1-3.5c-1.1-0.7-2.4-1-3.8-1c-1.6,0-3.4,0.4-5.1,1.3l-22-15.6L346,255.9l-0.1-0.1
				c0,0-0.1,0-0.1-0.1c-0.1-0.1-0.1-0.1-0.2-0.2C342.6,254,339.4,253.1,336.2,253.1L336.2,253.1z"/>
			<g>
				<g>
					<g>
						<path class="st5" d="M321.3,262.9c-4.8,8.2-1.9,18.7,6.3,23.5c8.2,4.8,25.4-25,17.2-29.8C336.6,251.9,326,254.7,321.3,262.9z"
							/>
						<path class="st6" d="M324,278.5c0-7.8,5.5-17.2,12.2-21.1c3.5-2,6.7-2.1,8.9-0.7l0,0h0.1l0,0l21.2,14.2l-15.8,26.3L328,286.7
							h-0.1h-0.1l0,0C325.5,285.4,324,282.6,324,278.5z"/>
						<path class="st6" d="M347.4,290.3c0-6.9,4.9-15.3,10.9-18.8c3.3-1.9,6.2-1.9,8.2-0.4l0,0l28.5,20.2l-12.4,20.6l-31.1-14.1
							c-0.3-0.1-0.5-0.2-0.8-0.4l0,0l0,0C348.6,296.2,347.4,293.8,347.4,290.3z"/>
						<path class="st7" d="M338.7,280.5c-3.8,4.7-8,7.7-11.1,5.9c-7.5-4.3-10.5-13.4-7.4-21.2C323.8,269,329.7,274.3,338.7,280.5z"
							/>
						<path class="st8" d="M350.6,297.4L328,286.7h-0.1h-0.1l0,0c-2.4-1.2-3.9-4-3.9-8c0-2.6,0.6-5.4,1.7-8.1
							c6.1,5.4,15.4,12.3,29.1,20L350.6,297.4z"/>
						<path class="st8" d="M386.1,306l-3.5,5.8l-31.1-14.1c-0.3-0.1-0.5-0.2-0.8-0.4l0,0l0,0c-2-1.1-3.2-3.6-3.2-7
							c0-1.3,0.2-2.6,0.5-3.9c8.4,5.1,18.8,10.7,31.6,16.4C381.9,303.9,384.1,305,386.1,306z"/>
						<path class="st9" d="M376.3,308.6c0-7.9,5.5-17.5,12.4-21.4c3.4-2,6.5-2.2,8.8-0.8l0,0l6.3,3.6l-2.7,4.6
							c-0.1,7.9-5.6,17.3-12.4,21.2c0,0-0.1,0-0.1,0.1l-2.5,4.3l-5.7-3.3c-0.3-0.1-0.5-0.3-0.7-0.4l0,0l0,0
							C377.6,315,376.3,312.4,376.3,308.6z"/>
						<path class="st8" d="M382.6,312.2c0,7.9,5.5,11.1,12.4,7.1c6.8-3.9,12.4-13.5,12.4-21.4s-5.5-11.1-12.4-7.1
							C388.1,294.7,382.6,304.3,382.6,312.2z"/>
						<path class="st5" d="M390,307.9c0,3.2,2.2,4.4,5,2.9c2.7-1.6,5-5.4,5-8.6s-2.2-4.4-5-2.9C392.2,300.9,390,304.7,390,307.9z"/>
						<g>
							<g>
								<g>
									<polygon class="st10" points="453.5,347.1 465.9,339.9 482.4,352.7 475.6,356.6 									"/>
									<polygon class="st10" points="465.9,339.9 453.5,347.1 445.8,339.4 449.3,333.6 									"/>
								</g>
								<polygon class="st10" points="392.8,308.8 395,302.2 455.3,337 448.5,340.9 								"/>
							</g>
							<g>
								<polygon class="st11" points="453.5,345 465.9,337.8 482.4,350.6 475.6,354.5 								"/>
								<polygon class="st11" points="465.9,337.8 453.5,345 445.8,337.3 449.3,331.5 								"/>
							</g>
							<path class="st10" d="M391.9,306.8c0,1.9,1.4,2.7,3,1.8c1.7-1,3-3.3,3-5.3c0-1.9-1.4-2.7-3-1.8
								C393.3,302.5,391.9,304.9,391.9,306.8z"/>
							<polygon class="st12" points="482.4,350.6 482.4,352.7 475.6,356.6 475.6,354.5 							"/>
							<path class="st11" d="M392,306.2c0.2-1.8,1.5-3.8,3-4.6c0.8-0.5,1.6-0.5,2.1-0.2l0,0l58.2,33.6l-9.5,2.3l-52.3-30.2l0,0
								L392,306.2z"/>
							<polygon class="st13" points="453.5,345 453.5,347.1 445.8,339.4 445.8,337.3 							"/>
						</g>
					</g>
					<path class="st6" d="M380.3,316.8c-0.3-0.1-0.5-0.3-0.7-0.4l0,0l0,0c-2-1.4-3.2-4-3.2-7.8c0-2.8,0.7-5.7,1.9-8.6
						c1.5,1.2,3.6,2.4,6.2,3.6c-1.2,2.8-1.8,5.8-1.8,8.5c0,3.9,1.3,6.6,3.5,7.9l0,0L380.3,316.8z"/>
					<path class="st9" d="M339.4,257.2c8.9,2.5,29,16.4,40.3,25.8c14,11.5-6.2-0.5-21.6-10.4C344.3,263.6,329,254.2,339.4,257.2z"/>
					<path class="st4" d="M444.8,332c0,0-36.7-20.7-46-26.9c-9.3-6.2,14.2,6.9,24.6,13C433.7,324.2,454,336.2,444.8,332z"/>
				</g>
			</g>
		</g>
		<g>
			<path class="st3" d="M181.9,361.8l-1.1,0.8c-2.5,1.8-2.3,5.6,0.3,7.1l9.8,5.8c1.3,0.8,2.9,0.8,4.2,0c2-1.2,8.4-4.5,8.6-5.4
				c0.2-1.5-4.4-4.2-4.4-4.2l28.7-16.7c0,0,4.4,4.4,9,3c3.7-1.2,46.2-27.3,63.7-38c3.4-2.1,3.4-7.1,0-9.2l-13.3-8.4L181.9,361.8z"/>
			<g>
				<path class="st4" d="M259.4,253.5c1.6,0,3.1,0.3,4.4,0.9l0,0l0,0c0.7,0.3,1.3,0.6,1.8,1.1l14.3,8.3l0,0
					c4.5,1.7,7.4,6.6,7.4,13.9v14.6c0,13-9.1,28.8-20.4,35.4l-29.8,17.2c-0.5,0.3-1,0.4-1.5,0.4c-0.2,0-0.4,0-0.5-0.1l0,0l0,0
					c-0.2-0.1-0.4-0.1-0.5-0.3c0,0,0,0-0.1,0c0,0,0,0-0.1,0l-5.7-3.2l-34.9,20.2v5.6c0,0.8,0.3,1.4,0.7,1.7l0,0l-0.6,0.3l-11.3-6.5
					l0,0l0,0l0,0c-0.5-0.3-0.8-0.9-0.8-1.8V355l0.6-0.3l0.9,0.5l3.7-2.1l0.7-0.4l3.3-1.9l0.7-0.4l3.5-2l0.7-0.4l3.4-2l0.7-0.4
					l3.1-1.8l0.7-0.4l3.6-2.1l0.7-0.4l3.3-1.9l0.7-0.4l3.3-1.9l0.7-0.4l1.9-1.1c-0.4-0.4-0.6-1-0.6-1.8v-18.9l-2.1-1.2l-1-5.4l0,0
					l1-5.1l2.1-1.1l0,0V299c0-4.9,1.3-10.1,3.4-15.1c1.8-4.2,4.3-8.2,7.1-11.7c2.9-3.5,6.3-6.5,9.8-8.6l12.7-7.3
					C253.6,254.4,256.7,253.5,259.4,253.5 M259.4,252.3v1.2V252.3c-3.1,0-6.3,1-9.7,2.9l-12.7,7.3c-3.6,2.1-7.1,5.1-10.1,8.9
					c-2.9,3.6-5.5,7.7-7.3,12c-2.3,5.3-3.5,10.7-3.5,15.6v1.9l-1.5,0.8c-0.3,0.2-0.5,0.5-0.6,0.8l-1,5.1c0,0.2,0,0.3,0,0.5l1,5.4
					c0.1,0.4,0.3,0.7,0.6,0.8l1.5,0.8v18.1c0,0.5,0.1,1,0.2,1.4l-0.9,0.5l-0.7,0.4l-3.3,1.9l-0.7,0.4l-3.3,1.9l-0.7,0.4l-3.6,2.1
					l-0.7,0.4l-3.1,1.8l-0.7,0.4l-3.4,2l-0.7,0.4l-3.5,2l-0.7,0.4l-3.3,1.9l-0.7,0.4l-3,1.8l-0.3-0.2c-0.2-0.1-0.4-0.2-0.6-0.2
					c-0.2,0-0.4,0-0.6,0.1l-0.6,0.3c-0.4,0.2-0.7,0.6-0.7,1.1v6.2c0,1.2,0.4,2.2,1.2,2.8c0.1,0,0.1,0.1,0.2,0.1l11.4,6.5
					c0.2,0.1,0.4,0.2,0.6,0.2c0.2,0,0.4,0,0.6-0.1l0.6-0.3c0.4-0.2,0.7-0.7,0.6-1.2c0-0.3-0.2-0.7-0.5-0.9c-0.1-0.1-0.2-0.3-0.2-0.8
					v-4.9l33.7-19.4l5,2.8l0.1,0.1c0.3,0.2,0.6,0.4,0.9,0.5c0.3,0.1,0.6,0.1,0.9,0.1c0.7,0,1.4-0.2,2.1-0.6l29.8-17.2
					c11.6-6.7,21-23,21-36.4v-14.6c0-7.5-2.9-13-8.1-15l-14.2-8.2c-0.6-0.4-1.3-0.8-2-1.1l0,0C262.8,252.6,261.1,252.3,259.4,252.3
					L259.4,252.3z"/>
				<g>
					<g>
						<g>
							<path class="st5" d="M266.9,265.8l-12.7,7.3c-11.3,6.5-20.4,22.3-20.4,35.4v34.4c0,2.1,1.5,3,3.3,1.9l29.8-17.2
								c11.3-6.5,20.4-22.3,20.4-35.4v-14.6C287.3,264.6,278.2,259.3,266.9,265.8z"/>
							
								<ellipse transform="matrix(0.5 -0.866 0.866 0.5 -129.2812 375.8111)" class="st14" cx="260.8" cy="299.9" rx="26.2" ry="15.1"/>
							
								<ellipse transform="matrix(0.5 -0.866 0.866 0.5 -129.2804 375.8105)" class="st15" cx="260.8" cy="299.9" rx="21.3" ry="12.3"/>
						</g>
						<path class="st16" d="M233.8,342.8v-34.4c0-13,9.1-28.8,20.4-35.4l12.7-7.3c5-2.9,9.5-3.4,13-2.1l-14.3-8.3
							c-0.6-0.4-1.2-0.8-1.8-1.1l0,0l0,0c-3.6-1.6-8.3-1.1-13.5,1.9l-12.7,7.3c-11.3,6.5-20.4,22.3-20.4,35.4v34.4
							c0,1,0.3,1.7,0.8,2l0,0h0.1l0.1,0.1l16.9,9.6C234.3,344.9,233.8,344.1,233.8,342.8z"/>
						<g>
							<path class="st17" d="M238.1,342.2L238.1,342.2L238.1,342.2z"/>
							<path class="st17" d="M245.9,336.6l-0.7-0.4c-0.1-0.4-0.3-0.6-0.7-0.6c-2.2-0.3-4.1-1.4-5.7-2.9h0.1l0,0l-0.2-0.1
								c-0.2-0.2-0.4-0.4-0.6-0.6c-0.2-0.2-0.4-0.3-0.6-0.3c-0.8,0-1.7,1.1-1.7,2.1v6.3c0,1.2,0.6,2,1.6,2h0.1l0.5,0.3
								c-0.1-0.1-0.2-0.2-0.3-0.3c0.3,0,0.6-0.1,0.9-0.3l5.4-3.1c0.7-0.4,1.1-1.2,1.1-1.9h0.8V336.6z"/>
						</g>
						<path class="st7" d="M231.7,341.5v-7l-3.7-2.1l-9.3-5.3l0,0v7c0,1,0.3,1.7,0.9,2l0,0l0,0l0,0l0,0l12.9,7.3l0,0
							C232,343.1,231.7,342.4,231.7,341.5z"/>
						<path class="st18" d="M231.7,341.7l-10.8-6.1l0,0l0,0l0,0l0,0c-0.6-0.3-0.9-1.1-0.9-2v-5.7l-1.3-0.8l0,0v7c0,1,0.3,1.7,0.9,2
							l0,0l0,0l0,0l0,0l12.9,7.3l0,0C232,343.1,231.8,342.5,231.7,341.7z"/>
						<path class="st9" d="M220.5,333.6l-38.4,22.2l1.3,1.2c2.7,2.6,6.1,4.3,9.7,5.1l0,0l38.4-22.2l-0.3-0.1
							c-3.6-0.8-6.9-2.5-9.6-5.1L220.5,333.6z"/>
						<path class="st17" d="M221.7,334.8l-1.2-1.1l-38.4,22.2l1.3,1.2c0.8,0.8,1.7,1.5,2.6,2.1c8.5-9.8,28.3-19.9,36.3-23.8
							C222.1,335.2,221.9,335,221.7,334.8z"/>
						<path class="st10" d="M193.9,367.3v-6.2l-3.3-1.9l-8.2-4.7l0,0v6.2c0,0.9,0.3,1.5,0.8,1.8l0,0l0,0l0,0l0,0l10.8,6.8l0.6-0.3
							l0,0C194.2,368.7,193.9,368.1,193.9,367.3z"/>
						<path class="st12" d="M193.3,367.6v-6.2l-3.3-1.9l-8.2-4.7l0,0v6.2c0,0.9,0.3,1.5,0.8,1.8l0,0l0,0l0,0l0,0l11.3,6.5l0,0
							C193.6,369,193.3,368.4,193.3,367.6z"/>
						<polygon class="st19" points="182.4,354.5 181.9,354.9 193.3,361.4 193.9,361.1 						"/>
						<path class="st19" d="M182.7,359.4c0,0.8,0.6,1.8,1.2,2.1c0.7,0.4,1.2,0.1,1.2-0.7c0-0.8-0.6-1.8-1.2-2.1
							C183.3,358.3,182.7,358.6,182.7,359.4z"/>
						<path class="st19" d="M189.4,363.3c0,0.8,0.6,1.8,1.2,2.1c0.7,0.4,1.2,0.1,1.2-0.7c0-0.8-0.6-1.8-1.2-2.1
							C190,362.2,189.4,362.5,189.4,363.3z"/>
					</g>
				</g>
				<path class="st17" d="M245.9,336.6l-0.7-0.4c-0.1-0.4-0.3-0.6-0.7-0.6c-2.2-0.3-4.1-1.4-5.7-2.9h0.1l0,0l-0.2-0.1
					c-0.2-0.2-0.4-0.4-0.6-0.6c-0.2-0.2-0.4-0.3-0.6-0.3c-0.8,0-1.7,1.1-1.7,2.1v6.3c0,1.2,0.6,2,1.6,2h0.1l0.5,0.3
					c-0.1-0.1-0.2-0.2-0.3-0.3c0.3,0,0.6-0.1,0.9-0.3l5.4-3.1c0.7-0.4,1.1-1.2,1.1-1.9h0.8V336.6z"/>
				<g>
					<path class="st14" d="M237.3,334.4v6.3c0,1.5,1.1,2.2,2.4,1.4l5.4-3.1c1-0.6,1.3-2.3,0.5-2.4c-2.6-0.4-4.9-1.7-6.6-3.7
						C238.6,332.1,237.3,333.3,237.3,334.4z"/>
				</g>
				<g>
					<g>
						<defs>
							
								<ellipse id="SVGID_1_" transform="matrix(0.5 -0.866 0.866 0.5 -129.2812 375.8111)" cx="260.8" cy="299.9" rx="26.2" ry="15.1"/>
						</defs>
						<clipPath id="SVGID_00000039094693735597939350000001555706626755781761_">
							<use xlink:href="#SVGID_1_"  style="overflow:visible;"/>
						</clipPath>
						
							<path style="opacity:0.55;clip-path:url(#SVGID_00000039094693735597939350000001555706626755781761_);fill:#FFA235;enable-background:new    ;" d="
							M276.2,273.7l-33.6,52.6l22.3-2.2l17.5-21.5c0,0,1.1-27.4,0-27.4C281.4,275.1,276.2,273.7,276.2,273.7z"/>
					</g>
				</g>
				<g>
					<g>
						<defs>
							<path id="SVGID_00000035511231091110724730000000315334433237175463_" d="M220.5,333.6l-38.4,22.2l1.3,1.2
								c2.7,2.6,6.1,4.3,9.7,5.1l0,0l38.4-22.2l-0.3-0.1c-3.6-0.8-6.9-2.5-9.6-5.1L220.5,333.6z"/>
						</defs>
						<clipPath id="SVGID_00000048476237661140196100000003933151979488843913_">
							<use xlink:href="#SVGID_00000035511231091110724730000000315334433237175463_"  style="overflow:visible;"/>
						</clipPath>
						
							<line style="clip-path:url(#SVGID_00000048476237661140196100000003933151979488843913_);fill:none;stroke:#000000;stroke-width:0.35;stroke-miterlimit:10;" x1="186.3" y1="352.2" x2="193.3" y2="356"/>
					</g>
					<g>
						<defs>
							<path id="SVGID_00000008110557784544998610000004915149662205080480_" d="M220.5,333.6l-38.4,22.2l1.3,1.2
								c2.7,2.6,6.1,4.3,9.7,5.1l0,0l38.4-22.2l-0.3-0.1c-3.6-0.8-6.9-2.5-9.6-5.1L220.5,333.6z"/>
						</defs>
						<clipPath id="SVGID_00000003067106403241153860000010245140597478799756_">
							<use xlink:href="#SVGID_00000008110557784544998610000004915149662205080480_"  style="overflow:visible;"/>
						</clipPath>
						
							<line style="clip-path:url(#SVGID_00000003067106403241153860000010245140597478799756_);fill:none;stroke:#000000;stroke-width:0.35;stroke-miterlimit:10;" x1="189.9" y1="349.6" x2="196.8" y2="353.5"/>
					</g>
					<g>
						<defs>
							<path id="SVGID_00000165949348802083337670000000910254803780210581_" d="M220.5,333.6l-38.4,22.2l1.3,1.2
								c2.7,2.6,6.1,4.3,9.7,5.1l0,0l38.4-22.2l-0.3-0.1c-3.6-0.8-6.9-2.5-9.6-5.1L220.5,333.6z"/>
						</defs>
						<clipPath id="SVGID_00000073688089024900651820000005940098704982763188_">
							<use xlink:href="#SVGID_00000165949348802083337670000000910254803780210581_"  style="overflow:visible;"/>
						</clipPath>
						
							<line style="clip-path:url(#SVGID_00000073688089024900651820000005940098704982763188_);fill:none;stroke:#000000;stroke-width:0.35;stroke-miterlimit:10;" x1="193.8" y1="347.1" x2="200.7" y2="350.9"/>
					</g>
					<g>
						<defs>
							<path id="SVGID_00000170245094755413345980000009941556817572503997_" d="M220.5,333.6l-38.4,22.2l1.3,1.2
								c2.7,2.6,6.1,4.3,9.7,5.1l0,0l38.4-22.2l-0.3-0.1c-3.6-0.8-6.9-2.5-9.6-5.1L220.5,333.6z"/>
						</defs>
						<clipPath id="SVGID_00000162336863613640891980000012416504119628016516_">
							<use xlink:href="#SVGID_00000170245094755413345980000009941556817572503997_"  style="overflow:visible;"/>
						</clipPath>
						
							<line style="clip-path:url(#SVGID_00000162336863613640891980000012416504119628016516_);fill:none;stroke:#000000;stroke-width:0.35;stroke-miterlimit:10;" x1="197.9" y1="344.7" x2="204.8" y2="348.5"/>
					</g>
					<g>
						<defs>
							<path id="SVGID_00000145057965198964083770000010633412164367841462_" d="M220.5,333.6l-38.4,22.2l1.3,1.2
								c2.7,2.6,6.1,4.3,9.7,5.1l0,0l38.4-22.2l-0.3-0.1c-3.6-0.8-6.9-2.5-9.6-5.1L220.5,333.6z"/>
						</defs>
						<clipPath id="SVGID_00000119818190472665785410000006997169567586342826_">
							<use xlink:href="#SVGID_00000145057965198964083770000010633412164367841462_"  style="overflow:visible;"/>
						</clipPath>
						
							<line style="clip-path:url(#SVGID_00000119818190472665785410000006997169567586342826_);fill:none;stroke:#000000;stroke-width:0.35;stroke-miterlimit:10;" x1="201.9" y1="342.7" x2="208.9" y2="346.5"/>
					</g>
					<g>
						<defs>
							<path id="SVGID_00000136412038908491171490000010057623326284628102_" d="M220.5,333.6l-38.4,22.2l1.3,1.2
								c2.7,2.6,6.1,4.3,9.7,5.1l0,0l38.4-22.2l-0.3-0.1c-3.6-0.8-6.9-2.5-9.6-5.1L220.5,333.6z"/>
						</defs>
						<clipPath id="SVGID_00000158708144563667463490000003027685575548314027_">
							<use xlink:href="#SVGID_00000136412038908491171490000010057623326284628102_"  style="overflow:visible;"/>
						</clipPath>
						
							<line style="clip-path:url(#SVGID_00000158708144563667463490000003027685575548314027_);fill:none;stroke:#000000;stroke-width:0.35;stroke-miterlimit:10;" x1="205.9" y1="340.1" x2="212.9" y2="344"/>
					</g>
					<g>
						<defs>
							<path id="SVGID_00000021085221554989032130000006782899943788466093_" d="M220.5,333.6l-38.4,22.2l1.3,1.2
								c2.7,2.6,6.1,4.3,9.7,5.1l0,0l38.4-22.2l-0.3-0.1c-3.6-0.8-6.9-2.5-9.6-5.1L220.5,333.6z"/>
						</defs>
						<clipPath id="SVGID_00000161631691503317456390000018411971694493589636_">
							<use xlink:href="#SVGID_00000021085221554989032130000006782899943788466093_"  style="overflow:visible;"/>
						</clipPath>
						
							<line style="clip-path:url(#SVGID_00000161631691503317456390000018411971694493589636_);fill:none;stroke:#000000;stroke-width:0.35;stroke-miterlimit:10;" x1="210.1" y1="338" x2="217.1" y2="341.8"/>
					</g>
					<g>
						<defs>
							<path id="SVGID_00000183947266983580958550000008273151748402919590_" d="M220.5,333.6l-38.4,22.2l1.3,1.2
								c2.7,2.6,6.1,4.3,9.7,5.1l0,0l38.4-22.2l-0.3-0.1c-3.6-0.8-6.9-2.5-9.6-5.1L220.5,333.6z"/>
						</defs>
						<clipPath id="SVGID_00000165211531990824048610000007240282658939478432_">
							<use xlink:href="#SVGID_00000183947266983580958550000008273151748402919590_"  style="overflow:visible;"/>
						</clipPath>
						
							<line style="clip-path:url(#SVGID_00000165211531990824048610000007240282658939478432_);fill:none;stroke:#000000;stroke-width:0.35;stroke-miterlimit:10;" x1="214" y1="335.6" x2="220.9" y2="339.4"/>
					</g>
				</g>
				<polygon class="st9" points="189.7,356.7 221.1,338.5 225.6,341.8 194.9,359.5 				"/>
				<g>
					<polygon class="st14" points="217.2,301.6 215.1,302.8 231.8,311.6 233.8,310 					"/>
					<polygon class="st9" points="215.1,302.8 214,307.9 215.1,313.3 231.8,322.3 230.4,316 231.8,311.6 					"/>
					<polygon class="st29" points="217.2,301.6 215.1,302.8 231.8,311.6 233.8,310 					"/>
					<polygon class="st9" points="231.8,311.6 230.4,316 231.8,322.3 233.7,320.7 233.8,310 					"/>
					<polygon class="st29" points="231.8,311.6 230.4,316 231.8,322.3 233.7,320.7 233.8,310 					"/>
				</g>
				<g>
					<g>
						<defs>
							<polygon id="SVGID_00000069378766241013335470000001382108182764077730_" points="215.1,302.8 214,307.9 215.1,313.3 
								231.8,322.3 230.4,316 231.8,311.6 							"/>
						</defs>
						<clipPath id="SVGID_00000000221239865013933810000000457444188019074484_">
							<use xlink:href="#SVGID_00000069378766241013335470000001382108182764077730_"  style="overflow:visible;"/>
						</clipPath>
						<polygon style="clip-path:url(#SVGID_00000000221239865013933810000000457444188019074484_);fill:#FFCD15;" points="
							213.6,307.7 230.7,316.4 232.3,311.3 215,302.2 						"/>
					</g>
				</g>
				<g>
					<g>
						<defs>
							<path id="SVGID_00000111192102151359809120000001089588075881548160_" d="M233.8,342.8v-34.4c0-13,9.1-28.8,20.4-35.4
								l12.7-7.3c5-2.9,9.5-3.4,13-2.1l-14.3-8.3c-0.6-0.4-1.2-0.8-1.8-1.1l0,0l0,0c-3.6-1.6-8.3-1.1-13.5,1.9l-12.7,7.3
								c-11.3,6.5-20.4,22.3-20.4,35.4v34.4c0,1,0.3,1.7,0.8,2l0,0h0.1l0.1,0.1l16.9,9.6C234.3,344.9,233.8,344.1,233.8,342.8z"/>
						</defs>
						<clipPath id="SVGID_00000005982185300725516860000009489206600111637179_">
							<use xlink:href="#SVGID_00000111192102151359809120000001089588075881548160_"  style="overflow:visible;"/>
						</clipPath>
						<polygon style="clip-path:url(#SVGID_00000005982185300725516860000009489206600111637179_);fill:#FFFFFF;" points="
							217.6,282.3 243.3,295.4 245.8,281.6 219.6,267.9 						"/>
					</g>
				</g>
			</g>
		</g>
		<g>
			<path class="st3" d="M293.8,212.5L293.8,212.5c0-0.7-0.1-1.4-0.3-2.1l-1-0.6l-8.3,4.9c-3.9,2.3-9,3.1-12.6,1
				c-0.4-0.2-0.8-0.5-1.1-0.8c0.6-0.7,1.4-1.3,2.5-1.9l8.3-4.9v-4.7l-1.1-0.6c-5.8-0.6-12.1,0.5-16.8,3.3c-3.8,2.3-5.7,5.2-5.6,8.1
				l0,0v3.2l-86.5,52.3c-6.3-1.1-13.6-0.1-18.8,3c-3.7,2.2-5.5,5-5.6,7.7l0,0v4.9l0,0c0,0.6,0.1,1.3,0.3,1.9l1,0.6l8.3-4.9
				c2.1-1.2,4.5-2,6.9-2.2c0.4,0,0.8-0.1,1.2,0c0.2,0,0.4,0,0.6,0.1c0.3,0,0.7,0,1,0.1c0.3,0,0.5,0.1,0.8,0.2
				c0.2,0.1,0.5,0.1,0.7,0.2c0.5,0.2,1,0.4,1.4,0.7c0.4,0.2,0.8,0.5,1.1,0.8c-0.6,0.7-1.4,1.3-2.5,1.9l-8.4,5v4.7l1.2,0.5
				c5.8,0.6,12.1-0.5,16.8-3.3c3.7-2.2,5.5-5,5.6-7.8v0.1v-4.7l0,0l0,0l85.1-51.5c0.7,0.2,1.5,0.3,2.3,0.4c0.2,0,0.5,0.1,0.7,0.1
				c0.6,0.1,1.1,0.1,1.7,0.2c0.3,0,0.5,0,0.8,0c0.6,0,1.2,0,1.9,0c0.2,0,0.4,0,0.6,0c0.8,0,1.5-0.1,2.3-0.2c0.3,0,0.6-0.1,0.9-0.1
				c0.5-0.1,1-0.2,1.5-0.3c0.3-0.1,0.6-0.1,1-0.2c0.5-0.1,1-0.2,1.4-0.4c0.3-0.1,0.6-0.2,0.8-0.2h0.1l0,0c1.5-0.5,3-1.2,4.3-1.9
				c3.7-2.2,5.5-5,5.6-7.8v0.1L293.8,212.5L293.8,212.5z"/>
			<path class="st4" d="M267.9,203.6c1,0,2,0.1,3,0.2l1.1,0.6v4.5l-8.2,4.8c-1,0.6-1.8,1.2-2.4,1.9c0.3,0.3,0.6,0.5,1,0.7
				c1.5,0.8,3.1,1.2,4.9,1.2c2.6,0,5.2-0.8,7.5-2.1l8.1-4.8l1,0.6c0.2,0.7,0.3,1.4,0.3,2.1l0,0v4.5v-0.1c0,2.7-1.9,5.4-5.5,7.5
				c-1.3,0.8-2.7,1.4-4.2,1.9l0,0h-0.1c-0.3,0.1-0.5,0.2-0.8,0.2c-0.5,0.1-0.9,0.3-1.4,0.4c-0.3,0.1-0.6,0.1-0.9,0.2
				c-0.5,0.1-1,0.2-1.5,0.2c-0.3,0-0.6,0.1-0.9,0.1c-0.8,0.1-1.5,0.2-2.3,0.2c-0.2,0-0.4,0-0.5,0c-0.3,0-0.6,0-0.9,0s-0.6,0-0.9,0
				s-0.5,0-0.8,0c-0.5,0-1.1-0.1-1.6-0.1c-0.2,0-0.5-0.1-0.7-0.1c-0.8-0.1-1.5-0.2-2.2-0.4l-83.3,50l0,0l0,0v4.5v-0.1
				c0,2.7-1.8,5.4-5.5,7.5c-3.7,2.2-8.6,3.3-13.4,3.3c-1,0-2-0.1-3-0.2l-1.2-0.5v-4.5l8.3-4.8c1-0.6,1.8-1.2,2.4-1.9
				c-0.3-0.3-0.6-0.5-1-0.7c-0.4-0.3-0.9-0.5-1.4-0.6c-0.2-0.1-0.5-0.1-0.7-0.2c-0.3-0.1-0.5-0.2-0.8-0.2c-0.3-0.1-0.7-0.1-1-0.1
				c-0.2,0-0.4-0.1-0.6-0.1c-0.1,0-0.1,0-0.2,0c-0.3,0-0.6,0-0.9,0c-2.3,0.1-4.7,0.9-6.8,2.1l-8.1,4.8l-1-0.6
				c-0.2-0.6-0.3-1.2-0.3-1.9l0,0V279l0,0c0.1-2.6,1.9-5.4,5.5-7.5c3.7-2.2,8.6-3.3,13.4-3.3c1.7,0,3.4,0.1,5,0.4l84.6-50.8v-3.1
				l0,0c-0.1-2.8,1.7-5.6,5.5-7.8C258.2,204.7,263.1,203.6,267.9,203.6 M267.9,202.5c-5.1,0-10.2,1.3-13.9,3.5
				c-3.9,2.3-6.1,5.5-6,8.7c0,0,0,0,0,0.1v2.5l-83.8,50.3c-1.5-0.3-3.2-0.4-4.8-0.4c-5.1,0-10.2,1.3-13.9,3.5s-5.8,5-6,8
				c0,0.1,0,0.2,0,0.3v4.8c0,0.1,0,0.2,0,0.3c0,0.7,0.1,1.3,0.3,1.9c0.1,0.2,0.2,0.4,0.5,0.6l1,0.6c0.2,0.1,0.3,0.1,0.5,0.1
				s0.4,0,0.5-0.1l8.1-4.8c1.9-1.1,4.2-1.8,6.3-1.9h0.1c0.3,0,0.5,0,0.8,0h0.2c0.1,0,0.2,0,0.3,0s0.2,0,0.3,0h0.2
				c0.2,0,0.5,0,0.7,0.1c0.2,0,0.3,0.1,0.4,0.1l0.3,0.1l0.3,0.1c0.1,0,0.2,0.1,0.3,0.1c0.4,0.1,0.8,0.3,1.1,0.5
				c-0.4,0.3-0.8,0.6-1.3,0.9L152,287c-0.3,0.2-0.5,0.5-0.5,0.9v4.5c0,0.4,0.2,0.8,0.6,0.9l1.2,0.5c0.1,0,0.2,0.1,0.3,0.1
				c1,0.1,2.1,0.2,3.1,0.2c5.1,0,10.2-1.3,13.9-3.5s5.8-5,6-8c0-0.1,0.1-0.2,0.1-0.3v-4l82.4-49.5c0.6,0.1,1.2,0.2,1.9,0.3
				c0.2,0,0.4,0,0.6,0.1h0.2c0.6,0.1,1.1,0.1,1.7,0.2c0.3,0,0.6,0,0.8,0c0.3,0,0.7,0,1,0s0.6,0,0.9,0h0.2c0.1,0,0.2,0,0.4,0
				c0.7,0,1.5-0.1,2.3-0.2c0.2,0,0.4-0.1,0.6-0.1h0.3c0.5-0.1,1-0.2,1.5-0.3c0.3-0.1,0.7-0.1,1-0.2c0.5-0.1,1-0.3,1.5-0.4l0.3-0.1
				c0.2-0.1,0.4-0.1,0.6-0.2h0.1l0,0c1.7-0.5,3.1-1.2,4.4-2c3.7-2.2,5.8-5,6-8.1c0-0.1,0-0.2,0-0.3V213c0-0.1,0-0.2,0-0.2
				c0-0.8-0.1-1.5-0.3-2.2c-0.1-0.2-0.2-0.4-0.5-0.6l-1-0.6c-0.2-0.1-0.3-0.1-0.5-0.1s-0.4,0-0.5,0.1l-8.1,4.8c-2.2,1.3-4.7,2-7,2
				c-1.6,0-3-0.3-4.2-1c0.4-0.3,0.8-0.6,1.3-0.9l8.2-4.8c0.3-0.2,0.5-0.5,0.5-0.9v-4.5c0-0.4-0.2-0.7-0.5-0.9l-1.1-0.6
				c-0.1-0.1-0.3-0.1-0.4-0.1C270,202.6,268.9,202.5,267.9,202.5L267.9,202.5z"/>
			<g>
				<g>
					<polygon class="st32" points="271.9,204.3 271.9,208.8 262.7,212.7 263,206.8 					"/>
					<polygon class="st12" points="140.4,279 140.4,283.7 140.9,283.7 141.2,279.8 					"/>
					<polygon class="st12" points="175.6,277.8 175.6,282.3 173.8,279.8 					"/>
					<polygon class="st12" points="284.2,217.7 284.2,213.2 282.7,214.9 					"/>
					<path class="st33" d="M274.7,219.8c-3.8,2.2-8.8,3-12.4,0.9c-3.6-2-2.4-4.9,1.4-7.1l8.2-4.8l-1.1-0.6
						c-5.6-0.6-11.9,0.5-16.4,3.2c-5,2.9-6.6,7-4.8,10.5l-85.4,51.2c-6.1-1.1-13.3-0.1-18.4,2.9c-4.5,2.7-6.3,6.3-5.2,9.5l1,0.6
						l8.1-4.8c3.8-2.2,8.8-3,12.4-0.9c3.6,2,2.4,4.9-1.4,7.1l-7.1,0.8l-1.2,4l1.2,0.5c5.6,0.6,11.9-0.5,16.4-3.2
						c5.4-3.2,6.8-7.7,4.3-11.3l84.5-50.7c6.4,1.5,14.3,0.6,19.8-2.6c4.5-2.7,6.3-6.3,5.2-9.5l-1-0.6L274.7,219.8z"/>
					<polygon class="st34" points="248.9,214.7 248.9,219.2 250.9,217.2 					"/>
					<path class="st32" d="M274.7,215.3c-3.8,2.2-8.8,3-12.4,0.9c-3.6-2-2.4-4.9,1.4-7.1l8.2-4.8l-1.1-0.6
						c-5.6-0.6-11.9,0.5-16.4,3.2c-5,2.9-6.6,7-4.8,10.5l-85.4,51.2c-6.1-1.1-13.3-0.1-18.4,2.9c-4.5,2.7-6.3,6.3-5.2,9.5l1,0.6
						l8.1-4.8c3.8-2.2,8.8-3,12.4-0.9c3.6,2,2.4,4.9-1.4,7.1l-8.3,4.8l1.2,0.5c5.6,0.6,11.9-0.5,16.4-3.2c5.4-3.2,6.8-7.7,4.3-11.3
						l84.5-50.7c6.4,1.5,14.3,0.6,19.8-2.6c4.5-2.7,6.3-6.3,5.2-9.5l-1-0.6L274.7,215.3z"/>
					<path class="st34" d="M245.3,221.9l-72.2,43.6c-1.2,0.7-1.2,1.8,0,2.4l1.9,1.1c1.2,0.7,3.1,0.7,4.2,0l72.2-43.6
						c1.2-0.7,1.2-1.8,0-2.4l-1.9-1.1C248.4,221.2,246.5,221.2,245.3,221.9z"/>
					<polygon class="st34" points="140.7,281.1 140.7,285.6 141.7,286.2 141.7,281.7 					"/>
					<polygon class="st34" points="152.6,287.9 152.6,292.5 153.7,293 153.7,288.4 					"/>
					<path class="st32" d="M258.9,223.2v4.5c4.9,1.2,10.7,0.9,15.6-0.7v-4.5C269.6,224.1,263.8,224.4,258.9,223.2z"/>
					<path class="st34" d="M162.2,280.5c0.4,0.2,0.8,0.5,1,0.7c0.6-0.6,0.9-1.3,1.1-1.9v-1c-0.2-0.9-0.8-1.7-2.1-2.4
						c-1.8-1-3.9-1.3-6.1-1.1v4.5C158.3,279.1,160.4,279.5,162.2,280.5z"/>
					<path class="st33" d="M173.1,266.4l72.2-43.6c1.2-0.7,3.1-0.7,4.2,0l1.9,1.1c0.4,0.2,0.6,0.5,0.8,0.8c0.3-0.6,0-1.2-0.8-1.7
						l-1.9-1.1c-1.2-0.7-3.1-0.7-4.2,0l-72.2,43.6c-0.8,0.5-1,1.1-0.8,1.7C172.5,266.9,172.8,266.6,173.1,266.4z"/>
				</g>
				<path class="st34" d="M283.6,211.4L283.6,211.4l-0.7-0.4l-7.9,4.6c-4.3,2.5-9.3,2.9-12.8,0.9c-1.9-1.1-2.4-2.3-2.4-3.2
					c0-1.6,1.3-3.2,3.7-4.6l7.6-4.4l-0.3-0.2h-0.1c-5.8-0.6-11.8,0.6-16.1,3.1c-4.7,2.7-6.4,6.6-4.6,10c0.1,0.2,0,0.4-0.2,0.5
					L164.5,269c-0.1,0-0.2,0.1-0.3,0c-6.2-1.1-13.3,0-18.2,2.9c-4.1,2.4-6,5.7-5.1,8.9v0.1l0.7,0.4l7.9-4.6
					c4.3-2.5,9.3-2.9,12.8-0.9c1.9,1.1,2.4,2.3,2.4,3.2c0,1.6-1.3,3.2-3.7,4.6l-7.3,4.3l-0.3,0.2l0.3,0.2h0.1c1,0.1,1.9,0.1,2.9,0.1
					c4.8,0,9.6-1.2,13.2-3.3c2.9-1.7,4.7-3.8,5.2-6.1c0.3-1.6,0-3.2-1-4.7c-0.1-0.1-0.1-0.2-0.1-0.3c0-0.1,0.1-0.2,0.2-0.3
					l84.5-50.7c0.1-0.1,0.2-0.1,0.3,0c6.5,1.5,14.3,0.5,19.5-2.6C282.6,217.9,284.5,214.6,283.6,211.4z M278.3,220
					c-5.1,3-12.9,4-19.2,2.5c-0.2,0-0.4,0-0.6,0.1L174,273.3c-0.2,0.1-0.3,0.3-0.4,0.5c0,0.2,0,0.4,0.1,0.6c1,1.4,1.3,2.9,1,4.4
					c-0.5,2.1-2.2,4.2-5,5.8c-4.1,2.4-9.8,3.6-15.3,3.1l6.8-4c2.5-1.5,3.9-3.3,3.9-5c0-0.9-0.5-2.3-2.6-3.5c-3.6-2-8.7-1.6-13.1,0.9
					l-7.7,4.5l-0.3-0.2c-0.8-2.9,1-6,4.9-8.4c4.7-2.8,11.8-3.9,17.9-2.8c0.2,0,0.4,0,0.5-0.1l85.4-51.2c0.4-0.2,0.5-0.7,0.3-1
					c-1.7-3.2,0-6.8,4.5-9.5c4.1-2.4,9.8-3.6,15.3-3.1l-6.8,4c-2.5,1.5-3.9,3.3-3.9,5c0,0.9,0.5,2.3,2.6,3.5c3.6,2,8.7,1.6,13.1-1
					l7.7-4.5l0.3,0.2C284,214.5,282.2,217.7,278.3,220z"/>
			</g>
		</g>
		<g>
			<path class="st3" d="M49.4,262.2c-2.1,3.9-13.7,11-18.6,13.9c-1,0.6-1,2,0,2.7L55,293.9c0.5,0.3,1.1,0.3,1.6,0L487.7,50.1
				c1-0.6,1-2.1,0-2.7l-24.1-14.3c-0.5-0.3-1.1-0.3-1.6,0L49.4,262.2z"/>
			<g>
				<path class="st4" d="M428,14.4l17.5,9.9v36.9l-12.9,7.5v-2.2L76.1,266.8v2l-12.9,7.5l-17.5-9.9v-36.9l12.9-7.5l1.8,1l144.9-81.2
					l11.1-6.2l0,0l5.7-3.3l1.7,1l19.1-11.1l3.7-4l0,0l0,0l0.8-0.5l18.4-10.3l149.3-83.6v-2L428,14.4 M428,12.9
					c-0.2,0-0.5,0.1-0.7,0.2l-12.9,7.5c-0.4,0.3-0.7,0.7-0.7,1.2V23l-148.6,83.2l-18.4,10.3l-0.8,0.5c-0.1,0.1-0.2,0.2-0.3,0.3
					L242,121l-18.2,10.5l-1-0.5c-0.2-0.1-0.5-0.2-0.7-0.2s-0.5,0.1-0.7,0.2l-5.7,3.3c-0.1,0-0.2,0.1-0.2,0.2l-10.8,6.1L60.4,221.3
					l-1.1-0.6c-0.2-0.1-0.5-0.2-0.7-0.2s-0.5,0.1-0.7,0.2L45,228.2c-0.4,0.3-0.7,0.7-0.7,1.2v36.9c0,0.5,0.3,1,0.7,1.2l17.5,9.9
					c0.2,0.1,0.5,0.2,0.7,0.2s0.5-0.1,0.7-0.2l12.9-7.5c0.4-0.3,0.7-0.7,0.7-1.2v-1.2L431.2,68.9c0.1,0.4,0.3,0.8,0.7,1
					c0.2,0.1,0.5,0.2,0.7,0.2s0.5-0.1,0.7-0.2l12.9-7.5c0.4-0.3,0.7-0.7,0.7-1.2V24.3c0-0.5-0.3-1-0.7-1.2l-17.5-9.9
					C428.5,13,428.3,12.9,428,12.9L428,12.9z"/>
				<g>
					<path class="st17" d="M421.6,20.2l-175,97.9v6.8c0,0.5-0.3,1.1-0.8,1.3L221,140.6c-0.4,0.2-0.8,0-0.8-0.4v-6.8L52.1,227.8v32.7
						L421.6,52.9V20.2z"/>
					<polygon class="st18" points="58.5,258.8 45.6,266.3 45.6,229.4 58.5,221.9 					"/>
					<polygon class="st18" points="428,51.3 415.1,58.8 415.1,21.8 428,14.4 					"/>
					<path class="st18" d="M88.9,222.9c0,6.6-4.6,14.6-10.3,17.9c-5.7,3.3-10.3,0.6-10.3-6s4.6-14.6,10.3-17.9
						S88.9,216.3,88.9,222.9z"/>
					<path class="st18" d="M405.4,45.9c0,6.6-4.6,14.6-10.3,17.9c-5.7,3.3-10.3,0.6-10.3-6s4.6-14.6,10.3-17.9
						S405.4,39.3,405.4,45.9z"/>
					<polygon class="st18" points="61.8,248.9 58.5,250.9 58.5,229.9 61.8,228 					"/>
					<polygon class="st18" points="415.1,50.8 411.8,52.7 411.8,31.7 415.1,29.8 					"/>
					<polygon class="st17" points="439.1,62.8 69.6,270.4 69.6,237.7 439.1,30.1 					"/>
					<polygon class="st35" points="439.1,62.8 69.6,270.4 69.6,258.2 439.1,50.6 					"/>
					<polygon class="st18" points="76.1,268.8 63.1,276.2 63.1,239.3 76.1,231.9 					"/>
					<polygon class="st18" points="445.6,61.2 432.6,68.7 432.6,31.8 445.6,24.3 					"/>
					<path class="st5" d="M238.5,150.5l24.8-14.3c0.4-0.2,0.8-0.8,0.8-1.3v-5l-26.3,15.2v5C237.8,150.6,238.1,150.8,238.5,150.5z"/>
					<polygon class="st7" points="79.4,258.9 76.1,260.8 76.1,239.8 79.4,237.9 					"/>
					<polygon class="st7" points="432.6,60.7 429.3,62.6 429.3,41.7 432.6,39.8 					"/>
					<polygon class="st36" points="76.1,231.9 58.5,221.9 45.6,229.4 63.1,239.3 					"/>
					<polygon class="st37" points="45.6,229.4 45.6,266.3 63.1,276.2 63.1,239.3 					"/>
					<polygon class="st36" points="415.1,21.8 432.6,31.8 445.6,24.3 428,14.4 					"/>
					<polygon class="st37" points="432.6,31.8 432.6,33.9 415.1,23.9 415.1,21.8 					"/>
					<path class="st18" d="M246.6,118.1v6.8c0,0.5-0.3,1.1-0.8,1.3L221,140.6c-0.4,0.2-0.8,0-0.8-0.4v-6.8l-0.8,0.5v6.8
						c0,1,0.7,1.4,1.6,0.9l24.8-14.3c0.9-0.5,1.6-1.7,1.6-2.7v-6.8L246.6,118.1z"/>
					<polygon class="st4" points="237.8,145.1 237.4,143.5 235.6,143.9 220.2,135.4 246.6,120.2 264.1,129.9 					"/>
					<path class="st18" d="M264.1,128.1v6.8c0,0.5-0.3,1.1-0.8,1.3l-24.8,14.3c-0.4,0.2,1-0.7,1-1.2v-7.1l-6,2.7v6.8
						c0,1,0.7,1.4,1.6,0.9l28.2-15.5c0.9-0.5,1.6-1.7,1.6-2.7v-6.8L264.1,128.1z"/>
					<polygon class="st9" points="415.1,23.9 432.6,33.9 264.9,127.6 247.4,117.7 					"/>
					<polygon class="st9" points="219.4,133.8 237,143.7 76.1,234 76.1,231.9 60.4,223 					"/>
					<polygon class="st36" points="246.6,118.1 264.1,128.1 264.9,127.6 247.4,117.7 					"/>
					<polygon class="st37" points="246.6,118.1 242.5,122.6 260,132.5 264.1,128.1 					"/>
					<polygon class="st36" points="47.5,234.6 47.5,263.3 61.2,271.1 61.2,242.3 					"/>
					<polygon class="st18" points="49.4,262.2 61.2,268.9 61.2,242.3 49.4,235.6 					"/>
					<g>
						<path class="st18" d="M422.9,55.8c0,6.6-4.6,14.6-10.3,17.9c-5.7,3.3-10.3,0.6-10.3-6s4.6-14.6,10.3-17.9
							C418.3,46.6,422.9,49.3,422.9,55.8z"/>
						<path class="st4" d="M416.5,52.2c0-1.4-0.2-2.5-0.6-3.6c-1,0.2-2.2,0.6-3.3,1.3c-5.7,3.3-10.3,11.3-10.3,17.9
							c0,1.4,0.2,2.5,0.6,3.6c1-0.2,2.2-0.6,3.3-1.3C411.8,66.7,416.5,58.7,416.5,52.2z"/>
						<g>
							<g>
								<defs>
									<path id="SVGID_00000026878227780029151640000003972931640172757376_" d="M422.9,55.8c0,6.6-4.6,14.6-10.3,17.9
										c-5.7,3.3-10.3,0.6-10.3-6s4.6-14.6,10.3-17.9C418.3,46.6,422.9,49.3,422.9,55.8z"/>
								</defs>
								<clipPath id="SVGID_00000133497712891477746540000007567523904441292172_">
									<use xlink:href="#SVGID_00000026878227780029151640000003972931640172757376_"  style="overflow:visible;"/>
								</clipPath>
								<g style="clip-path:url(#SVGID_00000133497712891477746540000007567523904441292172_);">
									<path class="st39" d="M407.8,71.3c2,1.2,5.3,1.2,7.3,0c1-0.6,1.5-1.3,1.5-2.1l0,0l0,0l0,0l0.1-21.3l-10.3-0.1V69
										C406.3,69.9,406.8,70.7,407.8,71.3z"/>
									<path class="st40" d="M415.1,71.4c1-0.6,1.5-1.3,1.5-2.1l0,0l0,0l0,0l0.1-21.3l0,0c0,0.7-0.5,1.5-1.5,2
										c-1,0.6-2.3,0.8-3.5,0.8c-3.1,6.9-1.6,15.8-0.1,21.4C412.9,72.2,414.1,71.9,415.1,71.4z"/>
									<path class="st41" d="M408,49.9c-2-1.2-2-3.1,0-4.2c2-1.1,5.3-1.1,7.3,0c2,1.2,2,3.1,0,4.2C413.2,51.1,410,51.1,408,49.9z"
										/>
								</g>
							</g>
							<g>
								<defs>
									<path id="SVGID_00000133504247023615809080000005401334252149006513_" d="M422.9,55.8c0,6.6-4.6,14.6-10.3,17.9
										c-5.7,3.3-10.3,0.6-10.3-6s4.6-14.6,10.3-17.9C418.3,46.6,422.9,49.3,422.9,55.8z"/>
								</defs>
								<clipPath id="SVGID_00000174573564149898800170000000032045128168630689_">
									<use xlink:href="#SVGID_00000133504247023615809080000005401334252149006513_"  style="overflow:visible;"/>
								</clipPath>
								<path style="clip-path:url(#SVGID_00000174573564149898800170000000032045128168630689_);fill:#74AD30;" d="M415.6,64.2
									c0,0,0.3-4,0-7.6c-0.4-3.5-2.5-1.6-2.8,3.9S415.1,69.1,415.6,64.2z"/>
							</g>
							<g>
								<defs>
									<path id="SVGID_00000008117703804299025870000004441048337775494546_" d="M422.9,55.8c0,6.6-4.6,14.6-10.3,17.9
										c-5.7,3.3-10.3,0.6-10.3-6s4.6-14.6,10.3-17.9C418.3,46.6,422.9,49.3,422.9,55.8z"/>
								</defs>
								<clipPath id="SVGID_00000176041502641423501600000015521680241342473091_">
									<use xlink:href="#SVGID_00000008117703804299025870000004441048337775494546_"  style="overflow:visible;"/>
								</clipPath>
								<g style="clip-path:url(#SVGID_00000176041502641423501600000015521680241342473091_);">
									<path class="st44" d="M415.5,56.6c-0.2-1.6-0.7-2-1.2-1.6c0.2,0.2,0.4,0.8,0.5,1.6c0.4,3.5,0,7.6,0,7.6
										c-0.1,1.3-0.4,2-0.7,2.3c0.6,0.5,1.3-0.2,1.4-2.3C415.6,64.2,415.9,60.2,415.5,56.6z"/>
								</g>
							</g>
							<g>
								<defs>
									<path id="SVGID_00000034081266802185039710000007680544688741065383_" d="M422.9,55.8c0,6.6-4.6,14.6-10.3,17.9
										c-5.7,3.3-10.3,0.6-10.3-6s4.6-14.6,10.3-17.9C418.3,46.6,422.9,49.3,422.9,55.8z"/>
								</defs>
								<clipPath id="SVGID_00000090291472510278419470000010999499858420956065_">
									<use xlink:href="#SVGID_00000034081266802185039710000007680544688741065383_"  style="overflow:visible;"/>
								</clipPath>
								<g style="clip-path:url(#SVGID_00000090291472510278419470000010999499858420956065_);">
									<g>
										<defs>
											<path id="SVGID_00000012460446669538173000000013028755896760098946_" d="M407.8,71.3c2,1.2,5.3,1.2,7.3,0
												c1-0.6,1.5-1.3,1.5-2.1l0,0l0,0l0,0l0.1-21.3l-10.3-0.1V69C406.3,69.9,406.8,70.7,407.8,71.3z"/>
										</defs>
										<clipPath id="SVGID_00000010297415607966561840000003555820219727272110_">
											<use xlink:href="#SVGID_00000012460446669538173000000013028755896760098946_"  style="overflow:visible;"/>
										</clipPath>
										
											<path style="clip-path:url(#SVGID_00000010297415607966561840000003555820219727272110_);fill:none;stroke:#303030;stroke-width:0.25;stroke-linecap:round;stroke-linejoin:round;stroke-miterlimit:10;" d="
											M417.9,51.2c-3,3.1-9.1,3-12.3-0.1"/>
									</g>
									<g>
										<defs>
											<path id="SVGID_00000097474847926517229630000017014950678649396918_" d="M407.8,71.3c2,1.2,5.3,1.2,7.3,0
												c1-0.6,1.5-1.3,1.5-2.1l0,0l0,0l0,0l0.1-21.3l-10.3-0.1V69C406.3,69.9,406.8,70.7,407.8,71.3z"/>
										</defs>
										<clipPath id="SVGID_00000082327810095056352850000004163767777989142964_">
											<use xlink:href="#SVGID_00000097474847926517229630000017014950678649396918_"  style="overflow:visible;"/>
										</clipPath>
										
											<path style="clip-path:url(#SVGID_00000082327810095056352850000004163767777989142964_);fill:none;stroke:#303030;stroke-width:0.25;stroke-linecap:round;stroke-linejoin:round;stroke-miterlimit:10;" d="
											M417.9,67.3c-3.3,2.8-9,2.6-12.3-0.1"/>
									</g>
								</g>
							</g>
						</g>
						<path class="st18" d="M408,75.3c-1,0-2-0.2-2.8-0.7c-2-1.2-3.1-3.6-3.1-6.9c0-6.6,4.7-14.7,10.4-18.1c2.8-1.6,5.5-1.9,7.5-0.7
							s3.1,3.6,3.1,6.9c0,6.6-4.7,14.7-10.4,18.1C411,74.9,409.4,75.3,408,75.3z M417.2,48.7c-1.4,0-2.9,0.5-4.5,1.4
							c-5.6,3.2-10.2,11.2-10.2,17.7c0,3.1,1,5.4,2.9,6.5s4.4,0.8,7.1-0.7c5.6-3.2,10.2-11.2,10.2-17.7c0-3.1-1-5.4-2.9-6.5
							C419,48.9,418.1,48.7,417.2,48.7z"/>
					</g>
					<g>
						<g>
							<path class="st39" d="M256.8,128.1c0-2.7-2-6-4.4-7.3c-1.2-0.6-2.2-0.7-3-0.3l0,0l0,0l0,0l-21.3,12.8l6.2,10.3l21.2-12.8
								C256.3,130.5,256.8,129.6,256.8,128.1z"/>
							<path class="st40" d="M252.4,120.8c-1.2-0.6-2.2-0.7-3-0.3l0,0l0,0l0,0l-21.3,12.8l0,0c0.8-0.4,1.8-0.4,2.9,0.3
								c1.2,0.6,2.2,1.7,3,3c8.7-1.2,16.7-8.1,21.4-12.9C254.6,122.6,253.5,121.5,252.4,120.8z"/>
							<path class="st41" d="M235.4,141c0,2.7-1.8,3.8-4.2,2.5s-4.3-4.6-4.4-7.3c0-2.7,1.8-3.8,4.2-2.5
								C233.3,135,235.3,138.3,235.4,141z"/>
						</g>
						<path class="st41" d="M245,124.8c0,0-4.2,2.1-7.5,4.6c-3.3,2.5,0,3.5,5.6,0.4C248.7,126.7,250.1,122.2,245,124.8z"/>
						<g>
							<path class="st44" d="M237.5,129.4c-1.5,1.1-1.6,1.9-0.8,2.2c0.1-0.4,0.5-0.9,1.3-1.5c3.3-2.5,7.5-4.6,7.5-4.6
								c1.4-0.7,2.3-0.8,2.7-0.7c0.1-0.9-0.9-1.2-3.2,0C245,124.8,240.8,126.9,237.5,129.4z"/>
						</g>
						<g>
							<g>
								<defs>
									<path id="SVGID_00000121995381551064929500000008661948249651594420_" d="M256.8,128.1c0-2.7-2-6-4.4-7.3
										c-1.2-0.6-2.2-0.7-3-0.3l0,0l0,0l0,0l-21.3,12.8l6.2,10.3l21.2-12.8C256.3,130.5,256.8,129.6,256.8,128.1z"/>
								</defs>
								<clipPath id="SVGID_00000138574543396916076210000012251821488324339603_">
									<use xlink:href="#SVGID_00000121995381551064929500000008661948249651594420_"  style="overflow:visible;"/>
								</clipPath>
								
									<path style="clip-path:url(#SVGID_00000138574543396916076210000012251821488324339603_);fill:none;stroke:#303030;stroke-width:0.25;stroke-linecap:round;stroke-linejoin:round;stroke-miterlimit:10;" d="
									M230.6,130.3c4.9,1.1,8.5,7.3,7.4,12.3"/>
							</g>
							<g>
								<defs>
									<path id="SVGID_00000011727236934627995600000004986653213385579967_" d="M256.8,128.1c0-2.7-2-6-4.4-7.3
										c-1.2-0.6-2.2-0.7-3-0.3l0,0l0,0l0,0l-21.3,12.8l6.2,10.3l21.2-12.8C256.3,130.5,256.8,129.6,256.8,128.1z"/>
								</defs>
								<clipPath id="SVGID_00000011027619825477930380000013105610683011570586_">
									<use xlink:href="#SVGID_00000011727236934627995600000004986653213385579967_"  style="overflow:visible;"/>
								</clipPath>
								
									<path style="clip-path:url(#SVGID_00000011027619825477930380000013105610683011570586_);fill:none;stroke:#303030;stroke-width:0.25;stroke-linecap:round;stroke-linejoin:round;stroke-miterlimit:10;" d="
									M246.6,120.5c4.8,1.6,8,7.4,7.4,12.3"/>
							</g>
						</g>
					</g>
					<g>
						<path class="st18" d="M116.8,228.3c0,6.6-4.6,14.6-10.3,17.9c-5.7,3.3-10.3,0.6-10.3-6s4.6-14.6,10.3-17.9
							C112.2,219,116.8,221.7,116.8,228.3z"/>
						<path class="st4" d="M110.4,224.6c0-1.4-0.2-2.5-0.6-3.6c-1,0.2-2.2,0.6-3.3,1.3c-5.7,3.3-10.3,11.3-10.3,17.9
							c0,1.4,0.2,2.5,0.6,3.6c1-0.2,2.2-0.6,3.3-1.3C105.7,239.2,110.4,231.2,110.4,224.6z"/>
						<g>
							<g>
								<defs>
									<path id="SVGID_00000132048121342735616530000002240869840392494215_" d="M116.8,228.3c0,6.6-4.6,14.6-10.3,17.9
										c-5.7,3.3-10.3,0.6-10.3-6s4.6-14.6,10.3-17.9C112.2,219,116.8,221.7,116.8,228.3z"/>
								</defs>
								<clipPath id="SVGID_00000124841492661432561150000010336627082921357749_">
									<use xlink:href="#SVGID_00000132048121342735616530000002240869840392494215_"  style="overflow:visible;"/>
								</clipPath>
								<g style="clip-path:url(#SVGID_00000124841492661432561150000010336627082921357749_);">
									<path class="st39" d="M101.7,243.7c2,1.2,5.3,1.2,7.3,0c1-0.6,1.5-1.3,1.5-2.1l0,0l0,0l0,0l0.1-21.3l-10.3-0.1l-0.1,21.2
										C100.2,242.3,100.7,243.1,101.7,243.7z"/>
									<path class="st40" d="M109,243.8c1-0.6,1.5-1.3,1.5-2.1l0,0l0,0l0,0l0.1-21.3l0,0c0,0.7-0.5,1.5-1.5,2
										c-1,0.6-2.3,0.8-3.5,0.8c-3.1,6.9-1.6,15.8-0.1,21.4C106.8,244.6,108,244.3,109,243.8z"/>
									<path class="st41" d="M101.9,222.3c-2-1.2-2-3.1,0-4.2c2-1.1,5.3-1.1,7.3,0c2,1.2,2,3.1,0,4.2
										C107.1,223.5,103.9,223.5,101.9,222.3z"/>
								</g>
							</g>
							<g>
								<defs>
									<path id="SVGID_00000045610694762964637040000004703207293250347435_" d="M116.8,228.3c0,6.6-4.6,14.6-10.3,17.9
										c-5.7,3.3-10.3,0.6-10.3-6s4.6-14.6,10.3-17.9C112.2,219,116.8,221.7,116.8,228.3z"/>
								</defs>
								<clipPath id="SVGID_00000180340653560796731980000010016451979673732012_">
									<use xlink:href="#SVGID_00000045610694762964637040000004703207293250347435_"  style="overflow:visible;"/>
								</clipPath>
								<path style="clip-path:url(#SVGID_00000180340653560796731980000010016451979673732012_);fill:#74AD30;" d="M109.4,236.6
									c0,0,0.3-4,0-7.6c-0.4-3.5-2.5-1.6-2.8,3.9C106.3,238.5,109,241.5,109.4,236.6z"/>
							</g>
							<g>
								<defs>
									<path id="SVGID_00000098916401411527463580000008267084253382420393_" d="M116.8,228.3c0,6.6-4.6,14.6-10.3,17.9
										c-5.7,3.3-10.3,0.6-10.3-6s4.6-14.6,10.3-17.9C112.2,219,116.8,221.7,116.8,228.3z"/>
								</defs>
								<clipPath id="SVGID_00000014619649163857845350000013613633586030729884_">
									<use xlink:href="#SVGID_00000098916401411527463580000008267084253382420393_"  style="overflow:visible;"/>
								</clipPath>
								<g style="clip-path:url(#SVGID_00000014619649163857845350000013613633586030729884_);">
									<path class="st44" d="M109.4,229c-0.2-1.6-0.7-2-1.2-1.6c0.2,0.2,0.4,0.8,0.5,1.6c0.4,3.5,0,7.6,0,7.6
										c-0.1,1.3-0.4,2-0.7,2.3c0.6,0.5,1.3-0.2,1.4-2.3C109.4,236.6,109.8,232.6,109.4,229z"/>
								</g>
							</g>
							<g>
								<defs>
									<path id="SVGID_00000165921607049437765150000015251115398958680716_" d="M116.8,228.3c0,6.6-4.6,14.6-10.3,17.9
										c-5.7,3.3-10.3,0.6-10.3-6s4.6-14.6,10.3-17.9C112.2,219,116.8,221.7,116.8,228.3z"/>
								</defs>
								<clipPath id="SVGID_00000144329540934982387980000013540682007761547945_">
									<use xlink:href="#SVGID_00000165921607049437765150000015251115398958680716_"  style="overflow:visible;"/>
								</clipPath>
								<g style="clip-path:url(#SVGID_00000144329540934982387980000013540682007761547945_);">
									<g>
										<defs>
											<path id="SVGID_00000029739553641582247900000014398088985819898767_" d="M101.7,243.7c2,1.2,5.3,1.2,7.3,0
												c1-0.6,1.5-1.3,1.5-2.1l0,0l0,0l0,0l0.1-21.3l-10.3-0.1l-0.1,21.2C100.2,242.3,100.7,243.1,101.7,243.7z"/>
										</defs>
										<clipPath id="SVGID_00000083070859726508255250000002974069866544719498_">
											<use xlink:href="#SVGID_00000029739553641582247900000014398088985819898767_"  style="overflow:visible;"/>
										</clipPath>
										
											<path style="clip-path:url(#SVGID_00000083070859726508255250000002974069866544719498_);fill:none;stroke:#303030;stroke-width:0.25;stroke-linecap:round;stroke-linejoin:round;stroke-miterlimit:10;" d="
											M111.8,223.6c-3,3.1-9.1,3-12.3-0.1"/>
									</g>
									<g>
										<defs>
											<path id="SVGID_00000013160692353099943940000008117799319690295977_" d="M101.7,243.7c2,1.2,5.3,1.2,7.3,0
												c1-0.6,1.5-1.3,1.5-2.1l0,0l0,0l0,0l0.1-21.3l-10.3-0.1l-0.1,21.2C100.2,242.3,100.7,243.1,101.7,243.7z"/>
										</defs>
										<clipPath id="SVGID_00000018217220556815180550000012233524846547934626_">
											<use xlink:href="#SVGID_00000013160692353099943940000008117799319690295977_"  style="overflow:visible;"/>
										</clipPath>
										
											<path style="clip-path:url(#SVGID_00000018217220556815180550000012233524846547934626_);fill:none;stroke:#303030;stroke-width:0.25;stroke-linecap:round;stroke-linejoin:round;stroke-miterlimit:10;" d="
											M111.8,239.7c-3.3,2.8-9,2.6-12.3-0.1"/>
									</g>
								</g>
							</g>
						</g>
						<path class="st18" d="M101.9,247.8c-1,0-2-0.2-2.8-0.7c-2-1.2-3.1-3.6-3.1-6.9c0-6.6,4.7-14.7,10.4-18.1
							c2.8-1.6,5.5-1.9,7.5-0.7s3.1,3.6,3.1,6.9c0,6.6-4.7,14.7-10.4,18.1C104.9,247.3,103.3,247.8,101.9,247.8z M111.1,221.1
							c-1.4,0-2.9,0.5-4.5,1.4c-5.6,3.2-10.2,11.2-10.2,17.7c0,3.1,1,5.4,2.9,6.5s4.4,0.8,7.1-0.7c5.6-3.2,10.2-11.2,10.2-17.7
							c0-3.1-1-5.4-2.9-6.5C112.9,221.3,112,221.1,111.1,221.1z"/>
					</g>
					<polygon class="st56" points="237.8,145.1 237.4,143.5 235.6,143.9 220.3,135.2 246.6,120 264.1,129.9 					"/>
					<path class="st37" d="M264.1,128.1c-0.5,0.1-4,4.1-4,4.1l0.1,0.9l3.9-3.1l0.4-1.3L264.1,128.1z"/>
					<path class="st9" d="M223.7,135.8l13.3,7.9c0,0-10.3,5.7-10.7,5.8s-6.9-6.5-6.9-6.5L223.7,135.8z"/>
					<polygon class="st36" points="239.5,142.2 222.1,132.2 216.3,135.5 233.6,145.8 					"/>
				</g>
			</g>
		</g>
		<g>
			<path class="st3" d="M450.3,261.5l-10.4,6.1c-1.8,1.1-2,3.7-0.3,5c8.8,6.5,31.5,22.5,39.6,21.9c8.9-0.7,73.3-42.2,89.5-52.7
				c1.8-1.2,1.8-3.7,0.1-5c-9-6.2-32-21.7-38.7-20.3c-8.2,1.6-75.5,42.8-79.5,44.8C450.5,261.4,450.3,261.5,450.3,261.5z"/>
			<g>
				<g>
					<path class="st4" d="M502.3,79c0.3,0,0.5,0,0.8,0c3.7,0.1,12.6,1.4,18.8,4.5c0.8,0.4,1.5,0.9,2.1,1.3c1.8,0.8,3.4,2.2,4.7,3.9
						c1.8,0.6,5.4,2.5,5.6,6.8c0.1,3.5-1,5.8-2.5,7.3c-0.3,4.2-1.6,8-3.7,11.7c-0.5,1.2-1.1,2.4-1.8,3.5c-0.1,0.7-1.2,5.7-2.5,13
						c-2.9,16.7-6.8,45.3-2.7,61.7l5.4,3.1c3.5,1.9,5.3,3.4,6.1,4.7l0,0c0,0,2.1,2.2,2.5,5c0.4,2.9,0.2,5.6,0.2,5.6v11.1l0,0v24.7
						c0,2.1-1.1,4-2.9,5.1l-1.2,0.7h0.1c0,0-45.7,28.3-48.4,29.1c-0.4,0.1-0.8,0.2-1.2,0.2c-0.1,0-0.2,0-0.3,0
						c-0.6,0-1.6-0.1-3.1-0.6c-2.4-0.8-28.4-16.4-28.4-16.4s-1.3-0.8-1.5-4c-0.1-0.6-0.1-1.3,0-1.9l0.1-0.3c0-0.2,0-0.4,0-0.6
						c0.7-5.5,4.2-25.1,4.3-25.6l2.3-16.6c0.1-2.2,0.7-4,1.5-5.7c0.9-2.3,1.8-2.9,1.8-2.9h0.1c3-3.7,7-5.4,7-5.4l10.4-5.9
						c3.1-5.9,6.7-14.7,6.7-23.7l-3.2-1.8c-0.5-0.3-0.8-0.8-0.8-1.3V160c-0.7,1.4-1.3,2.7-1.7,3.6c-1.2,3.3-12.6,8.9-12.6,8.9
						l-23.7,12.2c-0.7,0.5-1.5,0.9-2.3,1.2l-1.4,0.7c0.3-0.1,0.5-0.3,0.7-0.5c-1.2,0.4-2.6,0.6-4,0.6c-1,0-2.1-0.1-3.2-0.3l0,0
						l-10.8-1.4l0,0l0,0l0,0l0,0c-0.9-0.1-1.9-0.3-2.8-0.6l-7.1,4.1c0.3-0.2,0.6-0.4,0.8-0.6l0.1-0.1l-0.1,0.1
						c-1.2,1-2.6,1.5-4.2,1.6l0,0l-13.5,1.3l0,0c-0.3,0-0.6,0.1-0.8,0.1c-1.4,0-2.9-0.4-4.5-1.4c0,0-0.1,0-0.1-0.1l-1.7,1l0.1-0.1
						c-0.5,0.3-1.1,0.5-1.7,0.5l0,0l-6.4,0.6l0,0c-0.1,0-0.3,0-0.4,0c-0.6,0-1.4-0.2-2.1-0.6c-2.7-1.5-4.8-5.3-4.8-8.3
						c0-1.2,0.3-2.1,0.9-2.7l0,0l3.5-5.1l0,0l0.1-0.2l0,0c0.3-0.4,0.7-0.8,1.2-1H376l1.3-0.8c0-0.3-0.1-0.6-0.1-0.9
						c0-2.5,0.7-4.4,1.8-5.7l0,0l7.5-10.8l0,0l0.3-0.4l0,0c0.7-0.9,1.5-1.6,2.5-2.1c-0.1,0-0.2,0.1-0.2,0.1l5.5-3.3
						c0.2-2.7,0.9-4.9,1.9-6.7c-0.1,0.2-0.2,0.3-0.3,0.5l0,0l3.7-9.8c0.1-0.3,0.2-0.7,0.4-1l0.1-0.2l0,0c1.2-2.8,3-4.9,5.3-6.3
						c-0.4,0.1-0.7,0.2-1.1,0.3l55.5-34.2C474.9,83.7,489.3,79,502.3,79 M502.3,77.3L502.3,77.3c-13.3,0-28.2,4.8-43,13.9
						l-55.5,34.2c-0.4,0.2-0.6,0.6-0.7,1c-1.7,1.4-3.1,3.3-4.1,5.6c0,0.1-0.1,0.1-0.1,0.2l-0.1,0.2c-0.1,0.3-0.3,0.7-0.4,1l-3.7,9.7
						l0,0c-0.8,1.7-1.4,3.6-1.7,5.7l-4.8,2.8c-0.1,0-0.2,0.1-0.2,0.2c-0.9,0.5-1.7,1.2-2.3,2.1c-0.1,0.1-0.2,0.2-0.2,0.3l-0.3,0.4
						l-7.4,10.8c-1.4,1.6-2.2,3.9-2.2,6.7l-0.4,0.2c-0.1,0-0.1,0.1-0.2,0.1c-0.5,0.3-0.9,0.7-1.2,1.1c-0.1,0.1-0.1,0.1-0.2,0.2
						l-0.1,0.2L370,179c-0.8,0.9-1.2,2.2-1.2,3.7c0,3.7,2.5,8,5.7,9.8c1,0.6,2,0.9,3,0.9c0.1,0,0.2,0,0.3,0h0.1c0.1,0,0.1,0,0.2,0
						l6.4-0.6h0.1c0.7-0.1,1.3-0.2,1.9-0.6c0.1,0,0.2-0.1,0.3-0.1l0.8-0.5c1.6,0.8,3.1,1.2,4.6,1.2c0.3,0,0.6,0,0.8,0l0,0
						c0.1,0,0.1,0,0.2,0l13.5-1.3c0.1,0,0.1,0,0.2,0c1.4-0.1,2.7-0.5,3.9-1.2h0.1l6.4-3.7c0.8,0.2,1.6,0.4,2.3,0.4c0,0,0,0,0.1,0
						l10.8,1.4c0,0,0,0,0.1,0c1.1,0.2,2.2,0.3,3.3,0.3c0.9,0,1.7-0.1,2.6-0.2c0.2,0.1,0.4,0.1,0.7,0.1c0.3,0,0.5-0.1,0.8-0.2
						l1.3-0.7c0.8-0.3,1.6-0.7,2.4-1.2l23.7-12.2c2.2-1.1,8.7-4.5,11.8-7.6v2.8c0,1.2,0.6,2.2,1.6,2.8l2.3,1.3
						c-0.3,8.1-3.5,16-6.2,21.4l-9.8,5.6c-0.7,0.3-4.3,2-7.2,5.4c0,0,0,0-0.1,0c-0.3,0.2-1.3,1.1-2.4,3.6c-1,2-1.5,4-1.6,6.2
						l-2.3,16.5c-0.4,2-3.7,20.3-4.3,25.7c0,0.2,0,0.3,0,0.5v0.2v0.2c-0.1,0.8-0.1,1.6,0,2.3c0.2,3.8,1.9,5.1,2.2,5.3
						c4.4,2.7,26.3,15.8,28.8,16.6c1.7,0.6,2.9,0.7,3.6,0.7c0.2,0,0.4,0,0.5,0l0,0c0.5,0,1-0.1,1.6-0.2c2.8-0.8,41.1-24.5,48.8-29.3
						c0.1-0.1,0.2-0.1,0.2-0.2l0.9-0.5c2.3-1.4,3.7-3.9,3.7-6.6v-24.7v-11.1c0,0,0.2-2.9-0.2-5.9c-0.5-3.3-2.7-5.7-3-6
						c-1.1-1.6-3.2-3.2-6.5-5l-4.7-2.7c-3.8-16.5,0.1-44.8,2.9-60.3c1.2-6.7,2.2-11.4,2.5-12.7c0.6-1.1,1.2-2.2,1.7-3.4
						c2.2-3.9,3.4-7.8,3.8-11.7c1.8-2.1,2.7-4.9,2.6-8.1c-0.2-5.1-4.1-7.3-6.3-8.2c-1.4-1.7-3-3-4.9-3.9c-0.8-0.6-1.5-1-2.2-1.4
						c-6.7-3.4-16-4.6-19.5-4.7L502.3,77.3L502.3,77.3L502.3,77.3z"/>
					<path class="st4" d="M436.9,187L436.9,187 M436.9,187c-0.4,0.2-0.7,0.4-0.8,0.5C436.3,187.3,436.7,187,436.9,187 M436.9,185.2
						c-0.1,0-0.3,0-0.4,0.1c-0.2,0-0.3,0.1-0.4,0.2l-0.7,0.4l-0.1,0.1c-0.8,0.5-1.1,1.5-0.6,2.3c0.3,0.6,0.9,0.9,1.5,0.9
						c0.3,0,0.6-0.1,0.9-0.2l0.5-0.3l0.3-0.2c0.5-0.3,0.9-0.9,0.9-1.5C438.6,186,437.8,185.3,436.9,185.2L436.9,185.2L436.9,185.2z
						 M436.9,188.7L436.9,188.7L436.9,188.7L436.9,188.7z"/>
				</g>
				<g>
					<path class="st8" d="M527.7,88.4c0,0,6.4,1.3,6.6,7.1c0.2,6.2-3.7,8.9-6.3,9.6L527.7,88.4z"/>
					<path class="st9" d="M490.5,227.6l36.7-20.2c4.5-3,10.7-5.4-0.7-11.6l-24.7-14.3l-36.3,20.6c0,0-9.8,4-10.3,13.9l34.8,10.6l0,0
						"/>
					<g>
						<path class="st5" d="M521.3,193.7L521.3,193.7c-6.6-23.9-0.2-53.1-0.2-53.1l-45.5,13.5c15.4,16.7,1,41.7-3,47.8
							c-0.3,0.5-0.7,0.9-0.9,1.4l0,0l0,0c-2.7,4.5-2,8.7,2.5,11.3c7.7,4.4,23.6,2.4,35.6-4.6C518.7,204.9,523,198.4,521.3,193.7z"/>
						<path class="st5" d="M520.2,125.5c7,4,1.2,20.2-9.8,26.5c-10.9,6.3-25.5,8.2-32.4,4.2c-7-4-12.9-1.6-1.9-8
							C487,141.9,513.3,121.5,520.2,125.5z"/>
					</g>
					<g>
						<path class="st57" d="M493.2,172.1l-5.8,3.3v-18.6l6.5-3.8v17.7C494,171.3,493.7,171.8,493.2,172.1z"/>
						<polygon class="st36" points="494,153.1 485.2,148.1 478.6,151.9 487.5,156.9 						"/>
						<path class="st32" d="M478.6,151.9v17.7c0,0.5,0.3,1,0.8,1.3l8.1,4.6v-18.6L478.6,151.9z"/>
					</g>
					<path class="st17" d="M455.2,216.1l-2.8,20l33.5,19.4l6.3-29.2l-33.7-18.8C458.5,207.5,456.4,208.9,455.2,216.1z"/>
					<path class="st58" d="M535.3,211.2v16.2l-49.4,28l3.6-25.9c0.3-1.8,1.4-3.4,3-4.4l40.1-24.7c0,0,2.1,2.2,2.5,5
						C535.5,208.5,535.3,211.2,535.3,211.2z"/>
					<path class="st9" d="M503.1,79L503.1,79c-13.3-0.2-27.9,4.5-42.8,13.7l-55.5,34.2c2.9-1.1,6.2-0.6,9.7,1.5
						c2.5,1.5,4.8,3.8,7,6.6v-0.1l56.2-34.6c14.9-9.2,29.6-13.9,42.8-13.7l0,0c4.7,0.1,8.2,2.8,10.1,7.3c-0.2-0.6-0.5-1.2-0.8-1.8
						c-1.8-3.1-3.8-6.4-8-8.6C515.7,80.4,506.7,79.1,503.1,79z"/>
					<path class="st17" d="M517.5,128.8l1-1.6c7.9-8.7,13.3-16.5,13.3-26.4v-1.4c0-9.6-5.5-15.6-13-15.7l0,0
						c-13.8-0.2-29.1,4.3-44.5,13.2L419.5,130c12.9,9.6,25.2,24.6,25.2,39.9c0,8.4-3,14.3-7.8,17.1c-2.8,1.6,0,0,0,0l27.4-14.1
						c0,0,11.4-5.7,12.6-8.9c1.2-3.3,5-9.8,8-13.3C487.6,147.4,515,132.1,517.5,128.8z"/>
					<g>
						
							<ellipse transform="matrix(0.866 -0.5 0.5 0.866 -25.7658 228.0783)" class="st59" cx="412.7" cy="162.1" rx="14.7" ry="25.5"/>
						<path class="st5" d="M423,128.2c-10.2-5.9-18.9-3.6-22.4,4.6l0,0l-0.1,0.2c-0.1,0.3-0.3,0.6-0.4,1l-3.7,9.8l0,0
							c2.9-5.4,9.1-6.7,16.3-2.5c10,5.8,18,19.8,18,31.3c0,8.7-4.6,13.5-11.1,12.8l0,0l10.8,1.4l0,0c9.6,1.9,16.6-4.5,16.6-16.9
							C447,154.5,436.3,135.8,423,128.2z"/>
					</g>
					<g>
						<path class="st32" d="M424.6,173.2c0-9.3-6.5-20.6-14.5-25.2c-3.9-2.3-7.5-2.5-10.1-1.1l0,0l-0.1,0.1c-0.1,0-0.1,0.1-0.2,0.1
							l-10.4,6.1c2.6-1.5,6.2-1.2,10.2,1.1c8,4.6,14.5,15.9,14.5,25.2c0,4.6-1.6,7.8-4.2,9.4l10.3-6v-0.1
							C422.8,181.3,424.6,178,424.6,173.2z"/>
					</g>
					<path class="st57" d="M414,179.5c0-9.3-6.5-20.6-14.5-25.2c-5.3-3.1-9.9-2.4-12.5,1l0,0l-0.3,0.4l0,0l-7.5,10.8v0.1l13.8,24.5
						l13.5-1.3l0,0C410.9,189.6,414,185.8,414,179.5z"/>
					<path class="st11" d="M397.8,183.9c0,6.5-4.6,9.1-10.2,5.9c-5.6-3.2-10.2-11.2-10.2-17.7s4.6-9.1,10.2-5.9
						C393.2,169.5,397.8,177.4,397.8,183.9z"/>
					<g>
						<g>
							<path class="st32" d="M392.8,183.3c0-4.4-3.1-9.7-6.9-11.9c-1.9-1.1-3.5-1.2-4.8-0.5l0,0l0,0c0,0-0.1,0-0.1,0.1l-4.9,2.9
								c1.2-0.7,2.9-0.6,4.8,0.5c3.8,2.2,6.9,7.5,6.9,11.9c0,2.2-0.8,3.7-2,4.4l4.9-2.8l0,0C392,187.1,392.8,185.6,392.8,183.3z"/>
						</g>
						<path class="st57" d="M387.8,186.3c0-4.4-3.1-9.7-6.9-11.9c-2.5-1.4-4.7-1.2-5.9,0.5l0,0l-0.1,0.2l0,0l-3.5,5.1v0.1l6.5,11.6
							l6.4-0.6l0,0C386.4,191,387.8,189.3,387.8,186.3z"/>
						<path class="st5" d="M380.1,188.3c0,3.1-2.2,4.3-4.8,2.8c-2.7-1.5-4.8-5.3-4.8-8.3c0-3.1,2.2-4.3,4.8-2.8
							C378,181.5,380.1,185.3,380.1,188.3z"/>
					</g>
					<path class="st18" d="M378.6,187.5c0,2.1-1.5,3-3.3,1.9s-3.3-3.6-3.3-5.7c0-2.1,1.5-3,3.3-1.9
						C377.1,182.8,378.6,185.4,378.6,187.5z"/>
					<g>
						<path class="st32" d="M375.3,185l1.9-0.2c-0.5-0.9-1.1-1.7-1.9-2.1c-0.8-0.4-1.4-0.4-1.9-0.1L375.3,185z"/>
						<path class="st32" d="M375.8,186.1v2.5c1.2,0.4,2-0.2,2-1.6c0-0.3-0.1-0.7-0.1-1.1L375.8,186.1z"/>
						<path class="st32" d="M374.9,185.6l-1.9-2.4c-0.1,0.2-0.1,0.5-0.1,0.9c0,1.4,0.9,3.1,2,4V185.6z"/>
					</g>
					<path class="st18" d="M376.4,186.2c0,0.7-0.5,1-1.1,0.7c-0.6-0.4-1.1-1.2-1.1-2c0-0.7,0.5-1,1.1-0.7
						C375.9,184.6,376.4,185.5,376.4,186.2z"/>
					<path class="st37" d="M535.3,222.3L497,245.5l-10.7,6.4l-3.2,18.2c-0.9,5,4.6,8.8,8.9,6.2l40.3-24.1c1.8-1.1,2.9-3,2.9-5.1
						L535.3,222.3z"/>
					<path class="st36" d="M451.3,265.4l22.5,13c3.6,2.1,8.2-0.1,8.9-4.2l3.7-22.2l-33.5-19.4l-4.4,26.6
						C448,261.7,449.2,264.1,451.3,265.4z"/>
					<path class="st5" d="M513,117.7c0,0.6,0.5,1.1,1.1,1.1h1.1c0.6,0,1.1-0.5,1.1-1.1v-12.1c0-0.6-0.5-1.1-1.1-1.1h-1.1
						c-0.6,0-1.1,0.5-1.1,1.1V117.7z"/>
					<path class="st5" d="M507,121.5c0,0.6,0.5,1.1,1.1,1.1h1.1c0.6,0,1.1-0.5,1.1-1.1v-12.1c0-0.6-0.5-1.1-1.1-1.1h-1.1
						c-0.6,0-1.1,0.5-1.1,1.1V121.5z"/>
					<path class="st5" d="M501,126.2c0,0.6,0.5,1.1,1.1,1.1h1.1c0.6,0,1.1-0.5,1.1-1.1v-12.1c0-0.6-0.5-1.1-1.1-1.1h-1.1
						c-0.6,0-1.1,0.5-1.1,1.1V126.2z"/>
					<g>
						<g>
							<defs>
								<path id="SVGID_00000145755339647437395620000008310049136972526256_" d="M521.3,193.7L521.3,193.7c-6.6-23.9,5-75.7,5-75.7
									l-50.7,36.2c15.4,16.7,1,41.7-3,47.8c-0.3,0.5-0.7,0.9-0.9,1.4l0,0l0,0c-2.7,4.5-2,8.7,2.5,11.3c7.7,4.4,23.6,2.4,35.6-4.6
									C518.7,204.9,523,198.4,521.3,193.7z"/>
							</defs>
							<clipPath id="SVGID_00000106123132832234180770000000225123571237212837_">
								<use xlink:href="#SVGID_00000145755339647437395620000008310049136972526256_"  style="overflow:visible;"/>
							</clipPath>
							<path style="clip-path:url(#SVGID_00000106123132832234180770000000225123571237212837_);fill:#FFCD15;" d="M510.9,133.6
								l-0.3,56c0,0,5.7,18.5,6.3,17.7c0.5-0.8,8.7-15.2,8.7-15.2l1-76.9L510.9,133.6z"/>
						</g>
					</g>
					<path class="st37" d="M458.2,269.5l19.8,11.1c0,0,2.2,2.2,4.9,1.4c2.7-0.8,48.4-29.1,48.4-29.1s-26.9,2.2-27.7,2.4
						c-0.8,0.3-25,6.8-26.4,7.3C475.9,263.2,458.2,269.5,458.2,269.5z"/>
					<path class="st36" d="M486.4,252l-4.4,30.1c0,0-1.2,0.3-3.7-0.5c-2.4-0.8-28.4-16.4-28.4-16.4s-2-1.2-1.4-6.8
						c0.7-5.6,4.3-25.7,4.3-25.7L486.4,252z"/>
					<g>
						<path class="st5" d="M457.3,159.2c0,1.8,1.4,2.5,3.2,1.6l7.6-4.1c1.7-1,3.2-3.3,3.2-5.3v-2.3c0-1.9-1.4-2.6-3.2-1.6l-7.7,3.9
							c-1.8,1-3.2,3.3-3.2,5.1v2.7H457.3z"/>
						<path class="st57" d="M458.2,159.8c0,1.8,1.4,2.5,3.2,1.6l7.6-4.1c1.7-1,3.2-3.3,3.2-5.3v-2.3c0-1.9-1.4-2.6-3.2-1.6l-7.7,3.9
							c-1.8,1-3.2,3.3-3.2,5.1v2.7H458.2z"/>
					</g>
					<g>
						<g>
							<defs>
								<path id="SVGID_00000063594847089733118630000017220932398283842694_" d="M521.3,193.7L521.3,193.7c-6.6-23.9,5-75.7,5-75.7
									l-50.7,36.2c15.4,16.7,1,41.7-3,47.8c-0.3,0.5-0.7,0.9-0.9,1.4l0,0l0,0c-2.7,4.5-2,8.7,2.5,11.3c7.7,4.4,23.6,2.4,35.6-4.6
									C518.7,204.9,523,198.4,521.3,193.7z"/>
							</defs>
							<clipPath id="SVGID_00000000218527193585689730000007011053986464184202_">
								<use xlink:href="#SVGID_00000063594847089733118630000017220932398283842694_"  style="overflow:visible;"/>
							</clipPath>
							<path style="clip-path:url(#SVGID_00000000218527193585689730000007011053986464184202_);fill:#F7A200;" d="M509,130.8
								c0,0,17.7-10.3,20.2-20.6l-0.8,16.9l-19,16.3L509,130.8z"/>
						</g>
					</g>
					<path class="st5" d="M513.3,131.1c-0.7,0.4-1.3,0.9-2.1,1.3c-1.6,0.9-3.2,1.7-4.9,2.4c-2.4,35.8,1.9,68.8,5.9,73.8
						c3-2,5.3-4.1,6.9-6.2C509.9,187.1,511.3,146,513.3,131.1z"/>
					<path class="st17" d="M501.8,139.1c0,0,20.9-10.6,26.5-25.3l-26.8,17.4l-5.8,4.5L501.8,139.1z"/>
					<g>
						<g>
							<defs>
								<path id="SVGID_00000072983419583381793850000015224777170054011283_" d="M517.5,128.8l1-1.6c7.9-8.7,13.3-16.5,13.3-26.4
									v-1.4c0-9.6-5.5-15.6-13-15.7l0,0c-13.8-0.2-29.1,4.3-44.5,13.2L419.5,130c12.9,9.6,25.2,24.6,25.2,39.9
									c0,8.4-3,14.3-7.8,17.1c-2.8,1.6,0,0,0,0l27.4-14.1c0,0,11.4-5.7,12.6-8.9c1.2-3.3,5-9.8,8-13.3
									C487.6,147.4,515,132.1,517.5,128.8z"/>
							</defs>
							<clipPath id="SVGID_00000158736525156060235440000011269201313788690071_">
								<use xlink:href="#SVGID_00000072983419583381793850000015224777170054011283_"  style="overflow:visible;"/>
							</clipPath>
							<g style="clip-path:url(#SVGID_00000158736525156060235440000011269201313788690071_);">
								<path class="st9" d="M493.1,125.5c-0.1,0-0.2,0-0.2-0.1C492.9,125.5,493,125.5,493.1,125.5z"/>
								<path class="st8" d="M491.6,125.1c-0.6-1.1-0.8-2.4-0.6-4c1.1-7.8,12.6-18.4,25.7-23.7c7.4-3,13.8-3.6,17.7-2.2
									c-2.4-4.3-10.7-4.8-21.1-0.5c-13.1,5.3-24.6,15.9-25.7,23.7C487,121.7,488.6,124,491.6,125.1z"/>
							</g>
						</g>
					</g>
				</g>
			</g>
		</g>
	</g>
</g>
</svg>
