<?xml version="1.0" encoding="UTF-8"?>
<svg width="48px" height="48px" viewBox="0 0 48 48" version="1.1" xmlns="http://www.w3.org/2000/svg" xmlns:xlink="http://www.w3.org/1999/xlink">
    <title>aai / specified items / bicycle</title>
    <g id="aai-/-specified-items-/-bicycle" stroke="none" stroke-width="1" fill="none" fill-rule="evenodd">
        <path d="M35.6778,19.468 C31.2538817,19.468 27.6678,23.0540817 27.6678,27.478 C27.6678,31.9020575 31.2540208,35.489 35.6778,35.489 C40.1023988,35.489 43.6888,31.9022379 43.6888,27.478 C43.6888,23.0539013 40.1025379,19.468 35.6778,19.468 Z M12.0103,19.468 C16.4343575,19.468 20.0213,23.0542208 20.0213,27.478 C20.0213,31.9019183 16.4342183,35.489 12.0103,35.489 C7.58652076,35.489 4.0003,31.9020575 4.0003,27.478 C4.0003,23.0540817 7.58638168,19.468 12.0103,19.468 Z M12.0103,21.76 C8.85221832,21.76 6.2923,24.3199183 6.2923,27.478 C6.2923,30.6363241 8.85246067,33.197 12.0103,33.197 C15.1683817,33.197 17.7293,30.6360817 17.7293,27.478 C17.7293,24.3201607 15.1686241,21.76 12.0103,21.76 Z M35.6778,21.76 C38.8367529,21.76 41.3968,24.3197895 41.3968,27.478 C41.3968,30.6364529 38.8365105,33.197 35.6778,33.197 C32.5199607,33.197 29.9598,30.6363241 29.9598,27.478 C29.9598,24.3199183 32.5197183,21.76 35.6778,21.76 Z" id="fill---light" fill="#0076C2"></path>
        <path d="M15.5963,13.0001 C16.0855454,13.0001 16.4887738,13.3683823 16.5438817,13.8428434 L16.5503,13.9541 L16.55,15.766 L28.362,15.766 L28.6341135,14.9081 L26.6622,14.9081 C26.1353203,14.9081 25.7082,14.4809797 25.7082,13.9541 C25.7082,13.4648546 26.0764823,13.0616262 26.5509434,13.0065183 L26.6622,13.0001 L32.1942,13.0001 C32.7210797,13.0001 33.1482,13.4272203 33.1482,13.9541 C33.1482,14.4433454 32.7799177,14.8465738 32.3054566,14.9016817 L32.1942,14.9081 L30.6371135,14.9081 L30.257,16.104 L30.2893385,16.1408539 L30.3596513,16.2468664 L36.5056513,27.0048664 C36.8498667,27.6073833 36.4558218,28.3492413 35.7906009,28.4256626 L35.6773,28.4321 L25.6373,28.4321 L25.5423961,28.4274603 C25.5514099,28.4283598 25.5604349,28.4291315 25.5694681,28.4297752 L25.5671135,28.4291 L25.5694681,28.4297752 L25.6373,28.4321 L25.5671135,28.4291 L25.5488692,28.4281257 C25.519823,28.4254973 25.4912229,28.4215866 25.4631155,28.416457 C25.4523361,28.4142 25.4410677,28.4119104 25.4298372,28.4094166 C25.4032815,28.4039255 25.3773993,28.3970515 25.3520193,28.3891532 L25.3237092,28.3793205 L25.3237092,28.3793205 C25.1818346,28.3306386 25.0569367,28.2494078 24.955868,28.1459321 L24.9400797,28.1291385 L15.9931135,18.5441 L12.9156439,27.7796813 C12.7490299,28.2795232 12.2087606,28.5496578 11.7089187,28.3830439 C11.2447798,28.2283309 10.9787048,27.7514356 11.0764626,27.2838956 L11.1055561,27.1763187 L14.6421135,16.5651 L14.642,14.908 L11.9083,14.9081 C11.5434052,14.9081 11.1856251,15.3145612 11.1176383,15.8604032 L11.1072219,15.9887194 C11.0831233,16.6160689 11.435527,16.9961 12.3183,16.9961 C12.8451797,16.9961 13.2723,17.4232203 13.2723,17.9501 C13.2723,18.4769797 12.8451797,18.9041 12.3183,18.9041 C10.336698,18.9041 9.13558116,17.6088192 9.20062808,15.9154806 C9.25788809,14.4248552 10.2948405,13.1016383 11.7397962,13.005667 L11.9083,13.0001 L15.5963,13.0001 Z M29.478,18.552 L26.941,26.524 L34.033,26.524 L29.478,18.552 Z M27.755,17.674 L17.7911135,17.6741 L25.2221135,25.6351 L27.755,17.674 Z" id="fill---dark" fill="#005B88"></path>
    </g>
</svg>