<?xml version="1.0" encoding="UTF-8"?>
<svg width="48px" height="48px" viewBox="0 0 48 48" version="1.1" xmlns="http://www.w3.org/2000/svg" xmlns:xlink="http://www.w3.org/1999/xlink">
    <title>aai / specified items / camera</title>
    <g id="aai-/-specified-items-/-camera" stroke="none" stroke-width="1" fill="none" fill-rule="evenodd">
        <path d="M27.0002,12.015 C27.5992,11.915 28.2002,12.315 28.3002,12.915 C28.5002,13.315 28.5992,13.815 28.7002,14.216 C28.8002,14.716 29.3002,15.116 29.8002,15.015 L29.8002,15.015 L41.0992,15.015 C41.8002,15.116 42.2002,15.815 42.0992,16.515 L42.0992,16.515 L42.0992,36.515 C42.0002,37.116 41.3002,37.616 40.5992,37.415 L40.5992,37.415 L7.6002,37.415 C6.4002,37.415 6.0002,37.015 6.0002,35.816 L6.0002,35.816 L6.0002,16.015 C6.2002,15.315 6.9002,14.815 7.6002,15.015 L7.6002,15.015 L15.6002,15.015 C16.2002,15.116 16.8002,14.616 16.9002,14.015 C17.1002,13.616 17.2002,13.216 17.3002,12.815 C17.4002,12.315 17.9002,11.915 18.4002,12.015 L18.4002,12.015 Z M39.0992,17.015 L9.0002,17.015 C8.2002,17.015 8.0002,17.216 8.0002,18.015 L8.0002,18.015 L8.0002,34.415 C8.0002,35.215 8.2002,35.415 9.0002,35.415 L9.0002,35.415 L39.2002,35.415 C39.8002,35.316 40.3002,34.715 40.2002,34.015 C40.2002,28.715 40.2002,23.315 40.0992,18.015 C40.0992,17.216 40.0002,17.015 39.0992,17.015 L39.0992,17.015 Z M22.7,19.4152 C26.4,19.4152 29.5,22.4152 29.5,26.2152 C29.5,30.0152 26.5,33.0152 22.7,33.0152 C18.9,33.0152 15.9,30.0152 15.9,26.2152 C15.9,22.5152 18.9,19.4152 22.7,19.4152 Z" id="fill---dark" fill="#005B88"></path>
        <path d="M32.7998,19.7156 L36.5998,19.7156 C36.9998,19.7156 37.2998,20.0156 37.2998,20.4156 L37.2998,20.9156 C37.2998,21.3156 36.9998,21.6156 36.5998,21.6156 L32.7998,21.6156 C32.4008,21.6156 32.0998,21.3156 32.0998,20.9156 L32.0998,20.4156 C32.0998,20.1156 32.4008,19.7156 32.7998,19.7156" id="fill---light" fill="#0076C2"></path>
    </g>
</svg>