<?xml version="1.0" encoding="UTF-8"?>
<svg width="48px" height="48px" viewBox="0 0 48 48" version="1.1" xmlns="http://www.w3.org/2000/svg" xmlns:xlink="http://www.w3.org/1999/xlink">
    <title>aai / specified items / cards</title>
    <g id="aai-/-specified-items-/-cards" stroke="none" stroke-width="1" fill="none" fill-rule="evenodd">
        <path d="M30.9375978,4.00017524 L31.7274933,11.4596252 L40.5961897,11.9362802 L38.8847208,43.6983908 L15.2886103,42.4269198 L15.5515137,37.6202698 L10.8014041,38.1278887 L7.43963141,6.49686237 L30.9375978,4.00017524 Z M32.0162201,14.1597443 L34.2993667,35.6300737 L18.2492676,37.3335724 L18.113,39.8896 L36.347,40.8726 L37.77,14.4726 L32.0162201,14.1597443 Z M28.551,6.9536 L10.393,8.8826 L13.187,35.1736 L31.345,33.2436 L28.551,6.9536 Z" id="fill---dark" fill="#005B88"></path>
        <path d="M23.7563,20.7844 C26.4063,21.5994 28.4413,23.8794 28.7473,26.7534 C28.7803,27.0704 28.7903,27.3854 28.7803,27.6954 L28.7803,27.6954 L14.5293,29.2104 C14.4553,28.9084 14.3973,28.5994 14.3643,28.2814 C14.0593,25.4084 15.5683,22.7514 17.9893,21.3974 L17.9893,21.3974 L21.2813,24.9354 Z M23.6555,15.9858 C23.8635,17.9428 22.6185,19.6788 20.8745,19.8638 C19.1315,20.0488 17.5495,18.6128 17.3415,16.6568 C17.1335,14.6998 18.3785,12.9638 20.1215,12.7778 C21.8655,12.5928 23.4475,14.0288 23.6555,15.9858 Z" id="fill---light" fill="#0076C2"></path>
    </g>
</svg>