<?xml version="1.0" encoding="UTF-8"?>
<svg width="48px" height="48px" viewBox="0 0 48 48" version="1.1" xmlns="http://www.w3.org/2000/svg" xmlns:xlink="http://www.w3.org/1999/xlink">
    <title>aai / specified items / coins</title>
    <g id="aai-/-specified-items-/-coins" stroke="none" stroke-width="1" fill="none" fill-rule="evenodd">
        <path d="M22.2966,9.0001 C30.9513714,9.0001 38.0727685,12.1651532 38.9374713,16.2224085 L38.9295152,16.1858952 L38.9295152,16.1858952 C42.1262104,17.6526042 44.1189,19.7229654 44.1189,22.0179 L44.1189,24.3289 C44.1189,27.0166473 41.3832129,29.3971822 37.1789072,30.8600423 L37.2465804,30.8363721 L37.2465804,30.8363721 C35.9710248,34.67438 29.0612096,37.6066 20.7288,37.6066 C11.4898,37.6066 3.9998,34.0016 3.9998,29.5536 L3.9998,27.2426 C3.9998,25.5297298 5.11051121,23.941722 7.00409015,22.6364164 C6.08125523,21.6369329 5.5676,20.5299224 5.5676,19.3651 L5.5676,17.0541 C5.5676,12.6061 13.0576,9.0001 22.2966,9.0001 Z M8.44952055,23.885445 L8.37917962,23.9363789 C7.26119677,24.7726945 6.6248,25.7346555 6.6248,26.7582 C6.6248,29.9822 12.9388,32.5942 20.7288,32.5942 C22.2576681,32.5942 23.729722,32.4935907 25.1083733,32.3074911 L25.1451565,32.3099501 C17.5553098,31.8196644 11.5773436,28.879078 10.7578359,25.1963057 L10.7297758,25.1831375 C9.87883592,24.7910126 9.11376859,24.3560515 8.44952055,23.885445 Z M39.0256,19.3651 C39.0256,23.3512766 33.0093856,26.6604182 25.1111397,27.3046048 L25.1852243,27.2984796 L25.1852243,27.2984796 C25.9037866,27.3448534 26.6404999,27.3691 27.3909,27.3691 C35.1809,27.3691 41.4949,24.7561 41.4949,21.5331 C41.4949,20.3082111 40.5835024,19.1715173 39.0260276,18.2328103 L39.0256,17.0541 L39.0256,19.3651 Z M22.2961,10.7322 C14.5061,10.7322 8.1921,13.3452 8.1921,16.5692 C8.1921,19.7932 14.5061,22.4052 22.2961,22.4052 C30.0861,22.4052 36.4011,19.7932 36.4011,16.5692 C36.4011,13.3452 30.0861,10.7322 22.2961,10.7322 Z" id="fill---light" fill="#005B88"></path>
        <path d="M23.1516,11.9261 C23.1596,12.3771 23.1636,12.6031 23.1716,13.0541 C24.3656,13.1221 25.3806,13.3031 26.2216,13.5951 C25.7586,14.1321 25.5246,14.4011 25.0486,14.9371 C24.3096,14.6331 23.5916,14.4811 22.8916,14.4811 C22.4616,14.4811 22.1116,14.5351 21.8396,14.6441 C21.5676,14.7531 21.4296,14.8751 21.4276,15.0121 C21.4266,15.1361 21.5336,15.2551 21.7506,15.3661 C21.9676,15.4781 22.2556,15.5691 22.6126,15.6371 C23.0206,15.7111 23.2256,15.7491 23.6356,15.8231 C24.7876,16.0341 25.6296,16.2941 26.1616,16.6021 C26.6976,16.9091 26.9856,17.3091 27.0236,17.8001 C27.0456,18.0981 26.9996,18.3631 26.8846,18.5931 C26.7686,18.8221 26.5646,19.0281 26.2726,19.2081 C25.9786,19.3881 25.5876,19.5471 25.0986,19.6831 C24.6076,19.8201 24.0056,19.9451 23.2946,20.0561 C23.3026,20.5191 23.3066,20.7501 23.3156,21.2121 L21.5856,21.2121 C21.5896,20.7681 21.5906,20.5471 21.5936,20.1031 C21.2116,20.1031 20.8056,20.0791 20.3756,20.0331 C19.9456,19.9861 19.5236,19.9241 19.1086,19.8461 C18.6946,19.7691 18.3106,19.6781 17.9556,19.5761 C17.6016,19.4731 17.3136,19.3661 17.0896,19.2541 C17.7196,18.6911 18.0296,18.4091 18.6446,17.8461 C19.7456,18.3631 20.8396,18.6201 21.9126,18.6201 C22.3586,18.6201 22.7466,18.5581 23.0766,18.4341 C23.4046,18.3101 23.5666,18.1481 23.5616,17.9491 C23.5556,17.6761 23.1666,17.4731 22.3956,17.3431 C21.9916,17.2761 21.7896,17.2421 21.3866,17.1751 C20.7876,17.0761 20.2776,16.9671 19.8596,16.8491 C19.4416,16.7311 19.1026,16.5941 18.8416,16.4391 C18.5826,16.2831 18.3956,16.1081 18.2796,15.9121 C18.1646,15.7161 18.1156,15.4911 18.1316,15.2361 C18.1486,14.9681 18.2356,14.7111 18.3926,14.4621 C18.5486,14.2141 18.7746,13.9911 19.0696,13.7951 C19.3636,13.5991 19.7236,13.4351 20.1506,13.3011 C20.5746,13.1681 21.0736,13.0851 21.6486,13.0541 C21.6516,12.6031 21.6536,12.3771 21.6566,11.9261 L23.1516,11.9261 Z" id="fill---light" fill="#0076C2"></path>
    </g>
</svg>