<?xml version="1.0" encoding="UTF-8"?>
<svg width="48px" height="48px" viewBox="0 0 48 48" version="1.1" xmlns="http://www.w3.org/2000/svg" xmlns:xlink="http://www.w3.org/1999/xlink">
    <title>aai / specified items / collections</title>
    <g id="aai-/-specified-items-/-collections" stroke="none" stroke-width="1" fill="none" fill-rule="evenodd">
        <path d="M35.3187414,5.0564655 L6.33577584,5.0564655 L6.33577584,34.0394311 L35.3187414,34.0394311 L35.3187414,5.0564655 Z M12,40 L12,37 L37.9997758,36.9994655 L38,11 L41,11 L41,40 L12,40 Z M32.539,7.835 L32.539,31.26 L9.114,31.26 L9.114,7.835 L32.539,7.835 Z" id="fill---dark" fill="#005B88"></path>
        <path d="M16.4830517,13.9534552 C16.2149138,14.3109724 15.9467759,15.4729034 15.8573966,15.920731 C15.7680172,16.3676276 16.0361552,16.4570069 15.9467759,16.7251448 C15.8573966,16.9932828 15.2308103,17.7092483 15.0520517,17.8880069 C14.8732931,18.0658345 14.6945345,18.2455241 14.7839138,18.4242828 C14.8732931,18.6030414 15.4989483,18.7818 15.5892586,18.8711793 C15.6786379,18.9605586 15.4105,19.3180759 15.4105,19.4968345 C15.4105,19.6755931 15.6786379,19.7649724 15.6786379,19.7649724 C15.6786379,19.7649724 15.4989483,19.8543517 15.4989483,20.0331103 C15.4989483,20.2128 15.5892586,20.2128 15.8573966,20.3012483 C16.1255345,20.3915586 15.7680172,20.7490759 15.7680172,21.1065931 C15.7680172,21.4641103 16.3042931,21.5534897 16.840569,21.642869 C17.6459138,21.7322483 17.8237414,21.642869 18.003431,21.642869 C18.5397069,21.9110069 18.8972241,23.5207655 18.7184655,24.6826966 C18.6188448,25.3260414 18.4503276,25.3092828 18.4503276,25.3092828 C18.4503276,25.3092828 18.1821897,25.4880414 18.003431,25.6668 C17.8237414,25.8455586 15.8573966,28.7960069 15.8573966,28.7960069 C16.4830517,29.1544552 16.572431,29.1544552 17.8237414,28.7960069 C19.0759828,28.4384897 22.294569,26.5615241 23.3680517,26.2924552 C24.4406034,26.0243172 24.4406034,26.5615241 24.4406034,26.5615241 L24.7990517,26.6499724 C24.7990517,26.6499724 24.8875,26.3818345 24.7990517,25.5774207 C24.7087414,24.7730069 23.8149483,23.9676621 23.2786724,22.9844897 C22.7423966,22.0003862 22.6520862,21.0172138 22.6520862,21.0172138 C22.6520862,21.0172138 22.9211552,20.8384552 23.5468103,20.8384552 C24.1724655,20.8384552 23.8661552,20.3077655 24.7990517,19.7649724 C25.185431,19.5405931 24.5523276,18.1002828 24.4406034,17.7976966 C24.2450862,17.2698 24.6249483,16.8899379 24.6249483,16.8899379 C24.6249483,16.8899379 25.2450172,16.188869 25.6928448,15.7419724 C26.1397414,15.2941448 26.6760172,14.757869 26.8557069,14.489731 C27.0335345,14.2215931 26.6760172,14.1322138 26.4972586,14.1322138 C26.3185,14.1322138 26.3185,14.757869 26.0503621,14.5791103 C25.7822241,14.4003517 26.0503621,13.9534552 26.0503621,13.9534552 C25.6034655,13.5065586 25.0671897,13.9534552 25.0671897,13.9534552 C25.0671897,13.9534552 24.9768793,13.5959379 24.7990517,13.4171793 C24.6193621,13.2374897 24.1724655,13.7746966 24.1724655,13.7746966 C24.1724655,13.7746966 24.0830862,13.5065586 24.0830862,13.2374897 C24.0830862,12.9693517 24.4406034,12.6127655 24.4406034,12.6127655 L22.3839483,11.1817655 C22.3839483,11.1817655 22.026431,11.7180414 21.7582931,11.6286621 C21.4901552,11.5392828 21.7582931,11.1817655 21.4901552,11.0030069 C21.2220172,10.8242483 20.9538793,11.2711448 20.7751207,11.1817655 C20.595431,11.0923862 20.8645,10.3773517 20.5069828,10.2870414 C20.1494655,10.1976621 19.8803966,10.5561103 19.702569,10.8242483 C19.5228793,11.0923862 19.4335,10.7339379 19.4335,10.7339379 C19.4335,10.7339379 19.2547414,10.4658 19.3441207,10.1976621 C19.4335,9.92952414 19.1653621,10.0189034 19.1653621,10.0189034 C19.1653621,10.0189034 18.4503276,10.6454897 18.4503276,11.0030069 C18.4503276,11.3605241 18.271569,11.8968 18.271569,11.8968 C18.271569,11.8968 18.0928103,11.9861793 18.003431,12.0755586 C17.9140517,12.1649379 17.8237414,12.5224552 17.8237414,12.5224552 L17.4671552,12.5224552 C17.0193276,12.5224552 16.7511897,12.7012138 16.572431,13.0596621 C16.572431,13.0596621 16.3936724,13.5065586 16.4830517,13.9534552" id="fill---light" fill="#0076C2"></path>
    </g>
</svg>