<?xml version="1.0" encoding="UTF-8"?>
<svg width="48px" height="48px" viewBox="0 0 48 48" version="1.1" xmlns="http://www.w3.org/2000/svg" xmlns:xlink="http://www.w3.org/1999/xlink">
    <title>aai / specified items / high-value</title>
    <g id="aai-/-specified-items-/-high-value" stroke="none" stroke-width="1" fill="none" fill-rule="evenodd">
        <path d="M26.3625,15.8034 L26.3355,15.8034 L17.8155,15.8034 L10.6975,23.4694 L26.3465,41.0934 L26.3625,41.1064 L41.9995,23.4694 L34.8805,15.8034 L26.3625,15.8034 Z M28.7025,18.5614 L34.3445,18.5144 L31.5445,21.8704 L28.7025,18.5614 Z M18.9625,18.5144 L24.6025,18.5614 L21.7585,21.8704 L18.9625,18.5144 Z M26.6505,19.1664 L29.4955,22.4774 L23.8545,22.5224 L26.6505,19.1664 Z M33.4185,22.8514 L35.7505,19.8214 L38.4535,22.9434 L33.4185,22.8514 Z M17.6095,19.8214 L19.9405,22.8514 L14.9045,22.9434 L17.6095,19.8214 Z M22.9735,24.6204 L30.2005,24.6204 L26.5625,37.2094 L22.9735,24.6204 Z M32.5805,24.7154 L38.1295,24.7154 L29.2215,35.1124 L32.5805,24.7154 Z M15.2325,24.7154 L20.7825,24.7154 L24.1375,35.1124 L15.2325,24.7154 Z" id="fill---dark" fill="#005B88"></path>
        <path d="M10,9 C10.1666667,10.1666667 10.5833333,11.0833333 11.25,11.75 C11.9166667,12.4166667 12.8333333,12.8333333 14,13 C12.8333333,13.1666667 11.9166667,13.5833333 11.25,14.25 C10.5833333,14.9166667 10.1666667,15.8333333 10,17 C9.83333333,15.8333333 9.41666667,14.9166667 8.75,14.25 C8.08333333,13.5833333 7.16666667,13.1666667 6,13 C7.16666667,12.8333333 8.08333333,12.4166667 8.75,11.75 C9.41666667,11.0833333 9.83333333,10.1666667 10,9 Z M22,4 C22.1666667,5.16666667 22.5833333,6.08333333 23.25,6.75 C23.9166667,7.41666667 24.8333333,7.83333333 26,8 C24.8333333,8.16666667 23.9166667,8.58333333 23.25,9.25 C22.5833333,9.91666667 22.1666667,10.8333333 22,12 C21.8333333,10.8333333 21.4166667,9.91666667 20.75,9.25 C20.0833333,8.58333333 19.1666667,8.16666667 18,8 C19.1666667,7.83333333 20.0833333,7.41666667 20.75,6.75 C21.4166667,6.08333333 21.8333333,5.16666667 22,4 Z" id="fill---light" fill="#0076C2"></path>
    </g>
</svg>