<?xml version="1.0" encoding="UTF-8"?>
<svg width="48px" height="48px" viewBox="0 0 48 48" version="1.1" xmlns="http://www.w3.org/2000/svg" xmlns:xlink="http://www.w3.org/1999/xlink">
    <title>aai / specified items / medals</title>
    <g id="aai-/-specified-items-/-medals" stroke="none" stroke-width="1" fill="none" fill-rule="evenodd">
        <path d="M23.9434,20.8273 C17.7380278,20.8273 12.7074,25.8586273 12.7074,32.0643 C12.7074,38.2699727 17.7380278,43.3013 23.9434,43.3013 C30.1495973,43.3013 35.1804,38.2701476 35.1804,32.0643 C35.1804,25.8584524 30.1495973,20.8273 23.9434,20.8273 Z M23.9434,23.4293 C28.7125119,23.4293 32.5784,27.2954568 32.5784,32.0643 C32.5784,36.8331432 28.7125119,40.6993 23.9434,40.6993 C19.1751537,40.6993 15.3094,36.8330088 15.3094,32.0643 C15.3094,27.2955912 19.1751537,23.4293 23.9434,23.4293 Z M32.8457,5.4193 C32.8457,5.4193 33.5547,4.0003 34.2637,4.9463 C34.6457,5.7093 37.5757,11.3333 37.5757,11.3333 C37.5757,11.3333 38.0497,12.2793 37.5757,13.2263 C37.4703957,13.4369087 36.2828304,15.6705042 34.9994641,18.0809136 L34.7233502,18.5994635 C34.6772067,18.6861152 34.6310308,18.7728243 34.5848675,18.8595066 L34.3083989,19.3786065 C33.7112695,20.4997112 33.1314609,21.5878652 32.6677,22.4583 C30.8217,20.6893 28.4497,19.4673 25.8057,19.0563 L25.8057,19.0563 Z M13.5224,4.9463 C14.2324,4.0003 14.9414,5.4193 14.9414,5.4193 L14.9414,5.4193 L21.9774,19.0523 C19.3334,19.4583 16.9584,20.6763 15.1104,22.4423 C14.6457913,21.5707348 14.066253,20.4833671 13.4699477,19.3639725 L13.1938968,18.8457239 C11.8573515,16.3363331 10.5125203,13.8082622 10.2491106,13.3016119 L10.2104,13.2263 C9.7374,12.2793 10.2104,11.3333 10.2104,11.3333 C10.2104,11.3333 10.9809457,9.85427304 11.7832519,8.31026859 L12.0241578,7.84653198 C12.7052376,6.53510145 13.3558872,5.27888974 13.5224,4.9463 Z M31.7959,3.9996 L27.1619,12.2796 L20.5749,12.2796 L16.1839,3.9996 L31.7959,3.9996 Z" id="fill---dark" fill="#005B88"></path>
        <polygon class="polygon" id="fill---light" fill="#0076C2" points="23.9439 25.3534 25.6399 29.6534 30.2539 29.9384 26.6879 32.8794 27.8429 37.3554 23.9439 34.8734 20.0449 37.3554 21.1999 32.8794 17.6339 29.9384 22.2479 29.6534"></polygon>
    </g>
</svg>