<?xml version="1.0" encoding="UTF-8"?>
<svg width="48px" height="48px" viewBox="0 0 48 48" version="1.1" xmlns="http://www.w3.org/2000/svg" xmlns:xlink="http://www.w3.org/1999/xlink">
    <title>aai / specified items / stamps</title>
    <g id="aai-/-specified-items-/-stamps" stroke="none" stroke-width="1" fill="none" fill-rule="evenodd">
        <path d="M7.4919,3.9996 C7.4899,4.0326 7.4869,4.0656 7.4869,4.0996 C7.4869,4.8416 8.0659,5.4426 8.7799,5.4426 C8.8479,5.4426 8.9139,5.4356 8.9789,5.4246 C9.5984,5.3248 10.0734,4.7708 10.0734,4.0998 C10.0734,4.0658 10.0704,4.0328 10.0684,3.9998 L10.0684,3.9998 L13.1024,3.9998 C13.1004,4.0328 13.0974,4.0658 13.0974,4.0998 C13.0974,4.8408 13.6764,5.4418 14.3904,5.4418 C15.1044,5.4418 15.6834,4.8408 15.6834,4.0998 C15.6834,4.0658 15.6814,4.0328 15.6794,3.9998 L15.6794,3.9998 L19.5084,3.9998 C19.5064,4.0328 19.5034,4.0658 19.5034,4.0998 C19.5034,4.8408 20.0824,5.4418 20.7964,5.4418 C21.5114,5.4418 22.0894,4.8408 22.0894,4.0998 C22.0894,4.0658 22.0874,4.0328 22.0854,3.9998 L22.0854,3.9998 L25.9154,3.9998 C25.9124,4.0328 25.9104,4.0658 25.9104,4.0998 C25.9104,4.8408 26.4894,5.4418 27.2034,5.4418 C27.9164,5.4418 28.4964,4.8408 28.4964,4.0998 C28.4964,4.0658 28.4944,4.0328 28.4914,3.9998 L28.4914,3.9998 L32.3214,3.9998 C32.3184,4.0328 32.3164,4.0658 32.3164,4.0998 C32.3164,4.8408 32.8954,5.4418 33.6094,5.4418 C34.3234,5.4418 34.9024,4.8408 34.9024,4.0998 C34.9024,4.0658 34.9004,4.0328 34.8974,3.9998 L34.8974,3.9998 L37.9314,3.9998 C37.9284,4.0328 37.9264,4.0658 37.9264,4.0998 C37.9264,4.7708 38.4014,5.3248 39.0204,5.4248 C39.0863,5.4353 39.1523,5.4423 39.2193,5.4423 C39.9333,5.4423 40.5123,4.8413 40.5123,4.0993 C40.5123,4.0653 40.5103,4.0333 40.5073,3.9993 L40.5073,3.9993 L43.0003,3.9993 L43.0003,6.4413 C42.9663,6.4393 42.9333,6.4373 42.9003,6.4373 C42.1593,6.4373 41.5573,7.0163 41.5573,7.7303 C41.5573,7.8153 41.5663,7.8983 41.5833,7.9793 C41.7034,8.5743 42.2474,9.0233 42.9004,9.0233 C42.9334,9.0233 42.9664,9.0203 42.9994,9.0193 L42.9994,9.0193 L42.9994,12.0523 C42.9664,12.0503 42.9334,12.0473 42.9004,12.0473 C42.1594,12.0473 41.5574,12.6263 41.5574,13.3403 C41.5574,14.0553 42.1594,14.6343 42.9004,14.6343 C42.9334,14.6343 42.9664,14.6313 42.9994,14.6293 L42.9994,14.6293 L42.9994,18.4583 C42.9664,18.4563 42.9334,18.4543 42.9004,18.4543 C42.1594,18.4543 41.5574,19.0323 41.5574,19.7473 C41.5574,20.4613 42.1594,21.0403 42.9004,21.0403 C42.9334,21.0403 42.9664,21.0373 42.9994,21.0353 L42.9994,21.0353 L42.9994,24.8653 C42.9664,24.8623 42.9334,24.8603 42.9004,24.8603 C42.1594,24.8603 41.5574,25.4393 41.5574,26.1533 C41.5574,26.8673 42.1594,27.4463 42.9004,27.4463 C42.9334,27.4463 42.9664,27.4443 42.9994,27.4413 L42.9994,27.4413 L42.9994,31.2713 C42.9664,31.2683 42.9334,31.2663 42.9004,31.2663 C42.1594,31.2663 41.5574,31.8453 41.5574,32.5593 C41.5574,33.2733 42.1594,33.8523 42.9004,33.8523 C42.9334,33.8523 42.9664,33.8503 42.9994,33.8473 L42.9994,33.8473 L42.9994,36.8813 C42.9664,36.8783 42.9334,36.8763 42.9004,36.8763 C42.2104,36.8763 41.6434,37.3763 41.5674,38.0203 L41.5674,38.0203 L41.56015,38.094625 L41.56015,38.094625 L41.5574,38.17 C41.5574,38.884 42.1594,39.463 42.9004,39.463 C42.9334,39.463 42.9664,39.461 42.9994,39.458 L42.9994,39.458 L42.9994,41.95 L40.5104,41.95 C40.5114,41.933 40.5124,41.917 40.5124,41.9 C40.5124,41.159 39.9334,40.557 39.2194,40.557 C39.1524,40.557 39.0854,40.564 39.0204,40.575 C38.4009,40.6743 37.9269,41.2293 37.9269,41.9003 C37.9269,41.9333 37.9289,41.9663 37.9319,41.9993 L37.9319,41.9993 L34.8969,41.9993 C34.8999,41.9663 34.9019,41.9333 34.9019,41.9003 C34.9019,41.1593 34.3229,40.5573 33.6089,40.5573 C32.8959,40.5573 32.3159,41.1593 32.3159,41.9003 C32.3159,41.9333 32.3179,41.9663 32.3209,41.9993 L32.3209,41.9993 L28.4909,41.9993 C28.4939,41.9663 28.4959,41.9333 28.4959,41.9003 C28.4959,41.1593 27.9169,40.5573 27.2029,40.5573 C26.4889,40.5573 25.9099,41.1593 25.9099,41.9003 C25.9099,41.9333 25.9119,41.9663 25.9149,41.9993 L25.9149,41.9993 L22.0849,41.9993 C22.0869,41.9663 22.0899,41.9333 22.0899,41.9003 C22.0899,41.1593 21.5109,40.5573 20.7969,40.5573 C20.0829,40.5573 19.5039,41.1593 19.5039,41.9003 C19.5039,41.9333 19.5059,41.9663 19.5079,41.9993 L19.5079,41.9993 L15.6789,41.9993 C15.6809,41.9663 15.6839,41.9333 15.6839,41.9003 C15.6839,41.1593 15.1049,40.5573 14.3909,40.5573 C13.6759,40.5573 13.0979,41.1593 13.0979,41.9003 C13.0979,41.9333 13.0999,41.9663 13.1019,41.9993 L13.1019,41.9993 L10.0679,41.9993 C10.0709,41.9663 10.0729,41.9333 10.0729,41.9003 C10.0729,41.2293 9.5989,40.6743 8.9789,40.5753 L8.9789,40.5753 L8.880325,40.562175 L8.880325,40.562175 L8.7797,40.5573 C8.0657,40.5573 7.4867,41.1593 7.4867,41.9003 C7.4867,41.9333 7.4897,41.9663 7.4917,41.9993 L7.4917,41.9993 L4.9997,41.9993 L4.9997,39.5073 C5.0327,39.5103 5.0657,39.5123 5.0997,39.5123 C5.8417,39.5123 6.4427,38.9333 6.4427,38.2193 C6.4427,38.1523 6.4357,38.0853 6.4247,38.0203 L6.4247,38.0203 L6.39894652,37.8988439 C6.25051333,37.3397067 5.72616667,36.9268 5.0999,36.9268 C5.0659,36.9268 5.0329,36.9288 4.9999,36.9318 L4.9999,36.9318 L4.9999,33.8968 C5.0329,33.8998 5.0659,33.9018 5.0999,33.9018 C5.8409,33.9018 6.4419,33.3228 6.4419,32.6088 C6.4419,31.8958 5.8409,31.3158 5.0999,31.3158 C5.0659,31.3158 5.0329,31.3178 4.9999,31.3208 L4.9999,31.3208 L4.9999,27.4908 C5.0329,27.4938 5.0659,27.4958 5.0999,27.4958 C5.8409,27.4958 6.4419,26.9168 6.4419,26.2028 C6.4419,25.4888 5.8409,24.9098 5.0999,24.9098 C5.0659,24.9098 5.0329,24.9118 4.9999,24.9148 L4.9999,24.9148 L4.9999,21.0848 C5.0329,21.0868 5.0659,21.0898 5.0999,21.0898 C5.8409,21.0898 6.4419,20.5108 6.4419,19.7968 C6.4419,19.0828 5.8409,18.5038 5.0999,18.5038 C5.0659,18.5038 5.0329,18.5058 4.9999,18.5078 L4.9999,18.5078 L4.9999,14.6788 C5.0329,14.6808 5.0659,14.6838 5.0999,14.6838 C5.8409,14.6838 6.4419,14.1048 6.4419,13.3908 C6.4419,12.6758 5.8409,12.0978 5.0999,12.0978 C5.0659,12.0978 5.0329,12.0998 4.9999,12.1018 L4.9999,12.1018 L4.9999,9.0678 C5.0329,9.0708 5.0659,9.0728 5.0999,9.0728 C5.7709,9.0728 6.3249,8.5988 6.4249,7.9788 L6.4249,7.9788 L6.437525,7.880225 L6.437525,7.880225 L6.4419,7.7796 C6.4419,7.0656 5.8409,6.4866 5.0999,6.4866 C5.0659,6.4866 5.0329,6.4896 4.9999,6.4916 L4.9999,6.4916 L4.9999,3.9996 Z M8.9787,38.0193 L39.0204,38.0203 L39.0204,7.9788 L8.9789,7.9788 L8.9787,38.0193 Z" id="fill---dark" fill="#005B88"></path>
        <path d="M18.2338,15.5999 C17.8778,16.0739 17.5228,17.6149 17.4038,18.2079 C17.2848,18.8009 17.6408,18.9189 17.5228,19.2749 C17.4038,19.6309 16.5738,20.5789 16.3368,20.8159 C16.0998,21.0529 15.8628,21.2899 15.9818,21.5279 C16.0998,21.7649 16.9298,22.0019 17.0478,22.1199 C17.1668,22.2389 16.8108,22.7129 16.8108,22.9499 C16.8108,23.1869 17.1668,23.3059 17.1668,23.3059 C17.1668,23.3059 16.9298,23.4249 16.9298,23.6609 C16.9298,23.8979 17.0478,23.8979 17.4038,24.0169 C17.7588,24.1359 17.2848,24.6099 17.2848,25.0839 C17.2848,25.5579 17.9968,25.6769 18.7078,25.7959 C19.7748,25.9139 20.0118,25.7959 20.2488,25.7959 C20.9608,26.1509 21.4348,28.2849 21.1968,29.8259 C21.0668,30.6799 20.8418,30.6559 20.8418,30.6559 C20.8418,30.6559 20.4858,30.8929 20.2488,31.1299 C20.0118,31.3669 17.4038,35.2789 17.4038,35.2789 C18.2338,35.7539 18.3518,35.7539 20.0118,35.2789 C21.6718,34.8059 25.9398,32.3149 27.3618,31.9599 C28.7848,31.6039 28.7848,32.3149 28.7848,32.3149 L29.2588,32.4339 C29.2588,32.4339 29.3778,32.0789 29.2588,31.0119 C29.1408,29.9439 27.9548,28.8779 27.2428,27.5729 C26.5318,26.2689 26.4138,24.9659 26.4138,24.9659 C26.4138,24.9659 26.7698,24.7279 27.5998,24.7279 C28.4288,24.7279 27.9548,24.2539 28.1918,24.0169 C28.4288,23.7799 28.7848,23.6609 29.2588,23.3059 C29.7338,22.9499 29.2588,22.4759 29.2588,21.8829 C29.2588,21.2899 29.0218,21.0529 28.7848,20.6979 C28.5478,20.3419 28.7848,19.6309 28.7848,19.6309 C28.7848,19.6309 29.8518,18.5639 30.4438,17.9709 C31.0368,17.3779 31.7488,16.6669 31.9848,16.3109 C32.2228,15.9549 31.7488,15.8369 31.5118,15.8369 C31.2748,15.8369 31.2748,16.6669 30.9188,16.4299 C30.5638,16.1929 30.9188,15.5999 30.9188,15.5999 C30.3258,15.0069 29.6138,15.5999 29.6138,15.5999 C29.6138,15.5999 29.4958,15.1259 29.2588,14.8889 C29.0218,14.6509 28.4288,15.3629 28.4288,15.3629 C28.4288,15.3629 28.3108,15.0069 28.3108,14.6509 C28.3108,14.2959 28.7848,13.8219 28.7848,13.8219 L26.0588,11.9249 C26.0588,11.9249 25.5838,12.6359 25.2288,12.5169 C24.8728,12.3989 25.2288,11.9249 24.8728,11.6879 C24.5168,11.4509 24.1608,12.0429 23.9238,11.9249 C23.6868,11.8059 24.0428,10.8579 23.5678,10.7389 C23.0938,10.6209 22.7388,11.0949 22.5018,11.4509 C22.2648,11.8059 22.1458,11.3319 22.1458,11.3319 C22.1458,11.3319 21.9088,10.9759 22.0268,10.6209 C22.1458,10.2649 21.7898,10.3839 21.7898,10.3839 C21.7898,10.3839 20.8418,11.2129 20.8418,11.6879 C20.8418,12.1619 20.6048,12.8729 20.6048,12.8729 C20.6048,12.8729 20.3678,12.9919 20.2488,13.1099 C20.1298,13.2289 20.0118,13.7029 20.0118,13.7029 L19.5378,13.7029 C18.9448,13.7029 18.5888,13.9399 18.3518,14.4139 C18.3518,14.4139 18.1148,15.0069 18.2338,15.5999" id="fill---light" fill="#0076C2"></path>
    </g>
</svg>