<?xml version="1.0" encoding="UTF-8"?>
<svg width="48px" height="48px" viewBox="0 0 48 48" version="1.1" xmlns="http://www.w3.org/2000/svg" xmlns:xlink="http://www.w3.org/1999/xlink">
    <title>aai / specified items / tools</title>
    <g id="aai-/-specified-items-/-tools" stroke="none" stroke-width="1" fill="none" fill-rule="evenodd">
        <path d="M30.5347,26.9338 L40.5447,36.9438 C42.0697,38.4688 42.0287,40.9668 40.4207,42.4388 C38.8887,43.8418 36.4617,43.6138 34.9927,42.1448 L34.9927,42.1448 L25.1587,32.3108 L30.5347,26.9338 Z M13.6336,5.5113 C14.3156,4.8293 15.4196,4.8293 16.1016,5.5113 L16.1016,5.5113 L19.0106,8.4203 C19.6916,9.1023 19.6916,10.2063 19.0106,10.8883 L19.0106,10.8883 L15.6816,14.2163 C15.5296,14.3693 15.5246,14.6113 15.6776,14.7643 L15.6776,14.7643 L21.5776,20.6643 C21.7316,20.8183 21.9466,20.8703 22.1616,20.8333 C22.2366,20.8203 22.3126,20.8293 22.3886,20.8213 L22.3886,20.8213 L19.0436,24.1663 C19.0506,24.1023 19.0416,24.0373 19.0516,23.9733 C19.0906,23.7353 19.0306,23.4943 18.8606,23.3233 L18.8606,23.3233 L12.9936,17.4573 C12.8406,17.3053 12.5936,17.3053 12.4406,17.4573 L12.4406,17.4573 L10.6336,19.2643 L5.1326,24.7663 C4.6446,25.2533 3.8536,25.2533 3.3656,24.7663 C3.0776,24.4773 2.9476,24.0643 3.0196,23.6633 L3.0196,23.6633 L4.8416,17.2603 C5.1956,15.1413 6.9556,12.1883 8.0126,11.1323 L8.0126,11.1323 Z" id="fill---dark" fill="#005B88"></path>
        <path d="M12.6782,41.8958 L9.2852,40.9868 L8.3772,37.5938 L10.8602,35.1108 L14.2522,36.0198 L15.1612,39.4128 L12.6782,41.8958 Z M44.9282,11.7518 C44.8812,11.4138 44.5942,11.2048 44.2982,11.2048 C44.1422,11.2048 43.9832,11.2618 43.8562,11.3898 L40.9372,14.3088 C40.7882,14.4578 40.5942,14.5318 40.3992,14.5318 C40.2042,14.5318 40.0102,14.4578 39.8612,14.3088 L36.3662,10.8138 C36.0702,10.5168 36.0702,10.0358 36.3662,9.7388 L39.3852,6.7208 C39.7472,6.3588 39.5502,5.7408 39.0462,5.6518 C38.6272,5.5768 38.2022,5.5398 37.7782,5.5398 C35.7692,5.5398 33.7612,6.3718 32.3152,8.0368 C30.8622,9.7078 30.3162,11.9128 30.6692,13.9878 C30.7012,14.1778 30.7932,14.7498 30.7212,15.1158 C30.6512,15.4698 30.4192,15.6198 30.4192,15.6198 L13.7512,32.2878 C13.1372,32.1008 12.5022,32.0078 11.8672,32.0078 C10.2142,32.0078 8.5612,32.6378 7.3002,33.8998 C4.7762,36.4228 4.7762,40.5158 7.3002,43.0398 C8.5622,44.3018 10.2162,44.9328 11.8702,44.9328 C13.5242,44.9328 15.1782,44.3018 16.4402,43.0398 C18.1862,41.2928 18.7222,38.7968 18.0522,36.5878 L34.7202,19.9198 C34.7202,19.9198 35.0192,19.5718 35.4262,19.5508 C35.4382,19.5498 35.4512,19.5498 35.4642,19.5498 C35.8542,19.5498 36.3312,19.8398 36.5612,19.8788 C36.9652,19.9488 37.3742,19.9828 37.7832,19.9828 C39.6302,19.9828 41.4762,19.2808 42.8862,17.8708 C44.5542,16.2028 45.2342,13.9208 44.9282,11.7518 L44.9282,11.7518 Z" id="fill---light" fill="#0076C2"></path>
    </g>
</svg>