<?xml version="1.0" encoding="UTF-8"?>
<svg width="48px" height="48px" viewBox="0 0 48 48" version="1.1" xmlns="http://www.w3.org/2000/svg" xmlns:xlink="http://www.w3.org/1999/xlink">
    <title>aai / specified items / works-of-art</title>
    <g id="aai-/-specified-items-/-works-of-art" stroke="none" stroke-width="1" fill="none" fill-rule="evenodd">
        <path d="M39,10.0006 L39,13.4996 L43.4,14.0006 L40.7,37.5996 L7,33.8006 L5,33.8006 L5,10.0006 L39,10.0006 Z M39.1,14.9996 L39.1,33.7006 L20.4,33.7006 L39.5,35.8996 L41.9,15.2996 L39.1,14.9996 Z M37.601,11.5996 L6.6,11.5996 L6.6,32.2996 L37.601,32.2996 L37.601,11.5996 Z" id="fill---dark" fill="#005B88"></path>
        <path d="M14.9002,14.9 L24.4002,26.3 L27.9002,22.4 L34.2002,31.2 L7.9002,31.2 L14.9002,14.9 Z M31.7996,13.4001 C33.3466,13.4001 34.6006,14.6531 34.6006,16.2001 C34.6006,17.7461 33.3466,19.0001 31.7996,19.0001 C30.2536,19.0001 28.9996,17.7461 28.9996,16.2001 C28.9996,14.6531 30.2536,13.4001 31.7996,13.4001 Z" id="fill---light" fill="#0076C2"></path>
    </g>
</svg>