<?xml version="1.0" encoding="UTF-8"?>
<svg width="48px" height="48px" viewBox="0 0 48 48" version="1.1" xmlns="http://www.w3.org/2000/svg" xmlns:xlink="http://www.w3.org/1999/xlink">
    <title>aai / utilities / award</title>
    <g id="aai-/-utilities-/-award" stroke="none" stroke-width="1" fill="none" fill-rule="evenodd">
        <polygon class="polygon" id="fill---light" fill="#0076C2" points="6 31.084 12.971 32.856 13.591 39.835 20.912 33.398 20.511 42.411 26.619 38.613 32.08 43 32.535 32.78 32.132 32.722 30.678 34.233 30.457 39.345 26.754 36.365 22.455 39.04 22.713 33.048 21.126 33.331 21.114 33.308 21.097 33.311 20.211 31.631 15.104 36.132 14.685 31.397 9.779 30.151 14.567 25.928 14.806 24.265 14.304 23.785"></polygon>
        <path d="M29.7838,4.9995 L31.6738,6.8375 L34.2668,6.3735 L35.5018,8.7025 L38.1158,9.0615 L38.5628,11.6625 L40.9388,12.8105 L40.5648,15.4195 L42.4658,17.2445 L41.3038,19.6135 L42.5488,21.9365 L40.7128,23.8295 L41.1788,26.4235 L38.8468,27.6555 L38.4858,30.2705 L35.8898,30.7185 L34.7398,33.0935 L32.1328,32.7215 L30.3078,34.6195 L27.9388,33.4605 L25.6158,34.7045 L25.5908,34.6795 L25.5848,34.6815 L23.7168,32.8685 L21.1268,33.3315 L21.1138,33.3075 L21.0968,33.3115 L19.8788,30.9995 L17.2848,30.6425 L17.2788,30.6245 L17.2558,30.6215 L16.8048,28.0345 L14.4578,26.8935 L14.4598,26.8855 L14.4308,26.8735 L14.8048,24.2645 L12.9028,22.4415 L14.0628,20.0745 L12.8198,17.7515 L13.1298,17.4285 L13.1498,17.4605 L14.6908,15.8785 L14.6648,15.7675 L14.6478,15.7895 L14.1918,13.2605 L14.5128,13.0885 L14.5178,13.1245 L16.5548,12.0535 L16.5928,11.7735 L16.5558,11.7885 L16.8828,9.4165 L17.1208,9.3755 L17.1158,9.4025 L19.5038,8.9865 L19.6918,8.6035 L19.6498,8.6135 L20.6278,6.5915 L20.7268,6.6045 L20.7178,6.6205 L23.2658,6.9875 L25.0888,5.0835 L27.4598,6.2485 L29.7838,4.9995 Z M32.6878,9.5805 C27.0168,6.8165 20.1798,9.1705 17.4158,14.8425 C14.6518,20.5115 17.0078,27.3505 22.6788,30.1145 C28.3478,32.8775 35.1848,30.5225 37.9498,24.8525 C40.7148,19.1805 38.3568,12.3445 32.6878,9.5805 Z M19.8232,16.0133 C21.9382,11.6733 27.1732,9.8703 31.5152,11.9873 C35.8542,14.1023 37.6592,19.3373 35.5442,23.6773 C33.4262,28.0183 28.1922,29.8223 23.8512,27.7073 C19.5112,25.5913 17.7052,20.3553 19.8232,16.0133 Z" id="fill---dark" fill="#005B88"></path>
    </g>
</svg>