<?xml version="1.0" encoding="UTF-8"?>
<svg width="48px" height="48px" viewBox="0 0 48 48" version="1.1" xmlns="http://www.w3.org/2000/svg" xmlns:xlink="http://www.w3.org/1999/xlink">
    <title>aai / utilities / calculator</title>
    <g id="aai-/-utilities-/-calculator" stroke="none" stroke-width="1" fill="none" fill-rule="evenodd">
        <path d="M36.0022,15.2046 C36.0022,16.2436 35.1312,17.0846 34.0602,17.0846 L14.6342,17.0846 C13.5602,17.0846 12.6912,16.2436 12.6912,15.2046 L12.6912,9.6806 C12.6912,8.6416 13.5602,7.8016 14.6342,7.8016 L34.0602,7.8016 C35.1312,7.8016 36.0022,8.6416 36.0022,9.6806 L36.0022,15.2046 Z M34.9592,23.2666 C34.9592,24.0906 34.2892,24.7576 33.4642,24.7576 L31.9702,24.7576 C31.1452,24.7576 30.4762,24.0906 30.4762,23.2666 L30.4762,21.7696 C30.4762,20.9426 31.1452,20.2746 31.9702,20.2746 L33.4642,20.2746 C34.2892,20.2746 34.9592,20.9426 34.9592,21.7696 L34.9592,23.2666 Z M34.9592,37.7506 C34.9592,38.5766 34.2892,39.2456 33.4642,39.2456 L31.9702,39.2456 C31.1452,39.2456 30.4762,38.5766 30.4762,37.7506 L30.4762,28.9436 C30.4762,28.1166 31.1452,27.4496 31.9702,27.4496 L33.4642,27.4496 C34.2892,27.4496 34.9592,28.1166 34.9592,28.9436 L34.9592,37.7506 Z M26.4542,23.2666 C26.4542,24.0906 25.7852,24.7576 24.9602,24.7576 L23.4642,24.7576 C22.6402,24.7576 21.9712,24.0906 21.9712,23.2666 L21.9712,21.7696 C21.9712,20.9426 22.6402,20.2746 23.4642,20.2746 L24.9602,20.2746 C25.7852,20.2746 26.4542,20.9426 26.4542,21.7696 L26.4542,23.2666 Z M26.4542,30.4386 C26.4542,31.2636 25.7852,31.9326 24.9602,31.9326 L23.4642,31.9326 C22.6402,31.9326 21.9712,31.2636 21.9712,30.4386 L21.9712,28.9436 C21.9712,28.1166 22.6402,27.4496 23.4642,27.4496 L24.9602,27.4496 C25.7852,27.4496 26.4542,28.1166 26.4542,28.9436 L26.4542,30.4386 Z M26.4542,37.6096 C26.4542,38.4356 25.7852,39.1046 24.9602,39.1046 L23.4642,39.1046 C22.6402,39.1046 21.9712,38.4356 21.9712,37.6096 L21.9712,36.1176 C21.9712,35.2916 22.6402,34.6216 23.4642,34.6216 L24.9602,34.6216 C25.7852,34.6216 26.4542,35.2916 26.4542,36.1176 L26.4542,37.6096 Z M17.9512,23.2666 C17.9512,24.0906 17.2812,24.7576 16.4552,24.7576 L14.9612,24.7576 C14.1362,24.7576 13.4672,24.0906 13.4672,23.2666 L13.4672,21.7696 C13.4672,20.9426 14.1362,20.2746 14.9612,20.2746 L16.4552,20.2746 C17.2812,20.2746 17.9512,20.9426 17.9512,21.7696 L17.9512,23.2666 Z M17.9512,30.4386 C17.9512,31.2636 17.2812,31.9326 16.4552,31.9326 L14.9612,31.9326 C14.1362,31.9326 13.4672,31.2636 13.4672,30.4386 L13.4672,28.9436 C13.4672,28.1166 14.1362,27.4496 14.9612,27.4496 L16.4552,27.4496 C17.2812,27.4496 17.9512,28.1166 17.9512,28.9436 L17.9512,30.4386 Z M17.9512,37.6096 C17.9512,38.4356 17.2812,39.1046 16.4552,39.1046 L14.9612,39.1046 C14.1362,39.1046 13.4672,38.4356 13.4672,37.6096 L13.4672,36.1176 C13.4672,35.2916 14.1362,34.6226 14.9612,34.6226 L16.4552,34.6226 C17.2812,34.6226 17.9512,35.2916 17.9512,36.1176 L17.9512,37.6096 Z M36.0002,4.9996 L12.6922,4.9996 C11.2052,4.9996 10.0002,6.2056 10.0002,7.6906 L10.0002,40.3126 C10.0002,41.7986 11.2052,42.9996 12.6922,42.9996 L36.0002,42.9996 C37.4882,42.9996 38.6912,41.7986 38.6912,40.3126 L38.6912,7.6906 C38.6912,6.2056 37.4882,4.9996 36.0002,4.9996 L36.0002,4.9996 Z" id="fill" fill="#005B88"></path>
    </g>
</svg>