<?xml version="1.0" encoding="UTF-8"?>
<svg width="48px" height="48px" viewBox="0 0 48 48" version="1.1" xmlns="http://www.w3.org/2000/svg" xmlns:xlink="http://www.w3.org/1999/xlink">
    <title>aai / utilities / calendar</title>
    <g id="aai-/-utilities-/-calendar" stroke="none" stroke-width="1" fill="none" fill-rule="evenodd">
        <path d="M6.763,40.238 L40.657,40.238 L40.657,17.591 L6.763,17.591 L6.763,40.238 Z M40.657,10.509 L38.544,10.509 L38.544,13.113 C38.544,14.699 37.358,15.989 35.9,15.989 L34.2,15.989 C32.742,15.989 31.555,14.699 31.555,13.113 L31.555,10.509 L27.099,10.509 L27.099,13.113 C27.099,14.699 25.912,15.989 24.454,15.989 L22.754,15.989 C21.297,15.989 20.11,14.699 20.11,13.113 L20.11,10.509 L15.654,10.509 L15.654,13.113 C15.654,14.699 14.468,15.989 13.01,15.989 L11.309,15.989 C9.851,15.989 8.664,14.699 8.664,13.113 L8.664,10.509 L6.763,10.509 C5.789,10.509 5,11.297 5,12.27 L5,40.238 C5,41.212 5.789,42 6.763,42 L40.657,42 C41.629,42 42.418,41.212 42.418,40.238 L42.418,12.27 C42.418,11.297 41.629,10.509 40.657,10.509 L40.657,10.509 Z" id="fill---dark" fill="#005B88"></path>
        <path d="M14.406,34 L14.406,38.409 L10,38.409 L10,34 L14.406,34 Z M22.406,34 L22.406,38.409 L18,38.409 L18,34 L22.406,34 Z M14.406,27 L14.406,31.406 L10,31.406 L10,27 L14.406,27 Z M22.406,27 L22.406,31.406 L18,31.406 L18,27 L22.406,27 Z M29.406,27 L29.406,31.406 L25,31.406 L25,27 L29.406,27 Z M37.406,27 L37.406,31.406 L33,31.406 L33,27 L37.406,27 Z M14.406,20 L14.406,24.406 L10,24.406 L10,20 L14.406,20 Z M22.406,20 L22.406,24.406 L18,24.406 L18,20 L22.406,20 Z M29.406,20 L29.406,24.406 L25,24.406 L25,20 L29.406,20 Z M37.406,20 L37.406,24.406 L33,24.406 L33,20 L37.406,20 Z M34.968,5.9999 C35.892,5.9999 36.641,6.7489 36.641,7.6719 L36.641,7.6719 L36.641,12.5999 C36.641,13.5229 35.892,14.2719 34.968,14.2719 C34.044,14.2719 33.296,13.5229 33.296,12.5999 L33.296,12.5999 L33.296,7.6719 C33.296,6.7489 34.044,5.9999 34.968,5.9999 Z M12.0549,5.9999 C12.9789,5.9999 13.7279,6.7489 13.7279,7.6719 L13.7279,7.6719 L13.7279,12.5999 C13.7279,13.5229 12.9789,14.2719 12.0549,14.2719 C11.1309,14.2719 10.3819,13.5229 10.3819,12.5999 L10.3819,12.5999 L10.3819,7.6719 C10.3819,6.7489 11.1309,5.9999 12.0549,5.9999 Z M23.512,5.9999 C24.435,5.9999 25.184,6.7489 25.184,7.6719 L25.184,7.6719 L25.184,12.5999 C25.184,13.5229 24.435,14.2719 23.512,14.2719 C22.589,14.2719 21.839,13.5229 21.839,12.5999 L21.839,12.5999 L21.839,7.6719 C21.839,6.7489 22.589,5.9999 23.512,5.9999 Z" id="fill---light" fill="#0076C2"></path>
    </g>
</svg>