<?xml version="1.0" encoding="UTF-8"?>
<svg width="48px" height="48px" viewBox="0 0 48 48" version="1.1" xmlns="http://www.w3.org/2000/svg" xmlns:xlink="http://www.w3.org/1999/xlink">
    <title>aai / utilities / checklist</title>
    <g id="aai-/-utilities-/-checklist" stroke="none" stroke-width="1" fill="none" fill-rule="evenodd">
        <path d="M24.2745,6.3433 C23.5845,6.3433 23.0225,6.9053 23.0225,7.5943 C23.0225,8.2863 23.5845,8.8473 24.2745,8.8473 C24.9645,8.8473 25.5265,8.2863 25.5265,7.5943 C25.5265,6.9053 24.9645,6.3433 24.2745,6.3433 L24.2745,6.3433 Z M15.4584,9.0649 C14.5624,9.6689 13.7534,10.5789 13.5724,12.1269 L13.5724,12.1269 L11.0814,12.1269 L11.0814,41.3519 L28.5694,41.3519 C29.4124,41.3419 29.8184,41.0999 30.0614,40.8249 C30.3054,40.5439 30.4014,40.1489 30.4004,39.7849 L30.4004,39.7849 L30.4004,34.1929 L35.1534,34.1929 C35.4354,34.1929 35.6634,34.4219 35.6634,34.7029 C35.6634,34.9849 35.4354,35.2139 35.1534,35.2139 L35.1534,35.2139 L31.4214,35.2139 L31.4214,39.7849 C31.4214,40.2579 31.3164,40.8239 30.9634,41.3219 C31.3464,41.2559 31.4594,41.1049 31.7274,40.8479 L31.7274,40.8479 L31.8020546,40.7742075 C31.9464831,40.6309475 32.2638656,40.3142875 32.6749781,39.9035875 L33.5363121,39.0426969 C33.9714742,38.6076031 34.4404884,38.138485 34.8902809,37.6885075 L35.6326211,36.9457875 C35.6912632,36.88711 35.748894,36.8294431 35.8053589,36.7729419 L36.545544,36.03222 C36.627418,35.95028 36.7015335,35.8761025 36.7666526,35.8109275 L37.0395079,35.5378275 C37.06369,35.5136225 37.0764,35.5009 37.0764,35.5009 C37.2914,35.2249 37.4674,34.7029 37.4674,34.2679 L37.4674,34.2679 L37.4674,12.1269 L34.9774,12.1269 C34.7974,10.5789 33.9884,9.6689 33.0934,9.0649 L33.0934,9.0649 L38.6724,9.0649 C39.7084,9.0649 40.5504,9.9069 40.5504,10.9399 L40.5504,10.9399 L40.5504,42.1219 C40.5504,43.1619 39.7084,43.9999 38.6724,43.9999 L38.6724,43.9999 L9.8764,43.9999 C8.8394,43.9999 8.0004,43.1619 8.0004,42.1219 L8.0004,42.1219 L8.0004,10.9399 C8.0004,9.9069 8.8394,9.0649 9.8764,9.0649 L9.8764,9.0649 Z M24.2745,4.0003 C26.2575,4.0003 27.1795,5.4893 28.0265,7.2833 C28.6107195,8.51476341 29.6515625,9.04770988 30.6699256,9.50773228 L31.0276344,9.66808381 C32.3300895,10.2524071 33.5005,10.837861 33.5005,12.7803 L15.0485,12.7803 C15.0485,9.1603 19.1145,10.2533 20.5235,7.2833 C21.3705,5.4893 22.2925,4.0003 24.2745,4.0003 Z" id="fill---dark" fill="#005B88"></path>
        <path d="M29.9429,22.2666 C27.1579,26.0686 23.2049,31.7576 23.1649,31.8156 C22.8989,32.2006 22.4719,32.4426 22.0049,32.4796 C21.9649,32.4826 21.9259,32.4846 21.8859,32.4846 C21.4619,32.4846 21.0529,32.3106 20.7579,31.9976 L16.5049,27.5166 L18.7619,25.3736 L21.7029,28.4736 C23.0889,26.4916 25.5299,23.0266 27.4319,20.4286 L28.3509,19.1726 L30.8619,21.0126 L29.9429,22.2666 Z" id="fill---light" fill="#0076C2"></path>
    </g>
</svg>