<?xml version="1.0" encoding="UTF-8"?>
<svg width="48px" height="48px" viewBox="0 0 48 48" version="1.1" xmlns="http://www.w3.org/2000/svg" xmlns:xlink="http://www.w3.org/1999/xlink">
    <title>aai / utilities / gears</title>
    <g id="aai-/-utilities-/-gears" stroke="none" stroke-width="1" fill="none" fill-rule="evenodd">
        <path d="M24,29.147 C21.159,29.147 18.852,26.836 18.852,24 C18.852,21.151 21.159,18.856 24,18.856 C26.839,18.856 29.142,21.151 29.142,24 C29.142,26.836 26.839,29.147 24,29.147 L24,29.147 Z M34.907,9.453 L30.259,12.767 C29.397,12.292 28.478,11.902 27.508,11.626 L26.571,6 L21.425,6 L20.486,11.635 C19.517,11.902 18.597,12.292 17.735,12.772 L13.088,9.453 L9.454,13.082 L12.769,17.734 C12.292,18.594 11.904,19.513 11.627,20.485 L6,21.426 L6,26.567 L11.627,27.513 C11.904,28.479 12.29,29.403 12.769,30.26 L9.454,34.913 L13.088,38.555 L17.735,35.231 C18.597,35.706 19.517,36.1 20.486,36.373 L21.425,42.001 L26.571,42.001 L27.508,36.373 C28.478,36.1 29.397,35.706 30.259,35.227 L34.907,38.546 L38.545,34.913 L35.221,30.26 C35.707,29.395 36.092,28.479 36.367,27.513 L42,26.567 L42,21.426 L36.367,20.485 C36.092,19.513 35.707,18.594 35.221,17.734 L38.545,13.082 L34.907,9.453 Z" id="fill" fill="#005B88"></path>
    </g>
</svg>