<?xml version="1.0" encoding="UTF-8"?>
<svg width="48px" height="48px" viewBox="0 0 48 48" version="1.1" xmlns="http://www.w3.org/2000/svg" xmlns:xlink="http://www.w3.org/1999/xlink">
    <title>aai / utilities / location</title>
    <g id="aai-/-utilities-/-location" stroke="none" stroke-width="1" fill="none" fill-rule="evenodd">
        <path d="M24.226,25.2832 C19.806,25.2832 16.223,21.6992 16.223,17.2792 C16.223,12.8612 19.806,9.2792 24.226,9.2792 C28.644,9.2792 32.227,12.8612 32.227,17.2792 C32.227,21.6992 28.644,25.2832 24.226,25.2832 M24.217,5.0002 C16.917,5.0002 11,10.9162 11,18.2162 C11,19.2092 11.119,20.1772 11.329,21.1072 L11.57,22.0532 C12.216,24.1832 24.217,43.0002 24.217,43.0002 C24.217,43.0002 36.837,23.1072 37.108,21.1072 C37.302,19.6932 37.437,19.2092 37.437,18.2162 C37.437,10.9162 31.518,5.0002 24.217,5.0002" id="fill---dark" fill="#005B88"></path>
        <path d="M27.5907,17.2803 C27.5907,15.4183 26.0807,13.9093 24.2187,13.9093 C22.3567,13.9093 20.8467,15.4183 20.8467,17.2803 C20.8467,19.1423 22.3567,20.6533 24.2187,20.6533 C26.0807,20.6533 27.5907,19.1423 27.5907,17.2803" id="fill---light" fill="#0076C2"></path>
    </g>
</svg>