<?xml version="1.0" encoding="UTF-8"?>
<svg width="48px" height="48px" viewBox="0 0 48 48" version="1.1" xmlns="http://www.w3.org/2000/svg" xmlns:xlink="http://www.w3.org/1999/xlink">
    <title>aai / utilities / print</title>
    <g id="aai-/-utilities-/-print" stroke="none" stroke-width="1" fill="none" fill-rule="evenodd">
        <path d="M38.3371,30.5319 L36.1071,30.5319 C35.4901,30.5319 34.9921,30.0329 34.9921,29.4169 C34.9921,28.8009 35.4901,28.3019 36.1071,28.3019 L38.3371,28.3019 C38.9531,28.3019 39.4521,28.8009 39.4521,29.4169 C39.4521,30.0329 38.9531,30.5319 38.3371,30.5319 L38.3371,30.5319 Z M34.9921,36.2209 C34.9921,37.4549 33.9941,38.4519 32.7621,38.4519 L14.9201,38.4519 C13.6881,38.4519 12.6911,37.4549 12.6911,36.2209 L12.6911,33.9919 L34.9921,33.9919 L34.9921,36.2209 Z M37.2221,21.6109 L37.2221,23.8419 L10.4601,23.8419 L10.4601,21.6109 C7.9971,21.6109 6.0001,23.6079 6.0001,26.0709 L6.0001,39.4519 C6.0001,40.6849 6.9971,41.6819 8.2301,41.6819 L39.4521,41.6819 C40.6851,41.6819 41.6831,40.6839 41.6831,39.4519 L41.6831,26.0709 C41.6831,23.6079 39.6851,21.6109 37.2221,21.6109 L37.2221,21.6109 Z" id="fill---dark" fill="#005B88"></path>
        <path d="M34.993,5.9994 L34.993,21.6104 L12.691,21.6104 L12.691,5.9994 L34.993,5.9994 Z M32.762,8.2304 L14.921,8.2304 L14.921,19.3814 L32.762,19.3814 L32.762,8.2304 Z M30.532,14.9204 L30.532,17.1504 L17.151,17.1504 L17.151,14.9204 L30.532,14.9204 Z M30.532,10.4604 L30.532,12.6904 L17.151,12.6904 L17.151,10.4604 L30.532,10.4604 Z" id="fill---light" fill="#0076C2"></path>
    </g>
</svg>