<?xml version="1.0" encoding="UTF-8"?>
<svg width="48px" height="48px" viewBox="0 0 48 48" version="1.1" xmlns="http://www.w3.org/2000/svg" xmlns:xlink="http://www.w3.org/1999/xlink">
    <title>aai / utilities / search</title>
    <g id="aai-/-utilities-/-search" stroke="none" stroke-width="1" fill="none" fill-rule="evenodd">
        <path d="M20.25,29.998 C14.874,29.998 10.5,25.624 10.5,20.249 C10.5,14.873 14.874,10.499 20.25,10.499 C25.623,10.499 30,14.873 30,20.249 C30,25.624 25.623,29.998 20.25,29.998 M41.122,36.879 L32.509,28.264 C32.41,28.165 32.298,28.088 32.193,28.006 C33.647,25.772 34.499,23.113 34.499,20.249 C34.499,12.379 28.122,6 20.25,6 C12.381,6 6,12.379 6,20.249 C6,28.12 12.381,34.497 20.25,34.497 C23.112,34.497 25.775,33.645 28.01,32.191 C28.092,32.298 28.168,32.407 28.265,32.506 L36.877,41.121 C37.465,41.707 38.233,42 38.998,42 C39.765,42 40.533,41.707 41.122,41.122 C42.291,39.95 42.291,38.051 41.122,36.879" id="fill" fill="#005B88"></path>
    </g>
</svg>